<?xml version="1.0" standalone="no"?>
<!DOCTYPE svg PUBLIC "-//W3C//DTD SVG 20010904//EN"
 "http://www.w3.org/TR/2001/REC-SVG-20010904/DTD/svg10.dtd">
<svg version="1.0" xmlns="http://www.w3.org/2000/svg"
 width="1280.000000pt" height="698.000000pt" viewBox="0 0 1280.000000 698.000000"
 preserveAspectRatio="xMidYMid meet">
<metadata>
Created by potrace 1.15, written by Peter Selinger 2001-2017
</metadata>
<g transform="translate(0.000000,698.000000) scale(0.100000,-0.100000)"
fill="#000000" stroke="none">
<path d="M11011 6810 c-1 -69 -4 -145 -6 -170 -1 -25 -6 -322 -10 -660 -6
-507 -9 -618 -21 -631 -11 -12 -14 -58 -14 -216 0 -166 -3 -203 -15 -213 -13
-11 -15 -57 -15 -299 0 -157 -3 -296 -6 -308 -3 -12 -13 -23 -21 -25 -12 -3
-14 -72 -13 -494 0 -308 -3 -501 -10 -518 -9 -24 -13 -26 -47 -20 l-38 6 0
-434 0 -433 -44 -3 c-40 -3 -42 -5 -35 -25 5 -12 10 -144 11 -293 3 -248 2
-273 -14 -293 -20 -24 -53 -20 -53 6 0 8 -7 44 -15 81 l-16 68 -145 72 c-80
40 -149 70 -153 67 -13 -8 -18 26 -16 103 2 59 0 72 -13 72 -15 0 -52 36 -52
51 0 5 -19 39 -43 76 -23 38 -43 74 -43 81 -1 6 -2 27 -2 46 -2 27 -10 41 -42
66 l-40 31 -40 -33 c-35 -29 -40 -38 -40 -76 0 -27 -8 -56 -24 -80 -13 -20
-35 -60 -49 -89 -17 -33 -37 -56 -55 -64 l-29 -13 -1 -150 c0 -83 0 -208 -1
-278 l-1 -128 -63 0 -64 0 -6 178 c-10 265 -3 245 -106 278 -286 90 -436 131
-442 120 -8 -14 -29 -181 -29 -229 0 -20 -4 -37 -10 -37 -6 0 -10 112 -10 315
0 308 0 315 -20 315 -18 0 -20 7 -20 73 0 61 -3 74 -20 85 -14 8 -20 23 -20
46 0 21 -6 36 -15 40 -10 3 -15 19 -15 45 0 35 -3 40 -22 38 -13 0 -26 -5 -30
-11 -4 -6 -12 -5 -22 4 -9 7 -19 10 -23 6 -10 -10 -35 -78 -37 -101 -1 -11
-10 -33 -20 -48 -16 -23 -25 -28 -46 -23 -15 2 -39 -2 -54 -10 -35 -17 -36
-17 -36 -1 0 8 -9 22 -20 32 -12 11 -20 31 -20 50 0 20 -6 35 -15 39 -8 3 -15
16 -15 30 0 58 -20 65 -134 50 -45 -7 -46 -7 -46 -44 0 -29 -4 -39 -20 -43
-15 -4 -20 -14 -20 -36 0 -17 -8 -40 -17 -51 -14 -16 -17 -35 -15 -84 4 -61 2
-65 -20 -68 -22 -3 -23 -7 -26 -100 l-3 -98 -145 0 c-158 0 -168 -4 -148 -59
17 -45 7 -63 -29 -56 -74 15 -67 -29 -67 426 0 283 -3 408 -10 404 -6 -4 -34
-4 -61 0 -46 7 -50 9 -45 30 7 29 -12 35 -121 35 -77 0 -82 -1 -85 -22 -3 -24
-7 -25 -85 -27 l-43 -1 0 -105 c0 -94 -3 -111 -26 -155 -24 -46 -28 -49 -57
-43 -18 3 -40 13 -49 21 -12 10 -18 11 -18 4 0 -8 -19 -12 -49 -12 -82 0 -81
1 -81 -111 0 -92 -1 -99 -20 -99 -11 0 -21 -3 -21 -7 -1 -5 -4 -134 -8 -288
l-6 -280 -24 -3 c-13 -2 -26 -12 -28 -23 -4 -16 -17 -2 -60 63 l-54 83 3 188
4 187 -58 0 -57 0 -42 -70 c-23 -38 -44 -70 -48 -70 -3 0 -5 116 -3 258 l3
258 -60 13 c-36 8 -72 10 -88 6 -15 -5 -36 -7 -45 -6 -21 3 -18 50 -27 -474
l-6 -370 -46 80 c-41 73 -48 80 -76 80 -17 0 -35 3 -39 7 -4 5 -16 8 -26 8
-17 0 -18 -16 -19 -307 0 -170 -4 -327 -7 -350 l-7 -42 -42 19 c-42 19 -43 20
-43 67 -1 65 -14 79 -79 85 -44 4 -58 10 -74 33 -20 27 -21 27 -101 20 -45 -4
-83 -10 -86 -14 -3 -3 -20 -11 -37 -18 l-33 -11 0 69 c0 53 -4 71 -15 75 -9 4
-15 19 -15 40 0 22 -6 37 -15 40 -8 4 -15 14 -15 24 0 12 -9 20 -22 22 -23 3
-23 5 -30 218 -8 236 -1 448 14 467 12 15 3 19 -64 28 l-48 6 0 92 c0 101 -15
140 -65 173 -21 14 -25 24 -25 65 0 27 -4 49 -10 49 -5 0 -10 -19 -10 -42 0
-37 -4 -45 -29 -60 -55 -30 -66 -61 -66 -175 l0 -103 -26 0 c-14 0 -30 -5 -36
-11 -7 -7 -19 -9 -29 -5 -15 6 -16 20 -11 142 l6 135 -33 14 c-19 8 -54 17
-78 20 -85 12 -88 14 -88 43 0 15 -4 38 -8 52 -6 20 -8 14 -12 -30 l-5 -55
-55 -6 c-65 -7 -130 -27 -130 -40 0 -5 -4 -9 -10 -9 -6 0 -7 84 -3 229 l6 229
-79 8 c-43 4 -118 8 -166 8 l-88 1 0 65 c0 107 -9 140 -35 140 -52 0 -55 6
-55 107 0 68 -4 98 -14 109 -22 22 -696 21 -696 -1 0 -8 -4 -15 -10 -15 -6 0
-10 -42 -10 -105 l0 -105 -40 0 c-24 0 -42 -5 -45 -12 -2 -7 -11 -166 -20
-353 -36 -799 -30 -744 -82 -745 l-23 0 0 199 0 198 -31 7 c-17 3 -47 6 -65 6
-24 0 -34 5 -34 15 0 9 -9 15 -24 15 -18 0 -25 7 -30 30 -3 17 -1 42 5 57 12
33 5 66 -19 90 -11 11 -27 59 -40 118 -36 164 -40 175 -64 175 -12 0 -32 -10
-45 -22 l-23 -21 0 154 c0 85 -4 159 -8 166 -4 6 -30 13 -57 14 l-50 3 -7 -50
c-4 -27 -9 -466 -11 -974 -3 -830 -7 -993 -22 -1009 -3 -2 -5 120 -5 272 0
263 -1 277 -19 287 -11 5 -69 10 -128 10 -74 0 -113 4 -121 12 -10 10 -15 10
-21 -1 -10 -15 -19 31 -23 114 -1 28 -8 61 -15 75 -7 14 -13 42 -13 63 0 28
-3 36 -12 30 -7 -4 -21 -6 -30 -5 -14 3 -18 -4 -18 -24 0 -23 -2 -25 -17 -13
-13 11 -17 11 -20 2 -3 -7 -8 -13 -11 -13 -8 0 -7 107 8 802 7 333 7 500 -1
553 -10 72 -78 284 -113 350 -8 17 -18 47 -21 68 -4 27 -13 41 -30 49 -32 14
-52 -2 -61 -51 -12 -64 -22 -69 -29 -16 -4 28 -11 55 -15 60 -5 6 -10 26 -13
45 -2 19 -4 -24 -4 -95 0 -128 -1 -131 -39 -225 l-38 -95 -7 -285 c-4 -157 -7
-429 -8 -604 -1 -257 -4 -323 -15 -335 -11 -13 -15 -89 -19 -371 -3 -195 -6
-356 -6 -357 -1 -2 -8 -3 -16 -3 -13 0 -15 22 -15 135 l0 134 -62 3 -63 3 -11
85 c-6 47 -17 103 -23 125 -6 22 -11 65 -12 95 -1 40 -3 48 -8 30 -5 -18 -14
-24 -29 -23 -18 2 -22 -2 -23 -30 0 -17 -3 -26 -6 -19 -2 6 -10 12 -16 12 -16
-1 -79 -91 -83 -118 -2 -11 -12 -44 -21 -74 l-18 -53 -52 -3 -53 -3 0 93 c1
51 5 248 10 438 5 190 12 572 16 850 l6 505 -35 75 c-59 128 -146 384 -148
438 -1 19 -4 15 -10 -16 -4 -23 -55 -152 -113 -285 l-106 -242 -2 -632 -3
-633 -100 -1 c-55 -1 -111 -4 -125 -8 -22 -7 -21 -8 16 -14 23 -4 57 -4 74 0
25 5 32 3 28 -8 -2 -8 -19 -15 -36 -17 -18 -2 -32 -7 -32 -12 0 -5 16 -6 35
-3 28 4 35 2 35 -11 0 -10 -9 -16 -25 -16 -15 0 -25 -6 -25 -14 0 -16 -30 -26
-82 -26 l-38 0 0 -167 c0 -200 -6 -243 -30 -243 -16 0 -19 15 -25 130 -8 140
-12 150 -67 150 -25 0 -48 37 -48 77 0 18 -6 23 -25 23 -14 0 -25 4 -25 9 0 5
-8 12 -18 14 -9 3 -3 5 15 6 17 0 35 5 38 11 4 6 -34 10 -106 10 l-111 0 4
-74 c3 -65 1 -75 -14 -80 -12 -3 -18 -14 -18 -35 0 -24 -4 -31 -19 -31 -40 0
-51 -11 -51 -52 0 -40 0 -40 35 -36 49 6 44 -25 -5 -32 -42 -6 -38 18 -48
-310 l-7 -235 -60 -3 c-43 -2 -55 -6 -45 -13 11 -7 8 -10 -15 -8 -80 4 -75 9
-75 -96 0 -78 -3 -97 -16 -102 -25 -9 -35 11 -40 81 -5 85 -17 110 -51 103
-13 -2 -42 1 -63 7 -22 6 -58 10 -80 8 l-40 -4 0 -969 0 -969 6400 0 6400 0 0
818 c-1 681 -3 814 -14 800 -7 -10 -25 -18 -40 -18 -19 0 -26 -5 -26 -19 0
-18 -38 -51 -60 -51 -5 0 -10 10 -10 23 0 12 -9 33 -20 47 -11 14 -20 36 -20
49 0 14 -5 40 -12 58 -12 33 -21 37 -80 33 -14 -1 -29 3 -33 9 -10 17 -105 14
-111 -4 -4 -8 -14 -15 -24 -15 -10 0 -20 -7 -24 -15 -3 -8 -16 -15 -29 -15
-28 0 -37 -28 -37 -116 l0 -54 -40 0 c-29 0 -40 -4 -40 -15 0 -10 -11 -15 -35
-15 -35 0 -35 0 -35 44 0 27 -5 46 -12 48 -9 3 -14 47 -18 154 l-5 149 -55 -1
c-46 -2 -55 -5 -55 -20 0 -14 -6 -18 -22 -16 -24 3 -32 -13 -10 -21 7 -4 6 -6
-4 -6 -17 -1 -34 -41 -18 -41 5 0 4 -9 -3 -20 -7 -11 -23 -20 -35 -20 -19 0
-23 -5 -23 -34 0 -19 -4 -38 -10 -41 -5 -3 -10 -19 -10 -36 0 -16 -4 -29 -10
-29 -5 0 -10 9 -10 21 0 11 -6 27 -14 34 -12 12 -16 11 -32 -6 -10 -11 -29
-19 -44 -18 -14 0 -30 1 -36 0 -13 -1 -23 -41 -31 -121 -6 -67 -18 -83 -52
-75 -21 5 -215 79 -327 125 -20 8 -21 17 -28 291 -4 156 -11 288 -15 294 -5 5
-11 190 -15 410 -4 219 -11 404 -15 410 -8 10 -11 139 -31 1405 -13 841 -12
820 -42 832 -23 9 -26 67 -32 482 -2 218 -8 351 -14 355 -6 3 -13 93 -18 214
-6 175 -9 209 -23 217 -14 7 -17 41 -22 232 -4 174 -6 196 -8 98z m-3314
-3637 c-3 -10 -5 -4 -5 12 0 17 2 24 5 18 2 -7 2 -21 0 -30z"/>
<path d="M1511 4844 c0 -11 3 -14 6 -6 3 7 2 16 -1 19 -3 4 -6 -2 -5 -13z"/>
</g>
</svg>
