<?xml version="1.0" encoding="UTF-8" standalone="no"?>
<svg
   version="1.0"
   width="1279.9968pt"
   height="427.79056pt"
   viewBox="0 0 1279.9968 427.79056"
   preserveAspectRatio="xMidYMid meet"
   id="svg12983"
   sodipodi:docname="city-front.svg"
   inkscape:version="1.1.1 (3bf5ae0d25, 2021-09-20)"
   xmlns:inkscape="http://www.inkscape.org/namespaces/inkscape"
   xmlns:sodipodi="http://sodipodi.sourceforge.net/DTD/sodipodi-0.dtd"
   xmlns="http://www.w3.org/2000/svg"
   xmlns:svg="http://www.w3.org/2000/svg">
  <defs
     id="defs12987" />
  <sodipodi:namedview
     id="namedview12985"
     pagecolor="#ffffff"
     bordercolor="#666666"
     borderopacity="1.0"
     inkscape:pageshadow="2"
     inkscape:pageopacity="0.0"
     inkscape:pagecheckerboard="0"
     inkscape:document-units="pt"
     showgrid="false"
     inkscape:zoom="2.4229456"
     inkscape:cx="-37.763952"
     inkscape:cy="495.4713"
     inkscape:window-width="1920"
     inkscape:window-height="1017"
     inkscape:window-x="-8"
     inkscape:window-y="-8"
     inkscape:window-maximized="1"
     inkscape:current-layer="g12981" />
  <metadata
     id="metadata12977">
Created by potrace 1.15, written by Peter Selinger 2001-2017
</metadata>
  <g
     transform="matrix(0.1,0,0,-0.1,-1.316472,426.03951)"
     fill="#000000"
     stroke="none"
     id="g12981">
    <path
       d="m 4725.1327,4340.8619 c -2,-204 -21,-292 -69,-320 -20,-12 -33,-27 -33,-40 0,-15 -7,-20 -25,-20 -23,0 -25,-4 -25,-47 0,-27 -9,-318 -20,-648 -11,-330 -20,-630 -20,-667 v -68 h -35 c -34,0 -35,1 -35,39 0,22 -6,44 -15,51 -8,7 -15,27 -15,45 0,42 -9,65 -25,65 -7,0 -29,20 -49,44 -29,36 -45,46 -86,55 -63,14 -111,-3 -138,-49 l -19,-31 -17,41 c -9,22 -16,49 -16,60 0,13 -23,35 -67,65 -37,25 -73,45 -79,45 -23,0 -135,-98 -164,-143 -20,-33 -36,-47 -48,-45 -14,3 -18,17 -20,81 l -3,79 -98,-7 c -55,-4 -125,-10 -158,-14 l -58,-6 -3,-162 -2,-163 h -65 -65 l -26,-42 c -15,-24 -30,-45 -34,-48 -15,-12 -40,-81 -41,-112 0,-18 -3,-51 -7,-72 -6,-35 -9,-37 -21,-23 -10,13 -31,17 -88,17 -70,0 -75,-1 -70,-20 4,-15 0,-20 -14,-20 -10,0 -19,-4 -19,-10 0,-5 -11,-10 -25,-10 -22,0 -25,-4 -25,-35 0,-32 -2,-35 -30,-35 h -30 v 69 69 l -132,8 -132,9 -9,43 c -4,23 -14,42 -21,42 -6,0 -21,22 -33,49 l -20,49 -109,4 c -60,3 -115,3 -121,0 -7,-2 -24,-28 -38,-58 -20,-43 -30,-54 -49,-54 -17,0 -26,-7 -30,-25 -5,-20 -13,-25 -36,-25 -23,0 -31,-5 -36,-24 -7,-28 -29,-36 -99,-36 -95,0 -123,-9 -130,-41 -4,-16 -11,-31 -16,-34 -5,-4 -9,-35 -9,-71 0,-64 0,-64 -29,-64 -16,0 -31,6 -35,15 -3,8 -18,15 -33,15 -28,0 -28,1 -28,59 0,33 -3,63 -7,66 -3,4 -27,7 -53,8 l -46,2 -17,-50 c -20,-60 -52,-75 -52,-26 0,24 -4,31 -20,31 -11,0 -20,3 -21,8 0,4 -4,57 -10,117 -5,61 -12,147 -16,193 -5,73 -8,82 -25,82 -13,0 -18,5 -15,13 3,7 -1,24 -9,38 -7,13 -14,40 -15,59 -1,19 -5,0 -9,-44 -6,-56 -14,-86 -30,-108 -25,-34 -36,-103 -46,-280 l -6,-118 -31,-15 c -16,-8 -32,-15 -34,-15 -1,0 -3,17 -4,38 -2,93 -34,119 -64,52 l -18,-40 h -84 c -78.99998,0 -83.99998,-1 -94.99998,-25 -6.00003,-14 -14.00003,-25 -18.00003,-25 -4,0 -10,-9 -13,-21 -10,-39 -24,-10 -19,41 l 5,50 h -37 c -23,0 -35,4 -31,10 11,17 -15,41 -34,31 -25,-13 -41,-2 -41,30 0,29 0,29 -61,29 -73,0 -137,-17 -141,-37 -2,-8 -20,-21 -40,-28 -34,-11 -37,-11 -42,9 -3,12 -6,52 -6,89 0,40 -4,66 -9,62 -6,-3 -11,19 -13,52 l -3,58 -9,-62 c -5,-40 -13,-63 -21,-63 -7,0 -26,-12 -42,-28 -27,-25 -31,-36 -37,-112 -8,-90 -29,-150 -52,-150 -8,0 -17,-7 -20,-15 -3,-8 -21,-19 -39,-25 -22,-7 -35,-19 -39,-35 -4,-14 -10,-24 -14,-23 -4,0 -14,-1 -22,-4 -36,-13 -99,-28 -118.999995,-28 -21,0 -21,-2 -21,-205 L 10.037289,-19.447329 6413.1327,1.2038973 12813.132,-25.061493 v 1694.923393 119 l -39,15 c -36,15 -48,15 -153,-3 -62,-11 -116,-20 -120,-20 -3,0 -16,-16 -28,-36 l -21,-37 -167,7 c -91,4 -170,10 -174,12 -5,3 -8,30 -8,59 0,30 -7,70 -17,90 l -17,35 h -82 c -45,0 -118,-5 -161,-10 -80,-11 -93,-19 -135,-79 l -15,-21 -124,28 -124,28 -7,39 c -4,22 -7,123 -7,225 -1,102 -4,269 -8,372 -6,180 -7,187 -27,190 -20,3 -21,10 -26,143 l -5,140 -55,-3 c -54,-2 -55,-2 -77,37 -22,38 -25,39 -108,55 -108,20 -178,8 -200,-35 -13,-24 -23,-28 -130,-44 l -115,-17 v -171 c 0,-169 0,-170 -20,-152 -11,10 -20,25 -20,33 0,12 -9,13 -46,8 -26,-3 -64,-6 -85,-6 -33,0 -40,-4 -45,-26 l -6,-25 -22,20 c -23,22 -84,29 -101,12 -6,-5 -35,-11 -65,-13 l -55,-3 -7,40 c -4,22 -7,57 -7,78 -1,34 -3,37 -30,37 -21,0 -32,6 -36,19 -9,30 -92,54 -132.9998,40 -19,-7 -32,-18 -32,-28 0,-19 -37.9995,-41 -69.9995,-41 -17,0 -20,-7 -20,-45 v -45 h -117 c -176,0 -161,-13 -167,149 -3,75 -8,162 -11,194 l -7,57 h -44 c -40,0 -45,-3 -58,-34 -19,-45 -42,-56 -118,-56 h -63 l -52,-63 -53,-62 v -111 c 0,-136 -7,-177 -28,-169 -21,8 -42,-13 -42,-41 0,-13 -4,-24 -10,-24 -5,0 -10,25 -10,55 v 54 l -36,7 c -33,6 -187,1 -223,-8 -11,-2 -15,8 -16,37 -1,33 -5,41 -23,43 -21,3 -22,8 -22,115 0,110 -1,114 -40,194 -28,58 -41,102 -46,149 -7,70 -17,68 -28,-7 -4,-25 -18,-72 -31,-105 l -25,-59 v 52 c 0,28 -4,54 -8,57 -15,9 -387,19 -435,12 l -47,-7 v -203 -202 l -42,5 c -38,5 -43,9 -50,41 -5,19 -8,62 -8,94 v 59 l -82,-6 c -44,-3 -95,-3 -112,0 l -31,5 3,60 4,61 -54,-6 c -29,-4 -74,-7 -99,-7 h -46 l -6,-42 c -3,-24 -11,-44 -16,-46 -6,-2 -11,-10 -11,-17 0,-7 -11,-20 -25,-29 -24,-16 -25,-21 -25,-112 0,-95 0,-96 -22,-90 -13,3 -26,6 -30,6 -5,0 -8,16 -8,35 0,34 -2,35 -36,35 -31,0 -36,-3 -31,-20 3,-11 1,-23 -4,-26 -5,-3 -9,-39 -9,-80 0,-61 -3,-74 -16,-74 -10,0 -14,6 -10,15 3,8 -7,29 -21,46 -26,31 -28,31 -90,25 l -63,-7 v 179 179 l -202,-4 c -112,-2 -219,-7 -238,-11 l -35,-8 4,-209 c 3,-196 2,-211 -15,-227 -16,-14 -86,-37 -116,-38 -5,0 -8,195 -8,434 v 433 l -52,7 c -83,9 -257,7 -279,-4 -18,-10 -19,-23 -19,-220 0,-129 -4,-211 -10,-215 -6,-3 -41,-3 -80,1 l -69,7 -3,106 -3,106 -29,3 c -16,2 -46,-4 -67,-13 -54,-25 -60,-55 -66,-372 -3,-150 -10,-273 -14,-273 -5,0 -9,-11 -9,-24 0,-15 -7,-26 -20,-29 -18,-5 -20,-14 -20,-94 v -88 h -52 c -51,0 -53,-1 -70,-37 -14,-29 -24,-38 -43,-38 h -25 v 104 c 0,102 0,104 -24,110 -19,5 -25,14 -28,39 -2,24 -8,33 -25,35 -16,2 -23,-3 -28,-26 -3,-18 -14,-32 -26,-35 -17,-5 -19,-15 -19,-123 0,-170 -20,-136 -27,45 l -6,141 h -43 c -23,0 -54,4 -68,10 -22,8 -26,16 -26,49 0,22 -4,43 -10,46 -5,3 -10,13 -10,22 0,23 -46,117 -65,133 -8,7 -30,16 -48,19 l -32,7 3,62 4,62 -104,1 c -57,1 -106,1 -110,0 -10,-1 -8,-62 -17,533 l -8,509 -27,19 c -14,11 -26,25 -26,31 0,6 -11,20 -25,32 -17,13 -31,40 -41,80 -8,33 -21,65 -29,70 -9,8 -16,58 -23,170 l -9,160 z"
       id="path12979"
       style="fill:#2c3c44;fill-opacity:1"
       sodipodi:nodetypes="ccssssscsscsscccccscsccccccccccccccccscsssssccccccscccccscscsccsscssccccsscccsccscccccscccscscccsccssccssccccsccssccccsscccccccsccccsccsccccccccsccccccccscscsccccccccsccssscscccscscccssssscccccscccccscccccccscccccccscccscscssscsssccccccccccccscccsccccccccsscscscscscccccsccscscsccccccccccscccccc" />
    <path
       style="fill:#2c3c44;fill-opacity:1;stroke-width:1.16735"
       d="m 1309.6673,857.30455 c -85.7127,-0.41954 -374.23055,1.3475 -643.69375,-1.11671 C 400.83227,853.76315 140.33645,851.79249 91.380595,851.41789 15.076854,835.23885 18.11004,809.51555 1.755296,738.49996 1.9366167,667.62458 2.1024944,618.78737 2.5216289,609.62528 l 0.7620627,-16.65835 3.0275568,-0.61355 c 13.0790026,-2.6505 17.7569646,-4.41343 19.2444496,-7.2524 0.854482,-1.63083 3.097187,-3.80071 4.983786,-4.82194 11.960179,-6.47414 13.334688,-8.86157 15.393528,-26.73755 1.180012,-10.24551 2.667297,-13.0385 8.567956,-16.08985 2.268637,-1.17315 3.452486,-3.00729 4.255307,-6.59275 0.983375,-4.39182 1.126742,-4.55486 1.23727,-1.407 0.06876,1.95823 0.593083,4.05946 1.165169,4.66941 0.572085,0.60994 1.26551,5.69844 1.540945,11.30777 0.275435,5.60934 0.820419,10.51843 1.211074,10.90908 1.374904,1.3749 7.743962,-0.86023 10.60564,-3.72191 3.73424,-3.73424 8.784092,-5.12878 18.572135,-5.12878 7.395922,0 7.888442,0.16364 7.905202,2.62654 0.0275,4.03859 1.74655,5.96634 4.64463,5.20848 3.54687,-0.92753 5.84365,0.17142 5.84365,2.79603 0,1.74726 0.8552,2.20981 4.08573,2.20981 h 4.08572 v 7.0041 c 0,5.44764 0.38912,7.00411 1.75103,7.00411 0.96306,0 1.76516,-0.65664 1.78243,-1.45919 0.0173,-0.80256 1.55516,-3.29777 3.41754,-5.54492 3.35449,-4.04754 3.48544,-4.08955 14.01302,-4.49507 l 10.62688,-0.40933 2.32222,-4.55191 c 1.27721,-2.50355 3.05775,-4.5519 3.95675,-4.5519 1.61465,0 2.14636,1.67583 3.6112,11.38167 0.41182,2.72868 0.94742,4.96124 1.19023,4.96124 0.24281,0 2.27892,-0.87621 4.52468,-1.94715 4.67659,-2.23011 4.77344,-2.63345 5.97884,-24.90191 0.9137,-16.87966 2.04674,-22.94406 5.74884,-30.76965 1.62026,-3.42495 2.95397,-7.48976 2.9638,-9.03291 0.009,-1.54316 0.46567,-3.51229 1.01297,-4.37585 0.72928,-1.15071 1.24303,-0.68297 1.9233,1.75102 0.51052,1.82663 0.81962,3.97778 0.68689,4.78033 -0.13272,0.80255 0.53867,1.45919 1.49198,1.45919 0.95332,0 2.11886,0.62385 2.59011,1.38634 0.73203,1.18445 4.92073,42.18703 5.0674,49.60406 0.0342,1.73127 0.89037,2.66465 2.67687,2.91838 2.0131,0.2859 2.71198,1.2591 2.99234,4.16691 0.22847,2.36955 1.00186,3.79389 2.06003,3.79389 1.99205,0 5.94536,-6.10064 6.96672,-10.75085 0.64438,-2.93385 1.19897,-3.25558 5.58393,-3.23948 7.22736,0.0265 8.18243,1.10039 8.73795,9.82469 0.37298,5.85751 0.90589,7.66769 2.25733,7.66769 0.973,0 3.52991,1.08825 5.68204,2.41835 2.15214,1.33009 5.10333,2.24938 6.55822,2.04286 2.39808,-0.34039 2.67614,-1.0845 2.97576,-7.96326 0.36527,-8.38622 3.56224,-16.70008 7.16273,-18.627 1.25167,-0.66988 6.11878,-1.27033 10.8158,-1.33432 11.11225,-0.15141 14.05032,-1.05581 15.89968,-4.89425 0.96411,-2.00109 2.46321,-3.1674 4.08572,-3.17872 3.05218,-0.0212 4.45981,-0.94247 6.17537,-4.04131 0.7028,-1.26948 2.42557,-2.58275 3.82837,-2.91837 1.60285,-0.38349 3.99015,-3.2127 6.425,-7.61433 2.13632,-3.86197 4.83492,-7.19183 6.01542,-7.42258 1.17755,-0.23017 8.0844,-0.0472 15.34856,0.40676 l 13.2076,0.82523 2.38113,5.38296 c 1.30963,2.96064 3.36187,6.29666 4.56054,7.41338 1.19866,1.11673 2.52963,4.10341 2.95768,6.63708 l 0.77829,4.60664 13.05074,0.75378 c 7.1779,0.41458 15.02064,1.04106 17.4283,1.39219 l 4.37757,0.63842 v 8.58362 c 0,4.721 0.53812,8.91622 1.19583,9.3227 0.65771,0.40648 2.75894,0.39574 4.6694,-0.0238 2.89747,-0.63639 3.47357,-1.33506 3.47357,-4.21266 0,-3.01643 0.73295,-3.77457 5.83522,-6.03585 3.79202,-1.68057 5.83576,-3.30139 5.83675,-4.62895 10e-4,-1.74957 1.16686,-2.04286 8.11807,-2.04286 4.46409,0 9.45673,0.61064 11.09476,1.35697 1.63804,0.74634 3.22407,1.11114 3.52453,0.81068 0.30047,-0.30046 1.01639,-4.71959 1.59095,-9.82027 1.06745,-9.47634 2.49376,-13.09429 9.33468,-23.67807 l 3.89403,-6.02458 h 8.48871 8.4887 l 0.74997,-7.17534 c 0.41248,-3.94644 0.74997,-13.84513 0.74997,-21.99708 V 466.1381 l 16.11206,-1.34995 c 8.86162,-0.74246 18.05451,-1.34994 20.42863,-1.34994 h 4.31658 l 0.11639,7.29594 c 0.24187,15.16537 3.07558,17.19683 10.31618,7.3956 5.49628,-7.44008 17.88819,-18.19359 20.96553,-18.19359 2.26551,0 15.05502,7.88657 17.18433,10.59661 0.71761,0.91332 2.22677,4.54977 3.35371,8.081 2.31872,7.26565 4.0545,9.69044 5.0139,7.00411 0.34396,-0.96307 2.32699,-3.45828 4.40674,-5.54492 3.25215,-3.2629 4.5738,-3.78652 9.44304,-3.74124 7.39059,0.0687 10.33233,1.52818 18.94304,9.39796 5.57808,5.09812 7.15288,7.27657 7.17288,9.92248 0.0141,1.86464 1.06472,5.68017 2.33471,8.47896 1.26998,2.79881 2.30906,6.60729 2.30906,8.46329 0,3.22127 0.23866,3.37458 5.25308,3.37458 h 5.25308 l -0.0343,-9.63064 c -0.053,-14.83939 4.79957,-175.04904 5.39201,-178.02098 0.33494,-1.68021 1.36996,-2.62654 2.87269,-2.62654 1.292,0 2.6696,-0.91928 3.06133,-2.04286 0.39174,-1.12357 2.68369,-3.9014 5.09325,-6.17296 5.25723,-4.95614 6.89336,-9.93799 7.79336,-23.72992 0.69011,-10.57572 1.80919,-11.27515 3.05186,-1.90742 0.38325,2.88919 1.76758,7.33405 3.07626,9.87747 1.30868,2.54341 2.37942,5.3222 2.37942,6.17509 0,3.05358 4.51812,10.31302 9.98889,16.04958 l 5.56634,5.83675 1.03495,67.70634 c 0.56921,37.23849 1.25526,68.36297 1.52455,69.16553 0.35648,1.06241 4.41961,1.45919 14.94281,1.45919 h 14.4532 l -0.54564,8.50228 -0.54564,8.50227 5.07405,1.12837 c 4.04207,0.89886 5.69952,2.07806 8.14926,5.79776 3.63233,5.51535 8.01821,16.79109 9.06825,23.31375 0.8995,5.58751 4.06161,7.57873 12.07512,7.60384 5.29533,0.0166 5.51263,0.15307 6.06758,3.8111 0.31656,2.08664 0.83338,10.10178 1.14848,17.81143 0.31511,7.70965 0.92291,14.92962 1.35069,16.04437 1.78628,4.65498 2.86782,-0.0819 2.86782,-12.56041 0,-12.56389 0.16058,-13.46876 2.91837,-16.44447 1.60511,-1.73194 2.91838,-3.79592 2.91838,-4.58661 0,-2.05396 2.76513,-4.07171 4.27006,-3.11592 0.70035,0.44481 1.62783,2.44343 2.06104,4.44137 0.48837,2.25234 1.87479,4.12797 3.64872,4.93622 2.79682,1.27432 2.86104,1.6071 2.86104,14.8271 v 13.52352 l 3.79192,-0.3658 c 2.90243,-0.27999 4.45438,-1.39266 6.61601,-4.74336 2.73234,-4.23535 3.04527,-4.37757 9.63261,-4.37757 h 6.80852 v -11.63244 c 0,-10.22245 0.26811,-11.77591 2.21192,-12.81621 4.01956,-2.15121 4.8544,-8.16454 6.00552,-43.25769 0.62127,-18.94026 1.42324,-36.01276 1.78215,-37.93889 1.82622,-9.80084 5.72855,-13.42453 14.4568,-13.42453 h 4.72738 v 13.87206 c 0,16.08758 -0.72727,15.26837 13.57924,15.29577 l 8.32616,0.016 0.85346,-27.87032 c 0.46941,-15.32868 1.279,-28.55887 1.79911,-29.40043 1.07146,-1.73364 32.14794,-2.28562 39.93815,-0.70939 l 4.37757,0.88575 v 57.73096 c -5e-5,46.72285 0.29061,57.7309 1.52431,57.7309 1.23962,0 15.37669,-4.41581 16.22633,-5.0684 0.13223,-0.10156 0.52622,-13.29646 0.87551,-29.32197 l 0.63509,-29.13729 3.78762,-0.77327 c 2.08318,-0.4253 15.87251,-1.15838 30.64295,-1.62908 l 26.85534,-0.85582 v 24.03923 24.03922 l 8.52369,-0.72052 c 8.51247,-0.71956 8.52783,-0.71558 11.6735,3.02283 1.7324,2.05884 3.14982,4.79218 3.14982,6.07408 0,1.58976 0.64945,2.20702 2.04286,1.9416 1.67338,-0.31876 2.19171,-2.18168 2.86584,-10.29992 1.3274,-15.98566 1.25012,-15.74753 5.11053,-15.74753 2.99989,0 3.44939,0.45891 3.77563,3.85469 0.26051,2.71148 1.19049,4.22836 3.13577,5.1147 5.52347,2.51668 6.41637,0.89793 6.41637,-11.63272 0,-11.2049 0.086,-11.57422 3.4482,-14.79533 4.296,-4.11586 7.0579,-9.801 7.0579,-14.52807 v -3.61746 h 9.1929 c 5.0561,0 10.8982,-0.34107 12.9825,-0.75792 l 3.7895,-0.7579 -0.4648,8.2269 -0.4649,8.22692 4.5863,0.61516 c 2.5226,0.33833 9.1519,0.31937 14.732,-0.0421 l 10.1456,-0.6573 0.7094,10.95891 c 0.8187,12.64606 2.4597,15.04464 10.2925,15.04464 h 4.5401 v -26.70315 -26.70314 l 3.648,-0.7296 c 4.3959,-0.87919 29.6206,-0.7226 46.5481,0.28897 l 12.2571,0.73246 1.1921,7.58778 1.1921,7.58778 3.1038,-8.30956 c 1.707,-4.57026 3.4705,-10.34865 3.9188,-12.84086 1.3425,-7.46295 2.4445,-8.13097 3.1793,-1.92711 0.698,5.89329 3.0169,12.98727 8.3071,25.41223 2.5783,6.05562 2.9883,8.743 3.0277,19.84496 0.047,13.28416 0.4101,14.84825 3.7294,16.07106 1.2692,0.4676 2.0985,2.30327 2.3347,5.16792 l 0.3662,4.44274 15.2871,-0.42771 c 8.408,-0.23523 16.3697,-0.0842 17.6926,0.33575 1.9405,0.6159 2.5628,2.11954 3.2198,7.78052 0.8839,7.61606 2.7359,8.6586 4.3456,2.44635 0.7457,-2.87741 1.5949,-3.71448 3.7689,-3.71448 3.8453,0 4.3905,-2.28803 5.1975,-21.80935 l 0.6845,-16.55625 6.2156,-7.50542 6.2156,-7.50543 9.5265,-0.65295 c 8.6862,-0.59538 9.7855,-0.95305 12.462,-4.05509 1.6146,-1.87116 3.4609,-4.31045 4.1029,-5.42066 0.6794,-1.17486 3.1691,-2.28532 5.9565,-2.65682 4.587,-0.61133 4.8191,-0.48883 5.4972,2.90122 0.3893,1.94673 1.0132,10.54176 1.3862,19.10008 0.9519,21.83291 1.663,27.56202 3.6705,29.56948 1.3992,1.3992 5.2462,1.75033 19.1772,1.75033 h 17.4269 v -5.70684 c 0,-5.59191 0.082,-5.72219 4.0634,-6.46915 2.7315,-0.51242 5.073,-2.08567 7.1427,-4.79932 2.6954,-3.53377 3.7239,-4.037 8.2516,-4.037 5.6732,0 10.3722,1.99833 13.5085,5.74481 1.1173,1.33466 3.2882,2.42664 4.8241,2.42664 2.6173,0 2.8428,0.53501 3.591,8.51989 0.4391,4.68593 1.2301,9.21843 1.7578,10.07222 0.9675,1.56545 6.3529,1.40754 20.2691,-0.59431 4.7095,-0.67746 6.1735,-0.40314 8.9997,1.68639 4.1547,3.07173 4.6372,3.09273 4.6372,0.20184 0,-3.29752 2.9058,-4.39165 12.9785,-4.8868 8.7391,-0.42959 8.9257,-0.37977 10.7993,2.88482 3.9244,6.8379 4.8048,3.54529 5.1391,-19.2198 l 0.3167,-21.57178 10.7732,-1.47402 c 15.1521,-2.07319 19.2707,-3.32408 21.3391,-6.48103 2.9621,-4.52067 7.59,-5.70831 19.5305,-5.01202 13.6313,0.79488 17.3847,2.20133 21.1799,7.93633 2.9739,4.4937 3.1869,4.59126 10.026,4.59126 6.438,0 6.9954,0.20653 7.0888,2.62654 1.0516,27.27048 1.7307,32.58845 4.4208,34.61754 l 2.699,2.03587 1.4088,53.31918 c 0.798,30.20025 1.8898,53.76351 2.518,54.34391 0.6101,0.5636 7.6756,2.43754 15.7011,4.1643 8.0256,1.72676 15.3799,3.35038 16.343,3.60803 1.0361,0.27719 3.0969,-1.42894 5.0473,-4.17864 1.8132,-2.5559 4.7541,-5.40085 6.5357,-6.32211 3.531,-1.826 22.8174,-4.13254 34.5544,-4.13254 h 7.3676 l 1.7662,4.96124 c 0.9715,2.72868 2.0823,8.08617 2.4687,11.90553 0.3864,3.81936 0.9597,7.20153 1.2742,7.51592 0.8041,0.80407 23.5679,2.30604 36.1249,2.38355 l 10.5062,0.0648 2.5886,-4.53398 c 2.3962,-4.19686 3.134,-4.62747 9.9225,-5.79145 22.4341,-3.84657 24.0288,-3.94633 29.5259,-1.847 l 5.2407,2.00144 v 120.07852 120.07853 l -117.3274,1.81874 c -67.246,1.04242 -195.7103,0.23733 -281.423,-0.18223 z"
       id="path66971"
       transform="matrix(7.5,0,0,-7.5,0,6400)"
       sodipodi:nodetypes="ssccscsssssssssssssssscssssscssssssscssssssssssssssssssssssssccssscsscssssscssssscccsscsscssssssssssssscsssssssssscssscccsssssssssssssscssscssssscsscssscsssscsscccssssssssssscsscccsscsscccsscccssssssscsssssscccssssscsscsssssssssssssscssssscscssssssscsssscssscccss" />
  </g>
</svg>
