<?xml version="1.0" standalone="no"?>
<!DOCTYPE svg PUBLIC "-//W3C//DTD SVG 20010904//EN"
 "http://www.w3.org/TR/2001/REC-SVG-20010904/DTD/svg10.dtd">
<svg version="1.0" xmlns="http://www.w3.org/2000/svg"
 width="1171.000000pt" height="1280.000000pt" viewBox="0 0 1171.000000 1280.000000"
 preserveAspectRatio="xMidYMid meet">
<metadata>
Created by potrace 1.15, written by Peter Selinger 2001-2017
</metadata>
<g transform="translate(0.000000,1280.000000) scale(0.100000,-0.100000)"
fill="#000000" stroke="none">
<path d="M5152 12789 c-201 -26 -334 -126 -392 -293 -37 -109 -43 -209 -31
-479 16 -324 32 -297 -208 -347 -130 -26 -147 -32 -178 -62 -18 -17 -42 -55
-52 -83 -36 -97 -41 -184 -31 -547 5 -189 10 -413 11 -498 l3 -155 -245 -6
c-134 -3 -252 -9 -261 -14 -46 -19 -50 -176 -18 -709 11 -176 17 -323 14 -328
-11 -17 -24 -7 -44 32 -11 22 -23 40 -26 40 -3 0 -67 -20 -142 -45 -169 -55
-260 -74 -382 -82 l-95 -5 -123 51 c-136 58 -223 73 -299 52 -36 -10 -49 -22
-90 -81 -36 -53 -51 -67 -63 -60 -8 5 -48 39 -88 77 -61 58 -75 78 -95 133
-22 64 -23 65 -82 89 -71 28 -243 41 -311 22 -55 -15 -104 -49 -127 -89 -48
-82 -57 -307 -32 -847 8 -176 18 -449 21 -607 l7 -288 -45 0 c-25 0 -86 -11
-134 -25 -130 -38 -395 -125 -425 -141 -38 -19 -47 -67 -64 -331 -8 -126 -17
-238 -20 -250 -10 -45 -80 -22 -189 62 -86 65 -130 85 -193 85 -139 0 -215
-71 -250 -234 -13 -59 -15 -144 -12 -506 l4 -435 -52 -7 c-95 -14 -164 -46
-218 -103 -63 -65 -120 -161 -145 -244 -35 -110 -41 -221 -30 -499 6 -142 15
-489 20 -772 5 -283 14 -749 21 -1035 12 -557 7 -742 -42 -1605 -11 -195 -17
-369 -14 -386 5 -31 30 -62 50 -63 6 -1 33 -13 60 -27 l50 -27 -5 -57 c-7 -78
4 -113 46 -148 48 -40 132 -62 273 -72 116 -9 334 -44 609 -100 170 -34 199
-36 336 -14 155 25 230 7 280 -64 14 -20 48 -107 75 -193 42 -130 57 -163 90
-200 125 -141 416 -219 931 -248 96 -6 612 -11 1145 -12 878 -1 978 0 1049 16
82 17 296 81 448 134 118 42 237 62 398 68 196 8 284 -6 411 -63 134 -60 212
-70 659 -84 184 -6 405 -15 490 -19 85 -4 205 -3 265 1 99 8 118 12 195 49
108 51 144 86 187 179 29 62 38 100 54 220 10 80 19 164 19 188 l0 42 54 0
c30 0 137 -9 238 -20 276 -29 542 -50 643 -50 99 0 323 -22 397 -39 76 -17 99
-32 183 -116 124 -124 251 -182 456 -206 188 -22 1123 10 1243 42 157 42 271
174 320 369 46 182 45 596 -4 1415 -25 417 -33 637 -39 1110 -4 325 -7 591 -5
593 6 8 74 -356 74 -395 0 -15 2 -24 4 -22 2 2 10 145 16 316 13 342 9 388
-37 443 -18 22 -39 33 -84 42 l-59 12 -40 78 c-71 136 -136 361 -191 657 -11
58 -46 291 -79 516 -121 838 -196 1258 -238 1329 -40 69 -128 96 -303 95 -108
0 -154 -13 -182 -51 -18 -24 -20 -45 -22 -195 -3 -159 -20 -297 -44 -341 -14
-26 -62 -68 -98 -86 -61 -30 -113 -31 -201 -2 l-81 27 -19 52 c-17 45 -20 78
-19 247 1 234 -12 339 -65 525 -63 225 -106 412 -118 525 -14 125 -39 177 -97
206 -36 17 -66 18 -500 15 l-461 -3 -6 43 c-3 24 -12 190 -21 369 -18 370 -26
462 -61 680 l-25 155 -44 41 c-84 79 -308 175 -598 258 -205 59 -298 75 -522
93 -115 9 -212 17 -214 19 -20 17 -43 558 -45 1054 -1 278 -2 286 -23 316 -37
51 -84 63 -286 74 -175 10 -315 21 -441 36 -51 6 -67 14 -118 56 -32 27 -63
59 -67 71 -19 51 -31 204 -31 402 0 134 -6 254 -16 330 -8 66 -16 132 -16 146
-1 24 -5 27 -52 33 -28 3 -119 6 -202 6 l-151 0 -7 31 c-3 17 -6 64 -6 104 0
208 -78 447 -185 563 -75 83 -103 92 -270 91 -77 -1 -169 -5 -203 -10z"/>
</g>
</svg>
