<?xml version="1.0" encoding="UTF-8" standalone="no"?>
<!-- Created with Inkscape (http://www.inkscape.org/) -->

<svg
   version="1.1"
   id="svg28438"
   xml:space="preserve"
   width="280.12061"
   height="213.011"
   viewBox="0 0 280.12061 213.011"
   sodipodi:docname="kapr.svg"
   inkscape:version="1.1.1 (3bf5ae0d25, 2021-09-20)"
   xmlns:inkscape="http://www.inkscape.org/namespaces/inkscape"
   xmlns:sodipodi="http://sodipodi.sourceforge.net/DTD/sodipodi-0.dtd"
   xmlns="http://www.w3.org/2000/svg"
   xmlns:svg="http://www.w3.org/2000/svg"><defs
     id="defs28442"><clipPath
       clipPathUnits="userSpaceOnUse"
       id="clipPath28452"><path
         d="M 0,841.89 H 595.28 V 0 H 0 Z"
         id="path28450" /></clipPath></defs><sodipodi:namedview
     id="namedview28440"
     pagecolor="#ffffff"
     bordercolor="#666666"
     borderopacity="1.0"
     inkscape:pageshadow="2"
     inkscape:pageopacity="0.0"
     inkscape:pagecheckerboard="0"
     showgrid="false"
     inkscape:zoom="0.74118945"
     inkscape:cx="142.33878"
     inkscape:cy="-0.67459136"
     inkscape:window-width="1920"
     inkscape:window-height="1017"
     inkscape:window-x="-8"
     inkscape:window-y="-8"
     inkscape:window-maximized="1"
     inkscape:current-layer="g28444" /><g
     id="g28444"
     inkscape:groupmode="layer"
     inkscape:label="ces612_ilustrace-kapr_01js"
     transform="matrix(1.3333333,0,0,-1.3333333,-255.618,667.9306)"><g
       id="g28446"
       transform="matrix(-1,0,0,1,593.51746,0)"><g
         id="g28448"
         clip-path="url(#clipPath28452)"><g
           id="g28454"
           transform="translate(265.1792,369.7336)"><path
             d="m 0,0 c 0.518,-3.664 0.116,-7.394 0.199,-11.096 0.093,-4.163 0.87,-8.057 3.809,-11.203 4.045,-4.331 10.935,-6.239 16.713,-4.5 7.671,2.308 9.361,10.08 8.619,17.253 C 28.531,-1.721 13.403,5.846 8.719,12.007"
             style="fill:#dba813;fill-opacity:1;fill-rule:nonzero;stroke:none"
             id="path28456" /></g><g
           id="g28458"
           transform="translate(264.0589,369.7336)"><path
             d="m 0,0 c 0.967,-9.411 -1.775,-20.034 7.769,-25.863 6.425,-3.924 16.236,-3.93 20.995,2.604 3.826,5.255 4.296,13.894 0.452,19.198 C 24.247,2.796 15.945,6.29 10.632,12.799 9.719,13.917 8.142,12.323 9.047,11.215 16.351,2.269 31.284,-1.915 29.257,-15.715 27.868,-25.176 18.361,-28.723 10.12,-24.606 0.322,-19.71 3.154,-8.883 2.241,0 2.095,1.42 -0.148,1.435 0,0"
             style="fill:#dba813;fill-opacity:1;fill-rule:nonzero;stroke:none"
             id="path28460" /></g><g
           id="g28462"
           transform="translate(399.2161,448.1649)"><path
             d="m 0,0 c 2.034,4.177 3.564,10.254 -0.465,12.597 -6.141,3.547 -24.869,-19.537 -24.397,-20.066 -21.024,23.527 -33.331,37.005 -56.833,46.168 -7.194,2.805 -14.838,4.416 -22.547,4.837 -2.603,0.357 -5.208,0.604 -7.797,0.738 -27.349,1.414 -51.397,-16.032 -60.356,-21.691 -8.959,-5.658 -33.479,-38.666 -34.422,-40.552 0,0 -0.472,-4.244 6.601,-9.902 7.073,-5.658 9.903,-5.187 7.073,-9.902 -2.829,-4.716 -13.216,-7.545 -13.681,-11.317 -0.465,-3.772 0.007,-3.772 3.779,-4.715 3.773,-0.944 21.691,-20.098 44.796,-27.967 23.105,-7.87 48.293,-7.87 63.284,-5.512 1.184,0.186 2.359,0.421 3.528,0.68 5.334,0.801 10.658,1.95 14.254,3.534 6.784,2.556 12.488,5.398 14.792,6.591 0.702,-0.199 1.363,-0.474 1.996,-0.8 0.906,-1.353 2.376,-3.432 3.84,-5 3.29,-3.523 9.039,-3.696 13.433,-1.712 3.321,1.499 8.169,7.224 9.331,10.884 0.938,2.954 0.974,2.215 -0.382,4.458 -0.23,0.381 -6.458,3.816 -6.364,3.879 6.201,6.603 14.811,17.267 14.811,17.267 4.479,-6.88 12.813,-20.428 18.607,-20.662 7.456,-0.302 8.188,8.041 6.893,13.351 C -5.347,-33.813 -9.904,-20.34 0,0"
             style="fill:#dba813;fill-opacity:1;fill-rule:nonzero;stroke:none"
             id="path28464" /></g><g
           id="g28466"
           transform="translate(399.2161,448.1649)"><path
             d="m 0,0 c 2.034,4.177 3.564,10.254 -0.465,12.597 -6.141,3.547 -24.869,-19.537 -24.397,-20.066 -21.024,23.527 -33.331,37.005 -56.833,46.168 -7.194,2.805 -14.838,4.416 -22.547,4.837 -2.603,0.357 -5.208,0.604 -7.797,0.738 -27.349,1.414 -51.397,-16.032 -60.356,-21.691 -8.959,-5.658 -33.479,-38.666 -34.422,-40.552 0,0 -0.472,-4.244 6.601,-9.902 7.073,-5.658 9.903,-5.187 7.073,-9.902 -2.829,-4.716 -13.216,-7.545 -13.681,-11.317 -0.465,-3.772 0.007,-3.772 3.779,-4.715 3.773,-0.944 21.691,-20.098 44.796,-27.967 23.105,-7.87 48.293,-7.87 63.284,-5.512 1.184,0.186 2.359,0.421 3.528,0.68 5.334,0.801 10.658,1.95 14.254,3.534 6.784,2.556 12.488,5.398 14.792,6.591 0.702,-0.199 1.363,-0.474 1.996,-0.8 0.906,-1.353 2.376,-3.432 3.84,-5 3.29,-3.523 9.039,-3.696 13.433,-1.712 3.321,1.499 8.169,7.224 9.331,10.884 0.938,2.954 0.974,2.215 -0.382,4.458 -0.23,0.381 -6.458,3.816 -6.364,3.879 6.201,6.603 14.811,17.267 14.811,17.267 4.479,-6.88 12.813,-20.428 18.607,-20.662 7.456,-0.302 8.188,8.041 6.893,13.351 C -5.347,-33.813 -9.904,-20.34 0,0 Z"
             style="fill:none;stroke:#dba813;stroke-width:1.061;stroke-linecap:butt;stroke-linejoin:miter;stroke-miterlimit:10;stroke-dasharray:none;stroke-opacity:1"
             id="path28468" /></g><g
           id="g28470"
           transform="translate(272.7283,489.0475)"><path
             d="M 0,0 C 8.394,7.83 22.323,9.099 33.161,7.117 45.008,4.95 56.13,-2.064 59.256,-14.214 c 0.585,-2.271 4.103,-1.309 3.517,0.969 -6.614,25.701 -46.939,33 -65.352,15.824 C -4.298,0.974 -1.715,-1.6 0,0"
             style="fill:#dba813;fill-opacity:1;fill-rule:nonzero;stroke:none"
             id="path28472" /></g><g
           id="g28474"
           transform="translate(288.2202,359.2216)"><path
             d="m 0,0 c -3.194,8.565 -11.758,15.303 -18.265,21.339 -0.553,0.513 -1.589,0.178 -1.557,-0.644 0.165,-4.17 0.332,-8.339 0.504,-12.508 0.212,-5.134 0.059,-10.614 2.888,-15.13 2.456,-3.923 7.579,-6.592 12.132,-4.638 C 0.254,-9.627 1.033,-4.319 0,0 c -0.273,1.141 -2.031,0.658 -1.758,-0.485 0.943,-3.945 0.067,-8.207 -4.256,-9.751 -3.554,-1.27 -7.657,2.008 -9.237,4.844 -2.029,3.642 -2.009,7.951 -2.178,11.998 -0.196,4.696 -0.383,9.392 -0.569,14.089 -0.519,-0.215 -1.038,-0.43 -1.557,-0.645 C -13.391,14.333 -4.763,7.573 -1.758,-0.485 -1.352,-1.574 0.411,-1.103 0,0"
             style="fill:#ffffff;fill-opacity:1;fill-rule:nonzero;stroke:none"
             id="path28476" /></g><g
           id="g28478"
           transform="translate(254.208,451.9687)"><path
             d="m 0,0 c 15.629,-19.15 12.55,-46.958 -6.639,-62.404 -0.914,-0.736 0.383,-2.019 1.289,-1.29 C 14.681,-47.57 17.503,-18.577 1.289,1.289 0.547,2.199 -0.736,0.902 0,0"
             style="fill:#ffffff;fill-opacity:1;fill-rule:nonzero;stroke:none"
             id="path28480" /></g><g
           id="g28482"
           transform="translate(227.0707,448.589)"><path
             d="M 0,0 C 2.689,0.619 5.607,-0.803 6.677,-3.378 7.121,-4.446 8.885,-3.977 8.435,-2.893 6.971,0.631 3.263,2.621 -0.485,1.758 -1.628,1.495 -1.144,-0.263 0,0"
             style="fill:#ffffff;fill-opacity:1;fill-rule:nonzero;stroke:none"
             id="path28484" /></g><g
           id="g28486"
           transform="translate(289.2328,486.6783)"><path
             d="m 0,0 c 4.837,2.975 8.904,6.993 13.741,9.968 1.33,0.818 0.11,2.922 -1.227,2.099 C 7.676,9.092 3.609,5.074 -1.227,2.099 -2.557,1.281 -1.338,-0.823 0,0"
             style="fill:#dba813;fill-opacity:1;fill-rule:nonzero;stroke:none"
             id="path28488" /></g><g
           id="g28490"
           transform="translate(307.8716,481.816)"><path
             d="m 0,0 c 4.496,2.8 7.633,7.173 12.12,9.968 1.325,0.825 0.106,2.929 -1.227,2.099 C 6.397,9.267 3.26,4.894 -1.227,2.099 -2.552,1.274 -1.333,-0.83 0,0"
             style="fill:#dba813;fill-opacity:1;fill-rule:nonzero;stroke:none"
             id="path28492" /></g><g
           id="g28494"
           transform="translate(231.1693,438.93)"><path
             d="m 0,0 c -0.719,1.183 -2.012,2.152 -3.806,2.891 -4.192,1.727 -9.887,-1.317 -10.61,-7.171 -0.258,-2.082 0.623,-4.206 1.967,-5.596 1.975,-2.043 4.585,-2.808 7.265,-1.739 1.465,0.585 2.955,1.326 3.929,2.593 C 0.987,-6.107 2.024,-3.33 0,0"
             style="fill:#ffffff;fill-opacity:1;fill-rule:nonzero;stroke:none"
             id="path28496" /></g><g
           id="g28498"
           transform="translate(341.2455,371.8424)"><path
             d="m 0,0 c 3.412,-6.634 11.584,-7.729 17.402,-3.364 1.877,1.409 5.774,5.473 4.964,8.244 C 21.723,7.082 17.768,8.267 16.173,9.66 15.26,10.457 13.918,9.126 14.836,8.324 16.126,7.197 17.674,6.495 19.006,5.455 19.88,4.773 20.198,5.04 20.35,4.048 20.542,2.79 18.573,0.315 17.9,-0.408 13.18,-5.479 4.969,-5.536 1.632,0.954 1.076,2.036 -0.556,1.081 0,0"
             style="fill:#ffffff;fill-opacity:1;fill-rule:nonzero;stroke:none"
             id="path28500" /></g><g
           id="g28502"
           transform="translate(390.307,431.4252)"><path
             d="m 0,0 c 1.526,4.906 3.607,9.566 5.273,14.411 0.755,2.193 2.281,6.247 0.091,8.14 -5.167,4.468 -14.403,-8.2 -16.674,-11.494 -3.755,-5.447 -7.33,-11.711 -7.875,-18.436 -0.507,-6.252 1.459,-12.438 4.131,-18.016 1.475,-3.08 13.771,-26.329 19.067,-20.079 1.447,1.707 1.113,5.577 1.054,7.556 -0.106,3.534 -0.785,7.022 -1.612,10.45 C 1.263,-18.39 -2.246,-9.437 0,0 0.281,1.182 -1.541,1.687 -1.823,0.502 -4.804,-12.02 1.854,-23.311 3.03,-35.56 c 0.15,-1.564 0.216,-3.147 0.141,-4.717 0.697,-2.68 -0.068,-3.588 -2.296,-2.726 -1.37,-0.358 -2.333,0.06 -2.889,1.255 -2.473,2.063 -4.42,5.643 -6.215,8.323 -3.727,5.563 -7.049,11.657 -8.486,18.249 -2.69,12.333 5.073,25.452 14.211,33.434 1.747,1.526 6.245,5.145 7.044,1.096 C 4.864,17.715 3.455,14.89 2.898,13.419 1.269,9.124 -0.455,4.898 -1.823,0.502 -2.185,-0.662 -0.361,-1.16 0,0"
             style="fill:#ffffff;fill-opacity:1;fill-rule:nonzero;stroke:none"
             id="path28504" /></g><g
           id="g28506"
           transform="translate(298.8131,363.9317)"><path
             d="m 0,0 c 18.544,0.255 37.102,9.207 51.347,20.644 5.779,4.64 11.791,10.281 14.778,17.223 2.738,6.362 0.406,14.663 0.699,21.453 0.206,4.748 1.082,9.978 0.444,14.68 -0.568,4.188 -4.664,8.227 -7.235,11.412 -6.589,8.163 -14.397,15.342 -23.075,21.236 -12.938,8.786 -28.616,15.613 -44.476,15.874 -19.739,0.324 -37.089,-4.287 -52.413,-16.822 -0.942,-0.771 0.402,-2.101 1.337,-1.337 24.709,20.214 59.026,20.836 86.469,5.654 8.227,-4.552 15.818,-10.23 22.532,-16.811 3.288,-3.222 6.356,-6.659 9.193,-10.284 1.568,-2.004 3.45,-4.141 4.643,-6.412 1.766,-3.363 1.09,-6.948 0.946,-10.528 C 64.884,58.397 65.458,50.928 65.313,43.375 65.181,36.475 59.569,30.634 54.819,26.15 40.543,12.675 19.89,2.164 0,1.89 -1.215,1.873 -1.219,-0.017 0,0"
             style="fill:#ffffff;fill-opacity:1;fill-rule:nonzero;stroke:none"
             id="path28508" /></g><g
           id="g28510"
           transform="translate(285.6873,459.9436)"><path
             d="m 0,0 c 1.896,-1.625 3.989,-4.417 1.062,-6.342 -0.976,-0.642 -0.064,-2.222 0.92,-1.574 1.494,0.982 2.42,2.561 2.362,4.38 C 4.277,-1.452 2.772,0.018 1.289,1.289 0.403,2.049 -0.893,0.765 0,0"
             style="fill:#ffffff;fill-opacity:1;fill-rule:nonzero;stroke:none"
             id="path28512" /></g><g
           id="g28514"
           transform="translate(287.882,394.2269)"><path
             d="M 0,0 C 2.564,-1.401 2.767,-4.56 0.522,-6.395 -0.388,-7.138 0.909,-8.421 1.811,-7.684 4.95,-5.119 4.451,-0.356 0.92,1.574 -0.11,2.138 -1.031,0.564 0,0"
             style="fill:#ffffff;fill-opacity:1;fill-rule:nonzero;stroke:none"
             id="path28516" /></g><g
           id="g28518"
           transform="translate(276.7839,468.3817)"><path
             d="M 0,0 C 1.877,-1.522 2.188,-4.389 0.495,-6.181 -0.311,-7.033 0.976,-8.325 1.784,-7.47 4.107,-5.012 3.955,-0.872 1.289,1.289 0.386,2.022 -0.912,0.74 0,0"
             style="fill:#ffffff;fill-opacity:1;fill-rule:nonzero;stroke:none"
             id="path28520" /></g><g
           id="g28522"
           transform="translate(341.2182,425.0897)"><path
             d="M 0,0 C 1.254,-0.501 1.745,-2.006 1.736,-3.258 1.726,-4.738 0.629,-5.866 -0.402,-6.807 -1.271,-7.6 0.021,-8.887 0.887,-8.096 2.502,-6.622 3.748,-4.876 3.52,-2.61 3.324,-0.649 2.347,1.014 0.485,1.758 -0.605,2.194 -1.078,0.431 0,0"
             style="fill:#ffffff;fill-opacity:1;fill-rule:nonzero;stroke:none"
             id="path28524" /></g><g
           id="g28526"
           transform="translate(315.1748,411.4683)"><path
             d="m 0,0 c -6.919,-9.313 -20.146,-9.52 -28.285,-1.868 -1.697,1.594 -3.431,3.256 -4.987,4.987 -4.771,5.304 -4.013,11.938 0.688,16.911 6.105,6.458 13.087,11.726 22.554,9.236 C 2.885,25.869 7.218,10.539 0,0 c -0.665,-0.971 0.915,-1.884 1.574,-0.92 5.77,8.424 5.161,19.82 -2.386,27.007 -6.766,6.444 -17.492,7.492 -25.328,2.343 -5.744,-3.773 -12.647,-10.576 -12.279,-17.878 0.348,-6.883 7.653,-13.967 13.401,-17.206 8.946,-5.04 20.495,-2.474 26.592,5.734 C 2.275,0.022 0.693,0.932 0,0"
             style="fill:#ffffff;fill-opacity:1;fill-rule:nonzero;stroke:none"
             id="path28528" /></g><g
           id="g28530"
           transform="translate(225.4042,436.4745)"><path
             d="m 0,0 c -0.314,0.517 -0.88,0.941 -1.664,1.264 -1.832,0.755 -4.321,-0.576 -4.637,-3.135 -0.113,-0.91 0.272,-1.838 0.859,-2.446 0.864,-0.893 2.005,-1.227 3.176,-0.76 0.641,0.256 1.292,0.58 1.717,1.133 C 0.432,-2.669 0.885,-1.456 0,0"
             style="fill:#dba813;fill-opacity:1;fill-rule:nonzero;stroke:none"
             id="path28532" /></g><g
           id="g28534"
           transform="translate(225.4042,436.4745)"><path
             d="m 0,0 c -0.314,0.517 -0.88,0.941 -1.664,1.264 -1.832,0.755 -4.321,-0.576 -4.637,-3.135 -0.113,-0.91 0.272,-1.838 0.859,-2.446 0.864,-0.893 2.005,-1.227 3.176,-0.76 0.641,0.256 1.292,0.58 1.717,1.133 C 0.432,-2.669 0.885,-1.456 0,0 Z"
             style="fill:none;stroke:#dba813;stroke-width:1.061;stroke-linecap:butt;stroke-linejoin:miter;stroke-miterlimit:10;stroke-dasharray:none;stroke-opacity:1"
             id="path28536" /></g></g></g></g></svg>
