<?xml version="1.0"?><svg width="640" height="480" xmlns="http://www.w3.org/2000/svg" xmlns:xlink="http://www.w3.org/1999/xlink">
 <title>Mountain snow</title>
 <g>
  <title>Layer 1</title>
  <path d="m408.079041,173.613983l10.28299,-5.117004l14.559998,9.347c4.321991,0.992996 4.756012,7.763 14.300995,10.953995c9.545013,3.19101 16.389008,5.957001 20.531006,8.296997c4.141998,2.341003 7.563995,4.326004 10.265991,5.957001c2.701019,1.632004 5.763,3.334 9.184998,5.10701c3.421021,1.772003 8.554016,3.722992 15.39801,5.849991c6.843994,2.128006 -2.257996,2.856003 14.577026,6.682999c-4.769043,-0.824997 5.870972,1.41301 14.415955,5.471008c2.968018,5.809998 9.856018,9.567001 13.387024,14.057999c2.606995,5.016998 42.10498,16.048004 46.609009,22.29599c-8.514038,2.261017 -55.647034,-4.293976 -49.903015,-2.197998l-11.598999,-4.675995l-6.882996,1.216003c-28.369995,0.084015 -13.595001,-0.709015 -22.363007,-2.848007l10.609009,-2.270996c4.274994,-1.860001 16.368011,-7.994995 22.225983,-11.488998c-3.44696,-4.069 -8.268005,-10.194 -13.231995,-11.733994c-5.763,-1.134003 2.512024,0.112991 -8.653992,-1.589005c-11.166016,-1.701996 -9.369995,-1.643005 -12.972015,-2.494003c-3.60199,-0.850998 -8.013977,-2.020996 -13.237,-3.509995c-5.222992,-1.488998 -10.265991,-3.050003 -15.128998,-4.681c-4.862,-1.630997 -7.384003,-2.48201 -7.563995,-2.553009l-0.269989,-0.105988l-0.269989,0.105988c-0.180023,0.070999 -3.332001,-0.070999 -9.455017,-0.424988l-9.184998,-0.532013l-2.701996,-1.80899c-1.800995,-1.205002 -3.692017,-2.48201 -5.673004,-3.82901c-1.980988,-1.347992 -4.321991,-2.623993 -7.02301,-3.829987c-2.701996,-1.205002 -5.132996,-1.986008 -7.293976,-2.340012l-3.242004,-0.531998l1.079987,6.169998l1.080994,6.169998l5.403015,1.170013c3.60199,0.779999 8.104004,1.559998 13.506989,2.339996l7.300995,2.798004l3.775024,0.5c1.980988,1.417999 3.511993,2.481995 4.592987,3.190994l1.621002,1.063995l4.59201,0.957001c3.061981,0.639008 6.303986,1.419006 9.724976,2.341003c3.421997,0.921997 5.223022,1.595001 5.403015,2.020996l2.944,6.37001l-27.527008,-4.562012c-16.569,0.779999 -26.834991,0.887009 -30.796997,0.319c-3.962006,-0.567001 -6.03299,-0.886002 -6.213013,-0.957001l-0.269989,-0.105988l1.621002,-2.128006c1.079987,-1.417999 2.700989,-2.553009 4.862,-3.404007l3.242004,-1.276993l-4.59201,-0.957001c-3.061981,-0.638 -6.843994,-1.347 -11.346985,-2.126999l-6.753021,-1.171005l-2.161987,-2.552994c-1.440002,-1.701996 -3.151001,-3.865005 -5.131989,-6.488998l-2.972015,-3.936005l-2.431,0.531998c-1.621002,0.354996 -3.332001,1.667007 -5.132996,3.936005c-1.800995,2.270004 -5.583008,7.162994 -11.346008,14.679993c-5.763,7.518005 -11.255981,12.872009 -16.479004,16.063004c-5.222992,3.192001 -10.445984,6.098999 -15.668976,8.723007c-5.223022,2.623993 -10.085022,5.247986 -14.588013,7.872009c-4.501984,2.623993 -7.563995,4.538971 -9.184998,5.743988c-1.621002,1.205994 -3.151001,2.802002 -4.59201,4.786987c-1.440979,1.986023 -2.791992,4.078003 -4.052002,6.277008c-1.260986,2.197998 -2.431976,3.333008 -3.511993,3.403992l-6.790009,10.27002l-0.800995,-3.462006c0.562012,-6.828003 4.889008,-10.177002 5.970001,-13.722992c1.080017,-3.546021 2.971008,-6.985016 5.673004,-10.318024c2.700989,-3.333984 5.042999,-5.673981 7.024017,-7.020996c1.980988,-1.347992 5.222992,-3.332993 9.724976,-5.956985c4.503021,-2.624008 8.464996,-4.894012 11.887024,-6.809006c3.42099,-1.914001 5.852997,-3.652008 7.292999,-5.212006c1.440979,-1.559998 3.151978,-4.644989 5.132996,-9.25499l2.971985,-6.914001l-4.321991,0c-2.881989,0 -5.674011,0.460999 -8.375,1.382996c-2.700989,0.921005 -5.493011,2.516998 -8.375,4.787003c-2.881989,2.270004 -8.283997,7.942001 -16.208008,17.020004c-7.924988,9.076996 -15.57901,16.487991 -22.962982,22.232986c-7.384003,5.744019 -12.247009,9.360992 -14.588013,10.850006c-2.341003,1.489014 -6.122986,3.972015 -11.346008,7.446991c-5.222992,3.475006 -11.165985,6.808014 -17.829987,9.999023c-6.66301,3.190979 -10.806,5.176971 -12.42601,5.957001c-1.621002,0.779999 -3.151993,1.453979 -4.593002,2.020996c-1.440994,0.567993 -6.302994,2.198975 -14.587997,4.893982c-8.283997,2.695007 -18.909988,5.248016 -31.876999,7.658997c-12.966995,2.411011 -23.772995,4.397003 -32.417999,5.957001c-8.645004,1.559998 -14.497986,2.658997 -17.55899,3.298004l-4.593018,0.957001l1.621002,-1.488983c1.081009,-0.993011 2.611008,-1.986023 4.59201,-2.979004c1.981995,-0.993011 4.143005,-1.701996 6.483994,-2.127014c2.341003,-0.425995 5.763,-1.311981 10.266006,-2.660004c4.501999,-1.346985 8.914001,-2.516998 13.237,-3.509979c4.322006,-0.993011 8.283997,-1.915009 11.886002,-2.766022c3.60199,-0.850983 8.735001,-2.162994 15.399002,-3.935974c6.662994,-1.77301 13.326996,-3.688019 19.98999,-5.744019c6.664001,-2.057007 12.067001,-4.042999 16.209,-5.957001c4.143005,-1.915009 7.473999,-3.582001 9.996002,-5c2.520996,-1.419006 5.403,-3.403992 8.643997,-5.957001c3.242004,-2.553009 8.64502,-6.596008 16.208984,-12.126984c7.564026,-5.532013 11.97702,-9.362 13.23703,-11.489014l1.891998,-3.19101l-1.891998,-0.425995c-1.26001,-0.283997 -2.611023,-0.709 -4.052002,-1.275986c-1.440002,-0.568008 -4.951996,-1.951004 -10.535004,-4.149002c-5.583008,-2.199005 -9.996002,-3.581009 -13.238007,-4.149002l-4.862,-0.850998l-3.781998,0l-3.781998,0l-9.456009,2.020996c-6.302994,1.347992 -11.79599,3.723999 -16.478989,7.128006c-4.682007,3.404007 -8.283997,7.020004 -10.805008,10.849991c-2.522003,3.829987 -3.962997,6.240997 -4.322998,7.234009c-0.360001,0.992981 -1.080002,2.126984 -2.160995,3.403992c-1.081009,1.276001 -2.070999,2.588013 -2.972,3.936005c-0.900009,1.346985 -1.710007,2.056 -2.431,2.126984c-0.720001,0.071014 -1.981003,1.951019 -3.781998,5.638c-1.80101,3.688019 -3.332001,5.745026 -4.59201,6.170013c-1.261002,0.425995 -2.972,1.419006 -5.132996,2.979004l-3.242004,2.339996l0.540009,-4.893005l0.541,-4.893982l-4.593002,2.233978c-3.061996,1.490021 -6.934006,3.369019 -11.615997,5.638c-4.682999,2.27002 -7.744003,3.759003 -9.184998,4.468018c-1.44101,0.708984 -4.682999,1.453979 -9.726013,2.233978l-7.563995,1.170013l1.621002,-1.915009c1.080994,-1.276001 2.251007,-2.126984 3.511993,-2.552979c1.261017,-0.425018 3.152008,-1.41803 5.673004,-2.978027c2.522003,-1.559998 9.005005,-6.169983 19.451004,-13.828979c10.445999,-7.658997 16.028992,-12.481995 16.748993,-14.468018c0.720001,-1.984985 0.630005,-3.367981 -0.269989,-4.14798l-1.350998,-1.170013l-4.59201,2.446014c-3.061996,1.630981 -7.474991,4.503998 -13.237991,8.616974c-5.763,4.113007 -15.938004,11.453003 -30.526009,22.02002c-14.587997,10.566986 -23.412598,16.737 -26.474693,18.51001c-3.060905,1.771973 -6.123001,3.580994 -9.185005,5.424988c-3.060997,1.843994 -5.672997,3.084991 -7.834,3.722992c-2.160995,0.638 -7.383995,2.304993 -15.667999,5c-8.285,2.695007 -13.237999,4.218994 -14.859001,4.574005l-2.431,0.532013l1.621002,-1.277008c1.080997,-0.851013 4.321999,-2.623993 9.724998,-5.319c5.403,-2.694 12.156998,-6.772003 20.261002,-12.233002c8.104996,-5.460999 12.967003,-8.794006 14.587997,-9.998993c1.621002,-1.206024 6.394005,-4.929016 14.317703,-11.170013c7.923996,-6.240997 12.607002,-9.928986 14.047997,-11.062988c1.441002,-1.13501 9.544998,-7.730011 24.313004,-19.786011c14.768005,-12.056992 23.682999,-18.828995 26.744003,-20.319l4.593002,-2.233002l8.103989,-0.425995l8.105011,-0.425003l4.051987,-2.446991c2.702011,-1.631012 6.484009,-4.113007 11.346008,-7.447006c4.862991,-3.333008 9.634995,-5.921005 14.317993,-7.764999c3.597,-0.542007 3.807007,-6.007996 7.55101,0.457993l4.858994,0.627014l3.238007,1.676987c3.241989,0.42601 8.022995,-1.312988 8.92099,0.246002c0.897003,1.559998 3.249008,0.952011 11.361008,2.630005c5.942993,3.759003 11.79599,6.843994 17.55899,9.255005c5.763,2.410995 9.725006,3.935989 11.886993,4.57399l3.241028,0.957001l2.971985,-3.828995c1.980988,-2.553009 4.411987,-5.248001 7.294006,-8.085007c2.881989,-2.83699 5.339996,-3.623993 5.160004,-4.121002l-0.042023,1.243011l1.123016,-2.518997c0.899994,-0.355011 1.502991,-2.262009 4.024994,-3.964005c2.520996,-1.701996 5.312012,-3.298004 8.373993,-4.787003c3.062012,-1.488998 7.473999,-3.085007 13.237,-4.787003c5.763,-1.701996 10.536011,-3.155991 14.318024,-4.360992c3.781982,-1.206009 7.293976,-2.731003 10.53598,-4.575012c3.242004,-1.843994 5.852997,-3.828995 7.834015,-5.957001c1.980988,-2.126999 3.421997,-3.403992 4.321991,-3.828995c0.901001,-0.425995 3.60199,-1.666992 8.105011,-3.723999c4.501984,-2.056 7.653992,-3.438995 9.454987,-4.147995c1.800995,-0.710007 4.141998,-1.419006 7.024017,-2.128006c2.880981,-0.709 3.268982,-9.048996 8.671997,-9.332993l0,0l0,0z" transform="rotate(6.5625 321.253 251.25)" stroke-width="2px" stroke="#000000" fill-rule="evenodd" fill="#000000" id="path2"/>
  <text xml:space="preserve" y="114" x="104" text-anchor="middle" stroke-width="0" stroke-linejoin="null" stroke-linecap="null" stroke-dasharray="null" stroke="#000000" fill="#000000" opacity="0.5" font-size="24" font-family="serif" id="svg_1"/>
  <text xml:space="preserve" y="105" x="87" text-anchor="middle" stroke-width="0" stroke-linejoin="null" stroke-linecap="null" stroke-dasharray="null" stroke="#000000" fill="#000000" opacity="0.5" font-size="24" font-family="serif" id="svg_2"/>
  <text xml:space="preserve" y="106" x="74" text-anchor="middle" stroke-width="0" stroke-linejoin="null" stroke-linecap="null" stroke-dasharray="null" stroke="#000000" fill="#000000" opacity="0.5" font-size="24" font-family="serif" id="svg_3"/>
  <text xml:space="preserve" y="128" x="121.5" text-anchor="middle" stroke-width="0" stroke-linejoin="null" stroke-linecap="null" stroke-dasharray="null" stroke="#000000" fill="#000000" opacity="0.5" font-size="24" font-family="serif" id="svg_4"/>
  <line y2="305.05" x2="43.43" y1="294.57" x1="588.19" stroke-width="2px" stroke="#000000" fill="none" id="svg_6"/>
  <image xlink:href="images/logo.png" height="7.62" width="136.19" y="273.62" x="264.38" fill="black" id="svg_7"/>
  <path d="m374.859985,255.519989c-0.960022,0 -0.960785,0.958862 -3.809998,2.860016c-2.860748,1.908844 -3.779419,2.020782 -10.47998,3.809998c-3.793793,1.013031 -5.033752,1.006989 -9.52002,2.859985c-3.173553,1.310791 -3.809998,1.899963 -3.809998,2.849976c0,0.950012 4.76001,0 11.429993,0c1.900024,0 12.380005,-0.949951 20,-0.949951c2.849976,0 12.380005,0 15.22998,0c0.960022,0 1.935211,0.217285 2.859985,0c2.076691,-0.487946 3.810059,-0.950012 5.720032,-0.950012c2.849976,0 5.710022,0.950012 5.710022,0c0,-0.950012 -0.777161,2.188446 -3.809998,3.809998c-2.522186,1.348511 -4.567932,1.192474 -5.710022,1.899963c-2.564606,1.588684 -3.809998,0.960022 -0.960022,0.960022c3.809998,0 5.720032,0 13.340027,0c4.76001,0 5.988251,-0.671722 6.659973,0c0.671753,0.671753 0.167419,2.361938 -1.899963,2.849976c-1.858948,0.438812 -3.809998,0 -1.910034,0c1.910034,0 3.809998,0 6.669983,0c2.859985,0 3.810059,0 4.76001,0c0.959961,0 0.959961,-0.949951 0.959961,-1.899963c0,-0.950012 -0.964722,-2.725677 -2.859985,-2.859985c-6.720398,-0.476196 -12.772614,-0.921082 -16.189941,-2.860046c-1.168488,-0.662994 -0.950012,-1.899963 -0.950012,-2.849976c0,-0.950012 -0.231567,-2.874146 0,-4.76001c0.478577,-3.897369 3.018188,-10.335831 3.809998,-11.429993c3.746643,-5.177216 3.050629,-7.036041 3.799988,-7.619995c3.099182,-2.415131 0.960022,-4.76001 0.960022,-5.720001c0,-2.850006 0.950012,-2.850006 0.950012,-3.809998c0,-0.950012 -0.950012,-0.950012 -3.809998,-0.950012c-0.950012,0 -2.860046,0 -4.76001,0c-0.950012,0 -2.204529,-0.629349 -4.76001,0.950012c-1.154907,0.71376 -2.188232,1.631744 -2.859985,0.959991c-0.678802,-0.678818 1.825745,-1.322357 2.859985,-3.809998c0.36853,-0.886429 0.586456,-1.982315 0.950012,-2.859985c0.51413,-1.241257 0,-0.950012 -1.910034,-0.950012c-3.809998,0 -4.76001,0 -10.469971,0c-5.720032,0 -6.784149,-0.218124 -12.380005,2.850006c-4.87677,2.673874 -7.454651,2.956802 -8.570007,4.769989c-0.497742,0.809174 3.751373,-1.011765 4.76001,-1.910004c4.553192,-4.054901 7.916687,-5.266479 9.52002,-6.660004c2.276978,-1.979004 4.759949,-2.85997 6.669983,-4.769989c0.950012,-0.950012 0.908386,2.185974 -0.950012,6.670013c-1.316742,3.177063 -3.737671,5.346436 -2.859985,5.709991c1.241241,0.514145 3.190033,-3.529343 4.76001,-5.709991c2.487579,-3.455139 3.665558,-5.878601 4.759949,-6.670013c1.728607,-1.250061 2.788696,-2.261246 1.910034,-1.899994c-1.249146,0.513565 -1.030731,1.481949 -4.77002,6.669983c-2.356659,3.269714 -4.76001,5.710022 -9.519958,10.470001c-0.950012,0.950012 -0.658783,4.324142 -1.900024,3.809998c-0.877655,-0.363556 -0.144714,-1.939026 0.950012,-5.709991c0.840179,-2.89415 1.27124,-4.105392 2.859985,-6.669983c0.70752,-1.14212 0.950012,-2.860016 1.900024,-2.860016l0,-0.949982" stroke-width="2px" stroke="#000000" fill="none" id="svg_8"/>
  <path d="m424.380005,239.329987c0.949951,0 -0.077881,-0.662918 -2.859985,0c-2.070801,0.493439 -9.441071,2.309769 -18.090027,3.809998c-7.56723,1.312592 -12.658264,1.631744 -13.330017,0.959991c-0.678802,-0.678818 2.025482,-0.88681 4.76001,-5.720001c0.467804,-0.826813 6.072174,-3.883224 7.619995,-7.619995c0.363525,-0.87767 5.431763,-3.138245 4.76001,-3.809998c-0.671753,-0.671753 -6.527985,4.959671 -10.480042,7.619995c-4.606628,3.100952 -11.475342,9.773087 -20.949951,13.330017c-1.788177,0.67131 -2.568787,1.395859 -3.809998,1.910004c-0.877686,0.363571 -2.333893,-0.286575 -0.950012,-1.910004c5.310547,-6.229843 13.397461,-8.463715 20.950012,-13.330017c2.886322,-1.859741 5.191132,-1.947922 1.899963,-0.949982c-0.909149,0.275665 -8.515961,3.001419 -13.329956,4.759979c-2.83075,1.034073 -8.278778,3.374161 -9.52002,2.860016c-0.877686,-0.363556 3.434326,-2.784271 5.709961,-4.76001c1.610809,-1.398529 3.229706,-5.642273 5.720032,-6.669983c0.878174,-0.362411 3.986725,-1.617905 5.710022,-2.860016c1.089874,-0.785538 1.909973,-1.899994 1.909973,-2.850006c0,-0.959991 0.0867,0.096481 -0.960022,0.950012c-2.654572,2.164627 -6.290283,6.734039 -6.659973,7.619995c-0.520142,1.246445 -3.032837,0.66156 0,-0.959991c1.675568,-0.895874 7.607513,-5.722473 11.419983,-9.519989c0.956909,-0.953156 6.010071,-2.35199 9.530029,-3.810028c2.482452,-1.028275 1.776642,-0.109055 0.950012,0.950012c-3.422028,4.384338 -4.857819,7.531357 -5.710022,8.570007c-2.181458,2.658752 -3.51825,6.847107 -4.77002,8.579987c-0.786713,1.089096 -0.956024,1.897995 0,-0.959991c0.954041,-2.85202 6.591736,-7.037537 7.619995,-9.519989c0.363556,-0.877701 3.531799,-3.13826 2.860046,-3.809998c-0.671753,-0.671753 -5.558075,1.691956 -7.620056,6.669983c-0.363556,0.877701 -7.895325,10.108231 -10.469971,12.380005c-1.599548,1.411377 -4.76001,4.76001 -3.809998,4.76001c1.900024,0 2.587738,-6.706924 2.849976,-7.620026c2.481415,-8.64061 5.884491,-10.340057 6.670044,-11.429993c1.242035,-1.723282 1.317322,-3.736923 0.949951,-2.850006c-0.514099,1.241226 -4.467865,4.936722 -5.709961,6.660004c-0.785583,1.08992 -1.717133,5.466293 -2.859985,4.76001c-2.555511,-1.579315 2.536499,-3.866776 2.859985,-4.76001c2.531281,-6.989594 7.059387,-9.290359 8.570007,-12.380005c1.3237,-2.707352 -3.553162,5.937485 -7.619995,10.480011c-1.792297,2.001938 -7.327911,11.606705 -8.570007,13.330017c-0.785553,1.08989 -1.311279,2.78862 -0.950012,1.909973c0.51358,-1.24913 2.221222,-6.965408 3.809998,-9.529999c0.70752,-1.142105 -0.393494,-3.416473 0.950012,-4.759979c0.671753,-0.671753 -1.748047,-0.218018 -3.809998,4.759979c-0.363556,0.877701 -1.996582,4.596588 -3.809998,5.720001c-0.807587,0.500305 -1.766388,1.455154 -0.950012,0.950012c3.620422,-2.240189 3.294769,-5.119583 4.76001,-6.670013c4.984741,-5.274521 5.99115,-11.701141 6.669983,-12.379974c0.671753,-0.671753 -4.327942,4.388123 -7.619995,9.519989c-1.154236,1.799301 -4.474548,6.848099 -5.720032,8.579987c-0.784393,1.090714 -1.388763,-0.051086 -0.949951,-1.910004c0.488037,-2.067413 4.717621,-5.282928 5.709961,-8.569977c0.274567,-0.90947 1.910034,-0.959991 1.910034,-1.910004c0,-0.950012 -2.860046,1.910004 -5.720032,4.769989c-0.950012,0.950012 -2.683136,5.0448 -5.709961,6.660004c-0.838135,0.44725 -1.00058,-0.284805 0,-1.899994c1.123383,-1.813431 2.35968,-2.717606 2.859985,-1.910004c1.123413,1.813446 -2.127502,3.006012 -2.859985,4.769989c-1.548401,3.728912 -2.860046,3.809998 -1.900024,3.809998c1.900024,0 12.453979,-1.341644 21.900024,-2.859985c8.668945,-1.393433 12.380005,-1.910004 14.289978,-1.910004c0.950012,0 -0.002472,0.95752 -1.909973,2.860016c-0.951233,0.948746 -7.398651,1.106644 -11.430054,3.809998c-2.851746,1.912308 -6.54303,3.802765 -6.659973,2.859985c-0.483673,-3.8992 7.620483,-2.85759 12.380005,-3.809998c9.520996,-1.905212 17.147186,-1.707565 20,-1.910004c6.710571,-0.476181 10.471985,-0.945984 6.660034,0.959991c-3.808075,1.904022 -7.038086,2.945419 -14.280029,6.660004c-3.060059,1.569595 -5.319427,0.559448 -6.669983,1.910004c-0.671753,0.671753 0.949951,0.950012 4.759949,0.950012c0.960022,0 4.77002,0.960022 4.77002,0c0,-0.960022 -0.960022,0.949982 -1.909973,0.949982l-0.950012,0l-0.950012,0" stroke-width="2px" stroke="#000000" fill="none" id="svg_9"/>
  <path d="m399.619995,226.949982c0,0.950012 0,1.910004 0,2.860016c0,0.949982 -0.678802,2.181168 0,2.859985c1.343475,1.343475 2.989136,-0.720505 6.669983,-2.859985c2.966156,-1.72406 4.173553,-2.787704 3.809998,-1.910004c-1.033661,2.495529 -5.791687,4.653503 -10.47998,7.619995c-2.90625,1.838913 -3.810028,3.809982 -4.76001,2.859985c-1.899963,-1.899979 2.852478,-3.80748 4.76001,-5.709991c2.863739,-2.856216 4.088257,-3.138245 4.76001,-3.809998c0.678802,-0.678818 -1.513519,-1.701721 -6.670044,0.950012c-1.194763,0.61441 -8.232574,6.638626 -12.380005,7.619995c-1.848907,0.4375 -6.296417,0.877701 -6.659973,0c-0.51413,-1.241257 1.218811,-1.499252 2.849976,-2.860016c3.658234,-3.051773 3.806274,-3.813736 6.670044,-6.669983c1.907501,-1.902481 3.731689,-1.317551 4.759949,-3.800018c0.367371,-0.886917 0.950012,-0.959991 0.950012,0.950012c0,0.950012 -1.717377,3.050934 -3.799988,4.76001c-2.654236,2.178192 -2.885162,2.642685 -3.809998,2.859985c-2.07663,0.487946 -2.683289,2.192062 -0.960022,0.950012c2.191315,-1.579391 3.026917,-4.002579 9.530029,-7.619995c5.258972,-2.925354 7.434723,-0.910736 14.279968,-4.76001c1.177246,-0.662003 -1.53299,0.88092 -3.809998,2.859985c-1.603302,1.393524 -9.412445,5.882751 -12.380005,7.610016c-1.839783,1.070831 -5.123474,2.787674 -4.759949,1.910004c0.514099,-1.241226 4.338776,-5.255035 7.619995,-7.619995c1.723267,-1.242065 6.889069,-7.47467 7.619995,-5.710022c0.51413,1.241257 -7.241241,5.288727 -12.380005,8.570007c-1.797974,1.148071 -9.65686,3.398804 -13.340027,4.76001c-1.992493,0.736374 -3.131165,2.578827 -3.809998,1.899994c-0.671753,-0.671753 0.330627,-1.618683 1.910034,-3.809998c1.242065,-1.723282 3.191162,-5.428513 4.76001,-7.610016c1.245453,-1.731827 2.857483,-3.812469 3.809998,-4.769989c0.947479,-0.952469 0.295502,0.178146 -0.950012,1.910004c-0.784424,1.090744 -2.786774,3.444138 -1.910034,3.809998c1.24646,0.520126 4.197357,-0.935349 7.619995,-2.859985c1.177246,-0.662003 9.407684,-1.787674 11.430054,-3.810028c0.671753,-0.671738 0.9487,-0.951218 0,0c-1.902496,1.907532 -6.378815,6.155869 -7.620056,6.670013c-0.877655,0.363525 -1.608734,2.414139 -2.849976,1.899994c-1.755371,-0.727112 1.11377,-2.711868 1.900024,-3.809998c2.478516,-3.461624 4.24585,-4.468796 4.759949,-5.709991c0.363556,-0.877701 0.805389,-2.637085 -0.949951,-1.910004c-2.495575,1.033691 -3.667603,2.577377 -8.570007,6.670013c-3.657135,3.05304 -4.763763,3.806213 -5.720032,4.759979c-1.907471,1.902496 -1.806976,0.166809 0,-0.949982c0.81665,-0.504715 1.628357,-2.108627 3.809998,-4.76001c0.858154,-1.042938 0.668793,-3.374161 1.910034,-2.860016c0.877686,0.363556 -0.009949,1.900055 -2.859985,4.76001c-0.953339,0.95668 0.999268,-0.64621 1.909973,-0.949982c4.519226,-1.507462 8.571259,-4.758759 9.52002,-5.710022c1.902466,-1.907501 -0.432098,-0.527954 -2.860046,1.899994c-2.427917,2.427917 -1.833405,5.83429 -6.659973,8.570007c-1.661621,0.941818 -1.935608,0.730789 -2.859985,0.950012c-2.080017,0.493317 -0.812927,1.087204 0.950012,-0.950012c3.117401,-3.602402 4.653473,-5.831284 5.719971,-6.660004c4.384888,-3.407333 7.41925,-5.962952 8.570007,-6.669983c2.559601,-1.572662 2.849976,-1.910004 1.900024,-1.910004c-0.950012,0 -3.883698,3.613556 -6.670044,4.769989c-5.894226,2.446289 -11.130859,6.146439 -12.380005,6.660004c-2.635895,1.08371 -3.736908,0.068558 -2.849976,-0.949982c3.124634,-3.588242 6.145874,-8.278793 6.659973,-9.52002c0.367371,-0.886917 1.323578,-1.837692 0.960022,-0.959991c-0.519562,1.254303 -0.960022,1.910004 0,1.910004c0.950012,0 7.219421,-1.350601 8.570007,0c0.671753,0.671738 0,1.899994 0,2.859985c0,3.809998 0,7.619995 0,10.470001c0,4.76001 0.219238,6.695663 0,7.619995c-0.493317,2.080002 -1.231445,2.658783 0.950012,0c1.704346,-2.077271 2.43927,-2.034439 5.709961,-4.759979c3.659851,-3.049835 5.2836,-4.460861 4.77002,-5.710022c-0.365051,-0.887909 -5.580048,3.01445 -6.669983,3.800018c-5.188049,3.739319 -10.624664,4.992935 -12.380005,5.720001c-1.241241,0.51413 -2.196106,0.77594 -0.950012,-0.950012c1.577026,-2.184311 3.550201,-4.029541 7.609985,-8.570007c0.904938,-1.012085 2.860046,-2.859985 1.910034,-2.859985c-0.950012,0 -0.951202,0.949219 -2.860046,3.809998c-1.901154,2.849213 -3.809998,3.809998 -3.809998,2.850006l0,-0.950012l0,-0.949982l0,-0.950012" stroke-width="2px" stroke="#000000" fill="none" id="svg_10"/>
  <path d="m439.619995,285.049988l38.380005,-38.049988l-124,-10" stroke-width="2px" stroke="#000000" fill="#050000" id="svg_11"/>
  <ellipse ry="3.81" rx="55.24" cy="238.38" cx="235.81" stroke-width="2px" stroke="#000000" fill="#050000" id="svg_12"/>
  <ellipse ry="17.14" rx="61.91" cy="260.29" cx="189.14" stroke-width="2px" stroke="#000000" fill="#050000" id="svg_13"/>
  <ellipse ry="12.38" rx="26.67" cy="235.52" cx="202.48" stroke-width="2px" stroke="#000000" fill="#050000" id="svg_14"/>
  <ellipse ry="26.67" rx="47.62" cy="246.95" cx="227.24" stroke-width="2px" stroke="#000000" fill="#050000" id="svg_15"/>
  <ellipse ry="20" rx="44.76" cy="256.48" cx="369.14" stroke-width="2px" stroke="#000000" fill="#050000" id="svg_16"/>
  <path d="m142.47998,259.330017l227.52002,-19.330017l0,54l-328,10l100.47998,-44.669983z" stroke-width="2px" stroke="#000000" fill="#050000" id="svg_17"/>
  <path d="m352.950012,292.670013l223.049988,-1.670013l-85,-61l-79,-30l-59.049988,92.670013z" stroke-width="2px" stroke="#000000" fill="#000000" id="svg_18"/>
  <path d="m355.809998,225.049988l-15.809998,39.950012l-55,-2l40,-41l30.809998,3.049988z" stroke-width="2px" stroke="#000000" fill="#000000" id="svg_19"/>
  <path d="m581.52002,289.809998l-52.52002,-2.809998l-129,-79l-35,11l1,76" stroke-width="2px" stroke="#000000" fill="#000000" id="svg_20"/>
  <line y2="301.24" x2="152.95" y1="291.71" x1="572.95" stroke-width="2px" stroke="#000000" fill="none" id="svg_21"/>
  <line y2="299.33" x2="323.43" y1="291.71" x1="577.71" stroke-width="2px" stroke="#000000" fill="none" id="svg_22"/>
  <line y2="299.33" x2="289.14" y1="291.71" x1="576.76" stroke-width="2px" stroke="#000000" fill="none" id="svg_23"/>
  <line y2="258.38" x2="480.57" y1="260.29" x1="480.57" stroke-width="2px" stroke="#000000" fill="none" id="svg_24"/>
  <rect height="14.29" width="202.85" y="282.19" x="351.05" stroke-width="2px" stroke="#000000" fill="#000000" id="svg_25"/>
  <rect height="6.67004" width="292.38" y="291.71" x="109.14" stroke-width="2px" stroke="#000000" fill="#000000" id="svg_26"/>
  <rect height="16.19" width="46.66" y="277.43" x="467.24" stroke-width="2px" stroke="#000000" fill="#000000" id="svg_27"/>
  <line y2="293.62" x2="589.14" y1="293.62" x1="546.29" stroke-width="2px" stroke="#000000" fill="none" id="svg_28"/>
  <line y2="296.48" x2="588.19" y1="302.19" x1="57.71" stroke-width="2px" stroke="#000000" fill="none" id="svg_29"/>
  <line y2="296.48" x2="590.1" y1="296.48" x1="576.76" stroke-width="2px" stroke="#000000" fill="none" id="svg_30"/>
  <line y2="293.62" x2="587.24" y1="293.62" x1="580.57" stroke-width="2px" stroke="#000000" fill="none" id="svg_31"/>
  <line y2="232.67" x2="379.62" y1="231.71" x1="376.76" stroke-width="2px" stroke="#000000" fill="none" id="svg_32"/>
  <line y2="376.48" x2="655.81" y1="378.38" x1="656.76" stroke-width="2px" stroke="#000000" fill="none" id="svg_33"/>
 </g>
</svg>