<?xml version="1.0" encoding="UTF-8" standalone="no"?>
<svg
   version="1.0"
   width="1283.6771pt"
   height="437.32816pt"
   viewBox="0 0 1283.6771 437.32815"
   preserveAspectRatio="xMidYMid meet"
   id="svg842"
   sodipodi:docname="mountain-bg.svg"
   inkscape:version="1.1.1 (3bf5ae0d25, 2021-09-20)"
   xmlns:inkscape="http://www.inkscape.org/namespaces/inkscape"
   xmlns:sodipodi="http://sodipodi.sourceforge.net/DTD/sodipodi-0.dtd"
   xmlns="http://www.w3.org/2000/svg"
   xmlns:svg="http://www.w3.org/2000/svg">
  <defs
     id="defs846" />
  <sodipodi:namedview
     id="namedview844"
     pagecolor="#ffffff"
     bordercolor="#666666"
     borderopacity="1.0"
     inkscape:pageshadow="2"
     inkscape:pageopacity="0.0"
     inkscape:pagecheckerboard="0"
     inkscape:document-units="pt"
     showgrid="false"
     inkscape:zoom="0.38466797"
     inkscape:cx="287.26073"
     inkscape:cy="687.60599"
     inkscape:window-width="1920"
     inkscape:window-height="1017"
     inkscape:window-x="-8"
     inkscape:window-y="-8"
     inkscape:window-maximized="1"
     inkscape:current-layer="g840" />
  <metadata
     id="metadata836">
Created by potrace 1.15, written by Peter Selinger 2001-2017
</metadata>
  <g
     transform="matrix(0.1,0,0,-0.10213854,0.57106373,792.22675)"
     fill="#000000"
     stroke="none"
     id="g840"
     style="fill:#1c1158;fill-opacity:1">
    <path
       style="fill:#1c1158;fill-opacity:1"
       d="m 2680,7754 c -14,-2 -65,-11 -115,-20 -49,-9 -155,-37 -235,-64 -226,-76 -292,-86 -468,-71 -299,24 -336,30 -432,62 l -95,31 -304,9 c -304,8 -305,8 -402,-16 -53,-14 -148,-43 -210,-66 C 235,7553 230,7552 121,7536 63,7527 13,7520 8,7520 4,7520 0.56754071,4777.7799 -5.7106373,3474.6785 L 12827.573,3487.2372 v 2334.3001 l 3.487,261.7754 c -35,4 -178.06,14.6873 -206.06,22.6873 -27,8 -95,23 -150,34 -136,25 -179,41 -330,119 -71,38 -170,83 -220,101 -49,18 -139,54 -200,80 -131,57 -228,86 -313,95 -35,3 -105,19 -155,35 -211,67 -317,103 -407,140 -52,22 -147,51 -210,65 -119,26 -238,75 -328,136 -26,18 -116,84 -200,147 -85,63 -179,129 -209,148 -63,38 -242,84 -326,84 -85,0 -255,-27 -340,-54 -134,-43 -247,-65 -382,-76 -75,-5 -157,-18 -195,-30 -124,-39 -210,-60 -245,-60 -19,0 -77,-6 -128,-14 -50,-8 -128,-18 -172,-21 -87,-8 -273,-66 -417,-131 l -81,-36 -141,6 c -78,3 -168,10 -201,16 -33,6 -127,13 -210,16 -148,6 -152,5 -290,-30 -139,-36 -268,-77 -475,-152 l -105,-38 -168,2 c -154,2 -177,0 -290,-27 -225,-54 -231,-55 -592,-54 -337,1 -341,1 -429,27 -48,15 -149,55 -225,91 -145,68 -197,85 -348,111 -111,19 -195,44 -275,85 -96,49 -249,181 -406,352 -228,248 -384,381 -522,445 -61,29 -88,35 -155,37 -44,2 -91,2 -105,-1 z"
       id="path838"
       sodipodi:nodetypes="ccccccccccsccccccccccccccccscccscccccsccccccccccccccc" />
  </g>
</svg>
