<?xml version="1.0" encoding="UTF-8" standalone="no"?>
<!-- Generator: Adobe Illustrator 19.0.0, SVG Export Plug-In . SVG Version: 6.00 Build 0)  -->

<svg
   version="1.0"
   id="Layer_1"
   x="0px"
   y="0px"
   width="291.91299"
   height="371.65857"
   viewBox="0 0 291.91299 371.65857"
   enable-background="new 0 0 1400 980"
   xml:space="preserve"
   sodipodi:docname="seaweed (1).svg"
   inkscape:version="1.1.1 (3bf5ae0d25, 2021-09-20)"
   xmlns:inkscape="http://www.inkscape.org/namespaces/inkscape"
   xmlns:sodipodi="http://sodipodi.sourceforge.net/DTD/sodipodi-0.dtd"
   xmlns="http://www.w3.org/2000/svg"
   xmlns:svg="http://www.w3.org/2000/svg"><defs
   id="defs277">
	
	
	
	
	
	
	
	
	
	

	
	
	
	
	
	
	
	
	
	
	
	
	
	
	
	
	
</defs><sodipodi:namedview
   id="namedview275"
   pagecolor="#ffffff"
   bordercolor="#666666"
   borderopacity="1.0"
   inkscape:pageshadow="2"
   inkscape:pageopacity="0.0"
   inkscape:pagecheckerboard="0"
   showgrid="false"
   inkscape:zoom="1.6510204"
   inkscape:cx="205.02472"
   inkscape:cy="185.03708"
   inkscape:window-width="1920"
   inkscape:window-height="1017"
   inkscape:window-x="-8"
   inkscape:window-y="-8"
   inkscape:window-maximized="1"
   inkscape:current-layer="Layer_1" />

<path
   id="XMLID_733_"
   fill="#a4d7ef"
   d="m -325.6,-90.710659 c 0.1,0.2 0.1,0.4 0.2,0.6 2.1,9.6 4.7,19.1 7.4,28.6 0.9,3.1 5.7,1.8 4.8,-1.3 -1.9,-6.7 -3.8,-13.4 -5.5,-20.3 -0.9,-8.1 -1.1,-16.4 1.6,-24.100001 2.7,-8 8.4,-13.4 15.2,-18 9.7,-6.7 24.7,-15.5 22,-29.7 -0.5,-2.9 -2,-5.4 -4.3,-7.3 -3.1,-2.4 -7.4,-2.6 -10.2,-5.4 -7.5,-7.7 3.7,-17.5 9.3,-22 10.7,-8.8 23.2,-22.8 14.7,-37.4 -2.4,-4 -4.6,-7.4 -1.2,-11.7 3,-3.8 7.7,-6 11.7,-8.5 6.5,-4 13.2,-9.4 17,-16.2 3.1,-5.6 3.4,-13.4 -2.2,-17.5 -2.6,-1.9 -6.6,-2.2 -8.8,-4.7 -3.3,-3.6 -1.9,-8.4 0.3,-12 2.9,-4.8 7.1,-9 8.3,-14.6 1.2,-5.3 -1.1,-11 -5.6,-14.1 -5.7,-4 -15.9,-3.1 -18,-11.2 -1.9,-7.3 6.8,-12.1 7.9,-19.1 0.9,-5.9 -1,-13 -7.2,-15.2 -4.2,-1.5 -8.5,-0.5 -10.1,-5.7 -1,-3.2 -1,-6.7 -1.6,-10 -1.3,-7.1 -4.9,-10.5 -11.7,-12.7 -10.4,-3.4 -19.8,-8.4 -28.5,-15.1 -1.9,-1.5 -4.1,0.9 -3.7,2.8 1.4,7 1.5,14.1 -0.1,21.1 -1.5,6.5 -5.3,12.6 -5.7,19.4 -0.4,6 3,10.4 4.2,16 1.5,6.9 -4.5,13.1 -7,19.1 -3.9,9.1 -5.5,20.6 0.1,29.3 3,4.8 8.7,7.6 11.1,12.8 4,8.3 -5.9,9.5 -10.6,13.4 -8.5,6.9 -10.5,18.7 -8.9,29 1,6.3 3.5,12 5.6,18 0.9,2.8 2,5.9 1.7,8.8 -0.3,4.1 -2.7,5.6 -6.1,7.4 -8.5,4.6 -13.5,14 -12.3,23.7 0.8,5.8 4.2,10.6 5.8,16.1 1,3.3 1.2,6.4 -0.7,9.4 -1.7,2.6 -4.2,4.7 -6.1,7.2 -7.6,10.3 -4.2,24.3 2.4,34.1 8.5,12.6 20.9,21.6 24.8,37.000001 z" /><path
   id="XMLID_736_"
   fill="#a4d7ef"
   d="m -198.4,-298.11066 c -5,3.1 -11,3.1 -14,8.9 -2.6,5.2 -2.5,12.1 -0.4,17.4 2.5,6.3 7.3,11.2 12,16 3.4,3.5 16.6,17.4 7.9,21 -2.3,1 -5,0.6 -7.4,1.7 -2.3,1.1 -4,2.9 -5,5.3 -2,5.1 -0.3,10.6 2.8,14.9 4.1,5.6 14.9,11.9 12.3,20.1 -1.8,5.5 -8.9,7.8 -12.2,12.3 -10.8,14.7 10.9,25.9 17.2,36.3 8.3,13.6 9.8,30.7 10.5,46.200001 -3,7.4 -4.3,15.4 -3.7,23.6 0.2,3.2 5.2,3.2 5,0 -0.5,-8 0.8,-15.4 3.7,-22.5 5.6,-6.200001 11.9,-11.700001 18.8,-16.300001 7.2,-4.8 15.3,-7.9 22.5,-12.6 9.9,-6.5 18.4,-18.3 13.2,-30.6 -2.4,-5.6 -6.5,-8.1 -12.1,-9.7 -11,-3.1 -3.7,-14.8 -0.3,-21.4 4.3,-8.3 17.7,-27.3 4.9,-34.8 -3.2,-1.8 -7,-0.8 -10.1,-2.6 -5.1,-2.9 -2.7,-9.6 -0.3,-13.5 4.9,-7.7 11.9,-14.5 17.7,-21.4 7.4,-8.8 20.9,-22.6 9.4,-33.8 -1.8,-1.8 -4.1,-3.1 -6.4,-4 -3,-1.2 -5.9,-0.9 -8.8,-1.6 -6.2,-1.6 -4.6,-7.9 -3.4,-12.7 0.9,-3.6 1.9,-7.2 2.2,-10.9 0.4,-5.4 -0.9,-11.5 -5.6,-14.7 -4.7,-3.3 -10.3,-2.2 -15.5,-1.4 -4.2,0.7 -8.3,1.1 -11.5,-2.4 -4,-4.4 -1.9,-7.7 1.9,-11.1 6,-5.4 11.4,-10.2 15.3,-17.4 4,-7.3 6.5,-15.3 7.4,-23.6 0.4,-3.7 0.6,-7.4 -0.1,-11.1 -0.6,-3.2 -2.5,-7.3 -2,-10.6 0.5,-3.2 -3.7,-4.4 -4.8,-1.3 -3,8.2 -13.5,8 -20.5,10.3 -6.3,2 -10.3,6.2 -13.8,11.6 -1.7,2.6 -3.3,5.4 -5.5,7.7 -3.4,3.5 -7.6,4 -12.3,4.4 -6.4,0.6 -11.9,2.3 -16.6,6.9 -9.8,9.7 -10.3,24.6 -5.1,36.8 3.1,7.2 8.3,12.6 12.6,19.1 4.3,6.2 7.8,16.7 0.1,21.5 z" /><path
   id="XMLID_739_"
   fill="#a4d7ef"
   d="m 1309.6507,-156.35108 c 5.3,-8 8.8,-17.1 9.9,-26.7 0.6,-5.2 -0.2,-10.1 -5.5,-12.2 -2,-0.8 -3.9,-0.9 -5.8,-0.6 5.9,-8.7 9.5,-19 9.7,-29.5 0.1,-5.5 -1.3,-10.9 -6.8,-13.1 -3.8,-1.5 -7.5,-0.9 -11,0.6 4.1,-9.6 6.9,-20.1 3.5,-30.2 -1.4,-4.2 -4.3,-7.9 -9,-8.3 -2.5,-0.2 -4.8,0.7 -6.8,2 2.1,-9.8 2.8,-21 -1.3,-29.4 -2.4,-5 -8.7,-8.2 -13.5,-6.6 0,-2.8 -0.3,-5.5 -1.4,-8.5 -1.6,-4.3 -4,-8.7 -7.8,-11.5 -3,-2.2 -6.8,-2.7 -10.3,-1.4 -1.7,0.6 -3.4,1.5 -4.8,2.8 -1,0.9 -2.3,3.5 -3.3,3.3 -0.8,-0.2 -2.7,-3.4 -3.4,-4.1 -1.5,-1.6 -3.2,-3.1 -5,-4.3 -3.4,-2.4 -7.5,-4 -11.7,-4.1 -6.1,0 -12.2,3.1 -14.8,8.6 -6.8,-4.2 -15,-7.6 -22.8,-4.3 -5.8,2.4 -10,8.2 -9.3,14.3 -7.6,2.3 -15.7,5.1 -20.6,11.6 -4.1,5.4 -5.6,12.6 -2.7,18.7 -9,7.8 -11.6,21.4 -5.5,31.8 -10.4,11.8 -8.3,29.7 4.6,38.8 -2.1,6.9 -1.2,14.9 4.4,20 5.1,4.6 13,5.3 18.6,1.3 0.1,-0.1 0.1,-0.1 0.2,-0.2 6.2,9.2 14.4,16.8 25.3,19.6 3.1,0.8 4.4,-4 1.3,-4.8 -17.7,-4.7 -27.5,-23.5 -33,-39.5 -6.2,-18 -8.1,-38 -2,-56.3 5.2,-15.5 16.7,-30.3 33,-34.7 16.4,-4.5 33.5,2.9 45.6,13.9 28.3,25.9 32.3,70.4 34.9,106.3 2.4,33.8 1.8,67.7 1.5,101.500001 -0.3,30.3 -0.4,60.5 -1.5,90.80000014 -0.1,3.19999996 4.9,3.19999996 5,0 1,-28.10000014 1.2,-56.20000014 1.4,-84.40000014 0.1,-0.2 0.2,-0.4 0.3,-0.7 4.1,-18.200001 20,-30.000001 28.7,-45.800001 3.2,-5.9 7.2,-14.9 2.3,-21 -3,-3.9 -6.8,-4.5 -10.6,-3.7 z" /><path
   id="XMLID_742_"
   fill="#a4d7ef"
   d="m 1484.5507,-159.05108 c 0.2,-6.5 -3.1,-12.1 -7,-17.1 6.9,-3 9.9,-12 6,-19 -5,-8.9 -14.8,-10.5 -24.1,-9.5 1.3,-2 2.3,-4.2 2.4,-6.7 0.1,-4.2 -2.1,-8.1 -6.2,-9.3 -7.3,-2.2 -15.7,-0.1 -22.8,3.6 0.5,-2.2 0.5,-4.5 -0.5,-6.8 -1.9,-4.3 -5.9,-5.6 -10.4,-4.6 -8.8,1.9 -16.6,7.8 -21.9,15.1 -0.3,-3.7 -0.9,-7.2 -5.3,-9.2 -4.7,-2.2 -10,-0.5 -13.8,2.7 -8.2,7.2 -12.5,19.1 -14,30.5 -0.9,-1.1 -2,-2.1 -3.4,-2.7 -4.6,-2.3 -9.8,-0.5 -13.1,3.2 -4.1,4.6 -4.4,11.2 -4.4,17.1 0,6.5 0.6,12.9 1.7,19.3 -4.7,-2.3 -9.7,-2.1 -13.6,3.2 -5.5,7.6 -1.6,18.4 1.6,26.1 3.9,9.4 9.5,18.1 13.4,27.600001 3.9,9.4 7.1,19.6 8.3,29.7 -1.1,21.5 -1.4,43.2 0.1,64.6000001 0.2,3.2 5.2,3.2 5,0 -1.4,-19.9000001 -1,-40.0000001 -0.2,-60.0000001 0,-1.2 0.1,-2.4 0.1,-3.6 0,-0.2 0.1,-0.5 0,-0.7 0.8,-20 2.1,-40.100001 5.4,-59.800001 4,-24.2 12.5,-51.2 35.1,-64.2 21.2,-12.3 51.5,-3.3 59.2,21.2 3.9,12.3 1,26.4 -7,36.5 -7.5,9.4 -24.2,17.9 -34.3,7.2 -2.2,-2.3 -5.7,1.2 -3.5,3.5 4.7,5 11.2,6.6 17.6,6.1 0,0.2 0.1,0.3 0.2,0.5 6.1,12.7 23.9,11.3 28.5,-1.2 5.8,0.9 11.5,-2.5 14.6,-7.6 4.2,-7.1 2.2,-15.7 -0.5,-23.1 4.2,-2.7 6.6,-7.3 6.8,-12.6 z" /><path
   id="XMLID_745_"
   fill="#a4d7ef"
   d="m 55.3,-203.61066 c 0.1,0.2 0.3,0.4 0.4,0.6 3.3,4.4 7.6,7 12.9,8.8 6.2,2.1 11.1,5.6 15.5,10.5 3.9,4.4 7.6,9.9 8.9,15.8 1.6,7.1 -0.2,15 -1.8,22 -2.7,11.9 -10.7,24 -5.7,36.5 2.2,5.6 7.1,9.2 10.2,14.200001 4,6.4 5.5,13.8 4.9,21.3 -0.2,2.6 3.4,3.2 4.7,1.3 4.2,-6.6 6.8,-14.1 7.3,-21.9 0.6,-9.200001 -3.2,-18.000001 -2.9,-27.100001 0.7,-17.3 12.9,-31.6 15.2,-48.6 0.9,-6.9 0.4,-14 -2.9,-20.2 -3.5,-6.6 -9.7,-10.4 -16.3,-13.6 -7.6,-3.7 -14.8,-7.1 -20.1,-13.9 -5.1,-6.6 -8,-14.9 -7.8,-23.2 0.3,-17 12.2,-37.2 -2.6,-51.6 -1.3,-1.2 -3.8,-0.8 -4.2,1.1 -1.8,9.6 -5.1,18.3 -9.2,27.2 -2.8,6.1 -4.5,12.7 -5,19.4 -0.2,3.5 0.3,6.7 0.8,10.1 0.8,5.2 0.7,8.6 -1.9,13.2 -3.4,6.2 -4.2,11.6 -0.8,17.9 0.1,-0.2 0.2,0 0.4,0.2 z" /><path
   id="XMLID_748_"
   fill="#a4d7ef"
   d="m 157.99999,-229.01066 c -0.4,-7.2 0.8,-14.4 2,-21.5 0.4,-2.2 -2.3,-4.5 -4.2,-2.4 -7.5,8.3 -15.5,17.3 -17.6,28.6 -1.9,10.3 1.5,20.5 4.3,30.3 3.4,11.8 5.5,22.9 -1.5,33.9 -6.1,9.5 -14.59999,18.5 -11.49999,30.7 0.1,0.5 0.4,0.9 0.7,1.2 0,0 0,0.1 0,0.1 0.1,3.2 5.09999,3.2 4.99999,0 -0.5,-13.1 14.3,-18.4 22.3,-26.1 7.1,-6.9 11.5,-16.3 12.7,-26.1 1.3,-10.6 -1.9,-19.6 -6.4,-29 -3.2,-6.5 -5.5,-12.6 -5.8,-19.7 z" /><path
   id="XMLID_751_"
   fill="#a4d7ef"
   d="m 217.69999,-228.31066 c -3.1,3.4 -5.9,6.7 -7.7,11 -0.1,0.2 -0.2,0.4 -0.3,0.7 -0.1,0.2 -0.1,0.5 -0.2,0.7 -1.9,8 1.3,16.5 -2.2,24.2 -3.1,6.7 -9.3,8.7 -14.4,13.3 -10,9.2 -2.5,23.2 6.1,30.2 5.8,4.8 12.9,8.5 17,15 4.2,6.5 5.1,14.7 2.5,21.9 -4.4,12.500001 -17.7,24.200001 -9.7,38.300001 1.3,2.4 4.4,1 4.7,-1.3 1.3,-10.9 13.7,-15.1 21.1,-21.1 7,-5.600001 11.8,-14.100001 14.1,-22.700001 2.2,-8 1.7,-16.9 -3.2,-23.8 -5.2,-7.4 -19.3,-9.5 -21.1,-18.9 -1.6,-7.9 7.6,-14.8 9.2,-22.2 1,-4.8 -0.5,-9.6 -0.4,-14.4 0,-4.4 1.6,-8.2 3.9,-11.9 4,-6.3 9.6,-11.5 12.9,-18.2 3.6,-7.2 3.6,-14.8 0.6,-22.3 -2.9,-7.3 -7.6,-13.7 -12.2,-20 -3.2,-4.4 -7.8,-9.1 -9.9,-14.1 -1.1,-2.6 -5.4,-0.7 -4.6,1.9 3.6,12.3 5.8,25.4 2.4,38.1 -1.8,5.9 -4.5,11 -8.6,15.6 z" /><path
   id="XMLID_754_"
   fill="#a4d7ef"
   d="m 182.19999,-256.81066 c -0.8,9 -5,17.4 -5.8,26.5 -0.3,3.4 -0.2,6.8 0.3,10.1 0.3,6 2.2,11.5 5.5,16.5 1.2,1.9 4.9,1.4 4.7,-1.3 -0.8,-8.2 0.5,-16.3 4.5,-23.6 3.6,-6.6 9.3,-11.4 14.2,-17 8.9,-10.1 11.6,-22.5 6.7,-35.2 -2.3,-6 -6,-11 -10.3,-15.8 -5.9,-6.6 -9.6,-13.2 -5.7,-22.1 3.2,-7.1 9.2,-12.4 13.2,-18.9 3.6,-5.9 5.4,-12.7 5.6,-19.6 0.4,-17.7 -9.1,-33.2 -18.3,-47.6 -1.5,-2.4 -5.3,-0.9 -4.6,1.9 4.9,19 6,37.2 -3.9,54.7 -7.8,13.7 -16.9,26.1 -15.4,42.7 1.6,16.4 10.7,31.9 9.3,48.7 z" /><path
   id="XMLID_757_"
   fill="#a4d7ef"
   d="m 104.1,-303.91066 c 3.4,8.9 1.3,17.1 -3,25.3 -6.2,12 -14.8,25.9 -6,38.9 7.4,10.8 22,14.6 27.8,26.7 1.4,2.9 5.6,0.4 4.3,-2.5 -6.3,-14.2 -11,-29.5 -5.3,-44.8 2.4,-6.5 5.9,-12.9 9.3,-18.9 2.99999,-5.2 5.39999,-10.2 5.39999,-16.2 0,-0.2 0,-0.4 0,-0.6 0,-0.2 0,-0.4 -0.1,-0.6 -2.6,-19.4 -24.69999,-24.1 -32.39999,-40.3 -9.2,-19.3 3.6,-41.6 2.6,-61.7 -0.2,-3.2 -5,-3.2 -5,0 -0.1,15.4 -21,20.2 -25.9,33.8 -5.2,14.5 4.4,28.6 13.3,39.2 5.9,6.6 11.9,13.3 15,21.7 z" /><path
   id="XMLID_760_"
   fill="#a4d7ef"
   d="m 24.3,-292.51066 c 8.6,8.3 17.1,15.9 15.1,29.1 -0.4,2.6 3.2,4.7 4.6,1.9 5.3,-10.7 9.4,-23.1 3.7,-34.4 -3,-6 -8.2,-11 -10.1,-17.6 -2.1,-7.2 1.9,-16.1 3.5,-23.2 2,-9.6 2.6,-19.7 -2.6,-28.4 -1.3,-2.1 -4.7,-1.3 -4.7,1.3 0.1,5.3 0.3,11.2 -2.3,16.1 -2.5,4.7 -7.1,7.9 -10.7,11.7 -5.6,6.1 -8.5,14.3 -7.7,22.6 0.7,8.5 5.2,15.1 11.2,20.9 z" /><path
   id="XMLID_763_"
   fill="#a4d7ef"
   d="m 47.2,-119.21066 c -0.2,3 3.9,3.1 4.9,0.7 5.6,-13.9 8.7,-29.6 -0.6,-42.6 -4.8,-6.6 -11.7,-12.3 -14.1,-20.3 -1.3,-4.5 -0.2,-9.3 0.5,-13.8 0.7,-4.4 1.4,-8.7 2,-13.1 1.3,-11.3 1,-23.4 -6.2,-32.8 -1.3,-1.7 -5,-1.5 -4.7,1.3 0.8,7.3 1.6,15.1 -2.1,21.8 -3,5.4 -8,9.5 -11.8,14.4 -6.2,8.1 -8.2,18.7 -5.8,28.5 2.6,10.6 10.2,17.5 18.6,23.9 11,8.3 20.3,17.1 19.3,32 z" /><path
   id="XMLID_766_"
   fill="#a4d7ef"
   d="m 275.59999,-299.61066 c 1.5,-7 1.9,-13.1 -0.8,-19.9 -2.7,-6.7 -7.7,-13.5 -6.5,-21.1 0.5,-2.8 -2.9,-4.3 -4.6,-1.9 -8,11.4 -12.1,25.4 -11.1,39.3 1.1,15.3 7.7,29.3 12.3,43.7 2.2,6.9 3.5,13.9 4.7,21.1 1.5,9 1.3,15.8 -3.6,23.7 -3.7,6 -9.1,9.3 -13.7,14.4 -3.8,4.2 -6.2,9.3 -6.9,14.9 -0.1,0.2 -0.1,0.4 -0.1,0.7 0,0.2 0,0.5 0,0.7 0.2,9.3 6.2,16.7 8.3,25.5 0.6,2.7 5.2,2.2 4.9,-0.7 -1.8,-16.3 16.9,-23.9 27.1,-32.9 9.6,-8.5 17.1,-19.8 18.1,-32.8 1,-13.9 -7,-23.4 -15.8,-33.1 -10.7,-11.9 -15.7,-25.6 -12.3,-41.6 z" /><path
   id="XMLID_769_"
   fill="#a4d7ef"
   d="m 106.5,217.78934 c 5.7,-4.2 12.2,-7.2 18,-11.3 6.9,-4.8 18.89999,-17.1 10.39999,-25.8 -8.49999,-8.8 -21.69999,3.7 -27.19999,9.9 -2,2.2 -3.8,4.6 -5.4,7 4.2,-9.8 12.2,-17.5 19.2,-25.4 5.5,-6.3 18.19999,-18.7 10.9,-27.6 -7.4,-9 -20,0.4 -24.8,7.2 -1.7,2.4 -3.2,5 -4.5,7.7 2.6,-6.6 6.5,-12.8 9.4,-19 3.5,-7.7 8.4,-19.9 -0.9,-25.6 -4.3,-2.7 -8.5,-1.9 -11.7,0.5 0.6,-2.1 1.1,-4.2 1.6,-6.4 1.2,-6.2 2.9,-18.799999 -5.9,-20.299999 -5.3,-0.9 -9,2.5 -11.3,6.8 0.2,-1.2 0.5,-2.4 0.8,-3.7 1.6,-7.4 5.4,-22 -1.9,-27.5 -2.1,-1.6 -3.9,-2 -5.5,-1.7 0.7,-1.4 1.3,-2.8 1.9,-4.1 1.9,-4.6 7.2,-18.2 1.8,-22.2 -5.2,-3.8 -10.1,2.8 -12.7,7.2 1.8,-10.2 5,-20.2 9.3,-29.7 1.3,-2.9 -3,-5.3999999 -4.3,-2.5 -6.4,13.9 -10.3,28.7 -11.6,43.7 -0.4,-1.4 -0.7,-2.9 -1.2,-4.2 -1.9,-5.8 -7.4,-14.6 -14.8,-13.1 -8,1.6 -7.1,12.2 -4.1,17.5 3.9,6.9 9.1,13.2 13.6,19.9 -4.6,-2.5 -10.1,-3.4 -14.3,-0.3 -7,5.1 -1.5,14.2 3.8,18 4.5,3.2 9.4,5.6 13.5,9.399999 0.6,0.5 1.1,1.1 1.7,1.7 -4.7,-2.2 -9.8,-2.9 -14.3,-0.2 -10.4,6.2 -0.9,17.2 5.9,21.2 7.3,4.4 15.3,7.7 22,12.6 -1,0 -2.1,0.2 -3.2,0.5 -10.5,3 -9.6,14.4 -3.9,21.4 5,6 11.6,10.5 16.5,16 -1,-0.5 -2,-0.9 -3.2,-1.2 -5.1,-1.3 -8.6,3.1 -10.2,7.4 -2.2,5.7 -0.9,11.7 1,17.3 2.8,8.2 5,16.3 6.1,24.4 -3.1,-11 -10.4,-24.6 -22.9,-24.2 -6.4,0.2 -10.2,6 -12,11.5 -2.3,7.5 -0.8,15.5 2,22.5 3.8,9.2 9.3,17.6 13.8,26.3 -6.1,-7 -15,-12 -23.9,-9 -13.3,4.5 -6.3,21.8 -0.9,29.9 4,6 9,11.1 14,16.3 -8.4,-3.9 -20.8,-1.5 -24.3,7.9 -4.6,12.3 9.1,18.7 18.2,22.4 13.3,5.4 27.9,9.6 34.4,23.8 0.1,0.1 0.1,0.2 0.2,0.4 3,6.5 6.4,12.9 9.6,19.1 1.5,2.9 5.8,0.3 4.3,-2.5 -3.3,-6.3 -6.7,-12.8 -9.8,-19.4 0,0 0,0 0,-0.1 -0.1,-0.1 -0.1,-0.3 -0.2,-0.4 -1.1,-2.3 -2.2,-4.7 -3.2,-7.1 -1.6,-14.4 17.6,-21.5 25.4,-30.8 5.3,-6.4 9.2,-18.6 -0.6,-23.1 -1.9,-0.9 -3.8,-1.3 -5.6,-1.3 1,-0.9 2.1,-1.7 3,-2.6 5.9,-5.3 21.8,-21.2 10.7,-28.9 -2,-1.4 -4.2,-2.2 -6.4,-2.4 3,-1.8 5.9,-3.6 8.8,-5.4 6.3,-3.9 13.5,-7.8 17.8,-14 3.1,-4.5 4.59999,-10.9 -0.4,-14.7 -5.4,-4.1 -12.6,-1.6 -17.9,1 -5.9,2.9 -11.5,6.7 -16.6,10.9 3.4,-4.3 7.5,-8.2 12,-11.6 z m -11.8,-18.2 c 0.1,0 0.1,0 0,0 0.1,0 0.1,0 0,0 0,0 0,0 0,0 z m -23.9,79.4 c 0,0 0.1,-0.1 0.1,-0.1 -0.1,0.3 -0.2,0.6 -0.3,0.8 0,-0.2 0.1,-0.4 0.2,-0.7 z"
   style="fill:#0ac29a;fill-opacity:1" /><path
   id="XMLID_790_"
   fill="#a4d7ef"
   d="m 265.19999,296.58934 c 4.8,-5 9.6,-9.9 13.5,-15.6 5.5,-8 13.2,-25.9 -0.5,-30.6 -8.9,-3 -17.8,2 -23.9,8.9 4.5,-8.7 10,-17.1 13.8,-26.3 2.9,-7.1 4.4,-15.1 2,-22.5 -1.7,-5.5 -5.6,-11.3 -12,-11.5 -12.6,-0.4 -19.9,13.5 -23,24.5 1,-8 3.1,-15.9 5.9,-23.9 2,-5.7 3.5,-11.9 1.4,-17.8 -1.6,-4.4 -5.2,-9 -10.4,-7.7 -1.1,0.3 -2.2,0.7 -3.2,1.2 4.9,-5.5 11.4,-10 16.5,-16 5.8,-6.9 6.7,-18.3 -3.9,-21.4 -1.1,-0.3 -2.2,-0.5 -3.2,-0.5 6.5,-4.8 14.2,-8 21.3,-12.2 6.9,-4 17.4,-15.2 6.6,-21.7 -4.6,-2.7 -9.6,-2 -14.4,0.2 0.4,-0.4 0.8,-0.8 1.2,-1.2 4.1,-3.899999 8.9,-6.299999 13.5,-9.499999 5.4,-3.8 11.6,-13 4.4,-18.4 -4.2,-3.1 -9.7,-2.2 -14.4,0.3 4.3,-6.4 9.2,-12.5 13.2,-19.1 3.2,-5.3 4.8,-16.5 -3.7,-18.2 -7.1,-1.5 -12.6,6.9 -14.6,12.5 -0.5,1.6 -1,3.1 -1.4,4.8 -1.3,-15 -5.2,-29.7 -11.6,-43.6 -1.3,-2.8999999 -5.7,-0.4 -4.3,2.5 4.4,9.5 7.5,19.5 9.4,29.8 -2.6,-4.6 -7.5,-11 -12.7,-7.3 -5.4,3.9 -0.2,17.3 1.7,21.9 0.6,1.5 1.3,3 2.1,4.4 -1.5,-0.3 -3.4,0.1 -5.5,1.7 -7.2,5.3 -3.6,19.4 -2.1,26.6 0.3,1.6 0.7,3.1 1,4.6 -2.2,-4.3 -5.9,-7.8 -11.3,-6.8 -8.6,1.5 -7.2,13.499999 -6.1,19.599999 0.4,2.4 1.1,4.8 1.7,7.1 -3.2,-2.4 -7.3,-3.2 -11.7,-0.5 -9,5.4 -4.6,17.3 -1.2,24.8 3,6.6 7.2,13.3 9.9,20.2 -1.2,-2.6 -2.7,-5.2 -4.3,-7.6 -4.8,-7 -17.7,-17.1 -25.2,-7.8 -7.1,8.7 5,20.8 10.4,27 7.1,8.1 15.4,16 19.7,26 -1.5,-2.2 -3.2,-4.3 -4.9,-6.4 -5.5,-6.3 -19,-19.5 -27.7,-10.5 -8.2,8.5 2.9,20.5 9.7,25.3 6,4.3 12.8,7.4 18.7,11.8 4.6,3.3 8.6,7.3 12.1,11.7 -5.1,-4.3 -10.7,-8 -16.6,-10.9 -5.4,-2.7 -12.5,-5.1 -17.9,-1 -5,3.8 -3.6,10.2 -0.4,14.7 4.4,6.2 11.5,10.1 17.8,14 2.9,1.8 5.9,3.6 8.8,5.4 -2.2,0.3 -4.3,1 -6.4,2.5 -11.1,7.7 4.7,23.5 10.7,28.9 1,0.9 2,1.7 3,2.6 -1.8,0 -3.7,0.4 -5.6,1.3 -9.9,4.4 -5.9,16.7 -0.6,23.1 7.7,9.3 26.6,16.3 25.4,30.4 -3.8,9.4 -8.5,18.5 -13.2,27.5 -1.5,2.8 2.8,5.4 4.3,2.5 3.6,-6.8 7.2,-13.8 10.6,-21 6.8,-13 20.8,-17.2 33.6,-22.4 9.1,-3.7 22.9,-10.1 18.2,-22.4 -3.4,-9.4 -15.8,-11.9 -24.2,-8 z m -47.8,-97 c 0,0 0,0.1 0,0 -0.1,0.1 -0.1,0 0,0 -0.1,0 -0.1,0 0,0 z m 23.9,79.4 c 0,0.1 0,0.1 0.1,0.2 -0.1,-0.1 -0.1,-0.2 -0.1,-0.2 -0.1,-0.1 0,0 0,0 z"
   style="fill:#0ac29a;fill-opacity:1" /><path
   id="XMLID_811_"
   fill="#a4d7ef"
   d="m 534.79999,262.68934 c -4.8,7.4 -9.7,15 -15.7,21.5 -5.5,6 -12.3,10.3 -18.5,15.5 -7.9,6.7 -13.9,15.2 -17.4,24.7 -0.7,-3.4 -1.6,-6.8 -2.7,-10.2 -0.4,-1.3 -0.8,-2.5 -1.3,-3.7 -0.1,-0.3 -0.1,-0.5 -0.3,-0.8 -0.3,-0.8 -0.6,-1.5 -0.9,-2.2 0,-0.1 -0.1,-0.2 -0.1,-0.3 -3,-7.3 -6.9,-14.1 -11.1,-20.9 -1.2,-1.9 -2.4,-3.9 -3.5,-5.9 -2.9,-12.4 9.3,-16.4 18.6,-19.9 7.8,-2.9 15.2,-6.9 21.6,-12.3 12.8,-10.9 20,-27.8 14.8,-44.3 -0.6,-1.9 -3.6,-2.6 -4.6,-0.6 -7.4,14.8 -19.2,26.6 -33.7,34.7 -6.8,3.8 -14.1,7.5 -19.4,12.8 2.2,-4.2 5.2,-7.9 8.3,-11.5 0.4,-0.2 0.8,-0.6 1,-1.1 0,-0.1 0,-0.1 0.1,-0.2 2.1,-2.5 4.3,-4.9 6.3,-7.4 6.2,-7.9 10.5,-17 12.1,-27 0.3,-1.7 0.4,-3.4 0.5,-5.1 0,-0.1 0.1,-0.1 0.1,-0.2 2.4,-8 5.5,-15.3 11.8,-21 4.9,-4.4 10.7,-7.8 15.2,-12.7 10,-10.7 8.1,-24.8 5.2,-38 -0.5,-2.3 -4.5,-2.5 -4.8,0 -2,13.6 -16.2,19.9 -24.3,29.5 -4.2,5 -6.8,10.4 -8.1,16.3 -2.7,-7.3 -6.1,-14.5 -8.8,-22.1 0,-0.1 -0.1,-0.2 -0.1,-0.4 -0.1,-0.2 -0.2,-0.5 -0.3,-0.7 -0.5,-1.4 -1,-2.9 -1.4,-4.4 -1.9,-6.3 -2.7,-12.5 -2.1,-19.1 0.6,-6.7 2.2,-13.2 2,-19.9 -0.1,-4.6 -0.8,-8.999999 -2,-13.399999 0,-0.1 0,-0.2 0,-0.3 -1.8,-8.7 -1.5,-17.2 1.8,-25.5 2.9,-7.2 8.2,-13.4 10.2,-20.9 4,-14.6 -4,-29.3 -12.1,-40.8999999 -1.6,-2.3 -5.1,-0.9 -4.6,1.9 1.5,7.3999999 1.3,14.9999999 -0.8,22.2999999 -2,6.8 -6,12.3 -9,18.6 -4.7,10.3 -5.2,18.7 0.9,28.4 6.6,9.1 10.6,19.9 10.5,31.199999 -0.1,7.5 -1.7,14.7 -2,22 -3.3,-4.2 -7.6,-7.7 -12.5,-10.1 -11.3,-5.5 -23.9,-8.6 -27.9,-22.199999 -0.6,-2.1 -3.4,-2.4 -4.6,-0.6 -7.6,11.999999 -0.4,25.299999 9.8,32.899999 6.1,4.5 13.1,7.4 20.1,10.2 6.4,2.5 15.4,4 18.6,10.7 5.6,16 15.3,30.6 14,48.3 -0.7,9.3 -4.1,17.8 -9.3,25.4 -0.2,-8.2 -4.6,-15.4 -12.4,-20.4 -7.1,-4.5 -15,-7.4 -21.2,-13.2 -5.7,-5.3 -9.5,-11.9 -11.2,-19.5 -0.5,-2.4 -4.2,-2.3 -4.8,0 -3.6,14.4 -4.5,28.3 8.1,38.4 6,4.9 13.2,7.8 20.1,11.1 5.5,2.5 16,6.7 12.4,14.9 -4.1,4.8 -8.1,9.8 -10.7,15.6 -2.5,5.5 -2.9,10.8 -2,15.9 0,0.2 0,0.4 0,0.6 0,0.7 0.2,1.2 0.5,1.6 1,4.4 3,8.7 5.2,12.8 0,0 0,0 0,0 0.1,0.5 0.4,0.9 0.6,1.1 3.2,5.8 7,11.4 10.1,17 -9.5,-4.6 -21,-3.9 -31,-8.1 -13.5,-5.6 -23.2,-17.4 -29,-30.5 -1,-2.2 -3.9,-1.2 -4.6,0.6 -6,16.5 5,33.6 17.7,43.6 7.1,5.6 15.1,8.3 24.1,8 4.8,-0.2 9.4,-1.2 14.1,-2 3.5,-0.6 10.9,-2 14.1,0.6 7.2,20 7.7,42 1.2,62.4 -1,3.1 3.8,4.4 4.8,1.3 2.8,-8.9 4.4,-18.1 4.7,-27.3 0,-0.1 0.1,-0.2 0.1,-0.4 1.5,-12.2 9.7,-17.9 19.9,-23.3 8.2,-4.4 15.8,-9.4 21.8,-16.7 10.5,-12.6 15.3,-28.9 12.3,-45.2 -0.4,-1.7 -3.5,-1.7 -4.5,0 z" /><path
   id="XMLID_820_"
   fill="#a4d7ef"
   d="m 717.69999,270.38934 c -5.6,14 -16.5,25.6 -30.2,31.8 -6.1,2.8 -12.9,4.3 -19.3,6.6 9.3,-12.8 14.4,-29.9 4.9,-43.4 1.1,-13.7 17.6,-21.2 26.7,-29.1 8.5,-7.4 13.3,-18.1 10.7,-29.3 -0.6,-2.4 -4.3,-2.4 -4.8,0 -1.9,8.4 -12.9,12.6 -19.7,16.3 -5.8,3.1 -11.5,6.4 -15.4,11.8 -4.6,6.3 -6.5,14.2 -5.5,21.8 -2.4,-2.2 -4.9,-4.4 -7.1,-6.8 -0.1,-0.2 -0.3,-0.5 -0.6,-0.6 -1.3,-1.5 -2.5,-3.2 -3.6,-4.9 -5.9,-10.2 -0.3,-20.8 1.3,-31.3 0.2,-1.5 0.4,-3 0.5,-4.5 0.1,-0.3 0.2,-0.5 0.2,-0.8 0.5,-7.3 2.8,-14.4 6.8,-20.6 4.1,-6.2 9.7,-10.1 15.5,-14.6 4.6,-3.5 8.5,-7.4 10.6,-12.9 2.5,-6.4 2.6,-13.4 2.6,-20.1 0,-2.9 -4,-3.2 -4.9,-0.7 -2.7,7.6 -8.2,10.8 -14.9,14.5 -4.9,2.6 -9,6.3 -12.2,10.8 -3.7,5.2 -6.2,11.3 -7.5,17.6 -0.1,-0.2 -0.1,-0.4 -0.2,-0.6 -4,-10.2 -11.9,-18.9 -14.3,-29.7 -4.6,-20.2 16,-35.1 22.1,-52.699999 3.2,-6.1 8.9,-9.1 13.9,-13.5 5.8,-5.1 9.6,-12.1 10.5,-19.8 0.9,-8.2 -1.3,-16.4 -5.1,-23.6 -2.2,-4.2 -5.1,-8.2 -6.6,-12.8 -1.8,-5.7 -1.1,-11.7 -0.3,-17.4 0.4,-2.7999999 -2.9,-4.3999999 -4.6,-1.8999999 -9.5,13.3999999 -10.5,28.2999999 -7.3,43.9999999 1.6,8 3.4,16.2 1.5,24.4 -1.5,6.5 -4.7,12.7 -6.8,19 -2.1,6.299999 -5.7,11.899999 -9.6,17.499999 0.1,-7 -3.2,-13.6 -9.4,-18.699999 -11.9,-9.8 -26.3,-17.2 -27.3,-34.5 -0.1,-2.4 -3.3,-3.4 -4.7,-1.3 -7.5,12.2 -3.5,25.9 5.6,36 5.3,5.899999 12.1,9.599999 18.1,14.699999 7.1,6 7.5,13.3 6.8,22 -1.1,2.8 -2,5.7 -2.4,8.8 -1.3,9.7 2.6,18.4 7.3,26.6 1.8,3.2 3.5,6.3 5.1,9.5 -4.1,-4.2 -9.1,-7.3 -14.9,-10 -12,-5.5 -22.6,-11.1 -25.8,-25 -0.6,-2.6 -4,-2.1 -4.8,0 -5.8,14.5 2.7,29.6 15,37.4 7.1,4.5 14.9,6.4 22.9,8.5 4.5,1.2 8.1,2.4 10.7,6.5 1.8,2.8 3.3,6.1 3.5,9.5 -0.1,5 -0.8,9.9 -2.1,14.8 -1.4,5.2 -2.9,10.5 -2.6,16 0.1,0.9 0.2,1.7 0.3,2.5 -5,-3.7 -10.9,-6.2 -16.8,-8.8 -11.7,-5.1 -21.3,-11.9 -24.5,-24.9 -0.6,-2.3 -4.4,-2.5 -4.8,0 -2.4,14 2.2,28.3 13.3,37.4 5,4.1 11,7 17.3,8.2 7.8,1.4 16.4,-0.7 23.5,3.5 0.4,0.4 0.8,0.9 1.2,1.3 4,4.1 9.1,7.9 12.7,12.5 0.1,0.3 0.3,0.5 0.5,0.7 1.7,2.2 3,4.7 3.7,7.4 2.8,10.4 -1.6,21.5 -7.7,29.8 -2.3,3.1 -4.8,6.1 -7.4,8.9 -2.2,1.5 -4.3,3.4 -6,5.7 0.7,-10.6 -2.9,-21.1 -13.2,-26.4 -7.4,-3.8 -15,-6 -21.5,-11.4 -6.5,-5.4 -11.6,-12.3 -14.8,-20.1 -0.9,-2.2 -4.1,-2.6 -4.8,0 -4.5,15.1 1.4,31.5 15.1,39.6 7.3,4.3 17.1,3.6 23.9,8.5 6.1,4.4 7.9,13.6 6.3,20.6 -1,1.2 -2,2.5 -2.9,3.8 -7.4,10.3 -12.4,22 -15.1,34.4 -0.7,3.1 4.1,4.5 4.8,1.3 2.6,-11.7 7.3,-22.7 14.1,-32.5 1,-1.5 2.1,-2.9 3.2,-4.2 0.1,-0.1 0.1,-0.1 0.2,-0.2 2,-2.4 4,-4.7 6.1,-7 9,-5.2 19,-2.2 29.3,-0.6 8.6,1.3 16.8,0.3 24,-4.7 16,-11.2 18.1,-31.7 16.6,-49.7 -0.2,-3.1 -3.8,-3.5 -4.9,-0.9 z" /><path
   id="XMLID_830_"
   fill="#a4d7ef"
   d="m -56.5,81.989341 c -4.5,0 -8.2,2.8 -9.5,7 -1.5,4.8 -1.6,9.6 -1.7,14.299999 -0.1,4.6 -0.2,8.9 -1.6,12.6 -2.5,6.4 -11.7,7.8 -14.5,8.1 -1.2,0.1 -2.5,0.2 -3.9,0.2 0.8,-0.9 1.5,-1.7 2.2,-2.6 9,-11.8 8.6,-25.099999 7,-36.499999 -0.1,-0.5 -0.2,-1.1 -0.2,-1.6 -1,-7.1 -3,-20.2 3.3,-22.7 4.7,-1.9 7.2,-6.8 6.2,-11.8 -0.9,-4.6 -4.6,-7.8 -8.9,-7.8 0,0 0,0 0,0 0,0 0,0 0,0 -1.2,0 -2.5,0.3 -3.7,0.8 -9.2,3.8 -15.3,11.9 -17.1,22.9 -1.2,7.1 -0.3,13.9 0.6,20.3 0.6,4.5 1.2,8.7 1.1,13 -0.3,11.599999 -10.2,18.399999 -20.7,25.599999 -3.3,2.3 -6.7,4.6 -9.7,7.1 -1.5,1.1 -2.9,2.3 -4,3.5 -0.1,0.1 -0.2,0.2 -0.3,0.3 -12.5,12.6 -18,30.9 -15.9,52.9 0.4,4.5 1.2,9.1 2,13.6 -0.6,-0.2 -1.2,-0.5 -1.8,-0.7 -1.7,-0.6 -3.4,-1 -5.1,-1.5 -4,-1 -7.4,-2 -9.9,-4.4 -2.8,-2.8 -3.9,-5.8 -3.8,-9.9 0.1,-4.1 1.5,-8.9 2.9,-13.4 0.9,-2.9 1.8,-5.9 2.4,-8.8 0.4,-1.8 0.6,-3.7 0.8,-5.7 0.2,-0.9 0.4,-1.9 0.3,-2.9 -0.1,-3.3 0.8,-11.8 11.5,-17.6 2.5,-1.4 5.1,-2.5 8,-3.7 6.3,-2.6 12.7,-5.3 17.9,-11.1 7.3,-8.1 8.8,-18.1 4.3,-28.299999 -4.8,-10.8 -6,-19.8 -3.8,-29.1 0.7,-3.1 0,-6 -1.8,-8.4 -2,-2.5 -5.1,-3.9 -8.3,-3.9 -4.6,0 -8.2,2.9 -9.3,7.5 -2.7,11.7 -2.1,23.4 1.5,33.8 0.6,1.7 1.4,3.3 2.1,4.8 1.2,2.399999 2.5,5.099999 2.4,6.799999 -0.2,2.1 -2.5,4.5 -6.2,6.6 -2.8,1.5 -5.6,2.8 -8.7,4.1 -4.7,2.1 -9.6,4.2 -14.1,7.5 -0.1,-1.4 -0.1,-2.9 -0.1,-4.3 0.1,-2.7 -0.8,-5.2 -2.6,-7.1 -1.8,-1.9 -4.4,-3 -7.2,-3 -5.6,0 -10,4.1 -10.2,9.6 -0.3,6.7 1,13.1 2.2,19.2 1.6,7.8 3,15.2 1.2,22.5 -0.5,1.9 -1.1,3.9 -1.6,5.9 -3.1,10.6 -6.5,22.7 0,35 3.2,5.9 8.1,10.8 13.9,13.9 3.2,1.7 6.5,2.5 9.7,3.3 2.9,0.7 5.6,1.4 7.9,2.7 7.2,4.1 9.6,15.9 9.5,25 -0.5,2.5 -1.1,5 -2,7.3 -1.4,3.9 -5.6,13.1 -14.3,15.6 -2.3,0.6 -4.8,1 -7.7,1 -3.8,0 -7.7,-0.5 -11.9,-1.1 -3,-0.4 -6,-0.8 -9.1,-1 -1.3,-0.1 -2.6,-0.1 -3.9,-0.1 -10.4,0 -19.1,2.9 -26.1,8.6 -1.9,1.5 -3.5,3.2 -5.1,5 -0.9,-6 -2.2,-11.7 -3.5,-16.7 -1.6,-6.4 -1.8,-12.4 -2,-19.3 0,-0.9 -0.1,-1.8 -0.1,-2.7 0,-0.4 0,-0.9 -0.1,-1.3 0.2,-2.2 0.6,-4.1 1.1,-6 1.3,-4.5 4.3,-8.5 7.4,-12.7 1.1,-1.5 2.3,-3.1 3.4,-4.7 5.2,-7.5 7.4,-14.6 7,-21.6 -0.2,-4 -1.4,-7.5 -2.6,-11 -1.2,-3.6 -2.4,-7 -2.1,-10.1 0.6,-5.8 4.7,-11.2 9.1,-16.9 0.6,-0.8 1.1,-1.5 1.7,-2.2 0.4,-0.4 0.7,-0.9 1,-1.4 1.9,-2.5 4.2,-5.9 5.8,-9.5 3.9,-8.8 3.6,-17.7 2.8,-25.2 -1,-9.1 -2.6,-18.4 -4.9,-27.499999 -1.1,-4.5 -4.8,-7.4 -9.3,-7.4 -3.2,0 -6.3,1.5 -8.3,4 -1.9,2.4 -2.5,5.4 -1.7,8.4 l 0.5,2 c 1.6,6.399999 3.3,13.199999 4,19.899999 -1.6,-1.3 -3.3,-2.4 -5.1,-3.2 -3.8,-1.7 -7.7,-2.2 -11.1,-2.6 -1.6,-0.2 -3.1,-0.4 -4.6,-0.6 -5.7,-1.1 -6.6,-6.5 -6.5,-17.499999 0.1,-5 0.1,-11.2 -1.6,-17.2 -0.6,-2 -1.5,-3.9 -2.3,-5.7 -1.3,-2.7 -2.6,-5.5 -2.2,-7.4 0.6,-3.1 0,-6 -1.9,-8.4 -2,-2.4 -5.1,-3.9 -8.3,-3.9 -4.6,0 -8.3,3 -9.2,7.6 -1.5,7 0.3,12.7 2.3,17.3 2.3,5.4 3.2,9.4 3.3,14.1 0,1.1 0,2.1 0,3.2 0,8.799999 -0.1,18.799999 6,27.299999 3.1,4.3 7.1,7.4 12,9.1 3,1.1 6.1,1.3 8.8,1.6 2.4,0.2 4.7,0.4 6.6,1.2 3.9,1.5 6.3,7.3 6.6,12.3 -0.5,0.7 -1,1.4 -1.5,2.1 -5.5,7.6 -11.8,16.2 -11.9,27.4 0,4.7 1.4,8.9 2.7,12.7 1.1,3.3 2.2,6.5 2.1,9.4 -0.1,4.2 -3.3,8.4 -6.5,12.5 -0.6,0.8 -1.2,1.6 -1.8,2.3 -1.2,1.6 -2.2,3.1 -3.2,4.6 -4.8,-2.8 -10.3,-3.7 -15.6,-4.3 -1,-0.1 -2,-0.2 -2.9,-0.3 -4.3,-0.3 -8.8,-0.7 -10.7,-3.1 -2.2,-2.7 -2.6,-7.5 -3.1,-12 -0.1,-1.3 -0.3,-2.7 -0.4,-4 -0.9,-6.7 -2.6,-14.5 -8.3,-21.2 -1.9,-2.2 -4.4,-3.4 -7.1,-3.4 -3.8,0 -7.4,2.5 -9.1,6.1 -1.7,3.7 -1.1,7.8 1.5,10.9 3,3.5 3.5,9.1 4.1,14.9 0.4,4.5 0.9,9.2 2.5,13.6 5.4,14.2 18.1,17.2 29.8,18.3 l 0.7,0.1 c 5,0.4 8.6,0.9 9.9,3.4 0.5,1 0.9,2.2 1,3.7 -0.3,3.5 -0.3,7.2 0,11.2 0,0.8 0,1.4 0,2 0.3,6.4 1.8,12.4 3.2,18.3 0.3,1.4 0.7,2.7 1,4.1 1.9,8.1 2.3,15.9 2.5,22.5 0,1.5 0.1,3 0.3,4.4 0.4,4.7 0.5,7.3 -1.3,9.9 -0.6,0.7 -1.2,1.4 -1.8,2 -2.7,2.6 -6.5,4.7 -12,6.4 -1.4,0.2 -2.9,0.3 -4.4,0.3 -3.3,0 -6.7,-0.5 -10.2,-1.5 -16.3,-4.7 -30.7,-17.9 -38.5,-35.3 -5,-11.1 -5.7,-23 -6.4,-35.6 -0.4,-6.8 -0.8,-13.8 -1.9,-20.8 -1,-8.8 -1.3,-17.9 -1.6,-26.7 0,-1.4 -0.1,-2.7 -0.1,-4.1 -0.1,-1.9 -0.2,-3.8 -0.3,-5.7 -0.1,-2.4 -0.3,-4.9 -0.3,-7.3 0,-0.5 0.1,-0.9 0.1,-1.4 0,-1.5 0,-3.2 0,-5.4 0.3,-6.6 1.6,-11.7 3.9,-15.9 3.9,-6.9 10.3,-12.1 17.1,-17.6 2.8,-2.2 5.7,-4.6 8.3,-7 4.2,-3.9 9.3,-9.3 10.9,-17 0.9,-4.5 0.8,-8.8 0.6,-13 -0.1,-2.8 -0.2,-5.5 0,-7.999999 0.3,-2.7 -0.6,-5.3 -2.3,-7.2 -1.8,-1.9 -4.4,-3.1 -7.2,-3.1 -5.5,0 -9.9,3.9 -10.4,9.3 -0.3,2.799999 -0.1,5.599999 0.1,8.399999 0.3,3.9 0.5,7.6 -0.6,10.4 -1.3,3.3 -5.5,6.6 -9.1,9.4 -1,0.8 -1.9,1.5 -2.8,2.2 -3.3,2.8 -6.9,5.7 -10.4,9 -2.5,-6.8 -7.1,-11.8 -13.9,-15.1 -1,-0.5 -2.1,-1 -3.2,-1.4 -2.2,-0.9 -4.7,-2 -5.7,-3.2 -0.9,-1.2 -1,-4.1 -1.1,-6.7 0,-1.9 -0.1,-3.8 -0.4,-5.7 -1.1,-6.299999 -4.3,-11.399999 -7.4,-16.199999 l -0.1,-0.2 -0.1,-0.1 c -2.7,-4.3 -4.9,-8.1 -3.5,-10.6 1.8,-3.2 1.8,-6.7 0,-9.7 -1.8,-3.2 -5.4,-5.2 -9,-5.2 -3.5,0 -6.5,1.8 -8.3,5 -7.1,12.7 -0.2,24.2 5.3,33.399999 l 0.7,1.1 c 2.3,3.8 2.6,7.3 3.1,12 0.1,1 0.2,1.9 0.3,2.9 0.7,6.5 3.4,11.8 7.9,15.5 2.8,2.4 6,3.9 8.8,5.2 5.3,2.5 7.8,3.9 8.4,8.2 0.9,6.9 0.6,14 0.2,21.5 -0.2,4.4 -0.4,8.9 -0.4,13.5 0,2.7 0.1,5.3 0.2,8 0,0 0,0 0,0 -1.4,-1.1 -3,-2.2 -4.5,-3.3 -9.7,-6.9 -16,-12.1 -15.6,-20.3 0.1,-2.7 -0.8,-5.2 -2.5,-7.1 -1.8,-1.9 -4.4,-3 -7.2,-3 -5.6,0 -10,4.1 -10.2,9.6 0,1 -0.1,2.1 0,3.1 -2.5,-2.3 -4.6,-5.2 -5.3,-7.9 -0.7,-3 -0.5,-6.5 -0.2,-10.1 0.2,-3.6 0.5,-7.3 -0.1,-11.2 -1.2,-7.4 -4.5,-14.4 -9.9,-20.6 -1.9,-2.1 -4.4,-3.3 -7.1,-3.3 -3.8,0 -7.5,2.5 -9.2,6.2 -1.7,3.7 -1.1,7.7 1.6,10.8 3.8,4.3 5.3,9.5 4.9,16.8 v 0.4 c -0.4,7.6 -0.8,15.5 3.4,23.1 3.4,6.1 9,11.8 15.1,15.4 3.2,1.9 6.7,3.1 10.4,3.6 1.2,0.2 2.4,0.2 3.6,0.2 1.2,0 3.3,0.1 4,0.4 0.6,0.5 1.2,0.9 1.9,1.2 2.8,2.5 5.8,4.8 8.7,7 6.7,5.1 13,10 16.4,16.5 1.6,3.2 2.9,6.7 3.8,10.8 0.2,1.8 0.4,3.4 0.6,4.9 0.1,0.9 0.4,1.8 0.7,2.7 0.6,5.2 0.9,10.6 1.1,15.9 -0.8,-0.5 -1.6,-0.9 -2.4,-1.4 -2.2,-1.2 -4.5,-2.3 -7,-3.5 -12.3,-5.9 -21,-10.9 -20.6,-19.9 0.1,-2.7 -0.8,-5.2 -2.5,-7.1 -1.8,-1.9 -4.4,-3 -7.2,-3 -5.6,0 -10,4.1 -10.2,9.6 -1.1,22.2 22,33.5 29.6,37.3 0.6,0.3 1.2,0.6 1.8,0.9 5.8,2.8 11.9,5.8 15.7,10.4 3.9,4.7 6.9,11 9.8,17.1 1.1,2.4 2.3,4.8 3.5,7.1 0.5,1.1 1.2,2 2,2.7 6.3,10.6 14.8,19.8 24.7,26.8 11.7,8.2 25.5,12.9 37.8,12.9 1,0 2,0 2.9,-0.1 0.5,0.1 0.9,0.1 1.4,0.1 0.9,0 1.9,-0.1 2.8,-0.4 0.4,-0.1 0.8,-0.2 1.3,-0.4 6.1,-1.1 11.6,-3.5 16.4,-7 1.3,-0.9 2.5,-1.9 3.7,-3.1 4,-3.3 7,-7 8.9,-11.2 1.8,-3 3.5,-6 5.1,-9 3.8,-7.1 7.4,-13.7 13,-18.5 3.3,-2.8 7.5,-4.1 13.5,-4.1 3.6,0 7.4,0.5 10.7,0.9 4.2,0.5 9.5,1.1 14.6,1.1 7.4,0 13.7,-1.3 19.2,-4.1 12.2,-6.1 20.6,-18.7 23.7,-35.5 0.3,-0.9 0.5,-1.9 0.5,-2.8 0,-0.1 0,-0.1 0,-0.2 0.7,-5.3 1,-10.6 0.6,-16 -0.5,-8.1 -2.1,-16.3 -3.6,-24.3 -3,-15.3 -5.7,-29.8 -1.5,-43.9 1.8,-5.9 5.3,-10.9 11.4,-16.1 2.2,-1.2 6.5,-2.5 14.3,-2.5 0.3,0 0.5,0 0.8,0 1.9,0 3.8,0.1 5.6,0.2 2.2,0.1 4.6,0.2 6.9,0.2 4.5,0 10.5,-0.3 16.6,-2.5 9.5,-3.4 16.3,-9.3 19.7,-17.3 2.6,-5.9 2.8,-11.9 2.9,-17.6 0.1,-4.3 0.3,-8.299999 1.4,-11.999999 0.9,-3.1 0.4,-6.1 -1.4,-8.5 -1.3,-2.9 -4.5,-4.4 -7.8,-4.4 z" />
<path
   id="XMLID_16_"
   fill="#009cd7"
   d="m -255.1,-291.11066 c -2.6,-1.9 -6.6,-2.2 -8.8,-4.7 -3.3,-3.6 -1.9,-8.4 0.3,-12 2.9,-4.8 7.1,-9 8.3,-14.6 1.2,-5.3 -1.1,-11 -5.6,-14.1 -5.7,-4 -15.9,-3.1 -18,-11.2 -1.9,-7.3 6.8,-12.1 7.9,-19.1 0.9,-5.9 -1,-13 -7.2,-15.2 -4.2,-1.5 -8.5,-0.5 -10.1,-5.7 -1,-3.2 -1,-6.7 -1.6,-10 -1.3,-7.1 -4.9,-10.5 -11.7,-12.7 -10.4,-3.4 -19.8,-8.4 -28.5,-15.1 -1.9,-1.5 -4.1,0.9 -3.7,2.8 1.4,7 1.5,14.1 -0.1,21.1 -1.5,6.5 -5.3,12.6 -5.7,19.4 -0.4,6 3,10.4 4.2,16 1.5,6.9 -4.5,13.1 -7,19.1 -3.9,9.1 -5.5,20.6 0.1,29.3 3,4.8 8.7,7.6 11.1,12.8 4,8.3 -5.9,9.5 -10.6,13.4 -8.5,6.9 -10.5,18.7 -8.9,29 1,6.3 3.5,12 5.6,18 0.9,2.8 2,5.9 1.7,8.8 -0.3,4.1 -2.7,5.6 -6.1,7.4 -8.5,4.6 -13.5,14 -12.3,23.7 0.8,5.8 4.2,10.6 5.8,16.1 1,3.3 1.2,6.4 -0.7,9.4 -1.7,2.6 -4.2,4.7 -6.1,7.2 -7.6,10.3 -4.2,24.3 2.4,34.1 8.4,12.6 20.9,21.6 24.8,37 0.1,0.2 0.1,0.4 0.2,0.6 2.1,9.600001 4.7,19.100001 7.4,28.600001 0.9,3.1 5.7,1.8 4.8,-1.3 -1.9,-6.7 -3.8,-13.4 -5.5,-20.3 -0.9,-8.100001 -1.1,-16.400001 1.6,-24.100001 2.7,-8 8.4,-13.4 15.2,-18 9.7,-6.7 24.7,-15.5 22,-29.7 -0.5,-2.9 -2,-5.4 -4.3,-7.3 -3.1,-2.4 -7.4,-2.6 -10.2,-5.4 -7.5,-7.7 3.7,-17.5 9.3,-22 10.7,-8.8 23.2,-22.8 14.7,-37.4 -2.4,-4 -4.6,-7.4 -1.2,-11.7 3,-3.8 7.7,-6 11.7,-8.5 6.5,-4 13.2,-9.4 17,-16.2 3.1,-5.6 3.4,-13.3 -2.2,-17.5 z m -2.1,15.1 c -4.6,8.3 -13,12.8 -20.6,17.7 -4.9,3.2 -10.7,7.8 -10.6,14.3 0.1,2.7 1.2,5.2 2.5,7.4 2.6,4.5 4,8.5 2.8,13.8 -2,8.8 -9.4,14.7 -16,20.1 -5.3,4.4 -10.8,9.3 -12,16.4 -1,5.9 1.1,11.7 6.5,14.6 4.6,2.5 10.1,2.9 10.1,9.5 0,4.6 -2.7,8.8 -5.8,12 -5.3,5.5 -12.4,9 -18.4,13.7 -8,6.2 -12.3,14.1 -14.2,22.9 -1.8,-11.1 -2.7,-22.3 -1.6,-33.6 1.1,-11.8 2.8,-23.1 2.7,-35.1 -0.1,-11.3 2.4,-20.9 8,-30.7 8.9,-15.4 22.1,-29.2 25.4,-47.2 3.7,-20.3 -5.5,-39.6 -10.5,-58.9 -3.4,-13.1 -3.5,-25.2 -0.8,-38.4 2.3,-11.7 5,-23.7 0.9,-35.3 -1.1,-3 -5.9,-1.7 -4.8,1.3 4.2,12 0.6,24.2 -1.6,36.2 -1.9,10 -2.2,19.6 -0.3,29.6 3.9,20.9 15.9,41.6 12.4,63.3 -3,18.7 -17.3,32.7 -26.1,48.7 -4.4,8.1 -7.2,16.6 -7.6,25.8 -0.2,5.6 0.2,11.1 0,16.7 -0.2,6.2 -1.3,12.3 -2.1,18.4 -1.5,11.5 -1.1,22.8 0.3,34 -3.4,-4.9 -7.4,-9.4 -11.4,-14 -8.7,-10 -18,-25.7 -7.4,-37.9 3,-3.5 6.3,-6.5 7.1,-11.3 0.9,-5.7 -1.9,-10.9 -4.1,-15.9 -2.7,-6.1 -3.5,-12.3 -0.3,-18.5 2.9,-5.6 8,-6.6 12.3,-10.4 8,-7 2.1,-18.5 -0.7,-26.5 -4.4,-12.6 -5.6,-30.2 8.5,-37 4,-1.9 8,-3.6 9.1,-8.4 1.1,-4.8 -1.3,-9.6 -4.4,-13 -4.2,-4.7 -9.1,-7.9 -10.6,-14.5 -1.4,-6.2 0.1,-12.9 2.5,-18.6 2.3,-5.6 6.8,-10.6 7.7,-16.8 1,-6.9 -4.1,-12.2 -4.3,-18.8 -0.3,-7.7 5,-15.6 6.3,-23.2 0.8,-4.7 0.9,-9.5 0.4,-14.2 5.6,3.8 11.5,7 17.8,9.6 3.7,1.5 8.6,2.2 11.9,4.5 3,2.1 3.5,6.2 4,9.6 0.7,4.7 0.9,10.1 4.6,13.6 2.2,2 4.8,2.3 7.6,2.8 5.2,1 7,4.8 6.3,10 -0.9,6.4 -7.5,9.8 -8.2,16.4 -0.7,6.6 3.3,12.1 9.2,14.7 5.8,2.5 15.1,3.2 15,11.5 -0.1,5.9 -5.8,10.9 -8.5,15.8 -2.7,4.8 -3.4,10.7 -0.2,15.5 1.4,2.2 3.5,3.5 5.8,4.5 2.8,1.2 5.8,1.9 6.9,5.2 0.6,2.7 -0.2,5.7 -1.5,8.1 z" /><path
   id="XMLID_27_"
   fill="#009cd7"
   d="m -137.2,-175.81066 c -11,-3.1 -3.7,-14.8 -0.3,-21.4 4.3,-8.3 17.7,-27.3 4.9,-34.8 -3.2,-1.8 -7,-0.8 -10.1,-2.6 -5.1,-2.9 -2.7,-9.6 -0.3,-13.5 4.9,-7.7 11.9,-14.5 17.7,-21.4 7.4,-8.8 20.9,-22.6 9.4,-33.8 -1.8,-1.8 -4.1,-3.1 -6.4,-4 -3,-1.2 -5.9,-0.9 -8.8,-1.6 -6.2,-1.6 -4.6,-7.9 -3.4,-12.7 0.9,-3.6 1.9,-7.2 2.2,-10.9 0.4,-5.4 -0.9,-11.5 -5.6,-14.7 -4.7,-3.3 -10.3,-2.2 -15.5,-1.4 -4.2,0.7 -8.3,1.1 -11.5,-2.4 -4,-4.4 -1.9,-7.7 1.9,-11.1 6,-5.4 11.4,-10.2 15.3,-17.4 4,-7.3 6.5,-15.3 7.4,-23.6 0.4,-3.7 0.6,-7.4 -0.1,-11.1 -0.6,-3.2 -2.5,-7.3 -2,-10.6 0.5,-3.2 -3.7,-4.4 -4.8,-1.3 -3,8.2 -13.5,8 -20.5,10.3 -6.3,2 -10.3,6.2 -13.8,11.6 -1.7,2.6 -3.3,5.4 -5.5,7.7 -3.4,3.5 -7.6,4 -12.3,4.4 -6.4,0.6 -11.9,2.3 -16.6,6.9 -9.8,9.7 -10.3,24.6 -5.1,36.8 3.1,7.2 8.3,12.6 12.6,19.1 4,6 7.5,16.5 -0.2,21.3 -5,3.1 -11,3.1 -14,8.9 -2.6,5.2 -2.5,12.1 -0.4,17.4 2.5,6.3 7.3,11.2 12,16 3.4,3.5 16.6,17.4 7.9,21 -2.3,1 -5,0.6 -7.4,1.7 -2.3,1.1 -4,2.9 -5,5.3 -2,5.1 -0.3,10.6 2.8,14.9 4.1,5.6 14.9,11.9 12.3,20.1 -1.8,5.5 -8.9,7.8 -12.2,12.3 -10.8,14.7 10.9,25.9 17.2,36.3 8.3,13.6 9.8,30.7 10.5,46.2 -3,7.4 -4.3,15.400001 -3.7,23.600001 0.2,3.2 5.2,3.2 5,0 -0.5,-8 0.8,-15.4 3.7,-22.500001 5.6,-6.2 11.9,-11.7 18.8,-16.3 7.2,-4.8 15.3,-7.9 22.5,-12.6 9.9,-6.5 18.4,-18.3 13.2,-30.6 -2,-5.5 -6.2,-7.9 -11.8,-9.5 z m -2.1,34.8 c -7.5,5.4 -16.3,8.5 -24,13.6 -2.7,1.8 -5.3,3.7 -7.8,5.7 3.9,-6.4 7,-12.8 7.3,-20.8 0.7,-23 -17,-42.7 -11.9,-66.1 2.4,-10.9 7.6,-21.1 11.3,-31.6 3.7,-10.4 7.2,-21.3 8.6,-32.3 1.2,-9.3 0.5,-18.6 -3.8,-27.1 -3.6,-7.1 -9.3,-12.9 -14.8,-18.5 -6.4,-6.5 -13.5,-13.3 -16.7,-22.1 -4,-10.9 -0.5,-22.9 8.4,-30.1 2.5,-2 -1.1,-5.5 -3.5,-3.5 -14,11.3 -14.4,30.8 -4.5,44.9 9.8,13.8 26.6,23.5 29.9,41.2 2.2,12 -1.5,24.5 -5,35.8 -3.4,11.1 -8.1,21.6 -12,32.5 -3.8,10.6 -5.2,21.1 -2.7,32.2 2.5,11.2 7.8,21.6 10.3,32.8 1.5,6.8 2,14.1 -0.3,20.8 -2,5.8 -5.9,10.8 -9.2,15.9 -0.2,0.3 -0.4,0.6 -0.5,0.9 -0.8,-10.4 -2.4,-20.8 -6.1,-30.5 -2.2,-5.8 -5.2,-11.3 -9.4,-16 -5.2,-5.7 -15.4,-11.1 -14.3,-20.2 0.8,-6.5 8.2,-8.9 12,-13.5 3.5,-4.2 3.8,-9.5 1.6,-14.5 -3,-6.6 -9.7,-10 -13.2,-16.2 -1.9,-3.5 -2.6,-8.9 1.5,-11 2.5,-1.3 5.5,-0.9 8.1,-2 13.1,-5.5 -2,-23.4 -7.3,-28.8 -5.5,-5.6 -12.2,-12.1 -12.1,-20.5 0,-3.4 0.8,-7.5 3.6,-9.6 2.7,-2 6.3,-2.4 9.2,-3.9 12,-6.4 7.6,-21.7 1.2,-30.5 -5,-6.9 -10.3,-13 -12.6,-21.3 -2.2,-7.8 -1.6,-16.4 3.1,-23.2 2.5,-3.6 6,-6.5 10.2,-7.8 3.8,-1.1 7.8,-0.8 11.7,-1.6 7.1,-1.4 11.1,-6.4 14.8,-12.2 2.2,-3.4 4.4,-7.2 8.1,-9.3 4.1,-2.4 9,-2.8 13.5,-4 3.9,-1 7.4,-2.6 10.2,-5.2 0.6,2.5 1.4,5 1.6,7.5 0.7,8.7 -1.9,18.2 -5.6,26 -3.4,7.1 -8.1,12.7 -14.1,17.7 -3.7,3.1 -8,6.7 -7.7,12 0.2,5.2 5,10.2 9.9,11.6 5.5,1.6 10.9,-1 16.4,-0.9 18.2,0.3 0.9,28.3 7.1,37.4 3.4,4.9 10.9,2.6 15.8,5 10.4,4.9 5.8,15.2 0.2,22 -5.6,6.8 -11.4,13.5 -17.1,20.2 -4.3,5.1 -9.8,10.5 -10.7,17.5 -0.7,5 1.3,10.8 6.2,12.8 3.5,1.5 8,0.1 10.6,3.4 3.1,3.9 0.4,9.8 -1.4,13.5 -3.5,7 -7.6,13.7 -10.7,20.9 -2,4.7 -3.7,10.9 -0.8,15.7 1.6,2.7 4.4,4 7.3,4.9 4.8,1.4 8.2,2.8 9.9,7.9 3.3,9 -2.9,17.6 -9.8,22.5 z" /><path
   id="XMLID_11_"
   fill="#009cd7"
   d="m 1299.6507,-166.35108 c 5.3,-8 8.8,-17.1 9.9,-26.7 0.6,-5.2 -0.2,-10.1 -5.5,-12.2 -2,-0.8 -3.9,-0.9 -5.8,-0.6 5.9,-8.7 9.5,-19 9.7,-29.5 0.1,-5.5 -1.3,-10.9 -6.8,-13.1 -3.8,-1.5 -7.5,-0.9 -11,0.6 4.1,-9.6 6.9,-20.1 3.5,-30.2 -1.4,-4.2 -4.3,-7.9 -9,-8.3 -2.5,-0.2 -4.8,0.7 -6.8,2 2.1,-9.8 2.8,-21 -1.3,-29.4 -2.4,-5 -8.7,-8.2 -13.5,-6.6 0,-2.8 -0.3,-5.5 -1.4,-8.5 -1.6,-4.3 -4,-8.7 -7.8,-11.5 -3,-2.2 -6.8,-2.7 -10.3,-1.4 -1.7,0.6 -3.4,1.5 -4.8,2.8 -1,0.9 -2.3,3.5 -3.3,3.3 -0.8,-0.2 -2.7,-3.4 -3.4,-4.1 -1.5,-1.6 -3.2,-3.1 -5,-4.3 -3.4,-2.4 -7.5,-4 -11.7,-4.1 -6.1,0 -12.2,3.1 -14.8,8.6 -6.8,-4.2 -15,-7.6 -22.8,-4.3 -5.8,2.4 -10,8.2 -9.3,14.3 -7.6,2.3 -15.7,5.1 -20.6,11.6 -4.1,5.4 -5.6,12.6 -2.7,18.7 -9,7.8 -11.6,21.4 -5.5,31.8 -10.4,11.8 -8.3,29.7 4.6,38.8 -2.1,6.9 -1.2,14.9 4.4,20 5.1,4.6 13,5.3 18.6,1.3 0.1,-0.1 0.1,-0.1 0.2,-0.2 6.2,9.2 14.4,16.8 25.3,19.6 3.1,0.8 4.4,-4 1.3,-4.8 -17.7,-4.7 -27.5,-23.5 -33,-39.5 -6.2,-18 -8.1,-38 -2,-56.3 5.2,-15.5 16.7,-30.3 33,-34.7 16.4,-4.5 33.5,2.9 45.6,13.9 28.3,25.9 32.3,70.4 34.9,106.3 2.4,33.8 1.8,67.7 1.5,101.5 -0.3,30.300001 -0.4,60.500001 -1.5,90.800001 -0.1,3.2000001 4.9,3.2000001 5,0 1,-28.1 1.2,-56.2 1.4,-84.4 0.1,-0.2 0.2,-0.4 0.3,-0.7 4.1,-18.200001 20,-30.000001 28.7,-45.800001 3.2,-5.9 7.2,-14.9 2.3,-21 -3,-3.9 -6.8,-4.5 -10.6,-3.7 z m 6.3,16.5 c -2.7,7 -7.4,13.1 -12,18.9 -5.3,6.8 -11,13.4 -15,21 0.4,-34.8 0.7,-69.6 -2.4,-104.3 -3.4,-36.8 -9.8,-80.9 -41.8,-104.4 -12.9,-9.4 -29.8,-14.5 -45.4,-9.6 -15.6,4.8 -27.1,18.2 -33.2,32.9 -8.6,20.5 -6.8,44.1 0.4,64.7 2.1,6.1 4.9,12.4 8.3,18.3 0,0 -0.1,0 -0.1,0.1 -4.3,3.1 -10.2,2.4 -13.7,-1.7 -3.8,-4.4 -3.4,-10.5 -1.4,-15.6 0.4,-1 -0.3,-2.3 -1.1,-2.8 -12.3,-7.3 -14.1,-23.5 -3.9,-33.5 0.7,-0.7 1,-2.1 0.4,-3 -6.1,-8.9 -4.3,-21.7 4.7,-28 1.1,-0.7 1.7,-2.2 0.9,-3.4 -3.8,-5.8 -1.3,-13 3.5,-17.4 5,-4.5 11.7,-6.3 18,-8.2 1.3,-0.4 2.2,-1.8 1.7,-3.1 -2,-6.3 4.2,-11.6 10.1,-11.7 6.2,-0.1 11.8,3.3 16.8,6.6 1.3,0.8 3.4,0 3.7,-1.5 1.6,-8.1 11.3,-9.6 17.7,-6.3 3.5,1.8 6,4.6 8.5,7.5 1.3,1.5 2.3,3 4.4,3.5 6.1,1.4 6.9,-8.7 14,-6.9 4.5,1.1 7.4,7.6 8.5,11.5 1.2,3.9 0.6,7.3 0.4,11.3 -0.2,2.4 3.6,3.5 4.7,1.3 1.7,-3.4 6,-2.9 8.3,-0.4 2.8,3 3.1,8.3 3.3,12.1 0.4,8.3 -0.7,16.4 -3.1,24.3 -0.7,2.3 2.5,4.3 4.2,2.4 2.7,-3.2 8.6,-9.6 12.6,-4.2 2.3,3.1 2.5,8.1 2.4,11.7 -0.2,8.6 -3.8,16.7 -7.6,24.2 -1.1,2.1 1.2,4.9 3.4,3.4 4.3,-2.8 11.4,-7.3 15.5,-2 3,3.9 1.4,11.1 0.4,15.5 -2.2,9.7 -7.1,18.4 -14,25.5 -1.9,2 0.6,5.6 3,3.9 3.9,-2.6 13.3,-7.9 14,0.7 0.4,3.9 -1.1,8.5 -2.2,12.2 -2.6,8.6 -7.1,16.3 -13.2,22.8 -1.8,2 0.6,5.6 3,3.9 2.8,-2 6.6,-4.7 10.3,-4.3 6,0.9 4.5,8.2 3,12.1 z" /><path
   id="XMLID_30_"
   fill="#009cd7"
   d="m 1474.5507,-169.05108 c 0.2,-6.5 -3.1,-12.1 -7,-17.1 6.9,-3 9.9,-12 6,-19 -5,-8.9 -14.8,-10.5 -24.1,-9.5 1.3,-2 2.3,-4.2 2.4,-6.7 0.1,-4.2 -2.1,-8.1 -6.2,-9.3 -7.3,-2.2 -15.7,-0.1 -22.8,3.6 0.5,-2.2 0.5,-4.5 -0.5,-6.8 -1.9,-4.3 -5.9,-5.6 -10.4,-4.6 -8.8,1.9 -16.6,7.8 -21.9,15.1 -0.3,-3.7 -0.9,-7.2 -5.3,-9.2 -4.7,-2.2 -10,-0.5 -13.8,2.7 -8.2,7.2 -12.5,19.1 -14,30.5 -0.9,-1.1 -2,-2.1 -3.4,-2.7 -4.6,-2.3 -9.8,-0.5 -13.1,3.2 -4.1,4.6 -4.4,11.2 -4.4,17.1 0,6.5 0.6,12.9 1.7,19.3 -4.7,-2.3 -9.7,-2.1 -13.6,3.2 -5.5,7.6 -1.6,18.4 1.6,26.1 3.9,9.4 9.5,18.1 13.4,27.6 3.9,9.400001 7.1,19.600001 8.3,29.700001 -1.1,21.5 -1.4,43.2 0.1,64.6 0.2,3.2000001 5.2,3.2000001 5,0 -1.4,-19.9 -1,-40 -0.2,-60 0,-1.2 0.1,-2.4 0.1,-3.6 0,-0.2 0.1,-0.5 0,-0.7 0.8,-20 2.1,-40.100001 5.4,-59.800001 4,-24.2 12.5,-51.2 35.1,-64.2 21.2,-12.3 51.5,-3.3 59.2,21.2 3.9,12.3 1,26.4 -7,36.5 -7.5,9.4 -24.2,17.9 -34.3,7.2 -2.2,-2.3 -5.7,1.2 -3.5,3.5 4.7,5 11.2,6.6 17.6,6.1 0,0.2 0.1,0.3 0.2,0.5 6.1,12.7 23.9,11.3 28.5,-1.2 5.8,0.9 11.5,-2.5 14.6,-7.6 4.2,-7.1 2.2,-15.7 -0.5,-23.1 4.2,-2.7 6.6,-7.3 6.8,-12.6 z m -10.7,9.1 c -1.2,0.5 -2.3,1.7 -1.7,3.1 2.1,5.5 4.4,11.7 3,17.7 -1.4,5.6 -6.8,10.2 -12.7,8 -1.2,-0.5 -2.8,0.5 -3.1,1.7 -2.1,10.1 -14.3,11.9 -19.4,3.6 2.7,-0.7 5.4,-1.8 7.8,-3.1 10.3,-5.7 17.4,-16.9 19.9,-28.3 5.4,-25.1 -12.1,-48.6 -37.2,-52.5 -28.7,-4.5 -50.5,19.3 -59.9,43.9 -8.6,22.7 -10.6,47.7 -12.2,71.700001 -2.4,-7.800001 -5.5,-15.300001 -9.1,-22.500001 -3.7,-7.4 -8,-14.6 -10.7,-22.4 -1.5,-4.2 -3,-9.1 -2.1,-13.6 0.6,-2.6 2.3,-5.5 5.1,-6.1 3.3,-0.7 5.7,1.8 7.9,3.9 1.9,1.8 4.7,0 4.2,-2.4 -2.2,-9.7 -3.7,-20.4 -2.5,-30.4 0.5,-4.3 3.4,-11.6 9.2,-9.9 4.1,1.2 5.1,6.9 5.9,10.5 0.6,2.8 5,2.1 4.9,-0.7 -0.3,-11.1 2.3,-21.9 8,-31.5 2.4,-4.1 6.1,-9.6 11.5,-8.9 6.3,0.8 4,9.1 5.2,13.5 0.5,1.9 3.6,2.6 4.6,0.6 3,-6.5 7.6,-12 13.9,-15.7 2.5,-1.5 7.3,-4.3 10.4,-3.9 7.6,1.1 0.8,10.6 -1,13 -1.8,2.4 1.9,4.7 3.9,3 5.6,-4.6 12.5,-7.6 19.8,-8.2 3.7,-0.3 9.4,-0.7 9.3,4.8 -0.1,3.5 -3.5,6.5 -5.9,8.7 -1.8,1.8 0.1,4.8 2.4,4.2 7.4,-1.9 16.3,-3.3 22.7,2.1 5.4,4.5 6,15.8 -3.1,16.2 -2.2,0.1 -3.2,2.6 -1.8,4.3 5.4,5.7 14.8,20.7 2.8,25.6 z" /><g
   id="XMLID_26_"
   transform="translate(-547.6,-520.01066)">
		<g
   id="XMLID_22_">
			<path
   id="XMLID_111_"
   fill="#009cd7"
   d="m 592.9,306.4 c 3.4,4.8 7.9,7.5 13.3,9.3 6.2,2.1 11.1,5.6 15.5,10.5 3.9,4.4 7.6,9.9 8.9,15.8 1.6,7.1 -0.2,15 -1.8,22 -2.7,11.9 -10.7,24 -5.7,36.5 2.2,5.6 7.1,9.2 10.2,14.2 4,6.4 5.5,13.8 4.9,21.3 -0.2,2.6 3.4,3.2 4.7,1.3 4.2,-6.6 6.8,-14.1 7.3,-21.9 0.6,-9.2 -3.2,-18 -2.9,-27.1 0.7,-17.3 12.9,-31.6 15.2,-48.6 0.9,-6.9 0.4,-14 -2.9,-20.2 -3.5,-6.6 -9.7,-10.4 -16.3,-13.6 -7.6,-3.7 -14.8,-7.1 -20.1,-13.9 -5.1,-6.6 -8,-14.9 -7.8,-23.2 0.3,-17 12.2,-37.2 -2.6,-51.6 -1.3,-1.2 -3.8,-0.8 -4.2,1.1 -1.8,9.6 -5.1,18.3 -9.2,27.2 -2.8,6.1 -4.5,12.7 -5,19.4 -0.2,3.5 0.3,6.7 0.8,10.1 0.8,5.2 0.7,8.6 -1.9,13.2 -3.4,6.1 -4.1,11.6 -0.4,18.2 1.6,2.8 5.9,0.3 4.3,-2.5 -2.8,-5 -2.2,-8.7 0.5,-13.4 1.5,-2.6 2.6,-5 3,-8 0.8,-6.5 -1.9,-12.8 -1.2,-19.4 0.9,-8 4,-14.7 7.2,-22 3,-7 5.2,-14.3 6.6,-21.8 -1.4,0.4 -2.8,0.7 -4.2,1.1 13.1,12.7 1.4,32.9 1.1,48 -0.3,13.2 6.3,26.3 16.9,34.2 6,4.5 13.3,6.7 19.6,10.6 7.4,4.6 10.9,11.7 11,20.3 0.1,16.4 -10.5,30 -14.3,45.5 -2.2,9 -0.6,16.9 0.9,25.8 1.8,10.5 -0.2,20.7 -6,29.7 1.6,0.4 3.1,0.8 4.7,1.3 0.5,-6.2 -0.4,-12.4 -2.7,-18.2 -2.7,-6.5 -7.6,-10.6 -11.3,-16.4 -4.6,-7.3 -2.3,-15.5 0.3,-23 2.2,-6.4 4.2,-12.6 5.4,-19.3 2.3,-12.7 0.7,-23.2 -7.3,-33.5 -3.5,-4.5 -7.8,-8.7 -12.8,-11.6 -6.1,-3.5 -13.2,-3.8 -17.5,-10 -1.8,-2.5 -6.1,0 -4.2,2.6 z" />
		</g>
		<g
   id="XMLID_23_">
			<path
   id="XMLID_110_"
   fill="#009cd7"
   d="m 671.9,379.2 c -3.2,-12.7 9.6,-22.1 14.2,-32.7 3.6,-8.3 2.6,-17.4 0.4,-25.9 -2.5,-9.8 -6.6,-19.5 -6.3,-29.7 0.4,-12.2 8.9,-21.7 16.7,-30.2 -1.4,-0.8 -2.8,-1.6 -4.2,-2.4 -2,12.5 -3.9,25.4 0.8,37.5 4.4,11.3 10.7,20.5 9.2,33.2 -1.4,12.5 -8.4,21.8 -18.4,28.9 -8.2,5.9 -17.1,12.8 -16.6,24 0.1,3.2 5.1,3.2 5,0 -0.5,-13.1 14.3,-18.4 22.3,-26.1 7.1,-6.9 11.5,-16.3 12.7,-26.1 1.3,-10.6 -1.9,-19.6 -6.4,-29 -3.1,-6.4 -5.3,-12.5 -5.7,-19.6 -0.4,-7.2 0.8,-14.4 2,-21.5 0.4,-2.2 -2.3,-4.5 -4.2,-2.4 -7.5,8.3 -15.5,17.3 -17.6,28.6 -1.9,10.3 1.5,20.5 4.3,30.3 3.4,11.8 5.5,22.9 -1.5,33.9 -6.1,9.5 -14.6,18.5 -11.5,30.7 0.8,2.9 5.6,1.6 4.8,-1.5 z" />
		</g>
		<g
   id="XMLID_28_">
			<path
   id="XMLID_109_"
   fill="#009cd7"
   d="m 752.1,294.7 c 2.1,-5.5 6.9,-9.2 10.4,-13.8 3.6,-4.9 5.8,-11.1 7,-17 2.6,-12.5 0.4,-25.3 -3.2,-37.3 -1.5,0.6 -3,1.3 -4.6,1.9 1.8,4.2 5.6,8.2 8.3,11.9 3.6,4.9 7.2,9.7 10.3,15 5.2,9 7.2,18 1.5,27.2 -3.8,6.2 -9.2,11.3 -12.7,17.7 -1.5,2.7 -2.6,5.6 -3.1,8.7 -0.7,4.7 0.7,9.3 0.6,14 -0.1,8.6 -8.2,14.1 -9.6,22.4 -1.4,8.1 4.6,13.7 10.9,17.5 4.3,2.6 9,4.7 11.7,9.1 3,4.8 3.5,10.7 2.5,16.2 -2.3,12.1 -9.7,20.9 -19.7,27.3 -7.8,5 -15.2,10.6 -16.3,20.4 1.6,-0.4 3.1,-0.8 4.7,-1.3 -4.3,-7.7 0.1,-15.9 4.2,-22.7 3.3,-5.6 6.6,-11.1 7.4,-17.6 1.6,-12.8 -4.9,-23 -14.8,-30.4 -5.7,-4.3 -12.1,-8.2 -15.3,-14.9 -1.8,-3.8 -2.4,-8.3 0.2,-11.9 2,-2.8 5.3,-4.3 8.1,-6.2 4.8,-3.3 8.3,-7.9 10.1,-13.5 2.2,-7.5 -0.7,-15.3 1.4,-22.7 0.9,-3.1 -4,-4.4 -4.8,-1.3 -2.3,8.2 1.3,17 -2.4,24.9 -3.1,6.7 -9.3,8.7 -14.4,13.3 -10,9.2 -2.5,23.2 6.1,30.2 5.8,4.8 12.9,8.5 17,15 4.2,6.5 5.1,14.7 2.5,21.9 -4.4,12.5 -17.7,24.2 -9.7,38.3 1.3,2.4 4.4,1 4.7,-1.3 1.3,-10.9 13.7,-15.1 21.1,-21.1 7,-5.6 11.8,-14.1 14.1,-22.7 2.2,-8 1.7,-16.9 -3.2,-23.8 -5.2,-7.4 -19.3,-9.5 -21.1,-18.9 -1.6,-7.9 7.6,-14.8 9.2,-22.2 1,-4.8 -0.5,-9.6 -0.4,-14.4 0,-4.4 1.6,-8.2 3.9,-11.9 4,-6.3 9.6,-11.5 12.9,-18.2 3.6,-7.2 3.6,-14.8 0.6,-22.3 -2.9,-7.3 -7.6,-13.7 -12.2,-20 -3.2,-4.4 -7.8,-9.1 -9.9,-14.1 -1.1,-2.6 -5.4,-0.7 -4.6,1.9 3.6,12.3 5.8,25.4 2.4,38.1 -1.7,6 -4.4,11.1 -8.5,15.8 -3.2,3.6 -6.2,7 -8,11.6 -1.3,2.8 3.5,4.1 4.7,1.2 z" />
		</g>
		<g
   id="XMLID_29_">
			<path
   id="XMLID_108_"
   fill="#009cd7"
   d="m 723.1,301.4 c -4.5,-9.6 -5.1,-19.7 -2.5,-29.9 2.1,-8.3 4.8,-16 4.3,-24.7 -1,-16.1 -9.6,-30.9 -9.4,-47.1 0.2,-16.8 12.9,-29.1 19.1,-43.7 6.9,-16.1 4.5,-33.8 0.2,-50.3 -1.5,0.6 -3,1.3 -4.6,1.9 8.5,13.4 17.7,27.8 17.6,44.2 0,8.6 -3.1,15.9 -8.2,22.6 -4.1,5.4 -8.7,10.5 -11,17.1 -2,5.6 -1.8,11.5 1.1,16.7 3.2,5.9 8.7,10.2 12.2,15.8 3.9,6.1 6.2,13.5 5.5,20.9 -0.8,7.9 -5.6,13.8 -10.9,19.3 -5.4,5.6 -10.5,11.1 -13.7,18.4 -3,7.1 -4.1,14.7 -3.4,22.4 1.6,-0.4 3.1,-0.8 4.7,-1.3 -3.2,-4.9 -4.9,-10.1 -4.9,-16 0,-3.2 -5,-3.2 -5,0 0,6.7 1.9,12.9 5.6,18.5 1.2,1.9 4.9,1.4 4.7,-1.3 -0.8,-8.2 0.5,-16.3 4.5,-23.6 3.6,-6.6 9.3,-11.4 14.2,-17 8.9,-10.1 11.6,-22.5 6.7,-35.2 -2.3,-6 -6,-11 -10.3,-15.8 -5.9,-6.6 -9.6,-13.2 -5.7,-22.1 3.2,-7.1 9.2,-12.4 13.2,-18.9 3.6,-5.9 5.4,-12.7 5.6,-19.6 0.4,-17.7 -9.1,-33.2 -18.3,-47.6 -1.5,-2.4 -5.3,-0.9 -4.6,1.9 4.9,19 6,37.2 -3.9,54.7 -7.8,13.7 -16.9,26.1 -15.4,42.7 1.5,16.4 10.6,31.9 9.1,48.7 -0.8,9 -5,17.4 -5.8,26.5 -0.7,8.4 1.1,16.7 4.7,24.3 1.6,2.9 5.9,0.4 4.6,-2.5 z" />
		</g>
		<g
   id="XMLID_224_">
			<path
   id="XMLID_107_"
   fill="#009cd7"
   d="M 674.4,213.9 C 672.2,194 649.7,189.4 641.9,173 c -9.2,-19.3 3.6,-41.6 2.6,-61.7 -0.2,-3.2 -5,-3.2 -5,0 -0.1,15.4 -21,20.2 -25.9,33.8 -5.2,14.5 4.4,28.6 13.3,39.2 5.6,6.7 11.7,13.4 14.8,21.7 3.4,8.9 1.3,17.1 -3,25.3 -6.2,12 -14.8,25.9 -6,38.9 7.4,10.8 22,14.6 27.8,26.7 1.4,2.9 5.6,0.4 4.3,-2.5 -6.3,-14.2 -11,-29.5 -5.3,-44.8 2.4,-6.5 5.9,-12.9 9.3,-18.9 3.3,-5.3 5.7,-10.5 5.6,-16.8 -0.1,-3.2 -5.1,-3.2 -5,0 0.2,8 -5.1,14.4 -8.5,21.2 -3.2,6.4 -6.6,12.8 -8,19.9 -2.9,14.7 1.9,28.6 7.8,41.9 1.4,-0.8 2.9,-1.7 4.3,-2.5 -5,-10.4 -15.9,-14.9 -24,-22.4 -14,-13 -2.3,-28.1 4,-41.8 6.3,-13.9 3.1,-26.9 -5.8,-38.8 -9,-12.1 -26.1,-26.3 -21.1,-43.3 4.5,-15.4 26.5,-18.7 26.6,-36.6 -1.7,0 -3.3,0 -5,0 1,19.8 -9.9,39.5 -3.9,59.2 2.6,8.5 8.4,14.5 15.2,19.9 7.7,6.2 17.4,12.7 18.6,23.5 0.1,3 5.1,3 4.8,-0.2 z" />
		</g>
		<g
   id="XMLID_226_">
			<path
   id="XMLID_106_"
   fill="#009cd7"
   d="m 578.6,173.4 c 2,-9.6 2.6,-19.7 -2.6,-28.4 -1.3,-2.1 -4.7,-1.3 -4.7,1.3 0.1,5.3 0.3,11.2 -2.3,16.1 -2.5,4.7 -7.1,7.9 -10.7,11.7 -5.6,6.1 -8.5,14.3 -7.7,22.6 0.8,8.5 5.3,15.1 11.2,20.9 8.6,8.3 17.1,15.9 15.1,29.1 -0.4,2.6 3.2,4.7 4.6,1.9 5.3,-10.7 9.4,-23.1 3.7,-34.4 -3,-6 -8.2,-11 -10.1,-17.6 -2.1,-7.3 1.9,-16.1 3.5,-23.2 0.7,-3.1 -4.1,-4.5 -4.8,-1.3 -1.4,6.4 -4,13.1 -4.3,19.7 -0.3,5.5 2.4,10.8 5.3,15.3 3.7,5.8 8.1,11.1 8.3,18.3 0.2,7.2 -2.7,14.4 -5.9,20.7 1.5,0.6 3,1.3 4.6,1.9 1.5,-9.5 -1.2,-18.1 -7.5,-25.3 -6.7,-7.6 -16.1,-13.1 -18.3,-23.8 -1,-5 -0.4,-10.5 1.7,-15.1 2.2,-4.8 6.2,-8.1 9.9,-11.7 7.5,-7.4 8.9,-15.6 8.8,-25.8 -1.6,0.4 -3.1,0.8 -4.7,1.3 4.5,7.6 3.8,16.3 2.1,24.6 -0.7,3 4.2,4.3 4.8,1.2 z" />
		</g>
		<g
   id="XMLID_252_">
			<path
   id="XMLID_104_"
   fill="#009cd7"
   d="m 577.4,301.7 c 1.3,-11.3 1,-23.4 -6.2,-32.8 -1.3,-1.7 -5,-1.5 -4.7,1.3 0.8,7.3 1.6,15.1 -2.1,21.8 -3,5.4 -8,9.5 -11.8,14.4 -6.2,8.1 -8.2,18.7 -5.8,28.5 2.6,10.6 10.2,17.5 18.6,23.9 11,8.3 20.3,17 19.3,32 -0.2,3 3.9,3.1 4.9,0.7 5.6,-13.9 8.7,-29.6 -0.6,-42.6 -4.8,-6.6 -11.7,-12.3 -14.1,-20.3 -1.3,-4.5 -0.2,-9.3 0.5,-13.8 0.7,-4.3 1.4,-8.7 2,-13.1 0.4,-3.2 -4.6,-3.2 -5,0 -1,7.9 -4,17.2 -2.9,25.2 1,6.9 5.3,12.6 9.7,17.8 5.3,6.4 10.5,12.5 11,21.1 0.4,8.3 -2.2,16.7 -5.3,24.3 1.6,0.2 3.3,0.4 4.9,0.7 0.8,-11.7 -4.2,-21.9 -12.9,-29.4 -8.8,-7.6 -20.3,-13.2 -24.4,-24.9 -2,-5.7 -2.2,-11.9 -0.6,-17.6 1.8,-6.4 6,-11.1 10.4,-15.9 3.4,-3.8 6.7,-7.8 8.4,-12.7 2.2,-6.5 1.5,-13.4 0.8,-20.1 -1.6,0.4 -3.1,0.8 -4.7,1.3 6.7,8.8 6.8,19.7 5.6,30.3 -0.4,3.1 4.7,3.1 5,-0.1 z" />
		</g>
		<g
   id="XMLID_238_">
			<path
   id="XMLID_103_"
   fill="#009cd7"
   d="m 782.9,325.4 c -0.1,9.6 6.2,17.1 8.3,26.1 0.6,2.7 5.2,2.2 4.9,-0.7 -1.8,-16.3 16.9,-23.9 27.1,-32.9 9.6,-8.5 17.1,-19.8 18.1,-32.8 1,-13.9 -7,-23.4 -15.8,-33.1 -10.8,-11.9 -15.8,-25.7 -12.3,-41.6 1.5,-7 1.9,-13.1 -0.8,-19.9 -2.7,-6.7 -7.7,-13.5 -6.5,-21.1 0.5,-2.8 -2.9,-4.3 -4.6,-1.9 -8,11.4 -12.1,25.4 -11.1,39.3 1.1,15.3 7.7,29.3 12.3,43.7 2.2,6.9 3.5,13.9 4.7,21.1 1.5,9 1.3,15.8 -3.6,23.7 -3.7,6 -9.1,9.3 -13.7,14.4 -3.9,4.5 -6.4,9.9 -7,15.7 -0.3,3.2 4.7,3.2 5,0 0.8,-8 6.2,-12.5 11.8,-17.4 4.5,-3.9 8.1,-9 10.7,-14.3 5.6,-11.4 2,-25.9 -1,-37.7 -3.7,-14.4 -10.5,-27.9 -13.2,-42.6 -2.8,-15.3 0.6,-30.6 9.6,-43.4 -1.5,-0.6 -3,-1.3 -4.6,-1.9 -2.1,12.8 9.5,22.2 8.4,34.7 -0.6,7.5 -3.3,14.1 -2.5,21.8 0.6,6.3 2.6,12.5 5.6,18.1 6.5,12.1 20.6,20.2 23.3,34.2 3.1,15.8 -6.9,30.1 -18.6,39.6 -11.1,9 -28,17.3 -26.1,34.4 1.6,-0.2 3.3,-0.4 4.9,-0.7 -2,-8.5 -8.3,-15.9 -8.1,-24.8 -0.2,-3.2 -5.2,-3.2 -5.2,0 z" />
		</g>
	</g><path
   id="XMLID_128_"
   fill="#009cd7"
   d="m 96.5,207.78934 c 5.7,-4.2 12.2,-7.2 18,-11.3 6.9,-4.8 18.89999,-17.1 10.4,-25.8 -8.5,-8.8 -21.7,3.7 -27.2,9.9 -2,2.2 -3.8,4.6 -5.4,7 4.2,-9.8 12.2,-17.5 19.2,-25.4 5.5,-6.3 18.2,-18.7 10.9,-27.6 -7.4,-9 -20,0.4 -24.8,7.2 -1.7,2.4 -3.2,5 -4.5,7.7 2.6,-6.6 6.5,-12.8 9.4,-19 3.5,-7.7 8.4,-19.9 -0.9,-25.6 -4.3,-2.7 -8.5,-1.9 -11.7,0.5 0.6,-2.1 1.1,-4.2 1.6,-6.399999 1.2,-6.2 2.9,-18.8 -5.9,-20.3 -5.3,-0.9 -9,2.5 -11.3,6.8 0.2,-1.2 0.5,-2.4 0.8,-3.7 1.6,-7.4 5.4,-22 -1.9,-27.5 -2.1,-1.6 -3.9,-2 -5.5,-1.7 0.7,-1.4 1.3,-2.8 1.9,-4.1 1.9,-4.6 7.2,-18.2 1.8,-22.2 -5.2,-3.8 -10.1,2.8 -12.7,7.2 1.8,-10.2 5,-20.2 9.3,-29.6999999 1.3,-2.89999996 -3,-5.4 -4.3,-2.5 C 57.3,15.189341 53.4,29.989341 52.1,44.989341 c -0.4,-1.4 -0.7,-2.9 -1.2,-4.2 -1.9,-5.8 -7.4,-14.6 -14.8,-13.1 -8,1.6 -7.1,12.2 -4.1,17.5 3.9,6.9 9.1,13.2 13.6,19.9 -4.6,-2.5 -10.1,-3.4 -14.3,-0.3 -7,5.1 -1.5,14.2 3.8,18 4.5,3.2 9.4,5.6 13.5,9.4 0.6,0.5 1.1,1.1 1.7,1.7 -4.7,-2.2 -9.8,-2.9 -14.3,-0.2 -10.4,6.2 -0.9,17.199999 5.9,21.199999 7.3,4.4 15.3,7.7 22,12.6 -1,0 -2.1,0.2 -3.2,0.5 -10.5,3 -9.6,14.4 -3.9,21.4 5,6 11.6,10.5 16.5,16 -1,-0.5 -2,-0.9 -3.2,-1.2 -5.1,-1.3 -8.6,3.1 -10.2,7.4 -2.2,5.7 -0.9,11.7 1,17.3 2.8,8.2 5,16.3 6.1,24.4 -3.1,-11 -10.4,-24.6 -22.9,-24.2 -6.4,0.2 -10.2,6 -12,11.5 -2.3,7.5 -0.8,15.5 2,22.5 3.8,9.2 9.3,17.6 13.8,26.3 -6.1,-7 -15,-12 -23.9,-9 -13.3,4.5 -6.3,21.8 -0.9,29.9 4,6 9,11.1 14,16.3 -8.4,-3.9 -20.8,-1.5 -24.3,7.9 -4.6,12.3 9.1,18.7 18.2,22.4 13.3,5.4 27.9,9.6 34.4,23.8 0.1,0.1 0.1,0.2 0.2,0.4 3,6.5 6.4,12.9 9.6,19.1 1.5,2.9 5.8,0.3 4.3,-2.5 -3.3,-6.3 -6.7,-12.8 -9.8,-19.4 0,0 0,0 0,-0.1 -0.1,-0.1 -0.1,-0.3 -0.2,-0.4 -1.1,-2.3 -2.2,-4.7 -3.2,-7.1 -1.6,-14.4 17.6,-21.5 25.4,-30.8 5.3,-6.4 9.2,-18.6 -0.6,-23.1 -1.9,-0.9 -3.8,-1.3 -5.6,-1.3 1,-0.9 2.1,-1.7 3,-2.6 5.9,-5.3 21.8,-21.2 10.7,-28.9 -2,-1.4 -4.2,-2.2 -6.4,-2.4 3,-1.8 5.9,-3.6 8.8,-5.4 6.3,-3.9 13.5,-7.8 17.8,-14 3.1,-4.5 4.6,-10.9 -0.4,-14.7 -5.4,-4.1 -12.6,-1.6 -17.9,1 -5.9,2.9 -11.5,6.7 -16.6,10.9 3.4,-4.3 7.5,-8.2 12,-11.6 z m -11.8,-18.2 c 0.1,0 0.1,0 0,0 0.1,0 0.1,0 0,0 0,0 0,0 0,0 z m -23.9,79.4 c 0,0 0.1,-0.1 0.1,-0.1 -0.1,0.3 -0.2,0.6 -0.3,0.8 0,-0.2 0.1,-0.4 0.2,-0.7 z m 38.8,-121 c 2.4,-4.2 5.5,-8.3 10,-10.5 4,-1.9 10.8,-1.4 9.8,4.6 -0.5,2.7 -2.3,5.2 -3.8,7.3 -7,10.1 -16.9,18.4 -23.6,28.7 -0.3,-10.6 2.3,-20.9 7.6,-30.1 z m -6.6,-38.9 c 3.4,-1.9 7.6,0.1 8.7,3.7 0.7,2.3 0.1,4.7 -0.5,6.9 -3.2,12 -11.6,22.5 -14.7,34.3 -0.3,-1.1 -0.6,-2.2 -1,-3.3 -0.7,-10.3 0,-20.6 2.2,-30.7 0.8,-3.6 1.7,-8.9 5.3,-10.9 z M 77.7,89.689341 c 1.3,-3.5 7.3,-10 9.4,-2.7 2.1,7.7 -2.2,17.699999 -4.5,24.899999 -2.1,6.5 -3.9,13 -4.2,19.8 -0.6,-1.3 -1.1,-2.7 -1.7,-4 -0.4,-8.3 -0.7,-16.6 -0.7,-24.9 0,-4.399999 0.2,-8.999999 1.7,-13.099999 z m -5.9,-19.2 c -0.6,7.4 -3.2,14.5 -4,21.9 -0.5,4.4 -0.5,8.799999 -0.5,13.199999 -1.1,-2.7 -2.1,-5.4 -3.1,-8.199999 0,-0.2 0,-0.5 -0.1,-0.7 -2,-8.8 -2.3,-17.9 -0.6,-26.7 0.5,-2.6 1,-8.4 2.9,-10.3 6.2,-6 5.7,8 5.4,10.8 z m -6.4,-38.1 c 4.7,-4.3 2.2,5.2 1.7,7.3 -2,8.5 -7.6,16.1 -10.2,24.5 -0.2,-2.8 -0.3,-5.6 -0.3,-8.4 0.4,-5.3 1.9,-10.6 4.1,-15.5 1.2,-2.6 2.7,-6 4.7,-7.9 z m -29.1,10.3 c -1.9,-3.5 -2.5,-12.7 4,-8.9 5.2,3 6.4,10 7.3,15.3 0.8,4.4 1.5,8.8 2.3,13.2 -2.4,-3.7 -4.9,-7.3 -7.4,-10.9 -2.1,-2.9 -4.5,-5.7 -6.2,-8.7 z m -2.3,32 c -1.6,-2.8 0.5,-6.8 3.8,-6.7 2.3,0 4.5,0.9 6.4,2 3.4,2 5.8,5 7.6,8.4 2.7,5.2 4.6,11.1 6.1,16.9 -2.2,-3 -4.8,-5.8 -7.7,-8.3 -4.8,-4 -13.1,-6.7 -16.2,-12.3 z m 2.6,25.599999 c 2.4,-6.499999 11.7,-1.999999 15.5,0.5 2.3,1.6 4.4,3.4 6.4,5.4 0.2,0.3 0.4,0.6 0.7,0.7 1.3,1.4 2.5,2.9 3.6,4.4 3.3,4.7 5.8,9.8 7.8,15.1 -3.2,-2.9 -6.7,-5.5 -10.4,-7.6 -5.2,-3 -26.7,-10.1 -23.6,-18.5 z m 21.8,34.9 c 4.2,-5.5 10.5,-1.4 13.9,2.7 3.6,4.3 6.2,9.6 7.8,15 1.6,5.5 2.2,11.2 2.2,16.9 -1.6,-3.6 -3.9,-7 -6.8,-9.9 -4.9,-5 -23.5,-16.2 -17.1,-24.7 z m 7,36 c 4.2,-6.7 11.2,5 12.5,8.8 1.6,4.7 2,9.7 2.1,14.6 0.1,7.4 -0.9,14.6 -2.8,21.7 -1.5,3.7 -3,7.3 -4.6,10.9 0.4,-7.2 -0.1,-14.4 -1.5,-21.6 -1.2,-6 -3.1,-11.6 -5.2,-17.3 -1.9,-5.4 -3.8,-11.8 -0.5,-17.1 z m -28.4,45.5 c -1.8,-6.4 -2.4,-16.8 3.7,-21.3 6.5,-4.8 14.6,4.3 17.5,9.4 3.3,5.9 5,12.9 5.7,19.6 1.2,12.6 -2,24.8 -5.9,36.7 -2.4,-8.4 -6.5,-16.2 -10.9,-23.9 -3.7,-6.5 -7.9,-13.1 -10.1,-20.5 z m -12,47.6 c -2.7,-4.8 -7.3,-15.5 -0.2,-18.8 6.2,-2.9 13.6,1.6 18,5.8 4,3.9 6.7,8.9 8.2,14.2 1.5,5.3 1.9,10.8 1.9,16.4 -0.6,4.3 -0.7,8.6 -0.6,12.8 0,0.6 -0.1,1.1 -0.1,1.7 -4.8,-6.4 -10.7,-12 -16.2,-17.8 -4.1,-4.4 -8,-9 -11,-14.3 z m 26.7,55.8 c -9.8,-5.3 -22.3,-6.8 -31,-14 -5.5,-4.6 -4.9,-12 1.8,-15 5.5,-2.5 11.5,-1.2 16.1,2.5 8.3,6.8 13.4,16.5 18.2,25.8 0.5,1.7 1.1,3.5 1.7,5.2 -2.1,-1.7 -4.4,-3.2 -6.8,-4.5 z m 40,-30.4 c -3.3,12.7 -19.9,17.9 -27.2,28.1 -1,-8.4 0.7,-16.8 4.9,-24.3 2.4,-4.2 5.5,-8.6 9.7,-11.1 6.1,-3.4 14.8,-1 12.6,7.3 z m 6,-38.6 c 0.4,1.5 -1.3,4.4 -2,5.8 -7.7,14.4 -27.4,22.6 -36,36.7 2,-10.4 4,-21 9.3,-30.3 3.2,-5.6 7.4,-10.8 13.1,-14 3.1,-1.7 6.6,-2.7 10.2,-2.2 2.1,0.2 4.8,1.6 5.4,4 z m 9.9,-39.9 c 4.9,-1.5 11.1,-0.4 9,6 -2,6 -10.1,10.1 -15.2,13.2 -6.3,3.9 -12.5,7.8 -18.8,11.7 -5.6,3.5 -11.4,7.1 -16.4,11.6 0.1,-0.2 0.2,-0.5 0.3,-0.7 1,-2.3 1.9,-4.6 2.9,-6.9 3.5,-6.9 8.1,-13.2 13.7,-18.7 4.5,-4.4 9.5,-8.2 14.8,-11.4 3.1,-1.8 6.3,-3.8 9.7,-4.8 z m -22.5,0.1 c 3.3,-7.2 6.8,-14.3 11.3,-20.8 3.2,-4.6 6.9,-8.8 11.2,-12.4 2.1,-1.7 4.3,-3.4 6.8,-4.3 4.1,-1.5 8.6,-0.2 8.1,4.9 -1.1,11.3 -16.7,17.1 -24.9,22.4 -4.6,2.9 -8.8,6.4 -12.5,10.2 z"
   style="fill:#90e9d3;fill-opacity:1" /><path
   id="XMLID_150_"
   fill="#009cd7"
   d="m 279.49999,294.48934 c -3.5,-9.3 -15.9,-11.8 -24.3,-7.9 4.8,-5 9.6,-9.9 13.5,-15.6 5.5,-8 13.2,-25.9 -0.5,-30.6 -8.9,-3 -17.8,2 -23.9,8.9 4.5,-8.7 10,-17.1 13.8,-26.3 2.9,-7.1 4.4,-15.1 2,-22.5 -1.7,-5.5 -5.6,-11.3 -12,-11.5 -12.6,-0.4 -19.9,13.5 -23,24.5 1,-8 3.1,-15.9 5.9,-23.9 2,-5.7 3.5,-11.9 1.4,-17.8 -1.6,-4.4 -5.2,-9 -10.4,-7.7 -1.1,0.3 -2.2,0.7 -3.2,1.2 4.9,-5.5 11.4,-10 16.5,-16 5.8,-6.9 6.7,-18.3 -3.9,-21.4 -1.1,-0.3 -2.2,-0.5 -3.2,-0.5 6.5,-4.8 14.2,-8 21.3,-12.2 6.9,-4 17.4,-15.199999 6.6,-21.699999 -4.6,-2.7 -9.6,-2 -14.4,0.2 0.4,-0.4 0.8,-0.8 1.2,-1.2 4.1,-3.9 8.9,-6.3 13.5,-9.5 5.4,-3.8 11.6,-13 4.4,-18.4 -4.2,-3.1 -9.7,-2.2 -14.4,0.3 4.3,-6.4 9.2,-12.5 13.2,-19.1 3.2,-5.3 4.8,-16.5 -3.7,-18.2 -7.1,-1.5 -12.6,6.9 -14.6,12.5 -0.5,1.6 -1,3.1 -1.4,4.8 -1.3,-15 -5.2,-29.7 -11.6,-43.5999999 -1.3,-2.9 -5.7,-0.39999996 -4.3,2.5 4.4,9.4999999 7.5,19.4999999 9.4,29.7999999 -2.6,-4.6 -7.5,-11 -12.7,-7.3 -5.4,3.9 -0.2,17.3 1.7,21.9 0.6,1.5 1.3,3 2.1,4.4 -1.5,-0.3 -3.4,0.1 -5.5,1.7 -7.2,5.3 -3.6,19.4 -2.1,26.6 0.3,1.6 0.7,3.1 1,4.6 -2.2,-4.3 -5.9,-7.8 -11.3,-6.8 -8.6,1.5 -7.2,13.5 -6.1,19.6 0.4,2.399999 1.1,4.799999 1.7,7.099999 -3.2,-2.4 -7.3,-3.2 -11.7,-0.5 -9,5.4 -4.6,17.3 -1.2,24.8 3,6.6 7.2,13.3 9.9,20.2 -1.2,-2.6 -2.7,-5.2 -4.3,-7.6 -4.8,-7 -17.7,-17.1 -25.2,-7.8 -7.1,8.7 5,20.8 10.4,27 7.1,8.1 15.4,16 19.7,26 -1.5,-2.2 -3.2,-4.3 -4.9,-6.4 -5.5,-6.3 -19,-19.5 -27.7,-10.5 -8.2,8.5 2.9,20.5 9.7,25.3 6,4.3 12.8,7.4 18.7,11.8 4.6,3.3 8.6,7.3 12.1,11.7 -5.1,-4.3 -10.7,-8 -16.6,-10.9 -5.4,-2.7 -12.5,-5.1 -17.9,-1 -5,3.8 -3.6,10.2 -0.4,14.7 4.4,6.2 11.5,10.1 17.8,14 2.9,1.8 5.9,3.6 8.8,5.4 -2.2,0.3 -4.3,1 -6.4,2.5 -11.1,7.7 4.7,23.5 10.7,28.9 1,0.9 2,1.7 3,2.6 -1.8,0 -3.7,0.4 -5.6,1.3 -9.9,4.4 -5.9,16.7 -0.6,23.1 7.7,9.3 26.6,16.3 25.4,30.4 -3.8,9.4 -8.5,18.5 -13.2,27.5 -1.5,2.8 2.8,5.4 4.3,2.5 3.6,-6.8 7.2,-13.8 10.6,-21 6.8,-13 20.8,-17.2 33.6,-22.4 9.2,-3.7 22.9,-10.2 18.3,-22.5 z m -72.1,-104.9 c 0,0 0,0.1 0,0 -0.1,0.1 -0.1,0 0,0 -0.1,0 -0.1,0 0,0 z m 23.9,79.4 c 0,0.1 0,0.1 0.1,0.2 -0.1,-0.1 -0.1,-0.2 -0.1,-0.2 -0.1,-0.1 0,0 0,0 z m 17.5,-17.1 c 4.1,-4.3 12.4,-9.8 18.5,-6.4 6.5,3.6 2.8,12.9 0.1,18 -2.8,5.3 -6.7,10 -10.8,14.3 -5.7,6.1 -11.7,11.8 -16.8,18.4 0,-0.1 0,-0.2 0,-0.3 0.1,-2.9 0.1,-5.8 -0.1,-8.7 -0.1,-1.8 -0.3,-3.7 -0.6,-5.5 0,-5.4 0.4,-10.7 1.7,-15.7 1.5,-5.1 4.1,-10.1 8,-14.1 z m -20.7,-26.6 c 0.6,-7 2.3,-14.3 5.7,-20.5 2.9,-5.2 11,-14.2 17.5,-9.4 6.1,4.5 5.5,14.9 3.7,21.3 -2,7.1 -6,13.5 -9.7,19.8 -4.5,7.9 -8.8,16 -11.3,24.7 -3.7,-11.6 -6.8,-23.6 -5.9,-35.9 z m -1.4,-54.1 c 3.3,5.3 1.5,11.7 -0.5,17.1 -1.9,5.4 -3.8,10.8 -5,16.4 -1.5,7.5 -2.1,15 -1.7,22.5 -0.4,-1 -0.9,-2 -1.3,-3 -1.1,-2.6 -2.2,-5.2 -3.3,-7.9 -1.9,-6.8 -2.9,-13.8 -2.8,-20.9 0,-5.2 0.4,-10.5 2.1,-15.5 1.3,-3.6 8.3,-15.4 12.5,-8.7 z m 7,-36 c 6.4,8.4 -11.6,19.2 -16.5,24.1 -3.2,3.1 -5.7,6.7 -7.4,10.5 0.1,-5.4 0.6,-10.8 2,-16.1 1.5,-5.3 3.8,-10.3 7.1,-14.7 3.4,-4.3 10,-9.9 14.8,-3.8 z m 21.8,-34.9 c 2.7,8.6 -17.4,15 -22.8,18.1 -3.9,2.2 -7.7,4.9 -11.1,8 2,-5 4.3,-9.9 7.4,-14.4 1.2,-1.8 2.6,-3.5 4,-5 0.2,-0.2 0.5,-0.4 0.6,-0.7 1.8,-1.8 3.7,-3.5 5.7,-5 3.6,-2.499999 13.9,-7.999999 16.2,-1 z m 2.6,-25.599999 c -3.1,5.6 -11.4,8.3 -16.2,12.3 -2.9,2.4 -5.5,5.2 -7.7,8.2 1.5,-5.8 3.4,-11.7 6.1,-16.9 1.7,-3.2 3.9,-6.1 7,-8.1 3.4,-2.1 15.6,-4.2 10.8,4.5 z m -6.2,-40.9 c 6.3,-3.4 6,5.2 4,8.9 -1.6,2.9 -3.8,5.4 -5.7,8 -2.7,3.7 -5.3,7.6 -7.8,11.5 0.7,-4.1 1.4,-8.2 2.1,-12.2 0.8,-5.5 1.9,-13.3 7.4,-16.2 z m -25.6,-1.9 c 2,1.4 3.7,5.5 4.8,7.7 2.6,5.4 4.3,11.4 4.5,17.4 0,2.4 -0.2,4.9 -0.3,7.3 -2.6,-8.4 -8.2,-16 -10.3,-24.6 -0.5,-2 -0.8,-3.9 -1,-6 -0.3,-2.2 -0.3,-3.6 2.3,-1.8 z m -6.2,33.2 c 0,-1.4 0.2,-2.8 0.5,-4.2 0.2,-2.4 1.2,-3 3,-1.8 2.8,0.7 2.8,3.1 3.6,5.7 0.5,1.7 0.9,3.4 1.2,5.2 1.8,8.9 1.4,17.9 -0.6,26.7 -0.1,0.2 -0.1,0.5 -0.1,0.7 -1,2.799999 -2,5.499999 -3.1,8.199999 0,-4.4 0,-8.799999 -0.5,-13.199999 -0.8,-7.4 -3.3,-14.5 -4,-21.9 0,-1.8 0,-3.6 0,-5.4 z m -15.1,21.9 c 2,-7.2 8.1,-0.9 9.4,2.7 1.5,4.2 1.6,8.7 1.6,13.099999 0,8.3 -0.3,16.7 -0.7,25 -0.6,1.3 -1.1,2.6 -1.7,4 -0.2,-6.8 -2.1,-13.3 -4.2,-19.9 -2.2,-7.3 -6.5,-17.199999 -4.4,-24.899999 z m -14.5,25.799999 c 1.1,-3.6 5.3,-5.6 8.7,-3.7 3.6,2 4.5,7.3 5.3,10.9 2.2,10.1 2.9,20.4 2.2,30.7 -0.3,1.1 -0.7,2.2 -1,3.3 -3.1,-11.8 -11.5,-22.2 -14.7,-34.2 -0.6,-2.3 -1.2,-4.7 -0.5,-7 z m -13.8,36.6 c -1.3,-1.9 -2.8,-4 -3.6,-6.2 -1.9,-5.6 3.7,-7.9 8.3,-6.2 4.9,1.7 8.3,6.1 10.9,10.4 5.5,9.3 8.2,19.9 8.1,30.7 -6.8,-10.3 -16.7,-18.7 -23.7,-28.7 z m 18.6,52.2 c -8.3,-5.5 -24.5,-11.3 -25.6,-22.9 -0.4,-4.2 3.1,-6.4 7,-5.3 3,0.8 5.6,2.8 7.9,4.7 4.1,3.4 7.6,7.4 10.7,11.7 4.7,6.7 8.3,14 11.7,21.4 -3.5,-3.6 -7.4,-6.8 -11.7,-9.6 z m -19.8,15.6 c -2.6,-6.6 4.4,-7.4 9,-6 3.1,1 6.1,2.8 9,4.4 5.4,3.2 10.4,6.9 15,11.3 5.7,5.4 10.4,11.7 14,18.6 1.2,2.7 2.4,5.4 3.5,8.2 -4.8,-4.3 -10.4,-7.8 -15.7,-11.2 -6.2,-3.9 -12.4,-7.7 -18.7,-11.6 -5.6,-3.4 -13.6,-7.3 -16.1,-13.7 z m 20.9,39.6 c -2,-3.7 -3.4,-8.1 2.2,-9.7 3.8,-1.1 8.1,0.3 11.4,2.1 5.7,3.1 9.9,8.4 13.1,14 5.3,9.3 7.3,19.9 9.3,30.3 -8.5,-14 -28.2,-22.4 -36,-36.7 z m 4,32.9 c -2,-7.7 5.8,-10.8 11.9,-7.6 4.3,2.2 7.6,6.7 10,10.8 4.5,7.6 6.3,16.3 5.3,25 -7.4,-10.3 -23.9,-15.6 -27.2,-28.2 z m 71,16.4 c -8.6,7 -20.6,8.6 -30.3,13.6 -2.5,1.3 -5,2.9 -7.3,4.7 0.7,-2 1.4,-4 2,-6 4.6,-8.8 9.5,-17.8 17.2,-24.4 4.4,-3.8 10,-5.5 15.7,-3.5 7.1,2.8 8.7,10.8 2.7,15.6 z"
   style="fill:#90e9d3;fill-opacity:1" /><path
   id="XMLID_57_"
   fill="#009cd7"
   d="m 524.79999,252.68934 c -4.8,7.4 -9.7,15 -15.7,21.5 -5.5,6 -12.3,10.3 -18.5,15.5 -7.9,6.7 -13.9,15.2 -17.4,24.7 -0.7,-3.4 -1.6,-6.8 -2.7,-10.2 -0.4,-1.3 -0.8,-2.5 -1.3,-3.7 -0.1,-0.3 -0.1,-0.5 -0.3,-0.8 -0.3,-0.8 -0.6,-1.5 -0.9,-2.2 0,-0.1 -0.1,-0.2 -0.1,-0.3 -3,-7.3 -6.9,-14.1 -11.1,-20.9 -1.2,-1.9 -2.4,-3.9 -3.5,-5.9 -2.9,-12.4 9.3,-16.4 18.6,-19.9 7.8,-2.9 15.2,-6.9 21.6,-12.3 12.8,-10.9 20,-27.8 14.8,-44.3 -0.6,-1.9 -3.6,-2.6 -4.6,-0.6 -7.4,14.8 -19.2,26.6 -33.7,34.7 -6.8,3.8 -14.1,7.5 -19.4,12.8 2.2,-4.2 5.2,-7.9 8.3,-11.5 0.4,-0.2 0.8,-0.6 1,-1.1 0,-0.1 0,-0.1 0.1,-0.2 2.1,-2.5 4.3,-4.9 6.3,-7.4 6.2,-7.9 10.5,-17 12.1,-27 0.3,-1.7 0.4,-3.4 0.5,-5.1 0,-0.1 0.1,-0.1 0.1,-0.2 2.4,-8 5.5,-15.3 11.8,-21 4.9,-4.4 10.7,-7.8 15.2,-12.7 10,-10.7 8.1,-24.8 5.2,-38 -0.5,-2.3 -4.5,-2.5 -4.8,0 -2,13.6 -16.2,19.9 -24.3,29.5 -4.2,5 -6.8,10.4 -8.1,16.3 -2.7,-7.3 -6.1,-14.5 -8.8,-22.1 0,-0.1 -0.1,-0.2 -0.1,-0.4 -0.1,-0.2 -0.2,-0.5 -0.3,-0.7 -0.5,-1.4 -1,-2.9 -1.4,-4.4 -1.9,-6.3 -2.7,-12.5 -2.1,-19.1 0.6,-6.7 2.2,-13.2 2,-19.899999 -0.1,-4.6 -0.8,-9 -2,-13.4 0,-0.1 0,-0.2 0,-0.3 -1.8,-8.7 -1.5,-17.2 1.8,-25.5 2.9,-7.2 8.2,-13.4 10.2,-20.9 4,-14.6 -4,-29.2999999 -12.1,-40.8999999 -1.6,-2.3 -5.1,-0.9 -4.6,1.9 1.5,7.4 1.3,14.9999999 -0.8,22.2999999 -2,6.8 -6,12.3 -9,18.6 -4.7,10.3 -5.2,18.7 0.9,28.4 6.6,9.1 10.6,19.9 10.5,31.2 -0.1,7.499999 -1.7,14.699999 -2,21.999999 -3.3,-4.2 -7.6,-7.7 -12.5,-10.1 -11.3,-5.5 -23.9,-8.6 -27.9,-22.199999 -0.6,-2.1 -3.4,-2.4 -4.6,-0.6 -7.6,12 -0.4,25.299999 9.8,32.899999 6.1,4.5 13.1,7.4 20.1,10.2 6.4,2.5 15.4,4 18.6,10.7 5.6,16 15.3,30.6 14,48.3 -0.7,9.3 -4.1,17.8 -9.3,25.4 -0.2,-8.2 -4.6,-15.4 -12.4,-20.4 -7.1,-4.5 -15,-7.4 -21.2,-13.2 -5.7,-5.3 -9.5,-11.9 -11.2,-19.5 -0.5,-2.4 -4.2,-2.3 -4.8,0 -3.6,14.4 -4.5,28.3 8.1,38.4 6,4.9 13.2,7.8 20.1,11.1 5.5,2.5 16,6.7 12.4,14.9 -4.1,4.8 -8.1,9.8 -10.7,15.6 -2.5,5.5 -2.9,10.8 -2,15.9 0,0.2 0,0.4 0,0.6 0,0.7 0.2,1.2 0.5,1.6 1,4.4 3,8.7 5.2,12.8 0,0 0,0 0,0 0.1,0.5 0.4,0.9 0.6,1.1 3.2,5.8 7,11.4 10.1,17 -9.5,-4.6 -21,-3.9 -31,-8.1 -13.5,-5.6 -23.2,-17.4 -29,-30.5 -1,-2.2 -3.9,-1.2 -4.6,0.6 -6,16.5 5,33.6 17.7,43.6 7.1,5.6 15.1,8.3 24.1,8 4.8,-0.2 9.4,-1.2 14.1,-2 3.5,-0.6 10.9,-2 14.1,0.6 7.2,20 7.7,42 1.2,62.4 -1,3.1 3.8,4.4 4.8,1.3 2.8,-8.9 4.4,-18.1 4.7,-27.3 0,-0.1 0.1,-0.2 0.1,-0.4 1.5,-12.2 9.7,-17.9 19.9,-23.3 8.2,-4.4 15.8,-9.4 21.8,-16.7 10.5,-12.6 15.3,-28.9 12.3,-45.2 -0.4,-1.7 -3.5,-1.7 -4.5,0 z m -33.5,-109 c 5.9,-5.2 12.7,-10.4 16.6,-17.2 0.7,4.8 1,9.6 -0.1,14.3 -1.7,7.2 -6.8,11.8 -12.5,16.2 -4.6,3.5 -9.3,6.9 -12.9,11.5 -1.7,2.2 -3.2,4.7 -4.4,7.2 -1,-13.1 3.4,-23.2 13.3,-32 z m -42.9,-95.399999 c 1.5,-6.8 5.4,-12.3 8.5,-18.3 3.8,-7.4 5.6,-15.5 5.6,-23.5999999 2.4,4.2999999 4.5,8.6999999 5.7,13.4999999 2.1,8.3 0.7,15.6 -3.5,23 -3.5,6.2 -7,12.2 -8.6,19.2 -0.5,2.2 -0.8,4.4 -1,6.5 -1,-1.6 -2,-3.2 -3.1,-4.8 -3.1,-5 -4.9,-9.6 -3.6,-15.5 z m -11.5,74.299999 c -10.8,-4.7 -27,-15.2 -23.6,-28.399999 3.9,7.299999 10.7,12.099999 18.6,15.499999 5.6,2.4 11.8,4.4 16.5,8.5 3.6,3.2 6.5,7.5 8.3,12.1 -6,-3.4 -13.6,-5 -19.8,-7.7 z m 43.8,104.4 c 9.7,-6.8 17.9,-15.4 24,-25.5 1.9,17.4 -10.8,32.5 -26,40.4 -7.8,4.1 -17.3,5.5 -24.2,11 -2.7,2.1 -4.6,4.9 -5.6,7.9 -0.4,-1.3 -0.8,-2.7 -1.1,-4 1.3,-16.7 21.2,-21.5 32.9,-29.8 z m -40.2,-23.1 c -7.2,-3.4 -15.2,-7.1 -19.9,-13.9 -4,-5.8 -4,-12.5 -2.9,-19.1 4.1,8.6 11,15.5 19.4,20.3 6,3.5 13.4,6.1 18.1,11.5 3.6,4.1 4.7,8.9 4.2,13.8 -3.6,-6.1 -12.7,-9.7 -18.9,-12.6 z m 12,92.5 c -10.2,1.3 -20,4.5 -30,0 -12.8,-5.8 -25.3,-21.1 -24.5,-35.9 5.5,9.8 13.3,18.4 23.3,23.9 6.7,3.7 13.7,5.2 21.2,6.3 5.9,0.9 11.9,2.1 16.9,5.4 -2.5,-0.2 -4.9,0 -6.9,0.3 z m 53.7,5.7 c -7.6,6.4 -17.3,9.6 -25.1,15.6 -2.2,1.7 -4,3.7 -5.5,5.8 3.2,-14.3 11.7,-25.4 23.4,-34.3 6.2,-4.7 12,-9.5 16.9,-15.5 3.3,-4 6.4,-8.3 9.3,-12.7 0.6,15.8 -6.9,31 -19,41.1 z" /><path
   id="XMLID_66_"
   fill="#009cd7"
   d="m 712.59999,261.08934 c -0.2,-2.9 -3.9,-3.3 -4.9,-0.7 -5.6,14 -16.5,25.6 -30.2,31.8 -6.1,2.8 -12.9,4.3 -19.3,6.6 9.3,-12.8 14.4,-29.9 4.9,-43.4 1.1,-13.7 17.6,-21.2 26.7,-29.1 8.5,-7.4 13.3,-18.1 10.7,-29.3 -0.6,-2.4 -4.3,-2.4 -4.8,0 -1.9,8.4 -12.9,12.6 -19.7,16.3 -5.8,3.1 -11.5,6.4 -15.4,11.8 -4.6,6.3 -6.5,14.2 -5.5,21.8 -2.4,-2.2 -4.9,-4.4 -7.1,-6.8 -0.1,-0.2 -0.3,-0.5 -0.6,-0.6 -1.3,-1.5 -2.5,-3.2 -3.6,-4.9 -5.9,-10.2 -0.3,-20.8 1.3,-31.3 0.2,-1.5 0.4,-3 0.5,-4.5 0.1,-0.3 0.2,-0.5 0.2,-0.8 0.5,-7.3 2.8,-14.4 6.8,-20.6 4.1,-6.2 9.7,-10.1 15.5,-14.6 4.6,-3.5 8.5,-7.4 10.6,-12.9 2.5,-6.4 2.6,-13.4 2.6,-20.1 0,-2.9 -4,-3.2 -4.9,-0.7 -2.7,7.6 -8.2,10.8 -14.9,14.5 -4.9,2.6 -9,6.3 -12.2,10.8 -3.7,5.2 -6.2,11.3 -7.5,17.6 -0.1,-0.2 -0.1,-0.4 -0.2,-0.6 -4,-10.2 -11.9,-18.9 -14.3,-29.7 -4.6,-20.2 16,-35.1 22.1,-52.699999 3.2,-6.1 8.9,-9.1 13.9,-13.5 5.8,-5.1 9.6,-12.1 10.5,-19.8 0.9,-8.2 -1.3,-16.4 -5.1,-23.6 -2.2,-4.2 -5.1,-8.2 -6.6,-12.8 -1.8,-5.7 -1.1,-11.6999999 -0.3,-17.3999999 0.4,-2.79999996 -2.9,-4.4 -4.6,-1.89999996 -9.5,13.39999986 -10.5,28.29999986 -7.3,43.99999986 1.6,8 3.4,16.2 1.5,24.4 -1.5,6.5 -4.7,12.7 -6.8,19 -2.1,6.3 -5.7,11.9 -9.6,17.499999 0.1,-6.999999 -3.2,-13.599999 -9.4,-18.699999 -11.9,-9.8 -26.3,-17.2 -27.3,-34.5 -0.1,-2.4 -3.3,-3.4 -4.7,-1.3 -7.5,12.2 -3.5,25.9 5.6,36 5.3,5.9 12.1,9.6 18.1,14.699999 7.1,6 7.5,13.3 6.8,22 -1.1,2.8 -2,5.7 -2.4,8.8 -1.3,9.7 2.6,18.4 7.3,26.6 1.8,3.2 3.5,6.3 5.1,9.5 -4.1,-4.2 -9.1,-7.3 -14.9,-10 -12,-5.5 -22.6,-11.1 -25.8,-25 -0.6,-2.6 -4,-2.1 -4.8,0 -5.8,14.5 2.7,29.6 15,37.4 7.1,4.5 14.9,6.4 22.9,8.5 4.5,1.2 8.1,2.4 10.7,6.5 1.8,2.8 3.3,6.1 3.5,9.5 -0.1,5 -0.8,9.9 -2.1,14.8 -1.4,5.2 -2.9,10.5 -2.6,16 0.1,0.9 0.2,1.7 0.3,2.5 -5,-3.7 -10.9,-6.2 -16.8,-8.8 -11.7,-5.1 -21.3,-11.9 -24.5,-24.9 -0.6,-2.3 -4.4,-2.5 -4.8,0 -2.4,14 2.2,28.3 13.3,37.4 5,4.1 11,7 17.3,8.2 7.8,1.4 16.4,-0.7 23.5,3.5 0.4,0.4 0.8,0.9 1.2,1.3 4,4.1 9.1,7.9 12.7,12.5 0.1,0.3 0.3,0.5 0.5,0.7 1.7,2.2 3,4.7 3.7,7.4 2.8,10.4 -1.6,21.5 -7.7,29.8 -2.3,3.1 -4.8,6.1 -7.4,8.9 -2.2,1.5 -4.3,3.4 -6,5.7 0.7,-10.6 -2.9,-21.1 -13.2,-26.4 -7.4,-3.8 -15,-6 -21.5,-11.4 -6.5,-5.4 -11.6,-12.3 -14.8,-20.1 -0.9,-2.2 -4.1,-2.6 -4.8,0 -4.5,15.1 1.4,31.5 15.1,39.6 7.3,4.3 17.1,3.6 23.9,8.5 6.1,4.4 7.9,13.6 6.3,20.6 -1,1.2 -2,2.5 -2.9,3.8 -7.4,10.3 -12.4,22 -15.1,34.4 -0.7,3.1 4.1,4.5 4.8,1.3 2.6,-11.7 7.3,-22.7 14.1,-32.5 1,-1.5 2.1,-2.9 3.2,-4.2 0.1,-0.1 0.1,-0.1 0.2,-0.2 2,-2.4 4,-4.7 6.1,-7 9,-5.2 19,-2.2 29.3,-0.6 8.6,1.3 16.8,0.3 24,-4.7 16,-11.5 18.2,-32 16.6,-49.9 z m -59.8,-234.999999 c 0.3,-4.8 1.3,-9.5 3.1,-13.9 0.1,4 0.8,8 2.6,12 4.1,9.1 10.1,16.6 10.3,27 0.2,9.1 -4.2,16.8 -11.3,22.3 -1.2,0.9 -2.4,1.9 -3.6,2.8 0.8,-2.1 1.5,-4.1 2,-6.2 1.6,-6 1.3,-12.3 0.4,-18.4 -1.3,-8.5 -4,-16.9 -3.5,-25.6 z m -39.3,65.7 c -10.3,-7.4 -21.1,-18.8 -18.7,-31.5 2.7,8.2 8.3,15 15.5,20.5 5.4,4.1 11.9,7.7 16.3,13 4,4.9 4.3,11.199999 2.3,16.899999 -0.3,-1.8 -0.8,-3.6 -1.6,-5.3 -2.7,-5.999999 -8.7,-9.899999 -13.8,-13.599999 z m 43.5,60.999999 c 4.4,-4.3 10.3,-6 15.1,-9.7 1.5,-1.1 2.7,-2.4 3.9,-3.7 -0.4,4.5 -1.5,9 -4.1,12.7 -4,5.7 -10.5,8.8 -15.6,13.3 -4.5,3.9 -8,8.7 -10.6,13.9 0.7,-9.8 4.3,-19.7 11.3,-26.5 z m -37.1,19 c -13.6,-4 -28.5,-14.8 -28.3,-29.4 3.5,6.7 9.1,11.9 16.1,15.5 10.1,5.2 20.3,8.7 26.5,18 -4.3,-2.1 -9.7,-2.7 -14.3,-4.1 z m -8.5,59.3 c -9.2,-5.2 -15.1,-14.4 -16.6,-24.5 3.5,5.6 8.5,10.1 14.6,13.3 9.5,5.1 21.1,7.8 28.4,16.1 -2.2,-0.3 -4.5,-0.4 -6.8,-0.4 -7,-0.1 -13.4,-1 -19.6,-4.5 z m 59.6,-9.2 c 7.3,-4.9 18.7,-8.5 25.1,-15.6 -2.2,18.1 -28.4,24.8 -36.1,41.2 -1.7,-9.6 2.6,-20 11,-25.6 z m -50.2,70.4 c -9.1,-2.6 -17.3,-4 -23.8,-11.6 -4.9,-5.8 -7,-13.1 -6.5,-20.4 5.4,9.4 13.3,17.2 23.2,22.1 6.9,3.5 15.4,5 19.7,12.1 2.3,3.8 3.2,8.2 3.1,12.7 -2.4,-7 -7.8,-12.6 -15.7,-14.9 z m 65.9,17.7 c -9.2,3 -18.8,-0.8 -28,-1.8 -3,-0.3 -5.9,-0.3 -8.7,0.2 0.2,-0.2 0.3,-0.3 0.5,-0.5 4.5,-3.1 9.9,-4.9 15.2,-6.4 7.3,-2.2 14.3,-4.4 20.8,-8.4 8.9,-5.5 16.2,-13.1 21.4,-22 -0.1,15.9 -4.7,33.4 -21.2,38.9 z" /><path
   id="XMLID_521_"
   fill="#009cd7"
   d="m -88.3,35.989341 c 4.6,0 6,7.9 0.8,10 -10.5,4.3 -7.2,21.5 -6.1,29.7 1.7,11.8 1.5,23 -6,32.799999 -3,4 -6.7,7.3 -10.6,10.3 3.9,0.1 7.7,0.4 11.6,0.4 1.8,0 3.5,-0.1 5.3,-0.2 7.4,-0.7 15.7,-3.8 18.7,-11.2 3.4,-8.499999 0.7,-18.499999 3.4,-27.299999 0.7,-2.4 2.7,-3.5 4.7,-3.5 3,0 6.1,2.4 4.9,6.2 -2.9,9.5 -0.1,19.799999 -4.1,29.099999 -3.1,7.2 -9.5,12 -16.8,14.6 -5,1.8 -9.9,2.2 -15,2.2 -4.1,0 -8.3,-0.3 -12.4,-0.3 -0.3,0 -0.6,0 -0.8,0 -5.2,0 -12.3,0.5 -17.2,3.3 -5.9,4.9 -10.9,10.7 -13.4,18.8 -7,23 3.5,46.8 4.9,69.9 0.3,4.9 0.1,10.1 -0.6,15.3 0,0.1 0,0.3 0,0.4 0,0.6 -0.1,1.2 -0.3,1.7 -2.4,13.3 -8.8,26.1 -21.1,32.3 -5.4,2.7 -11.2,3.6 -17,3.6 -4.7,0 -9.4,-0.5 -14,-1.1 -3.7,-0.4 -7.6,-0.9 -11.3,-0.9 -6,0 -11.9,1.1 -16.8,5.3 -9,7.6 -13.1,19.1 -19.3,29 -1.7,3.9 -4.5,7.1 -7.8,9.8 -1.1,1 -2.2,1.9 -3.4,2.8 -4.5,3.3 -9.4,5.2 -14.6,6.2 -0.5,0.1 -1,0.3 -1.4,0.4 -0.5,0.1 -1,0.2 -1.4,0.2 -0.4,0 -0.7,0 -1.1,-0.1 -1.1,0.1 -2.1,0.1 -3.2,0.1 -12.4,0 -25.2,-5.1 -35,-12 -9.7,-6.8 -17.8,-15.8 -23.7,-26 -0.6,-0.4 -1.1,-1 -1.5,-1.8 -4.2,-8.2 -7.9,-17.9 -13.8,-25.1 -5,-6 -12.4,-9.2 -19.2,-12.6 -13,-6.3 -27.7,-16.2 -26.9,-32.5 0.2,-3.2 2.7,-4.8 5.3,-4.8 2.5,0 4.9,1.6 4.7,4.8 -0.8,16 19,21.9 30.2,28.1 3.8,2.1 7.3,4.5 10.4,7.4 -0.7,-9.2 -0.6,-18.7 -1.8,-27.7 -0.3,-0.6 -0.5,-1.2 -0.6,-1.9 -0.2,-1.7 -0.4,-3.4 -0.6,-5 -0.9,-4.2 -2.3,-8.3 -4.3,-12.2 -5.6,-11 -17.8,-17.3 -26.8,-25.6 -0.5,-0.2 -1.1,-0.5 -1.6,-0.9 -2.3,-1.9 -7.1,-1.1 -9.9,-1.5 -3.1,-0.4 -6,-1.5 -8.6,-3 -5.3,-3.1 -10.2,-8.1 -13.2,-13.5 -3.6,-6.6 -3.2,-13.7 -2.8,-20.9 0.4,-7.6 -1,-14.5 -6.1,-20.4 -3.2,-3.7 0.1,-8.7 3.8,-8.7 1.1,0 2.3,0.5 3.3,1.6 4.5,5.2 7.7,11.2 8.8,18 1.1,7.2 -1.2,14.7 0.4,21.7 1.5,6.5 8.5,13.6 15,15 0.7,0.2 1.4,0.3 2.1,0.4 -1.4,-3.3 -2.1,-7.1 -1.9,-11.5 0.2,-3.2 2.7,-4.8 5.2,-4.8 2.5,0 4.9,1.6 4.8,4.8 -0.6,13.5 12.7,20.7 22,27.8 3.2,2.5 6.1,5.1 8.6,8.1 0,-1.4 -0.1,-2.8 -0.2,-4.2 -0.2,-5.2 -0.5,-10.5 -0.6,-15.8 -0.1,-11.8 1.7,-23.9 0.1,-35.6 -1.4,-10.8 -11.9,-10.7 -19,-16.6 -3.8,-3.2 -5.6,-7.4 -6.2,-12.3 -0.7,-6.3 -0.7,-11.199999 -4.1,-16.899999 -5.5,-9.1 -11.9,-18.9 -5.9,-29.5 1,-1.7 2.5,-2.4 4,-2.4 3.4,0 6.8,3.6 4.7,7.5 -3,5.3 0.8,11.3 3.7,15.9 2.9,4.6 5.8,9.2 6.8,14.6 0.8,4.499999 -0.5,10.699999 2.4,14.499999 2.4,3.1 7.2,4.4 10.6,6 8.9,4.4 12.5,11.5 13.2,21.1 4.7,-5.8 10.6,-10.8 16.5,-15.6 4.5,-3.7 11,-8 13.3,-13.6 2.4,-6.1 0.2,-13.799999 0.8,-20.199999 0.3,-3.2 3,-4.8 5.5,-4.8 2.5,0 4.8,1.6 4.5,4.8 -0.6,6.8 0.8,13.699999 -0.6,20.499999 -1.2,5.9 -5.1,10.3 -9.4,14.3 -9,8.2 -20.3,15 -26.4,25.9 -3.1,5.6 -4.3,11.8 -4.6,18.2 0,1.9 0,3.8 0,5.7 0,0.3 0,0.7 -0.1,1 0.1,4.5 0.4,9.1 0.6,13.4 0.4,10.4 0.6,20.9 1.8,31.3 3.2,19.3 0.5,39.4 8.7,57.8 7.8,17.5 23,32.7 41.7,38.1 3.7,1.1 7.7,1.7 11.6,1.7 1.9,0 3.8,-0.1 5.6,-0.5 5.2,-1.6 10.4,-3.9 14.4,-7.7 0.8,-0.8 1.5,-1.7 2.2,-2.6 3.8,-5.4 2.2,-10.9 2,-17.4 -0.2,-8 -0.8,-15.8 -2.6,-23.6 -1.7,-7.1 -3.8,-14.1 -4.1,-21.4 0,-0.6 0,-1.3 0,-1.9 -0.3,-3.7 -0.3,-7.5 0,-11.2 -0.2,-2.1 -0.7,-4.1 -1.6,-5.9 -2.8,-5.3 -9.3,-5.7 -14.7,-6.2 -11.1,-1 -21.3,-3.7 -25.6,-15.1 -3.5,-9.3 -0.8,-22.1 -7.5,-30 -3.2,-3.7 0.2,-8.7 3.8,-8.7 1.1,0 2.3,0.5 3.3,1.7 4.6,5.4 6.3,11.7 7.2,18.6 0.8,5.9 0.6,13.6 4.6,18.5 4,4.9 11.3,4.6 17,5.2 6.2,0.7 12.7,1.9 17.3,6.5 0.1,0.1 0.2,0.2 0.3,0.3 1.6,-3.2 3.5,-6.2 5.7,-9.2 3.8,-5.2 9.1,-10.9 9.2,-17.7 0.2,-7.6 -4.8,-14.5 -4.8,-22.2 0.1,-11 7.4,-19.3 13.5,-27.9 0.2,-7 -3.1,-15.9 -9.8,-18.5 -4.9,-1.9 -10.5,-1.1 -15.5,-2.8 -4,-1.4 -7.2,-3.9 -9.6,-7.3 -5.8,-8.1 -5,-18.199999 -5,-27.599999 0,-5.9 -1.4,-10.6 -3.7,-16 -2,-4.8 -3.1,-9.1 -2,-14.3 0.5,-2.5 2.4,-3.6 4.3,-3.6 2.9,0 6.1,2.5 5.3,6.3 -1.1,5.2 3.2,10.7 4.6,15.5 1.5,5.1 1.5,10.5 1.4,15.8 -0.1,8.8 -0.2,20.299999 10.5,22.499999 4.9,1 10,0.7 14.6,2.8 3.4,1.6 6.1,4.1 8.4,7.1 1.3,1.7 2.4,3.6 3.4,5.6 2.4,-12 -1.4,-25.699999 -4.2,-37.199999 -0.9,-3.8 2.2,-6.2 5.2,-6.2 2,0 3.9,1.1 4.5,3.6 2.2,8.8 3.8,17.699999 4.7,26.799999 0.8,7.8 0.8,15.4 -2.4,22.7 -1.3,3 -3.3,5.9 -5.4,8.7 -0.2,0.4 -0.5,0.7 -0.7,1 -5.2,6.9 -11.1,13.7 -11.9,21.9 -0.7,7.5 4.2,14.4 4.7,21.8 0.4,6.8 -2.4,13 -6.2,18.5 -4.2,6.1 -9.4,11.6 -11.5,18.8 -0.7,2.4 -1.1,4.8 -1.3,7.3 0,0.5 0.1,1 0.1,1.5 0.3,8 0.2,15.2 2.2,23.1 2.2,8.6 3.9,17.1 4.4,25.9 0.1,1.3 0.1,2.6 0.1,3.9 3.3,-5.7 7,-11.2 12.1,-15.3 6.6,-5.4 14.6,-7.5 22.9,-7.5 1.2,0 2.4,0 3.5,0.1 6.9,0.5 14.2,2.1 21.3,2.1 3.1,0 6.1,-0.3 9.1,-1.1 8.8,-2.5 14.6,-10.4 17.7,-18.6 1,-2.8 1.8,-5.6 2.3,-8.5 0.2,-10.2 -2.4,-24.4 -12,-29.8 -5.4,-3.1 -12.1,-3.2 -17.7,-6 -5,-2.6 -9.2,-6.9 -11.8,-11.8 -6.7,-12.5 -1.2,-24.7 2,-37.2 3.7,-14.5 -3.8,-28.2 -3.2,-42.8 0.1,-3.2 2.7,-4.8 5.2,-4.8 2.5,0 4.9,1.6 4.8,4.8 -0.2,5.1 0.5,10.1 1.4,15 1.1,-1.4 2.3,-2.7 3.5,-3.9 7.3,-7 16.7,-9 25.2,-13.8 3.9,-2.2 8.3,-5.8 8.8,-10.499999 0.4,-4.6 -3.3,-9.5 -4.8,-13.8 -3.5,-10 -3.7,-20.8 -1.4,-31.1 0.6,-2.5 2.4,-3.6 4.4,-3.6 3,0 6.1,2.5 5.2,6.2 -2.6,11.4 -0.5,21.7 4.2,32.3 3.6,8.2 2.6,16.199999 -3.5,22.899999 -6.6,7.3 -16.3,9.2 -24.6,13.7 -8.3,4.5 -14.4,12.4 -14.1,22.1 0,0.7 -0.1,1.3 -0.3,1.9 -0.1,1.8 -0.3,3.7 -0.7,5.5 -2.6,12.2 -10.8,26 -0.2,36.7 4.7,4.7 11,5.1 16.9,7.1 4.1,1.4 7.5,3.4 10.5,6.2 -1.6,-8.2 -3.3,-16.4 -4.1,-24.4 -1.8,-18.3 1.7,-36.2 14.7,-49.1 0.1,-0.1 0.2,-0.2 0.3,-0.4 0.9,-1.1 2,-2 3.2,-2.8 0,0 0,0 0.1,0 12.4,-10.2 31.8,-18 32.3,-36.499999 0.3,-11 -3.7,-21.5 -1.8,-32.6 1.5,-8.5 6,-15.7 14.1,-19.1 0.6,-0.6 1.3,-0.7 1.8,-0.7 m 0,-5 c 0,0 0,0 0,0 0,0 0,0 0,0 -1.2,0 -2.5,0.3 -3.7,0.8 -9.2,3.8 -15.3,11.9 -17.1,22.9 -1.2,7.1 -0.3,13.9 0.6,20.3 0.6,4.5 1.2,8.7 1.1,13 -0.3,11.6 -10.2,18.399999 -20.7,25.599999 -3.3,2.3 -6.7,4.6 -9.7,7.1 -1.5,1.1 -2.9,2.3 -4,3.5 -0.1,0.1 -0.2,0.2 -0.3,0.3 -12.5,12.6 -18,30.9 -15.9,52.9 0.4,4.5 1.2,9.1 2,13.6 -0.6,-0.2 -1.2,-0.5 -1.8,-0.7 -1.7,-0.6 -3.4,-1 -5.1,-1.5 -4,-1 -7.4,-2 -9.9,-4.4 -2.8,-2.8 -3.9,-5.8 -3.8,-9.9 0.1,-4.1 1.5,-8.9 2.9,-13.4 0.9,-2.9 1.8,-5.9 2.4,-8.8 0.4,-1.8 0.6,-3.7 0.8,-5.7 0.2,-0.9 0.4,-1.9 0.3,-2.9 -0.1,-3.3 0.8,-11.8 11.5,-17.6 2.5,-1.4 5.1,-2.5 8,-3.7 6.3,-2.6 12.7,-5.3 17.9,-11.1 7.3,-8.1 8.8,-18.099999 4.3,-28.299999 -4.8,-10.8 -6,-19.8 -3.8,-29.1 0.7,-3.1 0,-6 -1.8,-8.4 -2,-2.5 -5.1,-3.9 -8.3,-3.9 -4.6,0 -8.2,2.9 -9.3,7.5 -2.7,11.7 -2.1,23.4 1.5,33.8 0.6,1.7 1.4,3.3 2.1,4.8 1.2,2.4 2.5,5.1 2.4,6.8 -0.2,2.1 -2.5,4.5 -6.2,6.599999 -2.8,1.5 -5.6,2.8 -8.7,4.1 -4.7,2.1 -9.6,4.2 -14.1,7.5 -0.1,-1.4 -0.1,-2.9 -0.1,-4.3 0.1,-2.7 -0.8,-5.2 -2.6,-7.1 -1.8,-1.899999 -4.4,-2.999999 -7.2,-2.999999 -5.6,0 -10,4.099999 -10.2,9.599999 -0.3,6.7 1,13.1 2.2,19.2 1.6,7.8 3,15.2 1.2,22.5 -0.5,1.9 -1.1,3.9 -1.6,5.9 -3.1,10.6 -6.5,22.7 0,35 3.2,5.9 8.1,10.8 13.9,13.9 3.2,1.7 6.5,2.5 9.7,3.3 2.9,0.7 5.6,1.4 7.9,2.7 7.2,4.1 9.6,15.9 9.5,25 -0.5,2.5 -1.1,5 -2,7.3 -1.4,3.9 -5.6,13.1 -14.3,15.6 -2.3,0.6 -4.8,1 -7.7,1 -3.8,0 -7.7,-0.5 -11.9,-1.1 -3,-0.4 -6,-0.8 -9.1,-1 -1.3,-0.1 -2.6,-0.1 -3.9,-0.1 -10.4,0 -19.1,2.9 -26.1,8.6 -1.9,1.5 -3.5,3.2 -5.1,5 -0.9,-6 -2.2,-11.7 -3.5,-16.7 -1.6,-6.4 -1.8,-12.4 -2,-19.3 0,-0.9 -0.1,-1.8 -0.1,-2.7 0,-0.4 0,-0.9 -0.1,-1.3 0.2,-2.2 0.6,-4.1 1.1,-6 1.3,-4.5 4.3,-8.5 7.4,-12.7 1.1,-1.5 2.3,-3.1 3.4,-4.7 5.2,-7.5 7.4,-14.6 7,-21.6 -0.2,-4 -1.4,-7.5 -2.6,-11 -1.2,-3.6 -2.4,-7 -2.1,-10.1 0.6,-5.8 4.7,-11.2 9.1,-16.9 0.6,-0.8 1.1,-1.5 1.7,-2.2 0.4,-0.4 0.7,-0.9 1,-1.4 1.9,-2.5 4.2,-5.9 5.8,-9.5 3.9,-8.8 3.6,-17.7 2.8,-25.2 -1,-9.1 -2.6,-18.399999 -4.9,-27.499999 -1.1,-4.5 -4.8,-7.4 -9.3,-7.4 -3.2,0 -6.3,1.5 -8.3,4 -1.9,2.4 -2.5,5.4 -1.7,8.4 l 0.5,2 c 1.6,6.4 3.3,13.199999 4,19.899999 -1.6,-1.3 -3.3,-2.4 -5.1,-3.2 -3.8,-1.7 -7.7,-2.2 -11.1,-2.6 -1.6,-0.2 -3.1,-0.4 -4.6,-0.6 -5.7,-1.1 -6.6,-6.499999 -6.5,-17.499999 0.1,-5 0.1,-11.2 -1.6,-17.2 -0.6,-2 -1.5,-3.9 -2.3,-5.7 -1.3,-2.7 -2.6,-5.5 -2.2,-7.4 0.6,-3.1 0,-6 -1.9,-8.4 -2,-2.4 -5.1,-3.9 -8.3,-3.9 -4.6,0 -8.3,3 -9.2,7.6 -1.5,7 0.3,12.7 2.3,17.3 2.3,5.4 3.2,9.4 3.3,14.1 0,1.1 0,2.1 0,3.2 0,8.8 -0.1,18.799999 6,27.299999 3.1,4.3 7.1,7.4 12,9.1 3,1.1 6.1,1.3 8.8,1.6 2.4,0.2 4.7,0.4 6.6,1.2 3.9,1.5 6.3,7.3 6.6,12.3 -0.5,0.7 -1,1.4 -1.5,2.1 -5.5,7.6 -11.8,16.2 -11.9,27.4 0,4.7 1.4,8.9 2.7,12.7 1.1,3.3 2.2,6.5 2.1,9.4 -0.1,4.2 -3.3,8.4 -6.5,12.5 -0.6,0.8 -1.2,1.6 -1.8,2.3 -1.2,1.6 -2.2,3.1 -3.2,4.6 -4.8,-2.8 -10.3,-3.7 -15.6,-4.3 -1,-0.1 -2,-0.2 -2.9,-0.3 -4.3,-0.3 -8.8,-0.7 -10.7,-3.1 -2.2,-2.7 -2.6,-7.5 -3.1,-12 -0.1,-1.3 -0.3,-2.7 -0.4,-4 -0.9,-6.7 -2.6,-14.5 -8.3,-21.2 -1.9,-2.2 -4.4,-3.4 -7.1,-3.4 -3.8,0 -7.4,2.5 -9.1,6.1 -1.7,3.7 -1.1,7.8 1.5,10.9 3,3.5 3.5,9.1 4.1,14.9 0.4,4.5 0.9,9.2 2.5,13.6 5.4,14.2 18.1,17.2 29.8,18.3 l 0.7,0.1 c 5,0.4 8.6,0.9 9.9,3.4 0.5,1 0.9,2.2 1,3.7 -0.3,3.5 -0.3,7.2 0,11.2 0,0.8 0,1.4 0,2 0.3,6.4 1.8,12.4 3.2,18.3 0.3,1.4 0.7,2.7 1,4.1 1.9,8.1 2.3,15.9 2.5,22.5 0,1.5 0.1,3 0.3,4.4 0.4,4.7 0.5,7.3 -1.3,9.9 -0.6,0.7 -1.2,1.4 -1.8,2 -2.7,2.6 -6.5,4.7 -12,6.4 -1.4,0.2 -2.9,0.3 -4.4,0.3 -3.3,0 -6.7,-0.5 -10.2,-1.5 -16.3,-4.7 -30.7,-17.9 -38.5,-35.3 -5,-11.1 -5.7,-23 -6.4,-35.6 -0.4,-6.8 -0.8,-13.8 -1.9,-20.8 -1,-8.8 -1.3,-17.9 -1.6,-26.7 0,-1.4 -0.1,-2.7 -0.1,-4.1 -0.1,-1.9 -0.2,-3.8 -0.3,-5.7 -0.1,-2.4 -0.3,-4.9 -0.3,-7.3 0,-0.5 0.1,-0.9 0.1,-1.4 0,-1.5 0,-3.2 0,-5.4 0.3,-6.6 1.6,-11.7 3.9,-15.9 3.9,-6.9 10.3,-12.1 17.1,-17.6 2.8,-2.2 5.7,-4.6 8.3,-7 4.2,-3.9 9.3,-9.3 10.9,-17 0.9,-4.5 0.8,-8.8 0.6,-12.999999 -0.1,-2.8 -0.2,-5.5 0,-8 0.3,-2.7 -0.6,-5.3 -2.3,-7.2 -1.8,-1.9 -4.4,-3.1 -7.2,-3.1 -5.5,0 -9.9,3.9 -10.4,9.3 -0.3,2.8 -0.1,5.6 0.1,8.4 0.3,3.9 0.5,7.599999 -0.6,10.399999 -1.3,3.3 -5.5,6.6 -9.1,9.4 -1,0.8 -1.9,1.5 -2.8,2.2 -3.3,2.8 -6.9,5.7 -10.4,9 -2.5,-6.8 -7.1,-11.8 -13.9,-15.1 -1,-0.5 -2.1,-1 -3.2,-1.4 -2.2,-0.9 -4.7,-2 -5.7,-3.2 -0.9,-1.2 -1,-4.1 -1.1,-6.7 0,-1.899999 -0.1,-3.799999 -0.4,-5.699999 -1.1,-6.3 -4.3,-11.4 -7.4,-16.2 l -0.1,-0.2 -0.1,-0.1 c -2.7,-4.3 -4.9,-8.1 -3.5,-10.6 1.8,-3.2 1.8,-6.7 0,-9.7 -1.8,-3.2 -5.4,-5.2 -9,-5.2 -3.5,0 -6.5,1.8 -8.3,5 -7.1,12.7 -0.2,24.2 5.3,33.4 l 0.7,1.1 c 2.3,3.8 2.6,7.3 3.1,11.999999 0.1,1 0.2,1.9 0.3,2.9 0.7,6.5 3.4,11.8 7.9,15.5 2.8,2.4 6,3.9 8.8,5.2 5.3,2.5 7.8,3.9 8.4,8.2 0.9,6.9 0.6,14 0.2,21.5 -0.2,4.4 -0.4,8.9 -0.4,13.5 0,2.7 0.1,5.3 0.2,8 0,0 0,0 0,0 -1.4,-1.1 -3,-2.2 -4.5,-3.3 -9.7,-6.9 -16,-12.1 -15.6,-20.3 0.1,-2.7 -0.8,-5.2 -2.5,-7.1 -1.8,-1.9 -4.4,-3 -7.2,-3 -5.6,0 -10,4.1 -10.2,9.6 0,1 -0.1,2.1 0,3.1 -2.5,-2.3 -4.6,-5.2 -5.3,-7.9 -0.7,-3 -0.5,-6.5 -0.2,-10.1 0.2,-3.6 0.5,-7.3 -0.1,-11.2 -1.2,-7.4 -4.5,-14.4 -9.9,-20.6 -1.9,-2.1 -4.4,-3.3 -7.1,-3.3 -3.8,0 -7.5,2.5 -9.2,6.2 -1.7,3.7 -1.1,7.7 1.6,10.8 3.8,4.3 5.3,9.5 4.9,16.8 v 0.4 c -0.4,7.6 -0.8,15.5 3.4,23.1 3.4,6.1 9,11.8 15.1,15.4 3.2,1.9 6.7,3.1 10.4,3.6 1.2,0.2 2.4,0.2 3.6,0.2 1.2,0 3.3,0.1 4,0.4 0.6,0.5 1.2,0.9 1.9,1.2 2.8,2.5 5.8,4.8 8.7,7 6.7,5.1 13,10 16.4,16.5 1.6,3.2 2.9,6.7 3.8,10.8 0.2,1.8 0.4,3.4 0.6,4.9 0.1,0.9 0.4,1.8 0.7,2.7 0.6,5.2 0.9,10.6 1.1,15.9 -0.8,-0.5 -1.6,-0.9 -2.4,-1.4 -2.2,-1.2 -4.5,-2.3 -7,-3.5 -12.3,-5.9 -21,-10.9 -20.6,-19.9 0.1,-2.7 -0.8,-5.2 -2.5,-7.1 -1.8,-1.9 -4.4,-3 -7.2,-3 -5.6,0 -10,4.1 -10.2,9.6 -1.1,22.2 22,33.5 29.6,37.3 0.6,0.3 1.2,0.6 1.8,0.9 5.8,2.8 11.9,5.8 15.7,10.4 3.9,4.7 6.9,11 9.8,17.1 1.1,2.4 2.3,4.8 3.5,7.1 0.5,1.1 1.2,2 2,2.7 6.3,10.6 14.8,19.8 24.7,26.8 11.7,8.2 25.5,12.9 37.8,12.9 1,0 2,0 2.9,-0.1 0.5,0.1 0.9,0.1 1.4,0.1 0.9,0 1.9,-0.1 2.8,-0.4 0.4,-0.1 0.8,-0.2 1.3,-0.4 6.1,-1.1 11.6,-3.5 16.4,-7 1.3,-0.9 2.5,-1.9 3.7,-3.1 4,-3.3 7,-7 8.9,-11.2 1.8,-3 3.5,-6 5.1,-9 3.8,-7.1 7.4,-13.7 13,-18.5 3.3,-2.8 7.5,-4.1 13.5,-4.1 3.6,0 7.4,0.5 10.7,0.9 4.2,0.5 9.5,1.1 14.6,1.1 7.4,0 13.7,-1.3 19.2,-4.1 12.2,-6.1 20.6,-18.7 23.7,-35.5 0.3,-0.9 0.5,-1.9 0.5,-2.8 0,-0.1 0,-0.1 0,-0.2 0.7,-5.3 1,-10.6 0.6,-16 -0.5,-8.1 -2.1,-16.3 -3.6,-24.3 -3,-15.3 -5.7,-29.8 -1.5,-43.9 1.8,-5.9 5.3,-10.9 11.4,-16.1 2.2,-1.2 6.5,-2.5 14.3,-2.5 0.3,0 0.5,0 0.8,0 1.9,0 3.8,0.1 5.6,0.2 2.2,0.1 4.6,0.2 6.9,0.2 4.5,0 10.5,-0.3 16.6,-2.5 9.5,-3.4 16.3,-9.3 19.7,-17.3 2.6,-5.9 2.8,-11.9 2.9,-17.599999 0.1,-4.3 0.3,-8.3 1.4,-12 0.9,-3.1 0.4,-6.1 -1.4,-8.5 -1.9,-2.6 -5,-4.1 -8.4,-4.1 -4.5,0 -8.2,2.8 -9.5,7 -1.5,4.8 -1.6,9.6 -1.7,14.3 -0.1,4.6 -0.2,8.899999 -1.6,12.599999 -2.5,6.4 -11.7,7.8 -14.5,8.1 -1.2,0.1 -2.5,0.2 -3.9,0.2 0.8,-0.9 1.5,-1.7 2.2,-2.6 9,-11.799999 8.6,-25.099999 7,-36.499999 -0.1,-0.5 -0.2,-1.1 -0.2,-1.6 -1,-7.1 -3,-20.2 3.3,-22.7 4.7,-1.9 7.2,-6.8 6.2,-11.8 -0.3,-4.9 -3.9,-8.1 -8.3,-8.1 z" />
<g
   id="XMLID_36_"
   transform="translate(-547.6,-520.01066)">
	<path
   id="XMLID_506_"
   fill="#009cd7"
   d="m 170,279.5 c 3.2,0 3.2,-5 0,-5 -3.2,0 -3.2,5 0,5 z" />
</g>
<g
   id="XMLID_37_"
   transform="translate(-547.6,-520.01066)">
	<path
   id="XMLID_517_"
   fill="#009cd7"
   d="m 156,312.5 c 3.2,0 3.2,-5 0,-5 -3.2,0 -3.2,5 0,5 z" />
</g>
<g
   id="XMLID_38_"
   transform="translate(-547.6,-520.01066)">
	<path
   id="XMLID_525_"
   fill="#009cd7"
   d="m 112,294.5 c 3.2,0 3.2,-5 0,-5 -3.2,0 -3.2,5 0,5 z" />
</g>
<g
   id="XMLID_39_"
   transform="translate(-547.6,-520.01066)">
	<path
   id="XMLID_533_"
   fill="#009cd7"
   d="m 281.5,361 c 0,0.3 0,0.7 0,1 0,1.3 1.1,2.6 2.5,2.5 1.4,-0.1 2.5,-1.1 2.5,-2.5 0,-0.3 0,-0.7 0,-1 0,-1.3 -1.1,-2.6 -2.5,-2.5 -1.4,0.1 -2.5,1.1 -2.5,2.5 z" />
</g>
<g
   id="XMLID_40_"
   transform="translate(-547.6,-520.01066)">
	<path
   id="XMLID_541_"
   fill="#009cd7"
   d="m 281,414.5 c 3.2,0 3.2,-5 0,-5 -3.2,0 -3.2,5 0,5 z" />
</g>
<g
   id="XMLID_41_"
   transform="translate(-547.6,-520.01066)">
	<path
   id="XMLID_549_"
   fill="#009cd7"
   d="m 342,406.5 c 3.2,0 3.2,-5 0,-5 -3.2,0 -3.2,5 0,5 z" />
</g>
<g
   id="XMLID_486_"
   transform="translate(-547.6,-520.01066)">
	<path
   id="XMLID_557_"
   fill="#009cd7"
   d="m 454,298.5 c 3.2,0 3.2,-5 0,-5 -3.2,0 -3.2,5 0,5 z" />
</g>
<g
   id="XMLID_499_"
   transform="translate(-547.6,-520.01066)">
	<path
   id="XMLID_564_"
   fill="#009cd7"
   d="m 696,191.5 c 3.2,0 3.2,-5 0,-5 -3.2,0 -3.2,5 0,5 z" />
</g>
<g
   id="XMLID_531_"
   transform="translate(-547.6,-520.01066)">
	<path
   id="XMLID_607_"
   fill="#009cd7"
   d="m 538,241.5 c 3.2,0 3.2,-5 0,-5 -3.2,0 -3.2,5 0,5 z" />
</g>
<g
   id="XMLID_540_"
   transform="translate(-547.6,-520.01066)">
	<path
   id="XMLID_606_"
   fill="#009cd7"
   d="m 820,387.5 c 3.2,0 3.2,-5 0,-5 -3.2,0 -3.2,5 0,5 z" />
</g>
<g
   id="XMLID_556_"
   transform="translate(-547.6,-520.01066)">
	<path
   id="XMLID_604_"
   fill="#009cd7"
   d="m 872,344.5 c 3.2,0 3.2,-5 0,-5 -3.2,0 -3.2,5 0,5 z" />
</g>
<g
   id="XMLID_563_"
   transform="translate(-547.6,-520.01066)">
	<path
   id="XMLID_603_"
   fill="#009cd7"
   d="m 718,395.5 c 3.2,0 3.2,-5 0,-5 -3.2,0 -3.2,5 0,5 z" />
</g>
<g
   id="XMLID_570_"
   transform="translate(-547.6,-520.01066)">
	<path
   id="XMLID_602_"
   fill="#009cd7"
   d="m 731,420.5 c 3.2,0 3.2,-5 0,-5 -3.2,0 -3.2,5 0,5 z" />
</g>
<g
   id="XMLID_577_"
   transform="translate(-547.6,-520.01066)">
	<path
   id="XMLID_601_"
   fill="#009cd7"
   d="m 687,408.5 c 3.2,0 3.2,-5 0,-5 -3.2,0 -3.2,5 0,5 z" />
</g>
<g
   id="XMLID_652_"
   transform="translate(203.45067,-449.75108)">
	<path
   id="XMLID_600_"
   fill="#009cd7"
   d="m 1051,296.5 c 0.3,0 0.7,0 1,0 1.3,0 2.6,-1.1 2.5,-2.5 -0.1,-1.4 -1.1,-2.5 -2.5,-2.5 -0.3,0 -0.7,0 -1,0 -1.3,0 -2.6,1.1 -2.5,2.5 0.1,1.4 1.1,2.5 2.5,2.5 z" />
</g>
<g
   id="XMLID_660_"
   transform="translate(203.45067,-449.75108)">
	<path
   id="XMLID_599_"
   fill="#009cd7"
   d="m 1044.8,254.8 c 0.3,-0.3 0.7,-0.7 1,-1 0.9,-0.9 1,-2.6 0,-3.5 -1,-0.9 -2.5,-1 -3.5,0 -0.3,0.3 -0.7,0.7 -1,1 -0.9,0.9 -1,2.6 0,3.5 0.9,0.9 2.5,1 3.5,0 z" />
</g>
<g
   id="XMLID_667_"
   transform="translate(203.45067,-449.75108)">
	<path
   id="XMLID_598_"
   fill="#009cd7"
   d="m 991,232.5 c 3.2,0 3.2,-5 0,-5 -3.2,0 -3.2,5 0,5 z" />
</g>
<g
   id="XMLID_674_"
   transform="translate(203.45067,-449.75108)">
	<path
   id="XMLID_597_"
   fill="#009cd7"
   d="m 1166,212.5 c 3.2,0 3.2,-5 0,-5 -3.2,0 -3.2,5 0,5 z" />
</g>
<g
   id="XMLID_681_"
   transform="translate(203.45067,-449.75108)">
	<path
   id="XMLID_596_"
   fill="#009cd7"
   d="m 1201.5,283 c 0,0.3 0,0.7 0,1 0,1.3 1.1,2.6 2.5,2.5 1.4,-0.1 2.5,-1.1 2.5,-2.5 0,-0.3 0,-0.7 0,-1 0,-1.3 -1.1,-2.6 -2.5,-2.5 -1.4,0.1 -2.5,1.1 -2.5,2.5 z" />
</g>
<g
   id="XMLID_688_"
   transform="translate(203.45067,-449.75108)">
	<path
   id="XMLID_595_"
   fill="#009cd7"
   d="m 1318,274.5 c 0.3,0 0.7,0 1,0 1.3,0 2.6,-1.1 2.5,-2.5 -0.1,-1.4 -1.1,-2.5 -2.5,-2.5 -0.3,0 -0.7,0 -1,0 -1.3,0 -2.6,1.1 -2.5,2.5 0.1,1.4 1.1,2.5 2.5,2.5 z" />
</g>
<g
   id="XMLID_695_"
   transform="translate(203.45067,-449.75108)">
	<path
   id="XMLID_594_"
   fill="#009cd7"
   d="m 1210.2,401.8 c 0.3,0.3 0.7,0.7 1,1 0.9,0.9 2.6,1 3.5,0 0.9,-1 1,-2.5 0,-3.5 -0.3,-0.3 -0.7,-0.7 -1,-1 -0.9,-0.9 -2.6,-1 -3.5,0 -0.9,0.9 -1,2.5 0,3.5 z" />
</g>
<g
   id="XMLID_702_"
   transform="translate(203.45067,-449.75108)">
	<path
   id="XMLID_593_"
   fill="#009cd7"
   d="m 1040,381.5 c 0.3,0 0.7,0 1,0 1.3,0 2.6,-1.1 2.5,-2.5 -0.1,-1.4 -1.1,-2.5 -2.5,-2.5 -0.3,0 -0.7,0 -1,0 -1.3,0 -2.6,1.1 -2.5,2.5 0.1,1.4 1.1,2.5 2.5,2.5 z" />
</g>
<g
   id="XMLID_709_"
   transform="translate(-547.6,-520.01066)">
	<path
   id="XMLID_592_"
   fill="#009cd7"
   d="m 129.2,711.2 c -0.3,0.3 -0.7,0.7 -1,1 -0.9,0.9 -1,2.6 0,3.5 1,0.9 2.5,1 3.5,0 0.3,-0.3 0.7,-0.7 1,-1 0.9,-0.9 1,-2.6 0,-3.5 -0.9,-0.9 -2.5,-1 -3.5,0 z" />
</g>
<g
   id="XMLID_716_"
   transform="translate(-547.6,-520.01066)">
	<path
   id="XMLID_591_"
   fill="#009cd7"
   d="m 256,783.5 c 0.3,0 0.7,0 1,0 1.3,0 2.6,-1.1 2.5,-2.5 -0.1,-1.4 -1.1,-2.5 -2.5,-2.5 -0.3,0 -0.7,0 -1,0 -1.3,0 -2.6,1.1 -2.5,2.5 0.1,1.4 1.1,2.5 2.5,2.5 z" />
</g>
<g
   id="XMLID_723_"
   transform="translate(-547.6,-520.01066)">
	<path
   id="XMLID_590_"
   fill="#009cd7"
   d="m 189,827.5 c 3.2,0 3.2,-5 0,-5 -3.2,0 -3.2,5 0,5 z" />
</g>
<g
   id="XMLID_730_"
   transform="translate(-547.6,-520.01066)">
	<path
   id="XMLID_589_"
   fill="#009cd7"
   d="m 148,808.5 c 3.2,0 3.2,-5 0,-5 -3.2,0 -3.2,5 0,5 z" />
</g>
<g
   id="XMLID_750_"
   transform="translate(-547.6,-520.01066)">
	<path
   id="XMLID_588_"
   fill="#009cd7"
   d="m 375.5,839 c 0,-0.3 0,-0.7 0,-1 0,-1.3 -1.1,-2.6 -2.5,-2.5 -1.4,0.1 -2.5,1.1 -2.5,2.5 0,0.3 0,0.7 0,1 0,1.3 1.1,2.6 2.5,2.5 1.4,-0.1 2.5,-1.1 2.5,-2.5 z" />
</g>
<g
   id="XMLID_786_"
   transform="translate(-547.6,-520.01066)">
	<path
   id="XMLID_585_"
   fill="#009cd7"
   d="m 472,711.5 c 0.3,0 0.7,0 1,0 1.3,0 2.6,-1.1 2.5,-2.5 -0.1,-1.4 -1.1,-2.5 -2.5,-2.5 -0.3,0 -0.7,0 -1,0 -1.3,0 -2.6,1.1 -2.5,2.5 0.1,1.4 1.1,2.5 2.5,2.5 z" />
</g>
<g
   id="XMLID_797_"
   transform="translate(-547.6,-520.01066)"
   style="fill:#90e9d3;fill-opacity:1">
	<path
   id="XMLID_584_"
   fill="#009cd7"
   d="m 578,654.5 c 0.3,0 0.7,0 1,0 1.3,0 2.6,-1.1 2.5,-2.5 -0.1,-1.4 -1.1,-2.5 -2.5,-2.5 -0.3,0 -0.7,0 -1,0 -1.3,0 -2.6,1.1 -2.5,2.5 0.1,1.4 1.1,2.5 2.5,2.5 z"
   style="fill:#90e9d3;fill-opacity:1" />
</g>
<g
   id="XMLID_804_"
   transform="translate(-547.6,-520.01066)"
   style="fill:#90e9d3;fill-opacity:1">
	<path
   id="XMLID_583_"
   fill="#009cd7"
   d="m 708,754.5 c 3.2,0 3.2,-5 0,-5 -3.2,0 -3.2,5 0,5 z"
   style="fill:#90e9d3;fill-opacity:1" />
</g>
<g
   id="XMLID_813_"
   transform="translate(-547.6,-520.01066)"
   style="fill:#90e9d3;fill-opacity:1">
	<path
   id="XMLID_582_"
   fill="#009cd7"
   d="m 811,688.5 c 3.2,0 3.2,-5 0,-5 -3.2,0 -3.2,5 0,5 z"
   style="fill:#90e9d3;fill-opacity:1" />
</g>
<g
   id="XMLID_822_"
   transform="translate(-547.6,-520.01066)"
   style="fill:#90e9d3;fill-opacity:1">
	<path
   id="XMLID_581_"
   fill="#009cd7"
   d="m 837.8,668.8 c 0.3,-0.3 0.7,-0.7 1,-1 0.9,-0.9 1,-2.6 0,-3.5 -1,-0.9 -2.5,-1 -3.5,0 -0.3,0.3 -0.7,0.7 -1,1 -0.9,0.9 -1,2.6 0,3.5 0.9,0.9 2.5,1 3.5,0 z"
   style="fill:#90e9d3;fill-opacity:1" />
</g>
<g
   id="XMLID_831_"
   transform="translate(-547.6,-520.01066)"
   style="fill:#90e9d3;fill-opacity:1">
	<path
   id="XMLID_580_"
   fill="#009cd7"
   d="m 550,744.5 c 3.2,0 3.2,-5 0,-5 -3.2,0 -3.2,5 0,5 z"
   style="fill:#90e9d3;fill-opacity:1" />
</g>
<g
   id="XMLID_838_"
   transform="translate(-547.6,-520.01066)"
   style="fill:#90e9d3;fill-opacity:1">
	<path
   id="XMLID_553_"
   fill="#009cd7"
   d="m 718.5,809 c 0,0.3 0,0.7 0,1 0,1.3 1.1,2.6 2.5,2.5 1.4,-0.1 2.5,-1.1 2.5,-2.5 0,-0.3 0,-0.7 0,-1 0,-1.3 -1.1,-2.6 -2.5,-2.5 -1.4,0.1 -2.5,1.1 -2.5,2.5 z"
   style="fill:#90e9d3;fill-opacity:1" />
</g>
<g
   id="XMLID_845_"
   transform="translate(-547.6,-520.01066)">
	<path
   id="XMLID_546_"
   fill="#009cd7"
   d="m 939,736.5 c 3.2,0 3.2,-5 0,-5 -3.2,0 -3.2,5 0,5 z" />
</g>
<g
   id="XMLID_859_"
   transform="translate(-547.6,-520.01066)">
	<path
   id="XMLID_532_"
   fill="#009cd7"
   d="m 957,659.5 c 3.2,0 3.2,-5 0,-5 -3.2,0 -3.2,5 0,5 z" />
</g>
<g
   id="XMLID_866_"
   transform="translate(-547.6,-520.01066)">
	<path
   id="XMLID_515_"
   fill="#009cd7"
   d="m 1108,656.5 c 3.2,0 3.2,-5 0,-5 -3.2,0 -3.2,5 0,5 z" />
</g>
<g
   id="XMLID_873_"
   transform="translate(-547.6,-520.01066)">
	<path
   id="XMLID_514_"
   fill="#009cd7"
   d="m 920,641.5 c 3.2,0 3.2,-5 0,-5 -3.2,0 -3.2,5 0,5 z" />
</g>
<g
   id="XMLID_880_"
   transform="translate(-547.6,-520.01066)">
	<path
   id="XMLID_513_"
   fill="#009cd7"
   d="m 1230,639.5 c 3.2,0 3.2,-5 0,-5 -3.2,0 -3.2,5 0,5 z" />
</g>
<g
   id="XMLID_887_"
   transform="translate(-547.6,-520.01066)">
	<path
   id="XMLID_512_"
   fill="#009cd7"
   d="m 1267,607.5 c 3.2,0 3.2,-5 0,-5 -3.2,0 -3.2,5 0,5 z" />
</g>
<g
   id="XMLID_894_"
   transform="translate(-547.6,-520.01066)">
	<path
   id="XMLID_504_"
   fill="#009cd7"
   d="m 1260,694.5 c 3.2,0 3.2,-5 0,-5 -3.2,0 -3.2,5 0,5 z" />
</g>
<g
   id="XMLID_908_"
   transform="translate(-547.6,-520.01066)">
	<path
   id="XMLID_4_"
   fill="#009cd7"
   d="m 1148.8,840.8 c 0.3,-0.3 0.7,-0.7 1,-1 0.9,-0.9 1,-2.6 0,-3.5 -1,-0.9 -2.5,-1 -3.5,0 -0.3,0.3 -0.7,0.7 -1,1 -0.9,0.9 -1,2.6 0,3.5 0.9,0.9 2.5,1 3.5,0 z" />
</g>
</svg>
