<?xml version="1.0" encoding="utf-8"?>
<!-- Generator: Adobe Illustrator 19.0.0, SVG Export Plug-In . SVG Version: 6.00 Build 0)  -->
<svg version="1.0" id="Layer_1" xmlns="http://www.w3.org/2000/svg" xmlns:xlink="http://www.w3.org/1999/xlink" x="0px" y="0px"
	 width="1400px" height="980px" viewBox="0 0 1400 980" enable-background="new 0 0 1400 980" xml:space="preserve">
<rect id="XMLID_915_" fill="#F1FAFE" width="1400" height="980"/>
<g id="XMLID_659_">
	<path id="XMLID_733_" fill="#A4D7EF" d="M222,429.3c0.1,0.2,0.1,0.4,0.2,0.6c2.1,9.6,4.7,19.1,7.4,28.6c0.9,3.1,5.7,1.8,4.8-1.3
		c-1.9-6.7-3.8-13.4-5.5-20.3c-0.9-8.1-1.1-16.4,1.6-24.1c2.7-8,8.4-13.4,15.2-18c9.7-6.7,24.7-15.5,22-29.7c-0.5-2.9-2-5.4-4.3-7.3
		c-3.1-2.4-7.4-2.6-10.2-5.4c-7.5-7.7,3.7-17.5,9.3-22c10.7-8.8,23.2-22.8,14.7-37.4c-2.4-4-4.6-7.4-1.2-11.7c3-3.8,7.7-6,11.7-8.5
		c6.5-4,13.2-9.4,17-16.2c3.1-5.6,3.4-13.4-2.2-17.5c-2.6-1.9-6.6-2.2-8.8-4.7c-3.3-3.6-1.9-8.4,0.3-12c2.9-4.8,7.1-9,8.3-14.6
		c1.2-5.3-1.1-11-5.6-14.1c-5.7-4-15.9-3.1-18-11.2c-1.9-7.3,6.8-12.1,7.9-19.1c0.9-5.9-1-13-7.2-15.2c-4.2-1.5-8.5-0.5-10.1-5.7
		c-1-3.2-1-6.7-1.6-10c-1.3-7.1-4.9-10.5-11.7-12.7c-10.4-3.4-19.8-8.4-28.5-15.1c-1.9-1.5-4.1,0.9-3.7,2.8c1.4,7,1.5,14.1-0.1,21.1
		c-1.5,6.5-5.3,12.6-5.7,19.4c-0.4,6,3,10.4,4.2,16c1.5,6.9-4.5,13.1-7,19.1c-3.9,9.1-5.5,20.6,0.1,29.3c3,4.8,8.7,7.6,11.1,12.8
		c4,8.3-5.9,9.5-10.6,13.4c-8.5,6.9-10.5,18.7-8.9,29c1,6.3,3.5,12,5.6,18c0.9,2.8,2,5.9,1.7,8.8c-0.3,4.1-2.7,5.6-6.1,7.4
		c-8.5,4.6-13.5,14-12.3,23.7c0.8,5.8,4.2,10.6,5.8,16.1c1,3.3,1.2,6.4-0.7,9.4c-1.7,2.6-4.2,4.7-6.1,7.2
		c-7.6,10.3-4.2,24.3,2.4,34.1C205.7,404.9,218.1,413.9,222,429.3z"/>
	<path id="XMLID_736_" fill="#A4D7EF" d="M349.2,221.9c-5,3.1-11,3.1-14,8.9c-2.6,5.2-2.5,12.1-0.4,17.4c2.5,6.3,7.3,11.2,12,16
		c3.4,3.5,16.6,17.4,7.9,21c-2.3,1-5,0.6-7.4,1.7c-2.3,1.1-4,2.9-5,5.3c-2,5.1-0.3,10.6,2.8,14.9c4.1,5.6,14.9,11.9,12.3,20.1
		c-1.8,5.5-8.9,7.8-12.2,12.3c-10.8,14.7,10.9,25.9,17.2,36.3c8.3,13.6,9.8,30.7,10.5,46.2c-3,7.4-4.3,15.4-3.7,23.6
		c0.2,3.2,5.2,3.2,5,0c-0.5-8,0.8-15.4,3.7-22.5c5.6-6.2,11.9-11.7,18.8-16.3c7.2-4.8,15.3-7.9,22.5-12.6
		c9.9-6.5,18.4-18.3,13.2-30.6c-2.4-5.6-6.5-8.1-12.1-9.7c-11-3.1-3.7-14.8-0.3-21.4c4.3-8.3,17.7-27.3,4.9-34.8
		c-3.2-1.8-7-0.8-10.1-2.6c-5.1-2.9-2.7-9.6-0.3-13.5c4.9-7.7,11.9-14.5,17.7-21.4c7.4-8.8,20.9-22.6,9.4-33.8
		c-1.8-1.8-4.1-3.1-6.4-4c-3-1.2-5.9-0.9-8.8-1.6c-6.2-1.6-4.6-7.9-3.4-12.7c0.9-3.6,1.9-7.2,2.2-10.9c0.4-5.4-0.9-11.5-5.6-14.7
		c-4.7-3.3-10.3-2.2-15.5-1.4c-4.2,0.7-8.3,1.1-11.5-2.4c-4-4.4-1.9-7.7,1.9-11.1c6-5.4,11.4-10.2,15.3-17.4
		c4-7.3,6.5-15.3,7.4-23.6c0.4-3.7,0.6-7.4-0.1-11.1c-0.6-3.2-2.5-7.3-2-10.6c0.5-3.2-3.7-4.4-4.8-1.3c-3,8.2-13.5,8-20.5,10.3
		c-6.3,2-10.3,6.2-13.8,11.6c-1.7,2.6-3.3,5.4-5.5,7.7c-3.4,3.5-7.6,4-12.3,4.4c-6.4,0.6-11.9,2.3-16.6,6.9
		c-9.8,9.7-10.3,24.6-5.1,36.8c3.1,7.2,8.3,12.6,12.6,19.1C353.4,206.6,356.9,217.1,349.2,221.9z"/>
	<path id="XMLID_739_" fill="#A4D7EF" d="M1106.2,293.4c5.3-8,8.8-17.1,9.9-26.7c0.6-5.2-0.2-10.1-5.5-12.2c-2-0.8-3.9-0.9-5.8-0.6
		c5.9-8.7,9.5-19,9.7-29.5c0.1-5.5-1.3-10.9-6.8-13.1c-3.8-1.5-7.5-0.9-11,0.6c4.1-9.6,6.9-20.1,3.5-30.2c-1.4-4.2-4.3-7.9-9-8.3
		c-2.5-0.2-4.8,0.7-6.8,2c2.1-9.8,2.8-21-1.3-29.4c-2.4-5-8.7-8.2-13.5-6.6c0-2.8-0.3-5.5-1.4-8.5c-1.6-4.3-4-8.7-7.8-11.5
		c-3-2.2-6.8-2.7-10.3-1.4c-1.7,0.6-3.4,1.5-4.8,2.8c-1,0.9-2.3,3.5-3.3,3.3c-0.8-0.2-2.7-3.4-3.4-4.1c-1.5-1.6-3.2-3.1-5-4.3
		c-3.4-2.4-7.5-4-11.7-4.1c-6.1,0-12.2,3.1-14.8,8.6c-6.8-4.2-15-7.6-22.8-4.3c-5.8,2.4-10,8.2-9.3,14.3
		c-7.6,2.3-15.7,5.1-20.6,11.6c-4.1,5.4-5.6,12.6-2.7,18.7c-9,7.8-11.6,21.4-5.5,31.8c-10.4,11.8-8.3,29.7,4.6,38.8
		c-2.1,6.9-1.2,14.9,4.4,20c5.1,4.6,13,5.3,18.6,1.3c0.1-0.1,0.1-0.1,0.2-0.2c6.2,9.2,14.4,16.8,25.3,19.6c3.1,0.8,4.4-4,1.3-4.8
		c-17.7-4.7-27.5-23.5-33-39.5c-6.2-18-8.1-38-2-56.3c5.2-15.5,16.7-30.3,33-34.7c16.4-4.5,33.5,2.9,45.6,13.9
		c28.3,25.9,32.3,70.4,34.9,106.3c2.4,33.8,1.8,67.7,1.5,101.5c-0.3,30.3-0.4,60.5-1.5,90.8c-0.1,3.2,4.9,3.2,5,0
		c1-28.1,1.2-56.2,1.4-84.4c0.1-0.2,0.2-0.4,0.3-0.7c4.1-18.2,20-30,28.7-45.8c3.2-5.9,7.2-14.9,2.3-21
		C1113.8,293.2,1110,292.6,1106.2,293.4z"/>
	<path id="XMLID_742_" fill="#A4D7EF" d="M1281.1,290.7c0.2-6.5-3.1-12.1-7-17.1c6.9-3,9.9-12,6-19c-5-8.9-14.8-10.5-24.1-9.5
		c1.3-2,2.3-4.2,2.4-6.7c0.1-4.2-2.1-8.1-6.2-9.3c-7.3-2.2-15.7-0.1-22.8,3.6c0.5-2.2,0.5-4.5-0.5-6.8c-1.9-4.3-5.9-5.6-10.4-4.6
		c-8.8,1.9-16.6,7.8-21.9,15.1c-0.3-3.7-0.9-7.2-5.3-9.2c-4.7-2.2-10-0.5-13.8,2.7c-8.2,7.2-12.5,19.1-14,30.5
		c-0.9-1.1-2-2.1-3.4-2.7c-4.6-2.3-9.8-0.5-13.1,3.2c-4.1,4.6-4.4,11.2-4.4,17.1c0,6.5,0.6,12.9,1.7,19.3c-4.7-2.3-9.7-2.1-13.6,3.2
		c-5.5,7.6-1.6,18.4,1.6,26.1c3.9,9.4,9.5,18.1,13.4,27.6c3.9,9.4,7.1,19.6,8.3,29.7c-1.1,21.5-1.4,43.2,0.1,64.6
		c0.2,3.2,5.2,3.2,5,0c-1.4-19.9-1-40-0.2-60c0-1.2,0.1-2.4,0.1-3.6c0-0.2,0.1-0.5,0-0.7c0.8-20,2.1-40.1,5.4-59.8
		c4-24.2,12.5-51.2,35.1-64.2c21.2-12.3,51.5-3.3,59.2,21.2c3.9,12.3,1,26.4-7,36.5c-7.5,9.4-24.2,17.9-34.3,7.2
		c-2.2-2.3-5.7,1.2-3.5,3.5c4.7,5,11.2,6.6,17.6,6.1c0,0.2,0.1,0.3,0.2,0.5c6.1,12.7,23.9,11.3,28.5-1.2c5.8,0.9,11.5-2.5,14.6-7.6
		c4.2-7.1,2.2-15.7-0.5-23.1C1278.5,300.6,1280.9,296,1281.1,290.7z"/>
	<path id="XMLID_745_" fill="#A4D7EF" d="M602.9,316.4c0.1,0.2,0.3,0.4,0.4,0.6c3.3,4.4,7.6,7,12.9,8.8c6.2,2.1,11.1,5.6,15.5,10.5
		c3.9,4.4,7.6,9.9,8.9,15.8c1.6,7.1-0.2,15-1.8,22c-2.7,11.9-10.7,24-5.7,36.5c2.2,5.6,7.1,9.2,10.2,14.2c4,6.4,5.5,13.8,4.9,21.3
		c-0.2,2.6,3.4,3.2,4.7,1.3c4.2-6.6,6.8-14.1,7.3-21.9c0.6-9.2-3.2-18-2.9-27.1c0.7-17.3,12.9-31.6,15.2-48.6
		c0.9-6.9,0.4-14-2.9-20.2c-3.5-6.6-9.7-10.4-16.3-13.6c-7.6-3.7-14.8-7.1-20.1-13.9c-5.1-6.6-8-14.9-7.8-23.2
		c0.3-17,12.2-37.2-2.6-51.6c-1.3-1.2-3.8-0.8-4.2,1.1c-1.8,9.6-5.1,18.3-9.2,27.2c-2.8,6.1-4.5,12.7-5,19.4
		c-0.2,3.5,0.3,6.7,0.8,10.1c0.8,5.2,0.7,8.6-1.9,13.2c-3.4,6.2-4.2,11.6-0.8,17.9C602.6,316,602.7,316.2,602.9,316.4z"/>
	<path id="XMLID_748_" fill="#A4D7EF" d="M705.6,291c-0.4-7.2,0.8-14.4,2-21.5c0.4-2.2-2.3-4.5-4.2-2.4
		c-7.5,8.3-15.5,17.3-17.6,28.6c-1.9,10.3,1.5,20.5,4.3,30.3c3.4,11.8,5.5,22.9-1.5,33.9c-6.1,9.5-14.6,18.5-11.5,30.7
		c0.1,0.5,0.4,0.9,0.7,1.2c0,0,0,0.1,0,0.1c0.1,3.2,5.1,3.2,5,0c-0.5-13.1,14.3-18.4,22.3-26.1c7.1-6.9,11.5-16.3,12.7-26.1
		c1.3-10.6-1.9-19.6-6.4-29C708.2,304.2,705.9,298.1,705.6,291z"/>
	<path id="XMLID_751_" fill="#A4D7EF" d="M765.3,291.7c-3.1,3.4-5.9,6.7-7.7,11c-0.1,0.2-0.2,0.4-0.3,0.7c-0.1,0.2-0.1,0.5-0.2,0.7
		c-1.9,8,1.3,16.5-2.2,24.2c-3.1,6.7-9.3,8.7-14.4,13.3c-10,9.2-2.5,23.2,6.1,30.2c5.8,4.8,12.9,8.5,17,15
		c4.2,6.5,5.1,14.7,2.5,21.9c-4.4,12.5-17.7,24.2-9.7,38.3c1.3,2.4,4.4,1,4.7-1.3c1.3-10.9,13.7-15.1,21.1-21.1
		c7-5.6,11.8-14.1,14.1-22.7c2.2-8,1.7-16.9-3.2-23.8c-5.2-7.4-19.3-9.5-21.1-18.9c-1.6-7.9,7.6-14.8,9.2-22.2
		c1-4.8-0.5-9.6-0.4-14.4c0-4.4,1.6-8.2,3.9-11.9c4-6.3,9.6-11.5,12.9-18.2c3.6-7.2,3.6-14.8,0.6-22.3c-2.9-7.3-7.6-13.7-12.2-20
		c-3.2-4.4-7.8-9.1-9.9-14.1c-1.1-2.6-5.4-0.7-4.6,1.9c3.6,12.3,5.8,25.4,2.4,38.1C772.1,282,769.4,287.1,765.3,291.7z"/>
	<path id="XMLID_754_" fill="#A4D7EF" d="M729.8,263.2c-0.8,9-5,17.4-5.8,26.5c-0.3,3.4-0.2,6.8,0.3,10.1c0.3,6,2.2,11.5,5.5,16.5
		c1.2,1.9,4.9,1.4,4.7-1.3c-0.8-8.2,0.5-16.3,4.5-23.6c3.6-6.6,9.3-11.4,14.2-17c8.9-10.1,11.6-22.5,6.7-35.2c-2.3-6-6-11-10.3-15.8
		c-5.9-6.6-9.6-13.2-5.7-22.1c3.2-7.1,9.2-12.4,13.2-18.9c3.6-5.9,5.4-12.7,5.6-19.6c0.4-17.7-9.1-33.2-18.3-47.6
		c-1.5-2.4-5.3-0.9-4.6,1.9c4.9,19,6,37.2-3.9,54.7c-7.8,13.7-16.9,26.1-15.4,42.7C722.1,230.9,731.2,246.4,729.8,263.2z"/>
	<path id="XMLID_757_" fill="#A4D7EF" d="M651.7,216.1c3.4,8.9,1.3,17.1-3,25.3c-6.2,12-14.8,25.9-6,38.9
		c7.4,10.8,22,14.6,27.8,26.7c1.4,2.9,5.6,0.4,4.3-2.5c-6.3-14.2-11-29.5-5.3-44.8c2.4-6.5,5.9-12.9,9.3-18.9
		c3-5.2,5.4-10.2,5.4-16.2c0-0.2,0-0.4,0-0.6c0-0.2,0-0.4-0.1-0.6c-2.6-19.4-24.7-24.1-32.4-40.3c-9.2-19.3,3.6-41.6,2.6-61.7
		c-0.2-3.2-5-3.2-5,0c-0.1,15.4-21,20.2-25.9,33.8c-5.2,14.5,4.4,28.6,13.3,39.2C642.6,201,648.6,207.7,651.7,216.1z"/>
	<path id="XMLID_760_" fill="#A4D7EF" d="M571.9,227.5c8.6,8.3,17.1,15.9,15.1,29.1c-0.4,2.6,3.2,4.7,4.6,1.9
		c5.3-10.7,9.4-23.1,3.7-34.4c-3-6-8.2-11-10.1-17.6c-2.1-7.2,1.9-16.1,3.5-23.2c2-9.6,2.6-19.7-2.6-28.4c-1.3-2.1-4.7-1.3-4.7,1.3
		c0.1,5.3,0.3,11.2-2.3,16.1c-2.5,4.7-7.1,7.9-10.7,11.7c-5.6,6.1-8.5,14.3-7.7,22.6C561.4,215.1,565.9,221.7,571.9,227.5z"/>
	<path id="XMLID_763_" fill="#A4D7EF" d="M594.8,400.8c-0.2,3,3.9,3.1,4.9,0.7c5.6-13.9,8.7-29.6-0.6-42.6
		c-4.8-6.6-11.7-12.3-14.1-20.3c-1.3-4.5-0.2-9.3,0.5-13.8c0.7-4.4,1.4-8.7,2-13.1c1.3-11.3,1-23.4-6.2-32.8c-1.3-1.7-5-1.5-4.7,1.3
		c0.8,7.3,1.6,15.1-2.1,21.8c-3,5.4-8,9.5-11.8,14.4c-6.2,8.1-8.2,18.7-5.8,28.5c2.6,10.6,10.2,17.5,18.6,23.9
		C586.5,377.1,595.8,385.9,594.8,400.8z"/>
	<path id="XMLID_766_" fill="#A4D7EF" d="M823.2,220.4c1.5-7,1.9-13.1-0.8-19.9c-2.7-6.7-7.7-13.5-6.5-21.1c0.5-2.8-2.9-4.3-4.6-1.9
		c-8,11.4-12.1,25.4-11.1,39.3c1.1,15.3,7.7,29.3,12.3,43.7c2.2,6.9,3.5,13.9,4.7,21.1c1.5,9,1.3,15.8-3.6,23.7
		c-3.7,6-9.1,9.3-13.7,14.4c-3.8,4.2-6.2,9.3-6.9,14.9c-0.1,0.2-0.1,0.4-0.1,0.7c0,0.2,0,0.5,0,0.7c0.2,9.3,6.2,16.7,8.3,25.5
		c0.6,2.7,5.2,2.2,4.9-0.7c-1.8-16.3,16.9-23.9,27.1-32.9c9.6-8.5,17.1-19.8,18.1-32.8c1-13.9-7-23.4-15.8-33.1
		C824.8,250.1,819.8,236.4,823.2,220.4z"/>
	<path id="XMLID_769_" fill="#A4D7EF" d="M654.1,737.8c5.7-4.2,12.2-7.2,18-11.3c6.9-4.8,18.9-17.1,10.4-25.8
		c-8.5-8.8-21.7,3.7-27.2,9.9c-2,2.2-3.8,4.6-5.4,7c4.2-9.8,12.2-17.5,19.2-25.4c5.5-6.3,18.2-18.7,10.9-27.6
		c-7.4-9-20,0.4-24.8,7.2c-1.7,2.4-3.2,5-4.5,7.7c2.6-6.6,6.5-12.8,9.4-19c3.5-7.7,8.4-19.9-0.9-25.6c-4.3-2.7-8.5-1.9-11.7,0.5
		c0.6-2.1,1.1-4.2,1.6-6.4c1.2-6.2,2.9-18.8-5.9-20.3c-5.3-0.9-9,2.5-11.3,6.8c0.2-1.2,0.5-2.4,0.8-3.7c1.6-7.4,5.4-22-1.9-27.5
		c-2.1-1.6-3.9-2-5.5-1.7c0.7-1.4,1.3-2.8,1.9-4.1c1.9-4.6,7.2-18.2,1.8-22.2c-5.2-3.8-10.1,2.8-12.7,7.2c1.8-10.2,5-20.2,9.3-29.7
		c1.3-2.9-3-5.4-4.3-2.5c-6.4,13.9-10.3,28.7-11.6,43.7c-0.4-1.4-0.7-2.9-1.2-4.2c-1.9-5.8-7.4-14.6-14.8-13.1
		c-8,1.6-7.1,12.2-4.1,17.5c3.9,6.9,9.1,13.2,13.6,19.9c-4.6-2.5-10.1-3.4-14.3-0.3c-7,5.1-1.5,14.2,3.8,18
		c4.5,3.2,9.4,5.6,13.5,9.4c0.6,0.5,1.1,1.1,1.7,1.7c-4.7-2.2-9.8-2.9-14.3-0.2c-10.4,6.2-0.9,17.2,5.9,21.2
		c7.3,4.4,15.3,7.7,22,12.6c-1,0-2.1,0.2-3.2,0.5c-10.5,3-9.6,14.4-3.9,21.4c5,6,11.6,10.5,16.5,16c-1-0.5-2-0.9-3.2-1.2
		c-5.1-1.3-8.6,3.1-10.2,7.4c-2.2,5.7-0.9,11.7,1,17.3c2.8,8.2,5,16.3,6.1,24.4c-3.1-11-10.4-24.6-22.9-24.2
		c-6.4,0.2-10.2,6-12,11.5c-2.3,7.5-0.8,15.5,2,22.5c3.8,9.2,9.3,17.6,13.8,26.3c-6.1-7-15-12-23.9-9c-13.3,4.5-6.3,21.8-0.9,29.9
		c4,6,9,11.1,14,16.3c-8.4-3.9-20.8-1.5-24.3,7.9c-4.6,12.3,9.1,18.7,18.2,22.4c13.3,5.4,27.9,9.6,34.4,23.8
		c0.1,0.1,0.1,0.2,0.2,0.4c3,6.5,6.4,12.9,9.6,19.1c1.5,2.9,5.8,0.3,4.3-2.5c-3.3-6.3-6.7-12.8-9.8-19.4c0,0,0,0,0-0.1
		c-0.1-0.1-0.1-0.3-0.2-0.4c-1.1-2.3-2.2-4.7-3.2-7.1c-1.6-14.4,17.6-21.5,25.4-30.8c5.3-6.4,9.2-18.6-0.6-23.1
		c-1.9-0.9-3.8-1.3-5.6-1.3c1-0.9,2.1-1.7,3-2.6c5.9-5.3,21.8-21.2,10.7-28.9c-2-1.4-4.2-2.2-6.4-2.4c3-1.8,5.9-3.6,8.8-5.4
		c6.3-3.9,13.5-7.8,17.8-14c3.1-4.5,4.6-10.9-0.4-14.7c-5.4-4.1-12.6-1.6-17.9,1c-5.9,2.9-11.5,6.7-16.6,10.9
		C645.5,745.1,649.6,741.2,654.1,737.8z M642.3,719.6C642.4,719.6,642.4,719.6,642.3,719.6C642.4,719.6,642.4,719.6,642.3,719.6
		C642.3,719.6,642.3,719.6,642.3,719.6z M618.4,799c0,0,0.1-0.1,0.1-0.1c-0.1,0.3-0.2,0.6-0.3,0.8
		C618.2,799.5,618.3,799.3,618.4,799z"/>
	<path id="XMLID_790_" fill="#A4D7EF" d="M812.8,816.6c4.8-5,9.6-9.9,13.5-15.6c5.5-8,13.2-25.9-0.5-30.6c-8.9-3-17.8,2-23.9,8.9
		c4.5-8.7,10-17.1,13.8-26.3c2.9-7.1,4.4-15.1,2-22.5c-1.7-5.5-5.6-11.3-12-11.5c-12.6-0.4-19.9,13.5-23,24.5c1-8,3.1-15.9,5.9-23.9
		c2-5.7,3.5-11.9,1.4-17.8c-1.6-4.4-5.2-9-10.4-7.7c-1.1,0.3-2.2,0.7-3.2,1.2c4.9-5.5,11.4-10,16.5-16c5.8-6.9,6.7-18.3-3.9-21.4
		c-1.1-0.3-2.2-0.5-3.2-0.5c6.5-4.8,14.2-8,21.3-12.2c6.9-4,17.4-15.2,6.6-21.7c-4.6-2.7-9.6-2-14.4,0.2c0.4-0.4,0.8-0.8,1.2-1.2
		c4.1-3.9,8.9-6.3,13.5-9.5c5.4-3.8,11.6-13,4.4-18.4c-4.2-3.1-9.7-2.2-14.4,0.3c4.3-6.4,9.2-12.5,13.2-19.1
		c3.2-5.3,4.8-16.5-3.7-18.2c-7.1-1.5-12.6,6.9-14.6,12.5c-0.5,1.6-1,3.1-1.4,4.8c-1.3-15-5.2-29.7-11.6-43.6
		c-1.3-2.9-5.7-0.4-4.3,2.5c4.4,9.5,7.5,19.5,9.4,29.8c-2.6-4.6-7.5-11-12.7-7.3c-5.4,3.9-0.2,17.3,1.7,21.9c0.6,1.5,1.3,3,2.1,4.4
		c-1.5-0.3-3.4,0.1-5.5,1.7c-7.2,5.3-3.6,19.4-2.1,26.6c0.3,1.6,0.7,3.1,1,4.6c-2.2-4.3-5.9-7.8-11.3-6.8
		c-8.6,1.5-7.2,13.5-6.1,19.6c0.4,2.4,1.1,4.8,1.7,7.1c-3.2-2.4-7.3-3.2-11.7-0.5c-9,5.4-4.6,17.3-1.2,24.8c3,6.6,7.2,13.3,9.9,20.2
		c-1.2-2.6-2.7-5.2-4.3-7.6c-4.8-7-17.7-17.1-25.2-7.8c-7.1,8.7,5,20.8,10.4,27c7.1,8.1,15.4,16,19.7,26c-1.5-2.2-3.2-4.3-4.9-6.4
		c-5.5-6.3-19-19.5-27.7-10.5c-8.2,8.5,2.9,20.5,9.7,25.3c6,4.3,12.8,7.4,18.7,11.8c4.6,3.3,8.6,7.3,12.1,11.7
		c-5.1-4.3-10.7-8-16.6-10.9c-5.4-2.7-12.5-5.1-17.9-1c-5,3.8-3.6,10.2-0.4,14.7c4.4,6.2,11.5,10.1,17.8,14c2.9,1.8,5.9,3.6,8.8,5.4
		c-2.2,0.3-4.3,1-6.4,2.5c-11.1,7.7,4.7,23.5,10.7,28.9c1,0.9,2,1.7,3,2.6c-1.8,0-3.7,0.4-5.6,1.3c-9.9,4.4-5.9,16.7-0.6,23.1
		c7.7,9.3,26.6,16.3,25.4,30.4c-3.8,9.4-8.5,18.5-13.2,27.5c-1.5,2.8,2.8,5.4,4.3,2.5c3.6-6.8,7.2-13.8,10.6-21
		c6.8-13,20.8-17.2,33.6-22.4c9.1-3.7,22.9-10.1,18.2-22.4C833.6,815.2,821.2,812.7,812.8,816.6z M765,719.6
		C765,719.6,765,719.7,765,719.6C764.9,719.7,764.9,719.6,765,719.6C764.9,719.6,764.9,719.6,765,719.6z M788.9,799
		c0,0.1,0,0.1,0.1,0.2C788.9,799.1,788.9,799,788.9,799C788.8,798.9,788.9,799,788.9,799z"/>
	<path id="XMLID_811_" fill="#A4D7EF" d="M1082.4,782.7c-4.8,7.4-9.7,15-15.7,21.5c-5.5,6-12.3,10.3-18.5,15.5
		c-7.9,6.7-13.9,15.2-17.4,24.7c-0.7-3.4-1.6-6.8-2.7-10.2c-0.4-1.3-0.8-2.5-1.3-3.7c-0.1-0.3-0.1-0.5-0.3-0.8
		c-0.3-0.8-0.6-1.5-0.9-2.2c0-0.1-0.1-0.2-0.1-0.3c-3-7.3-6.9-14.1-11.1-20.9c-1.2-1.9-2.4-3.9-3.5-5.9
		c-2.9-12.4,9.3-16.4,18.6-19.9c7.8-2.9,15.2-6.9,21.6-12.3c12.8-10.9,20-27.8,14.8-44.3c-0.6-1.9-3.6-2.6-4.6-0.6
		c-7.4,14.8-19.2,26.6-33.7,34.7c-6.8,3.8-14.1,7.5-19.4,12.8c2.2-4.2,5.2-7.9,8.3-11.5c0.4-0.2,0.8-0.6,1-1.1c0-0.1,0-0.1,0.1-0.2
		c2.1-2.5,4.3-4.9,6.3-7.4c6.2-7.9,10.5-17,12.1-27c0.3-1.7,0.4-3.4,0.5-5.1c0-0.1,0.1-0.1,0.1-0.2c2.4-8,5.5-15.3,11.8-21
		c4.9-4.4,10.7-7.8,15.2-12.7c10-10.7,8.1-24.8,5.2-38c-0.5-2.3-4.5-2.5-4.8,0c-2,13.6-16.2,19.9-24.3,29.5
		c-4.2,5-6.8,10.4-8.1,16.3c-2.7-7.3-6.1-14.5-8.8-22.1c0-0.1-0.1-0.2-0.1-0.4c-0.1-0.2-0.2-0.5-0.3-0.7c-0.5-1.4-1-2.9-1.4-4.4
		c-1.9-6.3-2.7-12.5-2.1-19.1c0.6-6.7,2.2-13.2,2-19.9c-0.1-4.6-0.8-9-2-13.4c0-0.1,0-0.2,0-0.3c-1.8-8.7-1.5-17.2,1.8-25.5
		c2.9-7.2,8.2-13.4,10.2-20.9c4-14.6-4-29.3-12.1-40.9c-1.6-2.3-5.1-0.9-4.6,1.9c1.5,7.4,1.3,15-0.8,22.3c-2,6.8-6,12.3-9,18.6
		c-4.7,10.3-5.2,18.7,0.9,28.4c6.6,9.1,10.6,19.9,10.5,31.2c-0.1,7.5-1.7,14.7-2,22c-3.3-4.2-7.6-7.7-12.5-10.1
		c-11.3-5.5-23.9-8.6-27.9-22.2c-0.6-2.1-3.4-2.4-4.6-0.6c-7.6,12-0.4,25.3,9.8,32.9c6.1,4.5,13.1,7.4,20.1,10.2
		c6.4,2.5,15.4,4,18.6,10.7c5.6,16,15.3,30.6,14,48.3c-0.7,9.3-4.1,17.8-9.3,25.4c-0.2-8.2-4.6-15.4-12.4-20.4
		c-7.1-4.5-15-7.4-21.2-13.2c-5.7-5.3-9.5-11.9-11.2-19.5c-0.5-2.4-4.2-2.3-4.8,0c-3.6,14.4-4.5,28.3,8.1,38.4
		c6,4.9,13.2,7.8,20.1,11.1c5.5,2.5,16,6.7,12.4,14.9c-4.1,4.8-8.1,9.8-10.7,15.6c-2.5,5.5-2.9,10.8-2,15.9c0,0.2,0,0.4,0,0.6
		c0,0.7,0.2,1.2,0.5,1.6c1,4.4,3,8.7,5.2,12.8c0,0,0,0,0,0c0.1,0.5,0.4,0.9,0.6,1.1c3.2,5.8,7,11.4,10.1,17c-9.5-4.6-21-3.9-31-8.1
		c-13.5-5.6-23.2-17.4-29-30.5c-1-2.2-3.9-1.2-4.6,0.6c-6,16.5,5,33.6,17.7,43.6c7.1,5.6,15.1,8.3,24.1,8c4.8-0.2,9.4-1.2,14.1-2
		c3.5-0.6,10.9-2,14.1,0.6c7.2,20,7.7,42,1.2,62.4c-1,3.1,3.8,4.4,4.8,1.3c2.8-8.9,4.4-18.1,4.7-27.3c0-0.1,0.1-0.2,0.1-0.4
		c1.5-12.2,9.7-17.9,19.9-23.3c8.2-4.4,15.8-9.4,21.8-16.7c10.5-12.6,15.3-28.9,12.3-45.2C1086.5,781,1083.4,781,1082.4,782.7z"/>
	<path id="XMLID_820_" fill="#A4D7EF" d="M1265.3,790.4c-5.6,14-16.5,25.6-30.2,31.8c-6.1,2.8-12.9,4.3-19.3,6.6
		c9.3-12.8,14.4-29.9,4.9-43.4c1.1-13.7,17.6-21.2,26.7-29.1c8.5-7.4,13.3-18.1,10.7-29.3c-0.6-2.4-4.3-2.4-4.8,0
		c-1.9,8.4-12.9,12.6-19.7,16.3c-5.8,3.1-11.5,6.4-15.4,11.8c-4.6,6.3-6.5,14.2-5.5,21.8c-2.4-2.2-4.9-4.4-7.1-6.8
		c-0.1-0.2-0.3-0.5-0.6-0.6c-1.3-1.5-2.5-3.2-3.6-4.9c-5.9-10.2-0.3-20.8,1.3-31.3c0.2-1.5,0.4-3,0.5-4.5c0.1-0.3,0.2-0.5,0.2-0.8
		c0.5-7.3,2.8-14.4,6.8-20.6c4.1-6.2,9.7-10.1,15.5-14.6c4.6-3.5,8.5-7.4,10.6-12.9c2.5-6.4,2.6-13.4,2.6-20.1c0-2.9-4-3.2-4.9-0.7
		c-2.7,7.6-8.2,10.8-14.9,14.5c-4.9,2.6-9,6.3-12.2,10.8c-3.7,5.2-6.2,11.3-7.5,17.6c-0.1-0.2-0.1-0.4-0.2-0.6
		c-4-10.2-11.9-18.9-14.3-29.7c-4.6-20.2,16-35.1,22.1-52.7c3.2-6.1,8.9-9.1,13.9-13.5c5.8-5.1,9.6-12.1,10.5-19.8
		c0.9-8.2-1.3-16.4-5.1-23.6c-2.2-4.2-5.1-8.2-6.6-12.8c-1.8-5.7-1.1-11.7-0.3-17.4c0.4-2.8-2.9-4.4-4.6-1.9
		c-9.5,13.4-10.5,28.3-7.3,44c1.6,8,3.4,16.2,1.5,24.4c-1.5,6.5-4.7,12.7-6.8,19c-2.1,6.3-5.7,11.9-9.6,17.5
		c0.1-7-3.2-13.6-9.4-18.7c-11.9-9.8-26.3-17.2-27.3-34.5c-0.1-2.4-3.3-3.4-4.7-1.3c-7.5,12.2-3.5,25.9,5.6,36
		c5.3,5.9,12.1,9.6,18.1,14.7c7.1,6,7.5,13.3,6.8,22c-1.1,2.8-2,5.7-2.4,8.8c-1.3,9.7,2.6,18.4,7.3,26.6c1.8,3.2,3.5,6.3,5.1,9.5
		c-4.1-4.2-9.1-7.3-14.9-10c-12-5.5-22.6-11.1-25.8-25c-0.6-2.6-4-2.1-4.8,0c-5.8,14.5,2.7,29.6,15,37.4c7.1,4.5,14.9,6.4,22.9,8.5
		c4.5,1.2,8.1,2.4,10.7,6.5c1.8,2.8,3.3,6.1,3.5,9.5c-0.1,5-0.8,9.9-2.1,14.8c-1.4,5.2-2.9,10.5-2.6,16c0.1,0.9,0.2,1.7,0.3,2.5
		c-5-3.7-10.9-6.2-16.8-8.8c-11.7-5.1-21.3-11.9-24.5-24.9c-0.6-2.3-4.4-2.5-4.8,0c-2.4,14,2.2,28.3,13.3,37.4c5,4.1,11,7,17.3,8.2
		c7.8,1.4,16.4-0.7,23.5,3.5c0.4,0.4,0.8,0.9,1.2,1.3c4,4.1,9.1,7.9,12.7,12.5c0.1,0.3,0.3,0.5,0.5,0.7c1.7,2.2,3,4.7,3.7,7.4
		c2.8,10.4-1.6,21.5-7.7,29.8c-2.3,3.1-4.8,6.1-7.4,8.9c-2.2,1.5-4.3,3.4-6,5.7c0.7-10.6-2.9-21.1-13.2-26.4
		c-7.4-3.8-15-6-21.5-11.4c-6.5-5.4-11.6-12.3-14.8-20.1c-0.9-2.2-4.1-2.6-4.8,0c-4.5,15.1,1.4,31.5,15.1,39.6
		c7.3,4.3,17.1,3.6,23.9,8.5c6.1,4.4,7.9,13.6,6.3,20.6c-1,1.2-2,2.5-2.9,3.8c-7.4,10.3-12.4,22-15.1,34.4c-0.7,3.1,4.1,4.5,4.8,1.3
		c2.6-11.7,7.3-22.7,14.1-32.5c1-1.5,2.1-2.9,3.2-4.2c0.1-0.1,0.1-0.1,0.2-0.2c2-2.4,4-4.7,6.1-7c9-5.2,19-2.2,29.3-0.6
		c8.6,1.3,16.8,0.3,24-4.7c16-11.2,18.1-31.7,16.6-49.7C1270,788.2,1266.4,787.8,1265.3,790.4z"/>
	<path id="XMLID_830_" fill="#A4D7EF" d="M491.1,602c-4.5,0-8.2,2.8-9.5,7c-1.5,4.8-1.6,9.6-1.7,14.3c-0.1,4.6-0.2,8.9-1.6,12.6
		c-2.5,6.4-11.7,7.8-14.5,8.1c-1.2,0.1-2.5,0.2-3.9,0.2c0.8-0.9,1.5-1.7,2.2-2.6c9-11.8,8.6-25.1,7-36.5c-0.1-0.5-0.2-1.1-0.2-1.6
		c-1-7.1-3-20.2,3.3-22.7c4.7-1.9,7.2-6.8,6.2-11.8c-0.9-4.6-4.6-7.8-8.9-7.8c0,0,0,0,0,0c0,0,0,0,0,0c-1.2,0-2.5,0.3-3.7,0.8
		c-9.2,3.8-15.3,11.9-17.1,22.9c-1.2,7.1-0.3,13.9,0.6,20.3c0.6,4.5,1.2,8.7,1.1,13c-0.3,11.6-10.2,18.4-20.7,25.6
		c-3.3,2.3-6.7,4.6-9.7,7.1c-1.5,1.1-2.9,2.3-4,3.5c-0.1,0.1-0.2,0.2-0.3,0.3c-12.5,12.6-18,30.9-15.9,52.9c0.4,4.5,1.2,9.1,2,13.6
		c-0.6-0.2-1.2-0.5-1.8-0.7c-1.7-0.6-3.4-1-5.1-1.5c-4-1-7.4-2-9.9-4.4c-2.8-2.8-3.9-5.8-3.8-9.9c0.1-4.1,1.5-8.9,2.9-13.4
		c0.9-2.9,1.8-5.9,2.4-8.8c0.4-1.8,0.6-3.7,0.8-5.7c0.2-0.9,0.4-1.9,0.3-2.9c-0.1-3.3,0.8-11.8,11.5-17.6c2.5-1.4,5.1-2.5,8-3.7
		c6.3-2.6,12.7-5.3,17.9-11.1c7.3-8.1,8.8-18.1,4.3-28.3c-4.8-10.8-6-19.8-3.8-29.1c0.7-3.1,0-6-1.8-8.4c-2-2.5-5.1-3.9-8.3-3.9
		c-4.6,0-8.2,2.9-9.3,7.5c-2.7,11.7-2.1,23.4,1.5,33.8c0.6,1.7,1.4,3.3,2.1,4.8c1.2,2.4,2.5,5.1,2.4,6.8c-0.2,2.1-2.5,4.5-6.2,6.6
		c-2.8,1.5-5.6,2.8-8.7,4.1c-4.7,2.1-9.6,4.2-14.1,7.5c-0.1-1.4-0.1-2.9-0.1-4.3c0.1-2.7-0.8-5.2-2.6-7.1c-1.8-1.9-4.4-3-7.2-3
		c-5.6,0-10,4.1-10.2,9.6c-0.3,6.7,1,13.1,2.2,19.2c1.6,7.8,3,15.2,1.2,22.5c-0.5,1.9-1.1,3.9-1.6,5.9c-3.1,10.6-6.5,22.7,0,35
		c3.2,5.9,8.1,10.8,13.9,13.9c3.2,1.7,6.5,2.5,9.7,3.3c2.9,0.7,5.6,1.4,7.9,2.7c7.2,4.1,9.6,15.9,9.5,25c-0.5,2.5-1.1,5-2,7.3
		c-1.4,3.9-5.6,13.1-14.3,15.6c-2.3,0.6-4.8,1-7.7,1c-3.8,0-7.7-0.5-11.9-1.1c-3-0.4-6-0.8-9.1-1c-1.3-0.1-2.6-0.1-3.9-0.1
		c-10.4,0-19.1,2.9-26.1,8.6c-1.9,1.5-3.5,3.2-5.1,5c-0.9-6-2.2-11.7-3.5-16.7c-1.6-6.4-1.8-12.4-2-19.3c0-0.9-0.1-1.8-0.1-2.7
		c0-0.4,0-0.9-0.1-1.3c0.2-2.2,0.6-4.1,1.1-6c1.3-4.5,4.3-8.5,7.4-12.7c1.1-1.5,2.3-3.1,3.4-4.7c5.2-7.5,7.4-14.6,7-21.6
		c-0.2-4-1.4-7.5-2.6-11c-1.2-3.6-2.4-7-2.1-10.1c0.6-5.8,4.7-11.2,9.1-16.9c0.6-0.8,1.1-1.5,1.7-2.2c0.4-0.4,0.7-0.9,1-1.4
		c1.9-2.5,4.2-5.9,5.8-9.5c3.9-8.8,3.6-17.7,2.8-25.2c-1-9.1-2.6-18.4-4.9-27.5c-1.1-4.5-4.8-7.4-9.3-7.4c-3.2,0-6.3,1.5-8.3,4
		c-1.9,2.4-2.5,5.4-1.7,8.4l0.5,2c1.6,6.4,3.3,13.2,4,19.9c-1.6-1.3-3.3-2.4-5.1-3.2c-3.8-1.7-7.7-2.2-11.1-2.6
		c-1.6-0.2-3.1-0.4-4.6-0.6c-5.7-1.1-6.6-6.5-6.5-17.5c0.1-5,0.1-11.2-1.6-17.2c-0.6-2-1.5-3.9-2.3-5.7c-1.3-2.7-2.6-5.5-2.2-7.4
		c0.6-3.1,0-6-1.9-8.4c-2-2.4-5.1-3.9-8.3-3.9c-4.6,0-8.3,3-9.2,7.6c-1.5,7,0.3,12.7,2.3,17.3c2.3,5.4,3.2,9.4,3.3,14.1
		c0,1.1,0,2.1,0,3.2c0,8.8-0.1,18.8,6,27.3c3.1,4.3,7.1,7.4,12,9.1c3,1.1,6.1,1.3,8.8,1.6c2.4,0.2,4.7,0.4,6.6,1.2
		c3.9,1.5,6.3,7.3,6.6,12.3c-0.5,0.7-1,1.4-1.5,2.1c-5.5,7.6-11.8,16.2-11.9,27.4c0,4.7,1.4,8.9,2.7,12.7c1.1,3.3,2.2,6.5,2.1,9.4
		c-0.1,4.2-3.3,8.4-6.5,12.5c-0.6,0.8-1.2,1.6-1.8,2.3c-1.2,1.6-2.2,3.1-3.2,4.6c-4.8-2.8-10.3-3.7-15.6-4.3c-1-0.1-2-0.2-2.9-0.3
		c-4.3-0.3-8.8-0.7-10.7-3.1c-2.2-2.7-2.6-7.5-3.1-12c-0.1-1.3-0.3-2.7-0.4-4c-0.9-6.7-2.6-14.5-8.3-21.2c-1.9-2.2-4.4-3.4-7.1-3.4
		c-3.8,0-7.4,2.5-9.1,6.1c-1.7,3.7-1.1,7.8,1.5,10.9c3,3.5,3.5,9.1,4.1,14.9c0.4,4.5,0.9,9.2,2.5,13.6c5.4,14.2,18.1,17.2,29.8,18.3
		l0.7,0.1c5,0.4,8.6,0.9,9.9,3.4c0.5,1,0.9,2.2,1,3.7c-0.3,3.5-0.3,7.2,0,11.2c0,0.8,0,1.4,0,2c0.3,6.4,1.8,12.4,3.2,18.3
		c0.3,1.4,0.7,2.7,1,4.1c1.9,8.1,2.3,15.9,2.5,22.5c0,1.5,0.1,3,0.3,4.4c0.4,4.7,0.5,7.3-1.3,9.9c-0.6,0.7-1.2,1.4-1.8,2
		c-2.7,2.6-6.5,4.7-12,6.4c-1.4,0.2-2.9,0.3-4.4,0.3c-3.3,0-6.7-0.5-10.2-1.5c-16.3-4.7-30.7-17.9-38.5-35.3
		c-5-11.1-5.7-23-6.4-35.6c-0.4-6.8-0.8-13.8-1.9-20.8c-1-8.8-1.3-17.9-1.6-26.7c0-1.4-0.1-2.7-0.1-4.1c-0.1-1.9-0.2-3.8-0.3-5.7
		c-0.1-2.4-0.3-4.9-0.3-7.3c0-0.5,0.1-0.9,0.1-1.4c0-1.5,0-3.2,0-5.4c0.3-6.6,1.6-11.7,3.9-15.9c3.9-6.9,10.3-12.1,17.1-17.6
		c2.8-2.2,5.7-4.6,8.3-7c4.2-3.9,9.3-9.3,10.9-17c0.9-4.5,0.8-8.8,0.6-13c-0.1-2.8-0.2-5.5,0-8c0.3-2.7-0.6-5.3-2.3-7.2
		c-1.8-1.9-4.4-3.1-7.2-3.1c-5.5,0-9.9,3.9-10.4,9.3c-0.3,2.8-0.1,5.6,0.1,8.4c0.3,3.9,0.5,7.6-0.6,10.4c-1.3,3.3-5.5,6.6-9.1,9.4
		c-1,0.8-1.9,1.5-2.8,2.2c-3.3,2.8-6.9,5.7-10.4,9c-2.5-6.8-7.1-11.8-13.9-15.1c-1-0.5-2.1-1-3.2-1.4c-2.2-0.9-4.7-2-5.7-3.2
		c-0.9-1.2-1-4.1-1.1-6.7c0-1.9-0.1-3.8-0.4-5.7c-1.1-6.3-4.3-11.4-7.4-16.2l-0.1-0.2l-0.1-0.1c-2.7-4.3-4.9-8.1-3.5-10.6
		c1.8-3.2,1.8-6.7,0-9.7c-1.8-3.2-5.4-5.2-9-5.2c-3.5,0-6.5,1.8-8.3,5c-7.1,12.7-0.2,24.2,5.3,33.4l0.7,1.1c2.3,3.8,2.6,7.3,3.1,12
		c0.1,1,0.2,1.9,0.3,2.9c0.7,6.5,3.4,11.8,7.9,15.5c2.8,2.4,6,3.9,8.8,5.2c5.3,2.5,7.8,3.9,8.4,8.2c0.9,6.9,0.6,14,0.2,21.5
		c-0.2,4.4-0.4,8.9-0.4,13.5c0,2.7,0.1,5.3,0.2,8c0,0,0,0,0,0c-1.4-1.1-3-2.2-4.5-3.3c-9.7-6.9-16-12.1-15.6-20.3
		c0.1-2.7-0.8-5.2-2.5-7.1c-1.8-1.9-4.4-3-7.2-3c-5.6,0-10,4.1-10.2,9.6c0,1-0.1,2.1,0,3.1c-2.5-2.3-4.6-5.2-5.3-7.9
		c-0.7-3-0.5-6.5-0.2-10.1c0.2-3.6,0.5-7.3-0.1-11.2c-1.2-7.4-4.5-14.4-9.9-20.6c-1.9-2.1-4.4-3.3-7.1-3.3c-3.8,0-7.5,2.5-9.2,6.2
		c-1.7,3.7-1.1,7.7,1.6,10.8c3.8,4.3,5.3,9.5,4.9,16.8l0,0.4c-0.4,7.6-0.8,15.5,3.4,23.1c3.4,6.1,9,11.8,15.1,15.4
		c3.2,1.9,6.7,3.1,10.4,3.6c1.2,0.2,2.4,0.2,3.6,0.2c1.2,0,3.3,0.1,4,0.4c0.6,0.5,1.2,0.9,1.9,1.2c2.8,2.5,5.8,4.8,8.7,7
		c6.7,5.1,13,10,16.4,16.5c1.6,3.2,2.9,6.7,3.8,10.8c0.2,1.8,0.4,3.4,0.6,4.9c0.1,0.9,0.4,1.8,0.7,2.7c0.6,5.2,0.9,10.6,1.1,15.9
		c-0.8-0.5-1.6-0.9-2.4-1.4c-2.2-1.2-4.5-2.3-7-3.5c-12.3-5.9-21-10.9-20.6-19.9c0.1-2.7-0.8-5.2-2.5-7.1c-1.8-1.9-4.4-3-7.2-3
		c-5.6,0-10,4.1-10.2,9.6c-1.1,22.2,22,33.5,29.6,37.3c0.6,0.3,1.2,0.6,1.8,0.9c5.8,2.8,11.9,5.8,15.7,10.4c3.9,4.7,6.9,11,9.8,17.1
		c1.1,2.4,2.3,4.8,3.5,7.1c0.5,1.1,1.2,2,2,2.7c6.3,10.6,14.8,19.8,24.7,26.8c11.7,8.2,25.5,12.9,37.8,12.9c1,0,2,0,2.9-0.1
		c0.5,0.1,0.9,0.1,1.4,0.1c0.9,0,1.9-0.1,2.8-0.4c0.4-0.1,0.8-0.2,1.3-0.4c6.1-1.1,11.6-3.5,16.4-7c1.3-0.9,2.5-1.9,3.7-3.1
		c4-3.3,7-7,8.9-11.2c1.8-3,3.5-6,5.1-9c3.8-7.1,7.4-13.7,13-18.5c3.3-2.8,7.5-4.1,13.5-4.1c3.6,0,7.4,0.5,10.7,0.9
		c4.2,0.5,9.5,1.1,14.6,1.1c7.4,0,13.7-1.3,19.2-4.1c12.2-6.1,20.6-18.7,23.7-35.5c0.3-0.9,0.5-1.9,0.5-2.8c0-0.1,0-0.1,0-0.2
		c0.7-5.3,1-10.6,0.6-16c-0.5-8.1-2.1-16.3-3.6-24.3c-3-15.3-5.7-29.8-1.5-43.9c1.8-5.9,5.3-10.9,11.4-16.1
		c2.2-1.2,6.5-2.5,14.3-2.5c0.3,0,0.5,0,0.8,0c1.9,0,3.8,0.1,5.6,0.2c2.2,0.1,4.6,0.2,6.9,0.2c4.5,0,10.5-0.3,16.6-2.5
		c9.5-3.4,16.3-9.3,19.7-17.3c2.6-5.9,2.8-11.9,2.9-17.6c0.1-4.3,0.3-8.3,1.4-12c0.9-3.1,0.4-6.1-1.4-8.5
		C497.6,603.5,494.4,602,491.1,602z"/>
</g>
<g id="XMLID_35_">
	<path id="XMLID_16_" fill="#009CD7" d="M292.5,228.9c-2.6-1.9-6.6-2.2-8.8-4.7c-3.3-3.6-1.9-8.4,0.3-12c2.9-4.8,7.1-9,8.3-14.6
		c1.2-5.3-1.1-11-5.6-14.1c-5.7-4-15.9-3.1-18-11.2c-1.9-7.3,6.8-12.1,7.9-19.1c0.9-5.9-1-13-7.2-15.2c-4.2-1.5-8.5-0.5-10.1-5.7
		c-1-3.2-1-6.7-1.6-10c-1.3-7.1-4.9-10.5-11.7-12.7c-10.4-3.4-19.8-8.4-28.5-15.1c-1.9-1.5-4.1,0.9-3.7,2.8c1.4,7,1.5,14.1-0.1,21.1
		c-1.5,6.5-5.3,12.6-5.7,19.4c-0.4,6,3,10.4,4.2,16c1.5,6.9-4.5,13.1-7,19.1c-3.9,9.1-5.5,20.6,0.1,29.3c3,4.8,8.7,7.6,11.1,12.8
		c4,8.3-5.9,9.5-10.6,13.4c-8.5,6.9-10.5,18.7-8.9,29c1,6.3,3.5,12,5.6,18c0.9,2.8,2,5.9,1.7,8.8c-0.3,4.1-2.7,5.6-6.1,7.4
		c-8.5,4.6-13.5,14-12.3,23.7c0.8,5.8,4.2,10.6,5.8,16.1c1,3.3,1.2,6.4-0.7,9.4c-1.7,2.6-4.2,4.7-6.1,7.2
		c-7.6,10.3-4.2,24.3,2.4,34.1c8.4,12.6,20.9,21.6,24.8,37c0.1,0.2,0.1,0.4,0.2,0.6c2.1,9.6,4.7,19.1,7.4,28.6
		c0.9,3.1,5.7,1.8,4.8-1.3c-1.9-6.7-3.8-13.4-5.5-20.3c-0.9-8.1-1.1-16.4,1.6-24.1c2.7-8,8.4-13.4,15.2-18
		c9.7-6.7,24.7-15.5,22-29.7c-0.5-2.9-2-5.4-4.3-7.3c-3.1-2.4-7.4-2.6-10.2-5.4c-7.5-7.7,3.7-17.5,9.3-22
		c10.7-8.8,23.2-22.8,14.7-37.4c-2.4-4-4.6-7.4-1.2-11.7c3-3.8,7.7-6,11.7-8.5c6.5-4,13.2-9.4,17-16.2
		C297.8,240.8,298.1,233.1,292.5,228.9z M290.4,244c-4.6,8.3-13,12.8-20.6,17.7c-4.9,3.2-10.7,7.8-10.6,14.3
		c0.1,2.7,1.2,5.2,2.5,7.4c2.6,4.5,4,8.5,2.8,13.8c-2,8.8-9.4,14.7-16,20.1c-5.3,4.4-10.8,9.3-12,16.4c-1,5.9,1.1,11.7,6.5,14.6
		c4.6,2.5,10.1,2.9,10.1,9.5c0,4.6-2.7,8.8-5.8,12c-5.3,5.5-12.4,9-18.4,13.7c-8,6.2-12.3,14.1-14.2,22.9
		c-1.8-11.1-2.7-22.3-1.6-33.6c1.1-11.8,2.8-23.1,2.7-35.1c-0.1-11.3,2.4-20.9,8-30.7c8.9-15.4,22.1-29.2,25.4-47.2
		c3.7-20.3-5.5-39.6-10.5-58.9c-3.4-13.1-3.5-25.2-0.8-38.4c2.3-11.7,5-23.7,0.9-35.3c-1.1-3-5.9-1.7-4.8,1.3
		c4.2,12,0.6,24.2-1.6,36.2c-1.9,10-2.2,19.6-0.3,29.6c3.9,20.9,15.9,41.6,12.4,63.3c-3,18.7-17.3,32.7-26.1,48.7
		c-4.4,8.1-7.2,16.6-7.6,25.8c-0.2,5.6,0.2,11.1,0,16.7c-0.2,6.2-1.3,12.3-2.1,18.4c-1.5,11.5-1.1,22.8,0.3,34
		c-3.4-4.9-7.4-9.4-11.4-14c-8.7-10-18-25.7-7.4-37.9c3-3.5,6.3-6.5,7.1-11.3c0.9-5.7-1.9-10.9-4.1-15.9c-2.7-6.1-3.5-12.3-0.3-18.5
		c2.9-5.6,8-6.6,12.3-10.4c8-7,2.1-18.5-0.7-26.5c-4.4-12.6-5.6-30.2,8.5-37c4-1.9,8-3.6,9.1-8.4c1.1-4.8-1.3-9.6-4.4-13
		c-4.2-4.7-9.1-7.9-10.6-14.5c-1.4-6.2,0.1-12.9,2.5-18.6c2.3-5.6,6.8-10.6,7.7-16.8c1-6.9-4.1-12.2-4.3-18.8
		c-0.3-7.7,5-15.6,6.3-23.2c0.8-4.7,0.9-9.5,0.4-14.2c5.6,3.8,11.5,7,17.8,9.6c3.7,1.5,8.6,2.2,11.9,4.5c3,2.1,3.5,6.2,4,9.6
		c0.7,4.7,0.9,10.1,4.6,13.6c2.2,2,4.8,2.3,7.6,2.8c5.2,1,7,4.8,6.3,10c-0.9,6.4-7.5,9.8-8.2,16.4c-0.7,6.6,3.3,12.1,9.2,14.7
		c5.8,2.5,15.1,3.2,15,11.5c-0.1,5.9-5.8,10.9-8.5,15.8c-2.7,4.8-3.4,10.7-0.2,15.5c1.4,2.2,3.5,3.5,5.8,4.5
		c2.8,1.2,5.8,1.9,6.9,5.2C292.5,238.6,291.7,241.6,290.4,244z"/>
	<path id="XMLID_27_" fill="#009CD7" d="M410.4,344.2c-11-3.1-3.7-14.8-0.3-21.4c4.3-8.3,17.7-27.3,4.9-34.8
		c-3.2-1.8-7-0.8-10.1-2.6c-5.1-2.9-2.7-9.6-0.3-13.5c4.9-7.7,11.9-14.5,17.7-21.4c7.4-8.8,20.9-22.6,9.4-33.8
		c-1.8-1.8-4.1-3.1-6.4-4c-3-1.2-5.9-0.9-8.8-1.6c-6.2-1.6-4.6-7.9-3.4-12.7c0.9-3.6,1.9-7.2,2.2-10.9c0.4-5.4-0.9-11.5-5.6-14.7
		c-4.7-3.3-10.3-2.2-15.5-1.4c-4.2,0.7-8.3,1.1-11.5-2.4c-4-4.4-1.9-7.7,1.9-11.1c6-5.4,11.4-10.2,15.3-17.4
		c4-7.3,6.5-15.3,7.4-23.6c0.4-3.7,0.6-7.4-0.1-11.1c-0.6-3.2-2.5-7.3-2-10.6c0.5-3.2-3.7-4.4-4.8-1.3c-3,8.2-13.5,8-20.5,10.3
		c-6.3,2-10.3,6.2-13.8,11.6c-1.7,2.6-3.3,5.4-5.5,7.7c-3.4,3.5-7.6,4-12.3,4.4c-6.4,0.6-11.9,2.3-16.6,6.9
		c-9.8,9.7-10.3,24.6-5.1,36.8c3.1,7.2,8.3,12.6,12.6,19.1c4,6,7.5,16.5-0.2,21.3c-5,3.1-11,3.1-14,8.9c-2.6,5.2-2.5,12.1-0.4,17.4
		c2.5,6.3,7.3,11.2,12,16c3.4,3.5,16.6,17.4,7.9,21c-2.3,1-5,0.6-7.4,1.7c-2.3,1.1-4,2.9-5,5.3c-2,5.1-0.3,10.6,2.8,14.9
		c4.1,5.6,14.9,11.9,12.3,20.1c-1.8,5.5-8.9,7.8-12.2,12.3c-10.8,14.7,10.9,25.9,17.2,36.3c8.3,13.6,9.8,30.7,10.5,46.2
		c-3,7.4-4.3,15.4-3.7,23.6c0.2,3.2,5.2,3.2,5,0c-0.5-8,0.8-15.4,3.7-22.5c5.6-6.2,11.9-11.7,18.8-16.3c7.2-4.8,15.3-7.9,22.5-12.6
		c9.9-6.5,18.4-18.3,13.2-30.6C420.2,348.2,416,345.8,410.4,344.2z M408.3,379c-7.5,5.4-16.3,8.5-24,13.6c-2.7,1.8-5.3,3.7-7.8,5.7
		c3.9-6.4,7-12.8,7.3-20.8c0.7-23-17-42.7-11.9-66.1c2.4-10.9,7.6-21.1,11.3-31.6c3.7-10.4,7.2-21.3,8.6-32.3
		c1.2-9.3,0.5-18.6-3.8-27.1c-3.6-7.1-9.3-12.9-14.8-18.5c-6.4-6.5-13.5-13.3-16.7-22.1c-4-10.9-0.5-22.9,8.4-30.1
		c2.5-2-1.1-5.5-3.5-3.5c-14,11.3-14.4,30.8-4.5,44.9c9.8,13.8,26.6,23.5,29.9,41.2c2.2,12-1.5,24.5-5,35.8
		c-3.4,11.1-8.1,21.6-12,32.5c-3.8,10.6-5.2,21.1-2.7,32.2c2.5,11.2,7.8,21.6,10.3,32.8c1.5,6.8,2,14.1-0.3,20.8
		c-2,5.8-5.9,10.8-9.2,15.9c-0.2,0.3-0.4,0.6-0.5,0.9c-0.8-10.4-2.4-20.8-6.1-30.5c-2.2-5.8-5.2-11.3-9.4-16
		c-5.2-5.7-15.4-11.1-14.3-20.2c0.8-6.5,8.2-8.9,12-13.5c3.5-4.2,3.8-9.5,1.6-14.5c-3-6.6-9.7-10-13.2-16.2c-1.9-3.5-2.6-8.9,1.5-11
		c2.5-1.3,5.5-0.9,8.1-2c13.1-5.5-2-23.4-7.3-28.8c-5.5-5.6-12.2-12.1-12.1-20.5c0-3.4,0.8-7.5,3.6-9.6c2.7-2,6.3-2.4,9.2-3.9
		c12-6.4,7.6-21.7,1.2-30.5c-5-6.9-10.3-13-12.6-21.3c-2.2-7.8-1.6-16.4,3.1-23.2c2.5-3.6,6-6.5,10.2-7.8c3.8-1.1,7.8-0.8,11.7-1.6
		c7.1-1.4,11.1-6.4,14.8-12.2c2.2-3.4,4.4-7.2,8.1-9.3c4.1-2.4,9-2.8,13.5-4c3.9-1,7.4-2.6,10.2-5.2c0.6,2.5,1.4,5,1.6,7.5
		c0.7,8.7-1.9,18.2-5.6,26c-3.4,7.1-8.1,12.7-14.1,17.7c-3.7,3.1-8,6.7-7.7,12c0.2,5.2,5,10.2,9.9,11.6c5.5,1.6,10.9-1,16.4-0.9
		c18.2,0.3,0.9,28.3,7.1,37.4c3.4,4.9,10.9,2.6,15.8,5c10.4,4.9,5.8,15.2,0.2,22c-5.6,6.8-11.4,13.5-17.1,20.2
		c-4.3,5.1-9.8,10.5-10.7,17.5c-0.7,5,1.3,10.8,6.2,12.8c3.5,1.5,8,0.1,10.6,3.4c3.1,3.9,0.4,9.8-1.4,13.5
		c-3.5,7-7.6,13.7-10.7,20.9c-2,4.7-3.7,10.9-0.8,15.7c1.6,2.7,4.4,4,7.3,4.9c4.8,1.4,8.2,2.8,9.9,7.9
		C421.4,365.5,415.2,374.1,408.3,379z"/>
	<path id="XMLID_11_" fill="#009CD7" d="M1096.2,283.4c5.3-8,8.8-17.1,9.9-26.7c0.6-5.2-0.2-10.1-5.5-12.2c-2-0.8-3.9-0.9-5.8-0.6
		c5.9-8.7,9.5-19,9.7-29.5c0.1-5.5-1.3-10.9-6.8-13.1c-3.8-1.5-7.5-0.9-11,0.6c4.1-9.6,6.9-20.1,3.5-30.2c-1.4-4.2-4.3-7.9-9-8.3
		c-2.5-0.2-4.8,0.7-6.8,2c2.1-9.8,2.8-21-1.3-29.4c-2.4-5-8.7-8.2-13.5-6.6c0-2.8-0.3-5.5-1.4-8.5c-1.6-4.3-4-8.7-7.8-11.5
		c-3-2.2-6.8-2.7-10.3-1.4c-1.7,0.6-3.4,1.5-4.8,2.8c-1,0.9-2.3,3.5-3.3,3.3c-0.8-0.2-2.7-3.4-3.4-4.1c-1.5-1.6-3.2-3.1-5-4.3
		c-3.4-2.4-7.5-4-11.7-4.1c-6.1,0-12.2,3.1-14.8,8.6c-6.8-4.2-15-7.6-22.8-4.3c-5.8,2.4-10,8.2-9.3,14.3
		c-7.6,2.3-15.7,5.1-20.6,11.6c-4.1,5.4-5.6,12.6-2.7,18.7c-9,7.8-11.6,21.4-5.5,31.8c-10.4,11.8-8.3,29.7,4.6,38.8
		c-2.1,6.9-1.2,14.9,4.4,20c5.1,4.6,13,5.3,18.6,1.3c0.1-0.1,0.1-0.1,0.2-0.2c6.2,9.2,14.4,16.8,25.3,19.6c3.1,0.8,4.4-4,1.3-4.8
		c-17.7-4.7-27.5-23.5-33-39.5c-6.2-18-8.1-38-2-56.3c5.2-15.5,16.7-30.3,33-34.7c16.4-4.5,33.5,2.9,45.6,13.9
		c28.3,25.9,32.3,70.4,34.9,106.3c2.4,33.8,1.8,67.7,1.5,101.5c-0.3,30.3-0.4,60.5-1.5,90.8c-0.1,3.2,4.9,3.2,5,0
		c1-28.1,1.2-56.2,1.4-84.4c0.1-0.2,0.2-0.4,0.3-0.7c4.1-18.2,20-30,28.7-45.8c3.2-5.9,7.2-14.9,2.3-21
		C1103.8,283.2,1100,282.6,1096.2,283.4z M1102.5,299.9c-2.7,7-7.4,13.1-12,18.9c-5.3,6.8-11,13.4-15,21
		c0.4-34.8,0.7-69.6-2.4-104.3c-3.4-36.8-9.8-80.9-41.8-104.4c-12.9-9.4-29.8-14.5-45.4-9.6c-15.6,4.8-27.1,18.2-33.2,32.9
		c-8.6,20.5-6.8,44.1,0.4,64.7c2.1,6.1,4.9,12.4,8.3,18.3c0,0-0.1,0-0.1,0.1c-4.3,3.1-10.2,2.4-13.7-1.7c-3.8-4.4-3.4-10.5-1.4-15.6
		c0.4-1-0.3-2.3-1.1-2.8c-12.3-7.3-14.1-23.5-3.9-33.5c0.7-0.7,1-2.1,0.4-3c-6.1-8.9-4.3-21.7,4.7-28c1.1-0.7,1.7-2.2,0.9-3.4
		c-3.8-5.8-1.3-13,3.5-17.4c5-4.5,11.7-6.3,18-8.2c1.3-0.4,2.2-1.8,1.7-3.1c-2-6.3,4.2-11.6,10.1-11.7c6.2-0.1,11.8,3.3,16.8,6.6
		c1.3,0.8,3.4,0,3.7-1.5c1.6-8.1,11.3-9.6,17.7-6.3c3.5,1.8,6,4.6,8.5,7.5c1.3,1.5,2.3,3,4.4,3.5c6.1,1.4,6.9-8.7,14-6.9
		c4.5,1.1,7.4,7.6,8.5,11.5c1.2,3.9,0.6,7.3,0.4,11.3c-0.2,2.4,3.6,3.5,4.7,1.3c1.7-3.4,6-2.9,8.3-0.4c2.8,3,3.1,8.3,3.3,12.1
		c0.4,8.3-0.7,16.4-3.1,24.3c-0.7,2.3,2.5,4.3,4.2,2.4c2.7-3.2,8.6-9.6,12.6-4.2c2.3,3.1,2.5,8.1,2.4,11.7
		c-0.2,8.6-3.8,16.7-7.6,24.2c-1.1,2.1,1.2,4.9,3.4,3.4c4.3-2.8,11.4-7.3,15.5-2c3,3.9,1.4,11.1,0.4,15.5c-2.2,9.7-7.1,18.4-14,25.5
		c-1.9,2,0.6,5.6,3,3.9c3.9-2.6,13.3-7.9,14,0.7c0.4,3.9-1.1,8.5-2.2,12.2c-2.6,8.6-7.1,16.3-13.2,22.8c-1.8,2,0.6,5.6,3,3.9
		c2.8-2,6.6-4.7,10.3-4.3C1105.5,288.7,1104,296,1102.5,299.9z"/>
	<path id="XMLID_30_" fill="#009CD7" d="M1271.1,280.7c0.2-6.5-3.1-12.1-7-17.1c6.9-3,9.9-12,6-19c-5-8.9-14.8-10.5-24.1-9.5
		c1.3-2,2.3-4.2,2.4-6.7c0.1-4.2-2.1-8.1-6.2-9.3c-7.3-2.2-15.7-0.1-22.8,3.6c0.5-2.2,0.5-4.5-0.5-6.8c-1.9-4.3-5.9-5.6-10.4-4.6
		c-8.8,1.9-16.6,7.8-21.9,15.1c-0.3-3.7-0.9-7.2-5.3-9.2c-4.7-2.2-10-0.5-13.8,2.7c-8.2,7.2-12.5,19.1-14,30.5
		c-0.9-1.1-2-2.1-3.4-2.7c-4.6-2.3-9.8-0.5-13.1,3.2c-4.1,4.6-4.4,11.2-4.4,17.1c0,6.5,0.6,12.9,1.7,19.3c-4.7-2.3-9.7-2.1-13.6,3.2
		c-5.5,7.6-1.6,18.4,1.6,26.1c3.9,9.4,9.5,18.1,13.4,27.6c3.9,9.4,7.1,19.6,8.3,29.7c-1.1,21.5-1.4,43.2,0.1,64.6
		c0.2,3.2,5.2,3.2,5,0c-1.4-19.9-1-40-0.2-60c0-1.2,0.1-2.4,0.1-3.6c0-0.2,0.1-0.5,0-0.7c0.8-20,2.1-40.1,5.4-59.8
		c4-24.2,12.5-51.2,35.1-64.2c21.2-12.3,51.5-3.3,59.2,21.2c3.9,12.3,1,26.4-7,36.5c-7.5,9.4-24.2,17.9-34.3,7.2
		c-2.2-2.3-5.7,1.2-3.5,3.5c4.7,5,11.2,6.6,17.6,6.1c0,0.2,0.1,0.3,0.2,0.5c6.1,12.7,23.9,11.3,28.5-1.2c5.8,0.9,11.5-2.5,14.6-7.6
		c4.2-7.1,2.2-15.7-0.5-23.1C1268.5,290.6,1270.9,286,1271.1,280.7z M1260.4,289.8c-1.2,0.5-2.3,1.7-1.7,3.1
		c2.1,5.5,4.4,11.7,3,17.7c-1.4,5.6-6.8,10.2-12.7,8c-1.2-0.5-2.8,0.5-3.1,1.7c-2.1,10.1-14.3,11.9-19.4,3.6
		c2.7-0.7,5.4-1.8,7.8-3.1c10.3-5.7,17.4-16.9,19.9-28.3c5.4-25.1-12.1-48.6-37.2-52.5c-28.7-4.5-50.5,19.3-59.9,43.9
		c-8.6,22.7-10.6,47.7-12.2,71.7c-2.4-7.8-5.5-15.3-9.1-22.5c-3.7-7.4-8-14.6-10.7-22.4c-1.5-4.2-3-9.1-2.1-13.6
		c0.6-2.6,2.3-5.5,5.1-6.1c3.3-0.7,5.7,1.8,7.9,3.9c1.9,1.8,4.7,0,4.2-2.4c-2.2-9.7-3.7-20.4-2.5-30.4c0.5-4.3,3.4-11.6,9.2-9.9
		c4.1,1.2,5.1,6.9,5.9,10.5c0.6,2.8,5,2.1,4.9-0.7c-0.3-11.1,2.3-21.9,8-31.5c2.4-4.1,6.1-9.6,11.5-8.9c6.3,0.8,4,9.1,5.2,13.5
		c0.5,1.9,3.6,2.6,4.6,0.6c3-6.5,7.6-12,13.9-15.7c2.5-1.5,7.3-4.3,10.4-3.9c7.6,1.1,0.8,10.6-1,13c-1.8,2.4,1.9,4.7,3.9,3
		c5.6-4.6,12.5-7.6,19.8-8.2c3.7-0.3,9.4-0.7,9.3,4.8c-0.1,3.5-3.5,6.5-5.9,8.7c-1.8,1.8,0.1,4.8,2.4,4.2c7.4-1.9,16.3-3.3,22.7,2.1
		c5.4,4.5,6,15.8-3.1,16.2c-2.2,0.1-3.2,2.6-1.8,4.3C1263,269.9,1272.4,284.9,1260.4,289.8z"/>
	<g id="XMLID_26_">
		<g id="XMLID_22_">
			<path id="XMLID_111_" fill="#009CD7" d="M592.9,306.4c3.4,4.8,7.9,7.5,13.3,9.3c6.2,2.1,11.1,5.6,15.5,10.5
				c3.9,4.4,7.6,9.9,8.9,15.8c1.6,7.1-0.2,15-1.8,22c-2.7,11.9-10.7,24-5.7,36.5c2.2,5.6,7.1,9.2,10.2,14.2c4,6.4,5.5,13.8,4.9,21.3
				c-0.2,2.6,3.4,3.2,4.7,1.3c4.2-6.6,6.8-14.1,7.3-21.9c0.6-9.2-3.2-18-2.9-27.1c0.7-17.3,12.9-31.6,15.2-48.6
				c0.9-6.9,0.4-14-2.9-20.2c-3.5-6.6-9.7-10.4-16.3-13.6c-7.6-3.7-14.8-7.1-20.1-13.9c-5.1-6.6-8-14.9-7.8-23.2
				c0.3-17,12.2-37.2-2.6-51.6c-1.3-1.2-3.8-0.8-4.2,1.1c-1.8,9.6-5.1,18.3-9.2,27.2c-2.8,6.1-4.5,12.7-5,19.4
				c-0.2,3.5,0.3,6.7,0.8,10.1c0.8,5.2,0.7,8.6-1.9,13.2C589.9,294.3,589.2,299.8,592.9,306.4c1.6,2.8,5.9,0.3,4.3-2.5
				c-2.8-5-2.2-8.7,0.5-13.4c1.5-2.6,2.6-5,3-8c0.8-6.5-1.9-12.8-1.2-19.4c0.9-8,4-14.7,7.2-22c3-7,5.2-14.3,6.6-21.8
				c-1.4,0.4-2.8,0.7-4.2,1.1c13.1,12.7,1.4,32.9,1.1,48c-0.3,13.2,6.3,26.3,16.9,34.2c6,4.5,13.3,6.7,19.6,10.6
				c7.4,4.6,10.9,11.7,11,20.3c0.1,16.4-10.5,30-14.3,45.5c-2.2,9-0.6,16.9,0.9,25.8c1.8,10.5-0.2,20.7-6,29.7
				c1.6,0.4,3.1,0.8,4.7,1.3c0.5-6.2-0.4-12.4-2.7-18.2c-2.7-6.5-7.6-10.6-11.3-16.4c-4.6-7.3-2.3-15.5,0.3-23
				c2.2-6.4,4.2-12.6,5.4-19.3c2.3-12.7,0.7-23.2-7.3-33.5c-3.5-4.5-7.8-8.7-12.8-11.6c-6.1-3.5-13.2-3.8-17.5-10
				C595.3,301.3,591,303.8,592.9,306.4z"/>
		</g>
		<g id="XMLID_23_">
			<path id="XMLID_110_" fill="#009CD7" d="M671.9,379.2c-3.2-12.7,9.6-22.1,14.2-32.7c3.6-8.3,2.6-17.4,0.4-25.9
				c-2.5-9.8-6.6-19.5-6.3-29.7c0.4-12.2,8.9-21.7,16.7-30.2c-1.4-0.8-2.8-1.6-4.2-2.4c-2,12.5-3.9,25.4,0.8,37.5
				c4.4,11.3,10.7,20.5,9.2,33.2c-1.4,12.5-8.4,21.8-18.4,28.9c-8.2,5.9-17.1,12.8-16.6,24c0.1,3.2,5.1,3.2,5,0
				c-0.5-13.1,14.3-18.4,22.3-26.1c7.1-6.9,11.5-16.3,12.7-26.1c1.3-10.6-1.9-19.6-6.4-29c-3.1-6.4-5.3-12.5-5.7-19.6
				c-0.4-7.2,0.8-14.4,2-21.5c0.4-2.2-2.3-4.5-4.2-2.4c-7.5,8.3-15.5,17.3-17.6,28.6c-1.9,10.3,1.5,20.5,4.3,30.3
				c3.4,11.8,5.5,22.9-1.5,33.9c-6.1,9.5-14.6,18.5-11.5,30.7C667.9,383.6,672.7,382.3,671.9,379.2L671.9,379.2z"/>
		</g>
		<g id="XMLID_28_">
			<path id="XMLID_109_" fill="#009CD7" d="M752.1,294.7c2.1-5.5,6.9-9.2,10.4-13.8c3.6-4.9,5.8-11.1,7-17
				c2.6-12.5,0.4-25.3-3.2-37.3c-1.5,0.6-3,1.3-4.6,1.9c1.8,4.2,5.6,8.2,8.3,11.9c3.6,4.9,7.2,9.7,10.3,15c5.2,9,7.2,18,1.5,27.2
				c-3.8,6.2-9.2,11.3-12.7,17.7c-1.5,2.7-2.6,5.6-3.1,8.7c-0.7,4.7,0.7,9.3,0.6,14c-0.1,8.6-8.2,14.1-9.6,22.4
				c-1.4,8.1,4.6,13.7,10.9,17.5c4.3,2.6,9,4.7,11.7,9.1c3,4.8,3.5,10.7,2.5,16.2c-2.3,12.1-9.7,20.9-19.7,27.3
				c-7.8,5-15.2,10.6-16.3,20.4c1.6-0.4,3.1-0.8,4.7-1.3c-4.3-7.7,0.1-15.9,4.2-22.7c3.3-5.6,6.6-11.1,7.4-17.6
				c1.6-12.8-4.9-23-14.8-30.4c-5.7-4.3-12.1-8.2-15.3-14.9c-1.8-3.8-2.4-8.3,0.2-11.9c2-2.8,5.3-4.3,8.1-6.2
				c4.8-3.3,8.3-7.9,10.1-13.5C752.9,309.9,750,302.1,752.1,294.7c0.9-3.1-4-4.4-4.8-1.3c-2.3,8.2,1.3,17-2.4,24.9
				c-3.1,6.7-9.3,8.7-14.4,13.3c-10,9.2-2.5,23.2,6.1,30.2c5.8,4.8,12.9,8.5,17,15c4.2,6.5,5.1,14.7,2.5,21.9
				c-4.4,12.5-17.7,24.2-9.7,38.3c1.3,2.4,4.4,1,4.7-1.3c1.3-10.9,13.7-15.1,21.1-21.1c7-5.6,11.8-14.1,14.1-22.7
				c2.2-8,1.7-16.9-3.2-23.8c-5.2-7.4-19.3-9.5-21.1-18.9c-1.6-7.9,7.6-14.8,9.2-22.2c1-4.8-0.5-9.6-0.4-14.4
				c0-4.4,1.6-8.2,3.9-11.9c4-6.3,9.6-11.5,12.9-18.2c3.6-7.2,3.6-14.8,0.6-22.3c-2.9-7.3-7.6-13.7-12.2-20
				c-3.2-4.4-7.8-9.1-9.9-14.1c-1.1-2.6-5.4-0.7-4.6,1.9c3.6,12.3,5.8,25.4,2.4,38.1c-1.7,6-4.4,11.1-8.5,15.8
				c-3.2,3.6-6.2,7-8,11.6C746.1,296.3,750.9,297.6,752.1,294.7z"/>
		</g>
		<g id="XMLID_29_">
			<path id="XMLID_108_" fill="#009CD7" d="M723.1,301.4c-4.5-9.6-5.1-19.7-2.5-29.9c2.1-8.3,4.8-16,4.3-24.7
				c-1-16.1-9.6-30.9-9.4-47.1c0.2-16.8,12.9-29.1,19.1-43.7c6.9-16.1,4.5-33.8,0.2-50.3c-1.5,0.6-3,1.3-4.6,1.9
				c8.5,13.4,17.7,27.8,17.6,44.2c0,8.6-3.1,15.9-8.2,22.6c-4.1,5.4-8.7,10.5-11,17.1c-2,5.6-1.8,11.5,1.1,16.7
				c3.2,5.9,8.7,10.2,12.2,15.8c3.9,6.1,6.2,13.5,5.5,20.9c-0.8,7.9-5.6,13.8-10.9,19.3c-5.4,5.6-10.5,11.1-13.7,18.4
				c-3,7.1-4.1,14.7-3.4,22.4c1.6-0.4,3.1-0.8,4.7-1.3c-3.2-4.9-4.9-10.1-4.9-16c0-3.2-5-3.2-5,0c0,6.7,1.9,12.9,5.6,18.5
				c1.2,1.9,4.9,1.4,4.7-1.3c-0.8-8.2,0.5-16.3,4.5-23.6c3.6-6.6,9.3-11.4,14.2-17c8.9-10.1,11.6-22.5,6.7-35.2
				c-2.3-6-6-11-10.3-15.8c-5.9-6.6-9.6-13.2-5.7-22.1c3.2-7.1,9.2-12.4,13.2-18.9c3.6-5.9,5.4-12.7,5.6-19.6
				c0.4-17.7-9.1-33.2-18.3-47.6c-1.5-2.4-5.3-0.9-4.6,1.9c4.9,19,6,37.2-3.9,54.7c-7.8,13.7-16.9,26.1-15.4,42.7
				c1.5,16.4,10.6,31.9,9.1,48.7c-0.8,9-5,17.4-5.8,26.5c-0.7,8.4,1.1,16.7,4.7,24.3C720.1,306.8,724.4,304.3,723.1,301.4
				L723.1,301.4z"/>
		</g>
		<g id="XMLID_224_">
			<path id="XMLID_107_" fill="#009CD7" d="M674.4,213.9c-2.2-19.9-24.7-24.5-32.5-40.9c-9.2-19.3,3.6-41.6,2.6-61.7
				c-0.2-3.2-5-3.2-5,0c-0.1,15.4-21,20.2-25.9,33.8c-5.2,14.5,4.4,28.6,13.3,39.2c5.6,6.7,11.7,13.4,14.8,21.7
				c3.4,8.9,1.3,17.1-3,25.3c-6.2,12-14.8,25.9-6,38.9c7.4,10.8,22,14.6,27.8,26.7c1.4,2.9,5.6,0.4,4.3-2.5
				c-6.3-14.2-11-29.5-5.3-44.8c2.4-6.5,5.9-12.9,9.3-18.9C672.1,225.4,674.5,220.2,674.4,213.9c-0.1-3.2-5.1-3.2-5,0
				c0.2,8-5.1,14.4-8.5,21.2c-3.2,6.4-6.6,12.8-8,19.9c-2.9,14.7,1.9,28.6,7.8,41.9c1.4-0.8,2.9-1.7,4.3-2.5
				c-5-10.4-15.9-14.9-24-22.4c-14-13-2.3-28.1,4-41.8c6.3-13.9,3.1-26.9-5.8-38.8c-9-12.1-26.1-26.3-21.1-43.3
				c4.5-15.4,26.5-18.7,26.6-36.6c-1.7,0-3.3,0-5,0c1,19.8-9.9,39.5-3.9,59.2c2.6,8.5,8.4,14.5,15.2,19.9
				c7.7,6.2,17.4,12.7,18.6,23.5C669.7,217.1,674.7,217.1,674.4,213.9z"/>
		</g>
		<g id="XMLID_226_">
			<path id="XMLID_106_" fill="#009CD7" d="M578.6,173.4c2-9.6,2.6-19.7-2.6-28.4c-1.3-2.1-4.7-1.3-4.7,1.3
				c0.1,5.3,0.3,11.2-2.3,16.1c-2.5,4.7-7.1,7.9-10.7,11.7c-5.6,6.1-8.5,14.3-7.7,22.6c0.8,8.5,5.3,15.1,11.2,20.9
				c8.6,8.3,17.1,15.9,15.1,29.1c-0.4,2.6,3.2,4.7,4.6,1.9c5.3-10.7,9.4-23.1,3.7-34.4c-3-6-8.2-11-10.1-17.6
				C573,189.3,577,180.5,578.6,173.4c0.7-3.1-4.1-4.5-4.8-1.3c-1.4,6.4-4,13.1-4.3,19.7c-0.3,5.5,2.4,10.8,5.3,15.3
				c3.7,5.8,8.1,11.1,8.3,18.3c0.2,7.2-2.7,14.4-5.9,20.7c1.5,0.6,3,1.3,4.6,1.9c1.5-9.5-1.2-18.1-7.5-25.3
				c-6.7-7.6-16.1-13.1-18.3-23.8c-1-5-0.4-10.5,1.7-15.1c2.2-4.8,6.2-8.1,9.9-11.7c7.5-7.4,8.9-15.6,8.8-25.8
				c-1.6,0.4-3.1,0.8-4.7,1.3c4.5,7.6,3.8,16.3,2.1,24.6C573.1,175.2,578,176.5,578.6,173.4z"/>
		</g>
		<g id="XMLID_252_">
			<path id="XMLID_104_" fill="#009CD7" d="M577.4,301.7c1.3-11.3,1-23.4-6.2-32.8c-1.3-1.7-5-1.5-4.7,1.3
				c0.8,7.3,1.6,15.1-2.1,21.8c-3,5.4-8,9.5-11.8,14.4c-6.2,8.1-8.2,18.7-5.8,28.5c2.6,10.6,10.2,17.5,18.6,23.9
				c11,8.3,20.3,17,19.3,32c-0.2,3,3.9,3.1,4.9,0.7c5.6-13.9,8.7-29.6-0.6-42.6c-4.8-6.6-11.7-12.3-14.1-20.3
				c-1.3-4.5-0.2-9.3,0.5-13.8C576.1,310.5,576.8,306.1,577.4,301.7c0.4-3.2-4.6-3.2-5,0c-1,7.9-4,17.2-2.9,25.2
				c1,6.9,5.3,12.6,9.7,17.8c5.3,6.4,10.5,12.5,11,21.1c0.4,8.3-2.2,16.7-5.3,24.3c1.6,0.2,3.3,0.4,4.9,0.7
				c0.8-11.7-4.2-21.9-12.9-29.4c-8.8-7.6-20.3-13.2-24.4-24.9c-2-5.7-2.2-11.9-0.6-17.6c1.8-6.4,6-11.1,10.4-15.9
				c3.4-3.8,6.7-7.8,8.4-12.7c2.2-6.5,1.5-13.4,0.8-20.1c-1.6,0.4-3.1,0.8-4.7,1.3c6.7,8.8,6.8,19.7,5.6,30.3
				C572,304.9,577.1,304.9,577.4,301.7z"/>
		</g>
		<g id="XMLID_238_">
			<path id="XMLID_103_" fill="#009CD7" d="M782.9,325.4c-0.1,9.6,6.2,17.1,8.3,26.1c0.6,2.7,5.2,2.2,4.9-0.7
				c-1.8-16.3,16.9-23.9,27.1-32.9c9.6-8.5,17.1-19.8,18.1-32.8c1-13.9-7-23.4-15.8-33.1c-10.8-11.9-15.8-25.7-12.3-41.6
				c1.5-7,1.9-13.1-0.8-19.9c-2.7-6.7-7.7-13.5-6.5-21.1c0.5-2.8-2.9-4.3-4.6-1.9c-8,11.4-12.1,25.4-11.1,39.3
				c1.1,15.3,7.7,29.3,12.3,43.7c2.2,6.9,3.5,13.9,4.7,21.1c1.5,9,1.3,15.8-3.6,23.7c-3.7,6-9.1,9.3-13.7,14.4
				C786,314.2,783.5,319.6,782.9,325.4c-0.3,3.2,4.7,3.2,5,0c0.8-8,6.2-12.5,11.8-17.4c4.5-3.9,8.1-9,10.7-14.3
				c5.6-11.4,2-25.9-1-37.7c-3.7-14.4-10.5-27.9-13.2-42.6c-2.8-15.3,0.6-30.6,9.6-43.4c-1.5-0.6-3-1.3-4.6-1.9
				c-2.1,12.8,9.5,22.2,8.4,34.7c-0.6,7.5-3.3,14.1-2.5,21.8c0.6,6.3,2.6,12.5,5.6,18.1c6.5,12.1,20.6,20.2,23.3,34.2
				c3.1,15.8-6.9,30.1-18.6,39.6c-11.1,9-28,17.3-26.1,34.4c1.6-0.2,3.3-0.4,4.9-0.7c-2-8.5-8.3-15.9-8.1-24.8
				C787.9,322.2,782.9,322.2,782.9,325.4z"/>
		</g>
	</g>
	<path id="XMLID_128_" fill="#009CD7" d="M644.1,727.8c5.7-4.2,12.2-7.2,18-11.3c6.9-4.8,18.9-17.1,10.4-25.8
		c-8.5-8.8-21.7,3.7-27.2,9.9c-2,2.2-3.8,4.6-5.4,7c4.2-9.8,12.2-17.5,19.2-25.4c5.5-6.3,18.2-18.7,10.9-27.6
		c-7.4-9-20,0.4-24.8,7.2c-1.7,2.4-3.2,5-4.5,7.7c2.6-6.6,6.5-12.8,9.4-19c3.5-7.7,8.4-19.9-0.9-25.6c-4.3-2.7-8.5-1.9-11.7,0.5
		c0.6-2.1,1.1-4.2,1.6-6.4c1.2-6.2,2.9-18.8-5.9-20.3c-5.3-0.9-9,2.5-11.3,6.8c0.2-1.2,0.5-2.4,0.8-3.7c1.6-7.4,5.4-22-1.9-27.5
		c-2.1-1.6-3.9-2-5.5-1.7c0.7-1.4,1.3-2.8,1.9-4.1c1.9-4.6,7.2-18.2,1.8-22.2c-5.2-3.8-10.1,2.8-12.7,7.2c1.8-10.2,5-20.2,9.3-29.7
		c1.3-2.9-3-5.4-4.3-2.5c-6.4,13.9-10.3,28.7-11.6,43.7c-0.4-1.4-0.7-2.9-1.2-4.2c-1.9-5.8-7.4-14.6-14.8-13.1
		c-8,1.6-7.1,12.2-4.1,17.5c3.9,6.9,9.1,13.2,13.6,19.9c-4.6-2.5-10.1-3.4-14.3-0.3c-7,5.1-1.5,14.2,3.8,18
		c4.5,3.2,9.4,5.6,13.5,9.4c0.6,0.5,1.1,1.1,1.7,1.7c-4.7-2.2-9.8-2.9-14.3-0.2c-10.4,6.2-0.9,17.2,5.9,21.2
		c7.3,4.4,15.3,7.7,22,12.6c-1,0-2.1,0.2-3.2,0.5c-10.5,3-9.6,14.4-3.9,21.4c5,6,11.6,10.5,16.5,16c-1-0.5-2-0.9-3.2-1.2
		c-5.1-1.3-8.6,3.1-10.2,7.4c-2.2,5.7-0.9,11.7,1,17.3c2.8,8.2,5,16.3,6.1,24.4c-3.1-11-10.4-24.6-22.9-24.2
		c-6.4,0.2-10.2,6-12,11.5c-2.3,7.5-0.8,15.5,2,22.5c3.8,9.2,9.3,17.6,13.8,26.3c-6.1-7-15-12-23.9-9c-13.3,4.5-6.3,21.8-0.9,29.9
		c4,6,9,11.1,14,16.3c-8.4-3.9-20.8-1.5-24.3,7.9c-4.6,12.3,9.1,18.7,18.2,22.4c13.3,5.4,27.9,9.6,34.4,23.8
		c0.1,0.1,0.1,0.2,0.2,0.4c3,6.5,6.4,12.9,9.6,19.1c1.5,2.9,5.8,0.3,4.3-2.5c-3.3-6.3-6.7-12.8-9.8-19.4c0,0,0,0,0-0.1
		c-0.1-0.1-0.1-0.3-0.2-0.4c-1.1-2.3-2.2-4.7-3.2-7.1c-1.6-14.4,17.6-21.5,25.4-30.8c5.3-6.4,9.2-18.6-0.6-23.1
		c-1.9-0.9-3.8-1.3-5.6-1.3c1-0.9,2.1-1.7,3-2.6c5.9-5.3,21.8-21.2,10.7-28.9c-2-1.4-4.2-2.2-6.4-2.4c3-1.8,5.9-3.6,8.8-5.4
		c6.3-3.9,13.5-7.8,17.8-14c3.1-4.5,4.6-10.9-0.4-14.7c-5.4-4.1-12.6-1.6-17.9,1c-5.9,2.9-11.5,6.7-16.6,10.9
		C635.5,735.1,639.6,731.2,644.1,727.8z M632.3,709.6C632.4,709.6,632.4,709.6,632.3,709.6C632.4,709.6,632.4,709.6,632.3,709.6
		C632.3,709.6,632.3,709.6,632.3,709.6z M608.4,789c0,0,0.1-0.1,0.1-0.1c-0.1,0.3-0.2,0.6-0.3,0.8
		C608.2,789.5,608.3,789.3,608.4,789z M647.2,668c2.4-4.2,5.5-8.3,10-10.5c4-1.9,10.8-1.4,9.8,4.6c-0.5,2.7-2.3,5.2-3.8,7.3
		c-7,10.1-16.9,18.4-23.6,28.7C639.3,687.5,641.9,677.2,647.2,668z M640.6,629.1c3.4-1.9,7.6,0.1,8.7,3.7c0.7,2.3,0.1,4.7-0.5,6.9
		c-3.2,12-11.6,22.5-14.7,34.3c-0.3-1.1-0.6-2.2-1-3.3c-0.7-10.3,0-20.6,2.2-30.7C636.1,636.4,637,631.1,640.6,629.1z M625.3,609.7
		c1.3-3.5,7.3-10,9.4-2.7c2.1,7.7-2.2,17.7-4.5,24.9c-2.1,6.5-3.9,13-4.2,19.8c-0.6-1.3-1.1-2.7-1.7-4c-0.4-8.3-0.7-16.6-0.7-24.9
		C623.6,618.4,623.8,613.8,625.3,609.7z M619.4,590.5c-0.6,7.4-3.2,14.5-4,21.9c-0.5,4.4-0.5,8.8-0.5,13.2c-1.1-2.7-2.1-5.4-3.1-8.2
		c0-0.2,0-0.5-0.1-0.7c-2-8.8-2.3-17.9-0.6-26.7c0.5-2.6,1-8.4,2.9-10.3C620.2,573.7,619.7,587.7,619.4,590.5z M613,552.4
		c4.7-4.3,2.2,5.2,1.7,7.3c-2,8.5-7.6,16.1-10.2,24.5c-0.2-2.8-0.3-5.6-0.3-8.4c0.4-5.3,1.9-10.6,4.1-15.5
		C609.5,557.7,611,554.3,613,552.4z M583.9,562.7c-1.9-3.5-2.5-12.7,4-8.9c5.2,3,6.4,10,7.3,15.3c0.8,4.4,1.5,8.8,2.3,13.2
		c-2.4-3.7-4.9-7.3-7.4-10.9C588,568.5,585.6,565.7,583.9,562.7z M581.6,594.7c-1.6-2.8,0.5-6.8,3.8-6.7c2.3,0,4.5,0.9,6.4,2
		c3.4,2,5.8,5,7.6,8.4c2.7,5.2,4.6,11.1,6.1,16.9c-2.2-3-4.8-5.8-7.7-8.3C593,603,584.7,600.3,581.6,594.7z M584.2,620.3
		c2.4-6.5,11.7-2,15.5,0.5c2.3,1.6,4.4,3.4,6.4,5.4c0.2,0.3,0.4,0.6,0.7,0.7c1.3,1.4,2.5,2.9,3.6,4.4c3.3,4.7,5.8,9.8,7.8,15.1
		c-3.2-2.9-6.7-5.5-10.4-7.6C602.6,635.8,581.1,628.7,584.2,620.3z M606,655.2c4.2-5.5,10.5-1.4,13.9,2.7c3.6,4.3,6.2,9.6,7.8,15
		c1.6,5.5,2.2,11.2,2.2,16.9c-1.6-3.6-3.9-7-6.8-9.9C618.2,674.9,599.6,663.7,606,655.2z M613,691.2c4.2-6.7,11.2,5,12.5,8.8
		c1.6,4.7,2,9.7,2.1,14.6c0.1,7.4-0.9,14.6-2.8,21.7c-1.5,3.7-3,7.3-4.6,10.9c0.4-7.2-0.1-14.4-1.5-21.6c-1.2-6-3.1-11.6-5.2-17.3
		C611.6,702.9,609.7,696.5,613,691.2z M584.6,736.7c-1.8-6.4-2.4-16.8,3.7-21.3c6.5-4.8,14.6,4.3,17.5,9.4c3.3,5.9,5,12.9,5.7,19.6
		c1.2,12.6-2,24.8-5.9,36.7c-2.4-8.4-6.5-16.2-10.9-23.9C591,750.7,586.8,744.1,584.6,736.7z M572.6,784.3
		c-2.7-4.8-7.3-15.5-0.2-18.8c6.2-2.9,13.6,1.6,18,5.8c4,3.9,6.7,8.9,8.2,14.2c1.5,5.3,1.9,10.8,1.9,16.4c-0.6,4.3-0.7,8.6-0.6,12.8
		c0,0.6-0.1,1.1-0.1,1.7c-4.8-6.4-10.7-12-16.2-17.8C579.5,794.2,575.6,789.6,572.6,784.3z M599.3,840.1c-9.8-5.3-22.3-6.8-31-14
		c-5.5-4.6-4.9-12,1.8-15c5.5-2.5,11.5-1.2,16.1,2.5c8.3,6.8,13.4,16.5,18.2,25.8c0.5,1.7,1.1,3.5,1.7,5.2
		C604,842.9,601.7,841.4,599.3,840.1z M639.3,809.7c-3.3,12.7-19.9,17.9-27.2,28.1c-1-8.4,0.7-16.8,4.9-24.3
		c2.4-4.2,5.5-8.6,9.7-11.1C632.8,799,641.5,801.4,639.3,809.7z M645.3,771.1c0.4,1.5-1.3,4.4-2,5.8c-7.7,14.4-27.4,22.6-36,36.7
		c2-10.4,4-21,9.3-30.3c3.2-5.6,7.4-10.8,13.1-14c3.1-1.7,6.6-2.7,10.2-2.2C642,767.3,644.7,768.7,645.3,771.1z M655.2,731.2
		c4.9-1.5,11.1-0.4,9,6c-2,6-10.1,10.1-15.2,13.2c-6.3,3.9-12.5,7.8-18.8,11.7c-5.6,3.5-11.4,7.1-16.4,11.6c0.1-0.2,0.2-0.5,0.3-0.7
		c1-2.3,1.9-4.6,2.9-6.9c3.5-6.9,8.1-13.2,13.7-18.7c4.5-4.4,9.5-8.2,14.8-11.4C648.6,734.2,651.8,732.2,655.2,731.2z M632.7,731.3
		c3.3-7.2,6.8-14.3,11.3-20.8c3.2-4.6,6.9-8.8,11.2-12.4c2.1-1.7,4.3-3.4,6.8-4.3c4.1-1.5,8.6-0.2,8.1,4.9
		c-1.1,11.3-16.7,17.1-24.9,22.4C640.6,724,636.4,727.5,632.7,731.3z"/>
	<path id="XMLID_150_" fill="#009CD7" d="M827.1,814.5c-3.5-9.3-15.9-11.8-24.3-7.9c4.8-5,9.6-9.9,13.5-15.6
		c5.5-8,13.2-25.9-0.5-30.6c-8.9-3-17.8,2-23.9,8.9c4.5-8.7,10-17.1,13.8-26.3c2.9-7.1,4.4-15.1,2-22.5c-1.7-5.5-5.6-11.3-12-11.5
		c-12.6-0.4-19.9,13.5-23,24.5c1-8,3.1-15.9,5.9-23.9c2-5.7,3.5-11.9,1.4-17.8c-1.6-4.4-5.2-9-10.4-7.7c-1.1,0.3-2.2,0.7-3.2,1.2
		c4.9-5.5,11.4-10,16.5-16c5.8-6.9,6.7-18.3-3.9-21.4c-1.1-0.3-2.2-0.5-3.2-0.5c6.5-4.8,14.2-8,21.3-12.2c6.9-4,17.4-15.2,6.6-21.7
		c-4.6-2.7-9.6-2-14.4,0.2c0.4-0.4,0.8-0.8,1.2-1.2c4.1-3.9,8.9-6.3,13.5-9.5c5.4-3.8,11.6-13,4.4-18.4c-4.2-3.1-9.7-2.2-14.4,0.3
		c4.3-6.4,9.2-12.5,13.2-19.1c3.2-5.3,4.8-16.5-3.7-18.2c-7.1-1.5-12.6,6.9-14.6,12.5c-0.5,1.6-1,3.1-1.4,4.8
		c-1.3-15-5.2-29.7-11.6-43.6c-1.3-2.9-5.7-0.4-4.3,2.5c4.4,9.5,7.5,19.5,9.4,29.8c-2.6-4.6-7.5-11-12.7-7.3
		c-5.4,3.9-0.2,17.3,1.7,21.9c0.6,1.5,1.3,3,2.1,4.4c-1.5-0.3-3.4,0.1-5.5,1.7c-7.2,5.3-3.6,19.4-2.1,26.6c0.3,1.6,0.7,3.1,1,4.6
		c-2.2-4.3-5.9-7.8-11.3-6.8c-8.6,1.5-7.2,13.5-6.1,19.6c0.4,2.4,1.1,4.8,1.7,7.1c-3.2-2.4-7.3-3.2-11.7-0.5
		c-9,5.4-4.6,17.3-1.2,24.8c3,6.6,7.2,13.3,9.9,20.2c-1.2-2.6-2.7-5.2-4.3-7.6c-4.8-7-17.7-17.1-25.2-7.8c-7.1,8.7,5,20.8,10.4,27
		c7.1,8.1,15.4,16,19.7,26c-1.5-2.2-3.2-4.3-4.9-6.4c-5.5-6.3-19-19.5-27.7-10.5c-8.2,8.5,2.9,20.5,9.7,25.3
		c6,4.3,12.8,7.4,18.7,11.8c4.6,3.3,8.6,7.3,12.1,11.7c-5.1-4.3-10.7-8-16.6-10.9c-5.4-2.7-12.5-5.1-17.9-1
		c-5,3.8-3.6,10.2-0.4,14.7c4.4,6.2,11.5,10.1,17.8,14c2.9,1.8,5.9,3.6,8.8,5.4c-2.2,0.3-4.3,1-6.4,2.5
		c-11.1,7.7,4.7,23.5,10.7,28.9c1,0.9,2,1.7,3,2.6c-1.8,0-3.7,0.4-5.6,1.3c-9.9,4.4-5.9,16.7-0.6,23.1c7.7,9.3,26.6,16.3,25.4,30.4
		c-3.8,9.4-8.5,18.5-13.2,27.5c-1.5,2.8,2.8,5.4,4.3,2.5c3.6-6.8,7.2-13.8,10.6-21c6.8-13,20.8-17.2,33.6-22.4
		C818,833.3,831.7,826.8,827.1,814.5z M755,709.6C755,709.6,755,709.7,755,709.6C754.9,709.7,754.9,709.6,755,709.6
		C754.9,709.6,754.9,709.6,755,709.6z M778.9,789c0,0.1,0,0.1,0.1,0.2C778.9,789.1,778.9,789,778.9,789
		C778.8,788.9,778.9,789,778.9,789z M796.4,771.9c4.1-4.3,12.4-9.8,18.5-6.4c6.5,3.6,2.8,12.9,0.1,18c-2.8,5.3-6.7,10-10.8,14.3
		c-5.7,6.1-11.7,11.8-16.8,18.4c0-0.1,0-0.2,0-0.3c0.1-2.9,0.1-5.8-0.1-8.7c-0.1-1.8-0.3-3.7-0.6-5.5c0-5.4,0.4-10.7,1.7-15.7
		C789.9,780.9,792.5,775.9,796.4,771.9z M775.7,745.3c0.6-7,2.3-14.3,5.7-20.5c2.9-5.2,11-14.2,17.5-9.4c6.1,4.5,5.5,14.9,3.7,21.3
		c-2,7.1-6,13.5-9.7,19.8c-4.5,7.9-8.8,16-11.3,24.7C777.9,769.6,774.8,757.6,775.7,745.3z M774.3,691.2c3.3,5.3,1.5,11.7-0.5,17.1
		c-1.9,5.4-3.8,10.8-5,16.4c-1.5,7.5-2.1,15-1.7,22.5c-0.4-1-0.9-2-1.3-3c-1.1-2.6-2.2-5.2-3.3-7.9c-1.9-6.8-2.9-13.8-2.8-20.9
		c0-5.2,0.4-10.5,2.1-15.5C763.1,696.3,770.1,684.5,774.3,691.2z M781.3,655.2c6.4,8.4-11.6,19.2-16.5,24.1
		c-3.2,3.1-5.7,6.7-7.4,10.5c0.1-5.4,0.6-10.8,2-16.1c1.5-5.3,3.8-10.3,7.1-14.7C769.9,654.7,776.5,649.1,781.3,655.2z M803.1,620.3
		c2.7,8.6-17.4,15-22.8,18.1c-3.9,2.2-7.7,4.9-11.1,8c2-5,4.3-9.9,7.4-14.4c1.2-1.8,2.6-3.5,4-5c0.2-0.2,0.5-0.4,0.6-0.7
		c1.8-1.8,3.7-3.5,5.7-5C790.5,618.8,800.8,613.3,803.1,620.3z M805.7,594.7c-3.1,5.6-11.4,8.3-16.2,12.3c-2.9,2.4-5.5,5.2-7.7,8.2
		c1.5-5.8,3.4-11.7,6.1-16.9c1.7-3.2,3.9-6.1,7-8.1C798.3,588.1,810.5,586,805.7,594.7z M799.5,553.8c6.3-3.4,6,5.2,4,8.9
		c-1.6,2.9-3.8,5.4-5.7,8c-2.7,3.7-5.3,7.6-7.8,11.5c0.7-4.1,1.4-8.2,2.1-12.2C792.9,564.5,794,556.7,799.5,553.8z M773.9,551.9
		c2,1.4,3.7,5.5,4.8,7.7c2.6,5.4,4.3,11.4,4.5,17.4c0,2.4-0.2,4.9-0.3,7.3c-2.6-8.4-8.2-16-10.3-24.6c-0.5-2-0.8-3.9-1-6
		C771.3,551.5,771.3,550.1,773.9,551.9z M767.7,585.1c0-1.4,0.2-2.8,0.5-4.2c0.2-2.4,1.2-3,3-1.8c2.8,0.7,2.8,3.1,3.6,5.7
		c0.5,1.7,0.9,3.4,1.2,5.2c1.8,8.9,1.4,17.9-0.6,26.7c-0.1,0.2-0.1,0.5-0.1,0.7c-1,2.8-2,5.5-3.1,8.2c0-4.4,0-8.8-0.5-13.2
		c-0.8-7.4-3.3-14.5-4-21.9C767.7,588.7,767.7,586.9,767.7,585.1z M752.6,607c2-7.2,8.1-0.9,9.4,2.7c1.5,4.2,1.6,8.7,1.6,13.1
		c0,8.3-0.3,16.7-0.7,25c-0.6,1.3-1.1,2.6-1.7,4c-0.2-6.8-2.1-13.3-4.2-19.9C754.8,624.6,750.5,614.7,752.6,607z M738.1,632.8
		c1.1-3.6,5.3-5.6,8.7-3.7c3.6,2,4.5,7.3,5.3,10.9c2.2,10.1,2.9,20.4,2.2,30.7c-0.3,1.1-0.7,2.2-1,3.3
		c-3.1-11.8-11.5-22.2-14.7-34.2C738,637.5,737.4,635.1,738.1,632.8z M724.3,669.4c-1.3-1.9-2.8-4-3.6-6.2c-1.9-5.6,3.7-7.9,8.3-6.2
		c4.9,1.7,8.3,6.1,10.9,10.4c5.5,9.3,8.2,19.9,8.1,30.7C741.2,687.8,731.3,679.4,724.3,669.4z M742.9,721.6
		c-8.3-5.5-24.5-11.3-25.6-22.9c-0.4-4.2,3.1-6.4,7-5.3c3,0.8,5.6,2.8,7.9,4.7c4.1,3.4,7.6,7.4,10.7,11.7c4.7,6.7,8.3,14,11.7,21.4
		C751.1,727.6,747.2,724.4,742.9,721.6z M723.1,737.2c-2.6-6.6,4.4-7.4,9-6c3.1,1,6.1,2.8,9,4.4c5.4,3.2,10.4,6.9,15,11.3
		c5.7,5.4,10.4,11.7,14,18.6c1.2,2.7,2.4,5.4,3.5,8.2c-4.8-4.3-10.4-7.8-15.7-11.2c-6.2-3.9-12.4-7.7-18.7-11.6
		C733.6,747.5,725.6,743.6,723.1,737.2z M744,776.8c-2-3.7-3.4-8.1,2.2-9.7c3.8-1.1,8.1,0.3,11.4,2.1c5.7,3.1,9.9,8.4,13.1,14
		c5.3,9.3,7.3,19.9,9.3,30.3C771.5,799.5,751.8,791.1,744,776.8z M748,809.7c-2-7.7,5.8-10.8,11.9-7.6c4.3,2.2,7.6,6.7,10,10.8
		c4.5,7.6,6.3,16.3,5.3,25C767.8,827.6,751.3,822.3,748,809.7z M819,826.1c-8.6,7-20.6,8.6-30.3,13.6c-2.5,1.3-5,2.9-7.3,4.7
		c0.7-2,1.4-4,2-6c4.6-8.8,9.5-17.8,17.2-24.4c4.4-3.8,10-5.5,15.7-3.5C823.4,813.3,825,821.3,819,826.1z"/>
	<path id="XMLID_57_" fill="#009CD7" d="M1072.4,772.7c-4.8,7.4-9.7,15-15.7,21.5c-5.5,6-12.3,10.3-18.5,15.5
		c-7.9,6.7-13.9,15.2-17.4,24.7c-0.7-3.4-1.6-6.8-2.7-10.2c-0.4-1.3-0.8-2.5-1.3-3.7c-0.1-0.3-0.1-0.5-0.3-0.8
		c-0.3-0.8-0.6-1.5-0.9-2.2c0-0.1-0.1-0.2-0.1-0.3c-3-7.3-6.9-14.1-11.1-20.9c-1.2-1.9-2.4-3.9-3.5-5.9
		c-2.9-12.4,9.3-16.4,18.6-19.9c7.8-2.9,15.2-6.9,21.6-12.3c12.8-10.9,20-27.8,14.8-44.3c-0.6-1.9-3.6-2.6-4.6-0.6
		c-7.4,14.8-19.2,26.6-33.7,34.7c-6.8,3.8-14.1,7.5-19.4,12.8c2.2-4.2,5.2-7.9,8.3-11.5c0.4-0.2,0.8-0.6,1-1.1c0-0.1,0-0.1,0.1-0.2
		c2.1-2.5,4.3-4.9,6.3-7.4c6.2-7.9,10.5-17,12.1-27c0.3-1.7,0.4-3.4,0.5-5.1c0-0.1,0.1-0.1,0.1-0.2c2.4-8,5.5-15.3,11.8-21
		c4.9-4.4,10.7-7.8,15.2-12.7c10-10.7,8.1-24.8,5.2-38c-0.5-2.3-4.5-2.5-4.8,0c-2,13.6-16.2,19.9-24.3,29.5
		c-4.2,5-6.8,10.4-8.1,16.3c-2.7-7.3-6.1-14.5-8.8-22.1c0-0.1-0.1-0.2-0.1-0.4c-0.1-0.2-0.2-0.5-0.3-0.7c-0.5-1.4-1-2.9-1.4-4.4
		c-1.9-6.3-2.7-12.5-2.1-19.1c0.6-6.7,2.2-13.2,2-19.9c-0.1-4.6-0.8-9-2-13.4c0-0.1,0-0.2,0-0.3c-1.8-8.7-1.5-17.2,1.8-25.5
		c2.9-7.2,8.2-13.4,10.2-20.9c4-14.6-4-29.3-12.1-40.9c-1.6-2.3-5.1-0.9-4.6,1.9c1.5,7.4,1.3,15-0.8,22.3c-2,6.8-6,12.3-9,18.6
		c-4.7,10.3-5.2,18.7,0.9,28.4c6.6,9.1,10.6,19.9,10.5,31.2c-0.1,7.5-1.7,14.7-2,22c-3.3-4.2-7.6-7.7-12.5-10.1
		c-11.3-5.5-23.9-8.6-27.9-22.2c-0.6-2.1-3.4-2.4-4.6-0.6c-7.6,12-0.4,25.3,9.8,32.9c6.1,4.5,13.1,7.4,20.1,10.2
		c6.4,2.5,15.4,4,18.6,10.7c5.6,16,15.3,30.6,14,48.3c-0.7,9.3-4.1,17.8-9.3,25.4c-0.2-8.2-4.6-15.4-12.4-20.4
		c-7.1-4.5-15-7.4-21.2-13.2c-5.7-5.3-9.5-11.9-11.2-19.5c-0.5-2.4-4.2-2.3-4.8,0c-3.6,14.4-4.5,28.3,8.1,38.4
		c6,4.9,13.2,7.8,20.1,11.1c5.5,2.5,16,6.7,12.4,14.9c-4.1,4.8-8.1,9.8-10.7,15.6c-2.5,5.5-2.9,10.8-2,15.9c0,0.2,0,0.4,0,0.6
		c0,0.7,0.2,1.2,0.5,1.6c1,4.4,3,8.7,5.2,12.8c0,0,0,0,0,0c0.1,0.5,0.4,0.9,0.6,1.1c3.2,5.8,7,11.4,10.1,17c-9.5-4.6-21-3.9-31-8.1
		c-13.5-5.6-23.2-17.4-29-30.5c-1-2.2-3.9-1.2-4.6,0.6c-6,16.5,5,33.6,17.7,43.6c7.1,5.6,15.1,8.3,24.1,8c4.8-0.2,9.4-1.2,14.1-2
		c3.5-0.6,10.9-2,14.1,0.6c7.2,20,7.7,42,1.2,62.4c-1,3.1,3.8,4.4,4.8,1.3c2.8-8.9,4.4-18.1,4.7-27.3c0-0.1,0.1-0.2,0.1-0.4
		c1.5-12.2,9.7-17.9,19.9-23.3c8.2-4.4,15.8-9.4,21.8-16.7c10.5-12.6,15.3-28.9,12.3-45.2C1076.5,771,1073.4,771,1072.4,772.7z
		 M1038.9,663.7c5.9-5.2,12.7-10.4,16.6-17.2c0.7,4.8,1,9.6-0.1,14.3c-1.7,7.2-6.8,11.8-12.5,16.2c-4.6,3.5-9.3,6.9-12.9,11.5
		c-1.7,2.2-3.2,4.7-4.4,7.2C1024.6,682.6,1029,672.5,1038.9,663.7z M996,568.3c1.5-6.8,5.4-12.3,8.5-18.3c3.8-7.4,5.6-15.5,5.6-23.6
		c2.4,4.3,4.5,8.7,5.7,13.5c2.1,8.3,0.7,15.6-3.5,23c-3.5,6.2-7,12.2-8.6,19.2c-0.5,2.2-0.8,4.4-1,6.5c-1-1.6-2-3.2-3.1-4.8
		C996.5,578.8,994.7,574.2,996,568.3z M984.5,642.6c-10.8-4.7-27-15.2-23.6-28.4c3.9,7.3,10.7,12.1,18.6,15.5
		c5.6,2.4,11.8,4.4,16.5,8.5c3.6,3.2,6.5,7.5,8.3,12.1C998.3,646.9,990.7,645.3,984.5,642.6z M1028.3,747c9.7-6.8,17.9-15.4,24-25.5
		c1.9,17.4-10.8,32.5-26,40.4c-7.8,4.1-17.3,5.5-24.2,11c-2.7,2.1-4.6,4.9-5.6,7.9c-0.4-1.3-0.8-2.7-1.1-4
		C996.7,760.1,1016.6,755.3,1028.3,747z M988.1,723.9c-7.2-3.4-15.2-7.1-19.9-13.9c-4-5.8-4-12.5-2.9-19.1
		c4.1,8.6,11,15.5,19.4,20.3c6,3.5,13.4,6.1,18.1,11.5c3.6,4.1,4.7,8.9,4.2,13.8C1003.4,730.4,994.3,726.8,988.1,723.9z
		 M1000.1,816.4c-10.2,1.3-20,4.5-30,0c-12.8-5.8-25.3-21.1-24.5-35.9c5.5,9.8,13.3,18.4,23.3,23.9c6.7,3.7,13.7,5.2,21.2,6.3
		c5.9,0.9,11.9,2.1,16.9,5.4C1004.5,815.9,1002.1,816.1,1000.1,816.4z M1053.8,822.1c-7.6,6.4-17.3,9.6-25.1,15.6
		c-2.2,1.7-4,3.7-5.5,5.8c3.2-14.3,11.7-25.4,23.4-34.3c6.2-4.7,12-9.5,16.9-15.5c3.3-4,6.4-8.3,9.3-12.7
		C1073.4,796.8,1065.9,812,1053.8,822.1z"/>
	<path id="XMLID_66_" fill="#009CD7" d="M1260.2,781.1c-0.2-2.9-3.9-3.3-4.9-0.7c-5.6,14-16.5,25.6-30.2,31.8
		c-6.1,2.8-12.9,4.3-19.3,6.6c9.3-12.8,14.4-29.9,4.9-43.4c1.1-13.7,17.6-21.2,26.7-29.1c8.5-7.4,13.3-18.1,10.7-29.3
		c-0.6-2.4-4.3-2.4-4.8,0c-1.9,8.4-12.9,12.6-19.7,16.3c-5.8,3.1-11.5,6.4-15.4,11.8c-4.6,6.3-6.5,14.2-5.5,21.8
		c-2.4-2.2-4.9-4.4-7.1-6.8c-0.1-0.2-0.3-0.5-0.6-0.6c-1.3-1.5-2.5-3.2-3.6-4.9c-5.9-10.2-0.3-20.8,1.3-31.3c0.2-1.5,0.4-3,0.5-4.5
		c0.1-0.3,0.2-0.5,0.2-0.8c0.5-7.3,2.8-14.4,6.8-20.6c4.1-6.2,9.7-10.1,15.5-14.6c4.6-3.5,8.5-7.4,10.6-12.9
		c2.5-6.4,2.6-13.4,2.6-20.1c0-2.9-4-3.2-4.9-0.7c-2.7,7.6-8.2,10.8-14.9,14.5c-4.9,2.6-9,6.3-12.2,10.8c-3.7,5.2-6.2,11.3-7.5,17.6
		c-0.1-0.2-0.1-0.4-0.2-0.6c-4-10.2-11.9-18.9-14.3-29.7c-4.6-20.2,16-35.1,22.1-52.7c3.2-6.1,8.9-9.1,13.9-13.5
		c5.8-5.1,9.6-12.1,10.5-19.8c0.9-8.2-1.3-16.4-5.1-23.6c-2.2-4.2-5.1-8.2-6.6-12.8c-1.8-5.7-1.1-11.7-0.3-17.4
		c0.4-2.8-2.9-4.4-4.6-1.9c-9.5,13.4-10.5,28.3-7.3,44c1.6,8,3.4,16.2,1.5,24.4c-1.5,6.5-4.7,12.7-6.8,19
		c-2.1,6.3-5.7,11.9-9.6,17.5c0.1-7-3.2-13.6-9.4-18.7c-11.9-9.8-26.3-17.2-27.3-34.5c-0.1-2.4-3.3-3.4-4.7-1.3
		c-7.5,12.2-3.5,25.9,5.6,36c5.3,5.9,12.1,9.6,18.1,14.7c7.1,6,7.5,13.3,6.8,22c-1.1,2.8-2,5.7-2.4,8.8c-1.3,9.7,2.6,18.4,7.3,26.6
		c1.8,3.2,3.5,6.3,5.1,9.5c-4.1-4.2-9.1-7.3-14.9-10c-12-5.5-22.6-11.1-25.8-25c-0.6-2.6-4-2.1-4.8,0c-5.8,14.5,2.7,29.6,15,37.4
		c7.1,4.5,14.9,6.4,22.9,8.5c4.5,1.2,8.1,2.4,10.7,6.5c1.8,2.8,3.3,6.1,3.5,9.5c-0.1,5-0.8,9.9-2.1,14.8c-1.4,5.2-2.9,10.5-2.6,16
		c0.1,0.9,0.2,1.7,0.3,2.5c-5-3.7-10.9-6.2-16.8-8.8c-11.7-5.1-21.3-11.9-24.5-24.9c-0.6-2.3-4.4-2.5-4.8,0
		c-2.4,14,2.2,28.3,13.3,37.4c5,4.1,11,7,17.3,8.2c7.8,1.4,16.4-0.7,23.5,3.5c0.4,0.4,0.8,0.9,1.2,1.3c4,4.1,9.1,7.9,12.7,12.5
		c0.1,0.3,0.3,0.5,0.5,0.7c1.7,2.2,3,4.7,3.7,7.4c2.8,10.4-1.6,21.5-7.7,29.8c-2.3,3.1-4.8,6.1-7.4,8.9c-2.2,1.5-4.3,3.4-6,5.7
		c0.7-10.6-2.9-21.1-13.2-26.4c-7.4-3.8-15-6-21.5-11.4c-6.5-5.4-11.6-12.3-14.8-20.1c-0.9-2.2-4.1-2.6-4.8,0
		c-4.5,15.1,1.4,31.5,15.1,39.6c7.3,4.3,17.1,3.6,23.9,8.5c6.1,4.4,7.9,13.6,6.3,20.6c-1,1.2-2,2.5-2.9,3.8
		c-7.4,10.3-12.4,22-15.1,34.4c-0.7,3.1,4.1,4.5,4.8,1.3c2.6-11.7,7.3-22.7,14.1-32.5c1-1.5,2.1-2.9,3.2-4.2
		c0.1-0.1,0.1-0.1,0.2-0.2c2-2.4,4-4.7,6.1-7c9-5.2,19-2.2,29.3-0.6c8.6,1.3,16.8,0.3,24-4.7C1259.6,819.5,1261.8,799,1260.2,781.1z
		 M1200.4,546.1c0.3-4.8,1.3-9.5,3.1-13.9c0.1,4,0.8,8,2.6,12c4.1,9.1,10.1,16.6,10.3,27c0.2,9.1-4.2,16.8-11.3,22.3
		c-1.2,0.9-2.4,1.9-3.6,2.8c0.8-2.1,1.5-4.1,2-6.2c1.6-6,1.3-12.3,0.4-18.4C1202.6,563.2,1199.9,554.8,1200.4,546.1z M1161.1,611.8
		c-10.3-7.4-21.1-18.8-18.7-31.5c2.7,8.2,8.3,15,15.5,20.5c5.4,4.1,11.9,7.7,16.3,13c4,4.9,4.3,11.2,2.3,16.9
		c-0.3-1.8-0.8-3.6-1.6-5.3C1172.2,619.4,1166.2,615.5,1161.1,611.8z M1204.6,672.8c4.4-4.3,10.3-6,15.1-9.7
		c1.5-1.1,2.7-2.4,3.9-3.7c-0.4,4.5-1.5,9-4.1,12.7c-4,5.7-10.5,8.8-15.6,13.3c-4.5,3.9-8,8.7-10.6,13.9
		C1194,689.5,1197.6,679.6,1204.6,672.8z M1167.5,691.8c-13.6-4-28.5-14.8-28.3-29.4c3.5,6.7,9.1,11.9,16.1,15.5
		c10.1,5.2,20.3,8.7,26.5,18C1177.5,693.8,1172.1,693.2,1167.5,691.8z M1159,751.1c-9.2-5.2-15.1-14.4-16.6-24.5
		c3.5,5.6,8.5,10.1,14.6,13.3c9.5,5.1,21.1,7.8,28.4,16.1c-2.2-0.3-4.5-0.4-6.8-0.4C1171.6,755.5,1165.2,754.6,1159,751.1z
		 M1218.6,741.9c7.3-4.9,18.7-8.5,25.1-15.6c-2.2,18.1-28.4,24.8-36.1,41.2C1205.9,757.9,1210.2,747.5,1218.6,741.9z M1168.4,812.3
		c-9.1-2.6-17.3-4-23.8-11.6c-4.9-5.8-7-13.1-6.5-20.4c5.4,9.4,13.3,17.2,23.2,22.1c6.9,3.5,15.4,5,19.7,12.1
		c2.3,3.8,3.2,8.2,3.1,12.7C1181.7,820.2,1176.3,814.6,1168.4,812.3z M1234.3,830c-9.2,3-18.8-0.8-28-1.8c-3-0.3-5.9-0.3-8.7,0.2
		c0.2-0.2,0.3-0.3,0.5-0.5c4.5-3.1,9.9-4.9,15.2-6.4c7.3-2.2,14.3-4.4,20.8-8.4c8.9-5.5,16.2-13.1,21.4-22
		C1255.4,807,1250.8,824.5,1234.3,830z"/>
	<path id="XMLID_521_" fill="#009CD7" d="M459.3,556c4.6,0,6,7.9,0.8,10c-10.5,4.3-7.2,21.5-6.1,29.7c1.7,11.8,1.5,23-6,32.8
		c-3,4-6.7,7.3-10.6,10.3c3.9,0.1,7.7,0.4,11.6,0.4c1.8,0,3.5-0.1,5.3-0.2c7.4-0.7,15.7-3.8,18.7-11.2c3.4-8.5,0.7-18.5,3.4-27.3
		c0.7-2.4,2.7-3.5,4.7-3.5c3,0,6.1,2.4,4.9,6.2c-2.9,9.5-0.1,19.8-4.1,29.1c-3.1,7.2-9.5,12-16.8,14.6c-5,1.8-9.9,2.2-15,2.2
		c-4.1,0-8.3-0.3-12.4-0.3c-0.3,0-0.6,0-0.8,0c-5.2,0-12.3,0.5-17.2,3.3c-5.9,4.9-10.9,10.7-13.4,18.8c-7,23,3.5,46.8,4.9,69.9
		c0.3,4.9,0.1,10.1-0.6,15.3c0,0.1,0,0.3,0,0.4c0,0.6-0.1,1.2-0.3,1.7c-2.4,13.3-8.8,26.1-21.1,32.3c-5.4,2.7-11.2,3.6-17,3.6
		c-4.7,0-9.4-0.5-14-1.1c-3.7-0.4-7.6-0.9-11.3-0.9c-6,0-11.9,1.1-16.8,5.3c-9,7.6-13.1,19.1-19.3,29c-1.7,3.9-4.5,7.1-7.8,9.8
		c-1.1,1-2.2,1.9-3.4,2.8c-4.5,3.3-9.4,5.2-14.6,6.2c-0.5,0.1-1,0.3-1.4,0.4c-0.5,0.1-1,0.2-1.4,0.2c-0.4,0-0.7,0-1.1-0.1
		c-1.1,0.1-2.1,0.1-3.2,0.1c-12.4,0-25.2-5.1-35-12c-9.7-6.8-17.8-15.8-23.7-26c-0.6-0.4-1.1-1-1.5-1.8c-4.2-8.2-7.9-17.9-13.8-25.1
		c-5-6-12.4-9.2-19.2-12.6c-13-6.3-27.7-16.2-26.9-32.5c0.2-3.2,2.7-4.8,5.3-4.8c2.5,0,4.9,1.6,4.7,4.8c-0.8,16,19,21.9,30.2,28.1
		c3.8,2.1,7.3,4.5,10.4,7.4c-0.7-9.2-0.6-18.7-1.8-27.7c-0.3-0.6-0.5-1.2-0.6-1.9c-0.2-1.7-0.4-3.4-0.6-5c-0.9-4.2-2.3-8.3-4.3-12.2
		c-5.6-11-17.8-17.3-26.8-25.6c-0.5-0.2-1.1-0.5-1.6-0.9c-2.3-1.9-7.1-1.1-9.9-1.5c-3.1-0.4-6-1.5-8.6-3
		c-5.3-3.1-10.2-8.1-13.2-13.5c-3.6-6.6-3.2-13.7-2.8-20.9c0.4-7.6-1-14.5-6.1-20.4c-3.2-3.7,0.1-8.7,3.8-8.7c1.1,0,2.3,0.5,3.3,1.6
		c4.5,5.2,7.7,11.2,8.8,18c1.1,7.2-1.2,14.7,0.4,21.7c1.5,6.5,8.5,13.6,15,15c0.7,0.2,1.4,0.3,2.1,0.4c-1.4-3.3-2.1-7.1-1.9-11.5
		c0.2-3.2,2.7-4.8,5.2-4.8c2.5,0,4.9,1.6,4.8,4.8c-0.6,13.5,12.7,20.7,22,27.8c3.2,2.5,6.1,5.1,8.6,8.1c0-1.4-0.1-2.8-0.2-4.2
		c-0.2-5.2-0.5-10.5-0.6-15.8c-0.1-11.8,1.7-23.9,0.1-35.6c-1.4-10.8-11.9-10.7-19-16.6c-3.8-3.2-5.6-7.4-6.2-12.3
		c-0.7-6.3-0.7-11.2-4.1-16.9c-5.5-9.1-11.9-18.9-5.9-29.5c1-1.7,2.5-2.4,4-2.4c3.4,0,6.8,3.6,4.7,7.5c-3,5.3,0.8,11.3,3.7,15.9
		c2.9,4.6,5.8,9.2,6.8,14.6c0.8,4.5-0.5,10.7,2.4,14.5c2.4,3.1,7.2,4.4,10.6,6c8.9,4.4,12.5,11.5,13.2,21.1
		c4.7-5.8,10.6-10.8,16.5-15.6c4.5-3.7,11-8,13.3-13.6c2.4-6.1,0.2-13.8,0.8-20.2c0.3-3.2,3-4.8,5.5-4.8c2.5,0,4.8,1.6,4.5,4.8
		c-0.6,6.8,0.8,13.7-0.6,20.5c-1.2,5.9-5.1,10.3-9.4,14.3c-9,8.2-20.3,15-26.4,25.9c-3.1,5.6-4.3,11.8-4.6,18.2c0,1.9,0,3.8,0,5.7
		c0,0.3,0,0.7-0.1,1c0.1,4.5,0.4,9.1,0.6,13.4c0.4,10.4,0.6,20.9,1.8,31.3c3.2,19.3,0.5,39.4,8.7,57.8c7.8,17.5,23,32.7,41.7,38.1
		c3.7,1.1,7.7,1.7,11.6,1.7c1.9,0,3.8-0.1,5.6-0.5c5.2-1.6,10.4-3.9,14.4-7.7c0.8-0.8,1.5-1.7,2.2-2.6c3.8-5.4,2.2-10.9,2-17.4
		c-0.2-8-0.8-15.8-2.6-23.6c-1.7-7.1-3.8-14.1-4.1-21.4c0-0.6,0-1.3,0-1.9c-0.3-3.7-0.3-7.5,0-11.2c-0.2-2.1-0.7-4.1-1.6-5.9
		c-2.8-5.3-9.3-5.7-14.7-6.2c-11.1-1-21.3-3.7-25.6-15.1c-3.5-9.3-0.8-22.1-7.5-30c-3.2-3.7,0.2-8.7,3.8-8.7c1.1,0,2.3,0.5,3.3,1.7
		c4.6,5.4,6.3,11.7,7.2,18.6c0.8,5.9,0.6,13.6,4.6,18.5c4,4.9,11.3,4.6,17,5.2c6.2,0.7,12.7,1.9,17.3,6.5c0.1,0.1,0.2,0.2,0.3,0.3
		c1.6-3.2,3.5-6.2,5.7-9.2c3.8-5.2,9.1-10.9,9.2-17.7c0.2-7.6-4.8-14.5-4.8-22.2c0.1-11,7.4-19.3,13.5-27.9c0.2-7-3.1-15.9-9.8-18.5
		c-4.9-1.9-10.5-1.1-15.5-2.8c-4-1.4-7.2-3.9-9.6-7.3c-5.8-8.1-5-18.2-5-27.6c0-5.9-1.4-10.6-3.7-16c-2-4.8-3.1-9.1-2-14.3
		c0.5-2.5,2.4-3.6,4.3-3.6c2.9,0,6.1,2.5,5.3,6.3c-1.1,5.2,3.2,10.7,4.6,15.5c1.5,5.1,1.5,10.5,1.4,15.8
		c-0.1,8.8-0.2,20.3,10.5,22.5c4.9,1,10,0.7,14.6,2.8c3.4,1.6,6.1,4.1,8.4,7.1c1.3,1.7,2.4,3.6,3.4,5.6c2.4-12-1.4-25.7-4.2-37.2
		c-0.9-3.8,2.2-6.2,5.2-6.2c2,0,3.9,1.1,4.5,3.6c2.2,8.8,3.8,17.7,4.7,26.8c0.8,7.8,0.8,15.4-2.4,22.7c-1.3,3-3.3,5.9-5.4,8.7
		c-0.2,0.4-0.5,0.7-0.7,1c-5.2,6.9-11.1,13.7-11.9,21.9c-0.7,7.5,4.2,14.4,4.7,21.8c0.4,6.8-2.4,13-6.2,18.5
		c-4.2,6.1-9.4,11.6-11.5,18.8c-0.7,2.4-1.1,4.8-1.3,7.3c0,0.5,0.1,1,0.1,1.5c0.3,8,0.2,15.2,2.2,23.1c2.2,8.6,3.9,17.1,4.4,25.9
		c0.1,1.3,0.1,2.6,0.1,3.9c3.3-5.7,7-11.2,12.1-15.3c6.6-5.4,14.6-7.5,22.9-7.5c1.2,0,2.4,0,3.5,0.1c6.9,0.5,14.2,2.1,21.3,2.1
		c3.1,0,6.1-0.3,9.1-1.1c8.8-2.5,14.6-10.4,17.7-18.6c1-2.8,1.8-5.6,2.3-8.5c0.2-10.2-2.4-24.4-12-29.8c-5.4-3.1-12.1-3.2-17.7-6
		c-5-2.6-9.2-6.9-11.8-11.8c-6.7-12.5-1.2-24.7,2-37.2c3.7-14.5-3.8-28.2-3.2-42.8c0.1-3.2,2.7-4.8,5.2-4.8c2.5,0,4.9,1.6,4.8,4.8
		c-0.2,5.1,0.5,10.1,1.4,15c1.1-1.4,2.3-2.7,3.5-3.9c7.3-7,16.7-9,25.2-13.8c3.9-2.2,8.3-5.8,8.8-10.5c0.4-4.6-3.3-9.5-4.8-13.8
		c-3.5-10-3.7-20.8-1.4-31.1c0.6-2.5,2.4-3.6,4.4-3.6c3,0,6.1,2.5,5.2,6.2c-2.6,11.4-0.5,21.7,4.2,32.3c3.6,8.2,2.6,16.2-3.5,22.9
		c-6.6,7.3-16.3,9.2-24.6,13.7c-8.3,4.5-14.4,12.4-14.1,22.1c0,0.7-0.1,1.3-0.3,1.9c-0.1,1.8-0.3,3.7-0.7,5.5
		c-2.6,12.2-10.8,26-0.2,36.7c4.7,4.7,11,5.1,16.9,7.1c4.1,1.4,7.5,3.4,10.5,6.2c-1.6-8.2-3.3-16.4-4.1-24.4
		c-1.8-18.3,1.7-36.2,14.7-49.1c0.1-0.1,0.2-0.2,0.3-0.4c0.9-1.1,2-2,3.2-2.8c0,0,0,0,0.1,0c12.4-10.2,31.8-18,32.3-36.5
		c0.3-11-3.7-21.5-1.8-32.6c1.5-8.5,6-15.7,14.1-19.1C458.1,556.1,458.8,556,459.3,556 M459.3,551C459.3,551,459.3,551,459.3,551
		C459.3,551,459.3,551,459.3,551c-1.2,0-2.5,0.3-3.7,0.8c-9.2,3.8-15.3,11.9-17.1,22.9c-1.2,7.1-0.3,13.9,0.6,20.3
		c0.6,4.5,1.2,8.7,1.1,13c-0.3,11.6-10.2,18.4-20.7,25.6c-3.3,2.3-6.7,4.6-9.7,7.1c-1.5,1.1-2.9,2.3-4,3.5c-0.1,0.1-0.2,0.2-0.3,0.3
		c-12.5,12.6-18,30.9-15.9,52.9c0.4,4.5,1.2,9.1,2,13.6c-0.6-0.2-1.2-0.5-1.8-0.7c-1.7-0.6-3.4-1-5.1-1.5c-4-1-7.4-2-9.9-4.4
		c-2.8-2.8-3.9-5.8-3.8-9.9c0.1-4.1,1.5-8.9,2.9-13.4c0.9-2.9,1.8-5.9,2.4-8.8c0.4-1.8,0.6-3.7,0.8-5.7c0.2-0.9,0.4-1.9,0.3-2.9
		c-0.1-3.3,0.8-11.8,11.5-17.6c2.5-1.4,5.1-2.5,8-3.7c6.3-2.6,12.7-5.3,17.9-11.1c7.3-8.1,8.8-18.1,4.3-28.3
		c-4.8-10.8-6-19.8-3.8-29.1c0.7-3.1,0-6-1.8-8.4c-2-2.5-5.1-3.9-8.3-3.9c-4.6,0-8.2,2.9-9.3,7.5c-2.7,11.7-2.1,23.4,1.5,33.8
		c0.6,1.7,1.4,3.3,2.1,4.8c1.2,2.4,2.5,5.1,2.4,6.8c-0.2,2.1-2.5,4.5-6.2,6.6c-2.8,1.5-5.6,2.8-8.7,4.1c-4.7,2.1-9.6,4.2-14.1,7.5
		c-0.1-1.4-0.1-2.9-0.1-4.3c0.1-2.7-0.8-5.2-2.6-7.1c-1.8-1.9-4.4-3-7.2-3c-5.6,0-10,4.1-10.2,9.6c-0.3,6.7,1,13.1,2.2,19.2
		c1.6,7.8,3,15.2,1.2,22.5c-0.5,1.9-1.1,3.9-1.6,5.9c-3.1,10.6-6.5,22.7,0,35c3.2,5.9,8.1,10.8,13.9,13.9c3.2,1.7,6.5,2.5,9.7,3.3
		c2.9,0.7,5.6,1.4,7.9,2.7c7.2,4.1,9.6,15.9,9.5,25c-0.5,2.5-1.1,5-2,7.3c-1.4,3.9-5.6,13.1-14.3,15.6c-2.3,0.6-4.8,1-7.7,1
		c-3.8,0-7.7-0.5-11.9-1.1c-3-0.4-6-0.8-9.1-1c-1.3-0.1-2.6-0.1-3.9-0.1c-10.4,0-19.1,2.9-26.1,8.6c-1.9,1.5-3.5,3.2-5.1,5
		c-0.9-6-2.2-11.7-3.5-16.7c-1.6-6.4-1.8-12.4-2-19.3c0-0.9-0.1-1.8-0.1-2.7c0-0.4,0-0.9-0.1-1.3c0.2-2.2,0.6-4.1,1.1-6
		c1.3-4.5,4.3-8.5,7.4-12.7c1.1-1.5,2.3-3.1,3.4-4.7c5.2-7.5,7.4-14.6,7-21.6c-0.2-4-1.4-7.5-2.6-11c-1.2-3.6-2.4-7-2.1-10.1
		c0.6-5.8,4.7-11.2,9.1-16.9c0.6-0.8,1.1-1.5,1.7-2.2c0.4-0.4,0.7-0.9,1-1.4c1.9-2.5,4.2-5.9,5.8-9.5c3.9-8.8,3.6-17.7,2.8-25.2
		c-1-9.1-2.6-18.4-4.9-27.5c-1.1-4.5-4.8-7.4-9.3-7.4c-3.2,0-6.3,1.5-8.3,4c-1.9,2.4-2.5,5.4-1.7,8.4l0.5,2c1.6,6.4,3.3,13.2,4,19.9
		c-1.6-1.3-3.3-2.4-5.1-3.2c-3.8-1.7-7.7-2.2-11.1-2.6c-1.6-0.2-3.1-0.4-4.6-0.6c-5.7-1.1-6.6-6.5-6.5-17.5c0.1-5,0.1-11.2-1.6-17.2
		c-0.6-2-1.5-3.9-2.3-5.7c-1.3-2.7-2.6-5.5-2.2-7.4c0.6-3.1,0-6-1.9-8.4c-2-2.4-5.1-3.9-8.3-3.9c-4.6,0-8.3,3-9.2,7.6
		c-1.5,7,0.3,12.7,2.3,17.3c2.3,5.4,3.2,9.4,3.3,14.1c0,1.1,0,2.1,0,3.2c0,8.8-0.1,18.8,6,27.3c3.1,4.3,7.1,7.4,12,9.1
		c3,1.1,6.1,1.3,8.8,1.6c2.4,0.2,4.7,0.4,6.6,1.2c3.9,1.5,6.3,7.3,6.6,12.3c-0.5,0.7-1,1.4-1.5,2.1c-5.5,7.6-11.8,16.2-11.9,27.4
		c0,4.7,1.4,8.9,2.7,12.7c1.1,3.3,2.2,6.5,2.1,9.4c-0.1,4.2-3.3,8.4-6.5,12.5c-0.6,0.8-1.2,1.6-1.8,2.3c-1.2,1.6-2.2,3.1-3.2,4.6
		c-4.8-2.8-10.3-3.7-15.6-4.3c-1-0.1-2-0.2-2.9-0.3c-4.3-0.3-8.8-0.7-10.7-3.1c-2.2-2.7-2.6-7.5-3.1-12c-0.1-1.3-0.3-2.7-0.4-4
		c-0.9-6.7-2.6-14.5-8.3-21.2c-1.9-2.2-4.4-3.4-7.1-3.4c-3.8,0-7.4,2.5-9.1,6.1c-1.7,3.7-1.1,7.8,1.5,10.9c3,3.5,3.5,9.1,4.1,14.9
		c0.4,4.5,0.9,9.2,2.5,13.6c5.4,14.2,18.1,17.2,29.8,18.3l0.7,0.1c5,0.4,8.6,0.9,9.9,3.4c0.5,1,0.9,2.2,1,3.7
		c-0.3,3.5-0.3,7.2,0,11.2c0,0.8,0,1.4,0,2c0.3,6.4,1.8,12.4,3.2,18.3c0.3,1.4,0.7,2.7,1,4.1c1.9,8.1,2.3,15.9,2.5,22.5
		c0,1.5,0.1,3,0.3,4.4c0.4,4.7,0.5,7.3-1.3,9.9c-0.6,0.7-1.2,1.4-1.8,2c-2.7,2.6-6.5,4.7-12,6.4c-1.4,0.2-2.9,0.3-4.4,0.3
		c-3.3,0-6.7-0.5-10.2-1.5c-16.3-4.7-30.7-17.9-38.5-35.3c-5-11.1-5.7-23-6.4-35.6c-0.4-6.8-0.8-13.8-1.9-20.8
		c-1-8.8-1.3-17.9-1.6-26.7c0-1.4-0.1-2.7-0.1-4.1c-0.1-1.9-0.2-3.8-0.3-5.7c-0.1-2.4-0.3-4.9-0.3-7.3c0-0.5,0.1-0.9,0.1-1.4
		c0-1.5,0-3.2,0-5.4c0.3-6.6,1.6-11.7,3.9-15.9c3.9-6.9,10.3-12.1,17.1-17.6c2.8-2.2,5.7-4.6,8.3-7c4.2-3.9,9.3-9.3,10.9-17
		c0.9-4.5,0.8-8.8,0.6-13c-0.1-2.8-0.2-5.5,0-8c0.3-2.7-0.6-5.3-2.3-7.2c-1.8-1.9-4.4-3.1-7.2-3.1c-5.5,0-9.9,3.9-10.4,9.3
		c-0.3,2.8-0.1,5.6,0.1,8.4c0.3,3.9,0.5,7.6-0.6,10.4c-1.3,3.3-5.5,6.6-9.1,9.4c-1,0.8-1.9,1.5-2.8,2.2c-3.3,2.8-6.9,5.7-10.4,9
		c-2.5-6.8-7.1-11.8-13.9-15.1c-1-0.5-2.1-1-3.2-1.4c-2.2-0.9-4.7-2-5.7-3.2c-0.9-1.2-1-4.1-1.1-6.7c0-1.9-0.1-3.8-0.4-5.7
		c-1.1-6.3-4.3-11.4-7.4-16.2l-0.1-0.2l-0.1-0.1c-2.7-4.3-4.9-8.1-3.5-10.6c1.8-3.2,1.8-6.7,0-9.7c-1.8-3.2-5.4-5.2-9-5.2
		c-3.5,0-6.5,1.8-8.3,5c-7.1,12.7-0.2,24.2,5.3,33.4l0.7,1.1c2.3,3.8,2.6,7.3,3.1,12c0.1,1,0.2,1.9,0.3,2.9
		c0.7,6.5,3.4,11.8,7.9,15.5c2.8,2.4,6,3.9,8.8,5.2c5.3,2.5,7.8,3.9,8.4,8.2c0.9,6.9,0.6,14,0.2,21.5c-0.2,4.4-0.4,8.9-0.4,13.5
		c0,2.7,0.1,5.3,0.2,8c0,0,0,0,0,0c-1.4-1.1-3-2.2-4.5-3.3c-9.7-6.9-16-12.1-15.6-20.3c0.1-2.7-0.8-5.2-2.5-7.1
		c-1.8-1.9-4.4-3-7.2-3c-5.6,0-10,4.1-10.2,9.6c0,1-0.1,2.1,0,3.1c-2.5-2.3-4.6-5.2-5.3-7.9c-0.7-3-0.5-6.5-0.2-10.1
		c0.2-3.6,0.5-7.3-0.1-11.2c-1.2-7.4-4.5-14.4-9.9-20.6c-1.9-2.1-4.4-3.3-7.1-3.3c-3.8,0-7.5,2.5-9.2,6.2c-1.7,3.7-1.1,7.7,1.6,10.8
		c3.8,4.3,5.3,9.5,4.9,16.8l0,0.4c-0.4,7.6-0.8,15.5,3.4,23.1c3.4,6.1,9,11.8,15.1,15.4c3.2,1.9,6.7,3.1,10.4,3.6
		c1.2,0.2,2.4,0.2,3.6,0.2c1.2,0,3.3,0.1,4,0.4c0.6,0.5,1.2,0.9,1.9,1.2c2.8,2.5,5.8,4.8,8.7,7c6.7,5.1,13,10,16.4,16.5
		c1.6,3.2,2.9,6.7,3.8,10.8c0.2,1.8,0.4,3.4,0.6,4.9c0.1,0.9,0.4,1.8,0.7,2.7c0.6,5.2,0.9,10.6,1.1,15.9c-0.8-0.5-1.6-0.9-2.4-1.4
		c-2.2-1.2-4.5-2.3-7-3.5c-12.3-5.9-21-10.9-20.6-19.9c0.1-2.7-0.8-5.2-2.5-7.1c-1.8-1.9-4.4-3-7.2-3c-5.6,0-10,4.1-10.2,9.6
		c-1.1,22.2,22,33.5,29.6,37.3c0.6,0.3,1.2,0.6,1.8,0.9c5.8,2.8,11.9,5.8,15.7,10.4c3.9,4.7,6.9,11,9.8,17.1
		c1.1,2.4,2.3,4.8,3.5,7.1c0.5,1.1,1.2,2,2,2.7c6.3,10.6,14.8,19.8,24.7,26.8c11.7,8.2,25.5,12.9,37.8,12.9c1,0,2,0,2.9-0.1
		c0.5,0.1,0.9,0.1,1.4,0.1c0.9,0,1.9-0.1,2.8-0.4c0.4-0.1,0.8-0.2,1.3-0.4c6.1-1.1,11.6-3.5,16.4-7c1.3-0.9,2.5-1.9,3.7-3.1
		c4-3.3,7-7,8.9-11.2c1.8-3,3.5-6,5.1-9c3.8-7.1,7.4-13.7,13-18.5c3.3-2.8,7.5-4.1,13.5-4.1c3.6,0,7.4,0.5,10.7,0.9
		c4.2,0.5,9.5,1.1,14.6,1.1c7.4,0,13.7-1.3,19.2-4.1c12.2-6.1,20.6-18.7,23.7-35.5c0.3-0.9,0.5-1.9,0.5-2.8c0-0.1,0-0.1,0-0.2
		c0.7-5.3,1-10.6,0.6-16c-0.5-8.1-2.1-16.3-3.6-24.3c-3-15.3-5.7-29.8-1.5-43.9c1.8-5.9,5.3-10.9,11.4-16.1
		c2.2-1.2,6.5-2.5,14.3-2.5c0.3,0,0.5,0,0.8,0c1.9,0,3.8,0.1,5.6,0.2c2.2,0.1,4.6,0.2,6.9,0.2c4.5,0,10.5-0.3,16.6-2.5
		c9.5-3.4,16.3-9.3,19.7-17.3c2.6-5.9,2.8-11.9,2.9-17.6c0.1-4.3,0.3-8.3,1.4-12c0.9-3.1,0.4-6.1-1.4-8.5c-1.9-2.6-5-4.1-8.4-4.1
		c-4.5,0-8.2,2.8-9.5,7c-1.5,4.8-1.6,9.6-1.7,14.3c-0.1,4.6-0.2,8.9-1.6,12.6c-2.5,6.4-11.7,7.8-14.5,8.1c-1.2,0.1-2.5,0.2-3.9,0.2
		c0.8-0.9,1.5-1.7,2.2-2.6c9-11.8,8.6-25.1,7-36.5c-0.1-0.5-0.2-1.1-0.2-1.6c-1-7.1-3-20.2,3.3-22.7c4.7-1.9,7.2-6.8,6.2-11.8
		C467.3,554.2,463.7,551,459.3,551L459.3,551L459.3,551z"/>
</g>
<g id="XMLID_36_">
	<path id="XMLID_506_" fill="#009CD7" d="M170,279.5c3.2,0,3.2-5,0-5C166.8,274.5,166.8,279.5,170,279.5L170,279.5z"/>
</g>
<g id="XMLID_37_">
	<path id="XMLID_517_" fill="#009CD7" d="M156,312.5c3.2,0,3.2-5,0-5C152.8,307.5,152.8,312.5,156,312.5L156,312.5z"/>
</g>
<g id="XMLID_38_">
	<path id="XMLID_525_" fill="#009CD7" d="M112,294.5c3.2,0,3.2-5,0-5C108.8,289.5,108.8,294.5,112,294.5L112,294.5z"/>
</g>
<g id="XMLID_39_">
	<path id="XMLID_533_" fill="#009CD7" d="M281.5,361c0,0.3,0,0.7,0,1c0,1.3,1.1,2.6,2.5,2.5c1.4-0.1,2.5-1.1,2.5-2.5
		c0-0.3,0-0.7,0-1c0-1.3-1.1-2.6-2.5-2.5C282.6,358.6,281.5,359.6,281.5,361L281.5,361z"/>
</g>
<g id="XMLID_40_">
	<path id="XMLID_541_" fill="#009CD7" d="M281,414.5c3.2,0,3.2-5,0-5C277.8,409.5,277.8,414.5,281,414.5L281,414.5z"/>
</g>
<g id="XMLID_41_">
	<path id="XMLID_549_" fill="#009CD7" d="M342,406.5c3.2,0,3.2-5,0-5C338.8,401.5,338.8,406.5,342,406.5L342,406.5z"/>
</g>
<g id="XMLID_486_">
	<path id="XMLID_557_" fill="#009CD7" d="M454,298.5c3.2,0,3.2-5,0-5C450.8,293.5,450.8,298.5,454,298.5L454,298.5z"/>
</g>
<g id="XMLID_499_">
	<path id="XMLID_564_" fill="#009CD7" d="M696,191.5c3.2,0,3.2-5,0-5C692.8,186.5,692.8,191.5,696,191.5L696,191.5z"/>
</g>
<g id="XMLID_531_">
	<path id="XMLID_607_" fill="#009CD7" d="M538,241.5c3.2,0,3.2-5,0-5C534.8,236.5,534.8,241.5,538,241.5L538,241.5z"/>
</g>
<g id="XMLID_540_">
	<path id="XMLID_606_" fill="#009CD7" d="M820,387.5c3.2,0,3.2-5,0-5C816.8,382.5,816.8,387.5,820,387.5L820,387.5z"/>
</g>
<g id="XMLID_556_">
	<path id="XMLID_604_" fill="#009CD7" d="M872,344.5c3.2,0,3.2-5,0-5C868.8,339.5,868.8,344.5,872,344.5L872,344.5z"/>
</g>
<g id="XMLID_563_">
	<path id="XMLID_603_" fill="#009CD7" d="M718,395.5c3.2,0,3.2-5,0-5C714.8,390.5,714.8,395.5,718,395.5L718,395.5z"/>
</g>
<g id="XMLID_570_">
	<path id="XMLID_602_" fill="#009CD7" d="M731,420.5c3.2,0,3.2-5,0-5C727.8,415.5,727.8,420.5,731,420.5L731,420.5z"/>
</g>
<g id="XMLID_577_">
	<path id="XMLID_601_" fill="#009CD7" d="M687,408.5c3.2,0,3.2-5,0-5C683.8,403.5,683.8,408.5,687,408.5L687,408.5z"/>
</g>
<g id="XMLID_652_">
	<path id="XMLID_600_" fill="#009CD7" d="M1051,296.5c0.3,0,0.7,0,1,0c1.3,0,2.6-1.1,2.5-2.5c-0.1-1.4-1.1-2.5-2.5-2.5
		c-0.3,0-0.7,0-1,0c-1.3,0-2.6,1.1-2.5,2.5C1048.6,295.4,1049.6,296.5,1051,296.5L1051,296.5z"/>
</g>
<g id="XMLID_660_">
	<path id="XMLID_599_" fill="#009CD7" d="M1044.8,254.8c0.3-0.3,0.7-0.7,1-1c0.9-0.9,1-2.6,0-3.5c-1-0.9-2.5-1-3.5,0
		c-0.3,0.3-0.7,0.7-1,1c-0.9,0.9-1,2.6,0,3.5C1042.2,255.7,1043.8,255.8,1044.8,254.8L1044.8,254.8z"/>
</g>
<g id="XMLID_667_">
	<path id="XMLID_598_" fill="#009CD7" d="M991,232.5c3.2,0,3.2-5,0-5C987.8,227.5,987.8,232.5,991,232.5L991,232.5z"/>
</g>
<g id="XMLID_674_">
	<path id="XMLID_597_" fill="#009CD7" d="M1166,212.5c3.2,0,3.2-5,0-5C1162.8,207.5,1162.8,212.5,1166,212.5L1166,212.5z"/>
</g>
<g id="XMLID_681_">
	<path id="XMLID_596_" fill="#009CD7" d="M1201.5,283c0,0.3,0,0.7,0,1c0,1.3,1.1,2.6,2.5,2.5c1.4-0.1,2.5-1.1,2.5-2.5
		c0-0.3,0-0.7,0-1c0-1.3-1.1-2.6-2.5-2.5C1202.6,280.6,1201.5,281.6,1201.5,283L1201.5,283z"/>
</g>
<g id="XMLID_688_">
	<path id="XMLID_595_" fill="#009CD7" d="M1318,274.5c0.3,0,0.7,0,1,0c1.3,0,2.6-1.1,2.5-2.5c-0.1-1.4-1.1-2.5-2.5-2.5
		c-0.3,0-0.7,0-1,0c-1.3,0-2.6,1.1-2.5,2.5C1315.6,273.4,1316.6,274.5,1318,274.5L1318,274.5z"/>
</g>
<g id="XMLID_695_">
	<path id="XMLID_594_" fill="#009CD7" d="M1210.2,401.8c0.3,0.3,0.7,0.7,1,1c0.9,0.9,2.6,1,3.5,0c0.9-1,1-2.5,0-3.5
		c-0.3-0.3-0.7-0.7-1-1c-0.9-0.9-2.6-1-3.5,0C1209.3,399.2,1209.2,400.8,1210.2,401.8L1210.2,401.8z"/>
</g>
<g id="XMLID_702_">
	<path id="XMLID_593_" fill="#009CD7" d="M1040,381.5c0.3,0,0.7,0,1,0c1.3,0,2.6-1.1,2.5-2.5c-0.1-1.4-1.1-2.5-2.5-2.5
		c-0.3,0-0.7,0-1,0c-1.3,0-2.6,1.1-2.5,2.5C1037.6,380.4,1038.6,381.5,1040,381.5L1040,381.5z"/>
</g>
<g id="XMLID_709_">
	<path id="XMLID_592_" fill="#009CD7" d="M129.2,711.2c-0.3,0.3-0.7,0.7-1,1c-0.9,0.9-1,2.6,0,3.5c1,0.9,2.5,1,3.5,0
		c0.3-0.3,0.7-0.7,1-1c0.9-0.9,1-2.6,0-3.5C131.8,710.3,130.2,710.2,129.2,711.2L129.2,711.2z"/>
</g>
<g id="XMLID_716_">
	<path id="XMLID_591_" fill="#009CD7" d="M256,783.5c0.3,0,0.7,0,1,0c1.3,0,2.6-1.1,2.5-2.5c-0.1-1.4-1.1-2.5-2.5-2.5
		c-0.3,0-0.7,0-1,0c-1.3,0-2.6,1.1-2.5,2.5C253.6,782.4,254.6,783.5,256,783.5L256,783.5z"/>
</g>
<g id="XMLID_723_">
	<path id="XMLID_590_" fill="#009CD7" d="M189,827.5c3.2,0,3.2-5,0-5C185.8,822.5,185.8,827.5,189,827.5L189,827.5z"/>
</g>
<g id="XMLID_730_">
	<path id="XMLID_589_" fill="#009CD7" d="M148,808.5c3.2,0,3.2-5,0-5C144.8,803.5,144.8,808.5,148,808.5L148,808.5z"/>
</g>
<g id="XMLID_750_">
	<path id="XMLID_588_" fill="#009CD7" d="M375.5,839c0-0.3,0-0.7,0-1c0-1.3-1.1-2.6-2.5-2.5c-1.4,0.1-2.5,1.1-2.5,2.5
		c0,0.3,0,0.7,0,1c0,1.3,1.1,2.6,2.5,2.5C374.4,841.4,375.5,840.4,375.5,839L375.5,839z"/>
</g>
<g id="XMLID_786_">
	<path id="XMLID_585_" fill="#009CD7" d="M472,711.5c0.3,0,0.7,0,1,0c1.3,0,2.6-1.1,2.5-2.5c-0.1-1.4-1.1-2.5-2.5-2.5
		c-0.3,0-0.7,0-1,0c-1.3,0-2.6,1.1-2.5,2.5C469.6,710.4,470.6,711.5,472,711.5L472,711.5z"/>
</g>
<g id="XMLID_797_">
	<path id="XMLID_584_" fill="#009CD7" d="M578,654.5c0.3,0,0.7,0,1,0c1.3,0,2.6-1.1,2.5-2.5c-0.1-1.4-1.1-2.5-2.5-2.5
		c-0.3,0-0.7,0-1,0c-1.3,0-2.6,1.1-2.5,2.5C575.6,653.4,576.6,654.5,578,654.5L578,654.5z"/>
</g>
<g id="XMLID_804_">
	<path id="XMLID_583_" fill="#009CD7" d="M708,754.5c3.2,0,3.2-5,0-5C704.8,749.5,704.8,754.5,708,754.5L708,754.5z"/>
</g>
<g id="XMLID_813_">
	<path id="XMLID_582_" fill="#009CD7" d="M811,688.5c3.2,0,3.2-5,0-5C807.8,683.5,807.8,688.5,811,688.5L811,688.5z"/>
</g>
<g id="XMLID_822_">
	<path id="XMLID_581_" fill="#009CD7" d="M837.8,668.8c0.3-0.3,0.7-0.7,1-1c0.9-0.9,1-2.6,0-3.5c-1-0.9-2.5-1-3.5,0
		c-0.3,0.3-0.7,0.7-1,1c-0.9,0.9-1,2.6,0,3.5C835.2,669.7,836.8,669.8,837.8,668.8L837.8,668.8z"/>
</g>
<g id="XMLID_831_">
	<path id="XMLID_580_" fill="#009CD7" d="M550,744.5c3.2,0,3.2-5,0-5C546.8,739.5,546.8,744.5,550,744.5L550,744.5z"/>
</g>
<g id="XMLID_838_">
	<path id="XMLID_553_" fill="#009CD7" d="M718.5,809c0,0.3,0,0.7,0,1c0,1.3,1.1,2.6,2.5,2.5c1.4-0.1,2.5-1.1,2.5-2.5
		c0-0.3,0-0.7,0-1c0-1.3-1.1-2.6-2.5-2.5C719.6,806.6,718.5,807.6,718.5,809L718.5,809z"/>
</g>
<g id="XMLID_845_">
	<path id="XMLID_546_" fill="#009CD7" d="M939,736.5c3.2,0,3.2-5,0-5C935.8,731.5,935.8,736.5,939,736.5L939,736.5z"/>
</g>
<g id="XMLID_859_">
	<path id="XMLID_532_" fill="#009CD7" d="M957,659.5c3.2,0,3.2-5,0-5C953.8,654.5,953.8,659.5,957,659.5L957,659.5z"/>
</g>
<g id="XMLID_866_">
	<path id="XMLID_515_" fill="#009CD7" d="M1108,656.5c3.2,0,3.2-5,0-5C1104.8,651.5,1104.8,656.5,1108,656.5L1108,656.5z"/>
</g>
<g id="XMLID_873_">
	<path id="XMLID_514_" fill="#009CD7" d="M920,641.5c3.2,0,3.2-5,0-5C916.8,636.5,916.8,641.5,920,641.5L920,641.5z"/>
</g>
<g id="XMLID_880_">
	<path id="XMLID_513_" fill="#009CD7" d="M1230,639.5c3.2,0,3.2-5,0-5C1226.8,634.5,1226.8,639.5,1230,639.5L1230,639.5z"/>
</g>
<g id="XMLID_887_">
	<path id="XMLID_512_" fill="#009CD7" d="M1267,607.5c3.2,0,3.2-5,0-5C1263.8,602.5,1263.8,607.5,1267,607.5L1267,607.5z"/>
</g>
<g id="XMLID_894_">
	<path id="XMLID_504_" fill="#009CD7" d="M1260,694.5c3.2,0,3.2-5,0-5C1256.8,689.5,1256.8,694.5,1260,694.5L1260,694.5z"/>
</g>
<g id="XMLID_908_">
	<path id="XMLID_4_" fill="#009CD7" d="M1148.8,840.8c0.3-0.3,0.7-0.7,1-1c0.9-0.9,1-2.6,0-3.5c-1-0.9-2.5-1-3.5,0
		c-0.3,0.3-0.7,0.7-1,1c-0.9,0.9-1,2.6,0,3.5C1146.2,841.7,1147.8,841.8,1148.8,840.8L1148.8,840.8z"/>
</g>
</svg>
