<?xml version="1.0" encoding="UTF-8" standalone="no"?>
<!-- Generator: Adobe Illustrator 19.0.0, SVG Export Plug-In . SVG Version: 6.00 Build 0)  -->

<svg
   version="1.0"
   id="Layer_1"
   x="0px"
   y="0px"
   width="391.92285"
   height="349.79999"
   viewBox="0 0 391.92285 349.79999"
   enable-background="new 0 0 1400 980"
   xml:space="preserve"
   sodipodi:docname="seaweed01.svg"
   inkscape:version="1.1.1 (3bf5ae0d25, 2021-09-20)"
   xmlns:inkscape="http://www.inkscape.org/namespaces/inkscape"
   xmlns:sodipodi="http://sodipodi.sourceforge.net/DTD/sodipodi-0.dtd"
   xmlns="http://www.w3.org/2000/svg"
   xmlns:svg="http://www.w3.org/2000/svg"><defs
   id="defs277">
	
	
	
	
	
	
	
	
	
	

	
	
	
	
	
	
	
	
	
	
	
	
	
	
	
	
	
</defs><sodipodi:namedview
   id="namedview275"
   pagecolor="#ffffff"
   bordercolor="#666666"
   borderopacity="1.0"
   inkscape:pageshadow="2"
   inkscape:pageopacity="0.0"
   inkscape:pagecheckerboard="0"
   showgrid="false"
   inkscape:zoom="1.1158969"
   inkscape:cx="234.34064"
   inkscape:cy="188.63749"
   inkscape:window-width="1920"
   inkscape:window-height="1017"
   inkscape:window-x="-8"
   inkscape:window-y="-8"
   inkscape:window-maximized="1"
   inkscape:current-layer="Layer_1" />

<rect
   style="fill:#205160;fill-opacity:1"
   id="rect8105"
   width="643.42859"
   height="506.31915"
   x="-135.31715"
   y="431.0434" /><path
   id="XMLID_739_"
   fill="#a4d7ef"
   d="m 176.61749,191.8 c 5.3,-8 8.8,-17.1 9.9,-26.7 0.6,-5.2 -0.2,-10.1 -5.5,-12.2 -2,-0.8 -3.9,-0.9 -5.8,-0.6 5.9,-8.7 9.5,-19 9.7,-29.5 0.1,-5.5 -1.3,-10.9 -6.8,-13.1 -3.8,-1.5 -7.5,-0.9 -11,0.6 4.1,-9.6 6.9,-20.1 3.5,-30.2 -1.4,-4.2 -4.3,-7.9 -9,-8.3 -2.5,-0.2 -4.8,0.7 -6.8,2 2.1,-9.8 2.8,-21 -1.3,-29.4 -2.4,-5 -8.7,-8.2 -13.5,-6.6 0,-2.8 -0.3,-5.5 -1.4,-8.5 -1.6,-4.3 -4,-8.7 -7.8,-11.5 -3,-2.2 -6.8,-2.7 -10.3,-1.4 -1.7,0.6 -3.4,1.5 -4.8,2.8 -1,0.9 -2.3,3.5 -3.3,3.3 -0.8,-0.2 -2.7,-3.4 -3.4,-4.1 -1.5,-1.6 -3.2,-3.1 -5,-4.3 -3.4,-2.4 -7.499997,-4 -11.699997,-4.1 -6.1,0 -12.2,3.1 -14.8,8.6 -6.8,-4.2 -15,-7.6 -22.8,-4.3 -5.8,2.4 -10,8.2 -9.3,14.3 -7.6,2.3 -15.7,5.1 -20.6,11.6 -4.1,5.4 -5.6,12.6 -2.7,18.7 -9,7.8 -11.6,21.4 -5.5,31.8 -10.4,11.8 -8.3,29.7 4.6,38.8 -2.1,6.9 -1.2,14.9 4.4,20 5.1,4.6 13,5.3 18.6,1.3 0.1,-0.1 0.1,-0.1 0.2,-0.2 6.2,9.2 14.4,16.8 25.3,19.6 3.1,0.8 4.4,-4 1.3,-4.8 -17.7,-4.7 -27.5,-23.5 -33,-39.5 -6.2,-18 -8.1,-38 -2,-56.3 5.2,-15.5 16.7,-30.3 33,-34.7 16.4,-4.5 33.499997,2.9 45.599997,13.9 28.3,25.9 32.3,70.4 34.9,106.3 2.4,33.8 1.8,67.7 1.5,101.5 -0.3,30.3 -0.4,60.5 -1.5,90.8 -0.1,3.2 4.9,3.2 5,0 1,-28.1 1.2,-56.2 1.4,-84.4 0.1,-0.2 0.2,-0.4 0.3,-0.7 4.1,-18.2 20,-30 28.7,-45.8 3.2,-5.9 7.2,-14.9 2.3,-21 -3,-3.9 -6.8,-4.5 -10.6,-3.7 z"
   style="fill:#0ac49c;fill-opacity:1" /><path
   id="XMLID_742_"
   fill="#a4d7ef"
   d="m 351.51749,189.1 c 0.2,-6.5 -3.1,-12.1 -7,-17.1 6.9,-3 9.9,-12 6,-19 -5,-8.9 -14.8,-10.5 -24.1,-9.5 1.3,-2 2.3,-4.2 2.4,-6.7 0.1,-4.2 -2.1,-8.1 -6.2,-9.3 -7.3,-2.2 -15.7,-0.1 -22.8,3.6 0.5,-2.2 0.5,-4.5 -0.5,-6.8 -1.9,-4.3 -5.9,-5.6 -10.4,-4.6 -8.8,1.9 -16.6,7.8 -21.9,15.1 -0.3,-3.7 -0.9,-7.2 -5.3,-9.2 -4.7,-2.2 -10,-0.5 -13.8,2.7 -8.2,7.2 -12.5,19.1 -14,30.5 -0.9,-1.1 -2,-2.1 -3.4,-2.7 -4.6,-2.3 -9.8,-0.5 -13.1,3.2 -4.1,4.6 -4.4,11.2 -4.4,17.1 0,6.5 0.6,12.9 1.7,19.3 -4.7,-2.3 -9.7,-2.1 -13.6,3.2 -5.5,7.6 -1.6,18.4 1.6,26.1 3.9,9.4 9.5,18.1 13.4,27.6 3.9,9.4 7.1,19.6 8.3,29.7 -1.1,21.5 -1.4,43.2 0.1,64.6 0.2,3.2 5.2,3.2 5,0 -1.4,-19.9 -1,-40 -0.2,-60 0,-1.2 0.1,-2.4 0.1,-3.6 0,-0.2 0.1,-0.5 0,-0.7 0.8,-20 2.1,-40.1 5.4,-59.8 4,-24.2 12.5,-51.2 35.1,-64.2 21.2,-12.3 51.5,-3.3 59.2,21.2 3.9,12.3 1,26.4 -7,36.5 -7.5,9.4 -24.2,17.9 -34.3,7.2 -2.2,-2.3 -5.7,1.2 -3.5,3.5 4.7,5 11.2,6.6 17.6,6.1 0,0.2 0.1,0.3 0.2,0.5 6.1,12.7 23.9,11.3 28.5,-1.2 5.8,0.9 11.5,-2.5 14.6,-7.6 4.2,-7.1 2.2,-15.7 -0.5,-23.1 4.2,-2.7 6.6,-7.3 6.8,-12.6 z"
   style="fill:#0ac49c;fill-opacity:1" />
<path
   id="XMLID_11_"
   fill="#009cd7"
   d="m 166.61749,181.8 c 5.3,-8 8.8,-17.1 9.9,-26.7 0.6,-5.2 -0.2,-10.1 -5.5,-12.2 -2,-0.8 -3.9,-0.9 -5.8,-0.6 5.9,-8.7 9.5,-19 9.7,-29.5 0.1,-5.5 -1.3,-10.9 -6.8,-13.1 -3.8,-1.5 -7.5,-0.9 -11,0.6 4.1,-9.6 6.9,-20.1 3.5,-30.2 -1.4,-4.2 -4.3,-7.9 -9,-8.3 -2.5,-0.2 -4.8,0.7 -6.8,2 2.1,-9.8 2.8,-21 -1.3,-29.4 -2.4,-5 -8.7,-8.2 -13.5,-6.6 0,-2.8 -0.3,-5.5 -1.4,-8.5 -1.6,-4.3 -4,-8.7 -7.8,-11.5 -3,-2.2 -6.8,-2.7 -10.3,-1.4 -1.7,0.6 -3.4,1.5 -4.8,2.8 -1,0.9 -2.3,3.5 -3.3,3.3 -0.8,-0.2 -2.699997,-3.4 -3.399997,-4.1 -1.5,-1.6 -3.2,-3.1 -5,-4.3 -3.4,-2.4 -7.5,-4 -11.7,-4.1 -6.1,0 -12.2,3.1 -14.8,8.6 -6.8,-4.2 -15,-7.6 -22.8,-4.3 -5.8,2.4 -10,8.2 -9.3,14.3 -7.6,2.3 -15.7,5.1 -20.6,11.6 -4.1,5.4 -5.6,12.6 -2.7,18.7 -9,7.8 -11.60000002,21.4 -5.5,31.8 -10.4,11.8 -8.3,29.7 4.6,38.8 -2.1,6.9 -1.2,14.9 4.4,20 5.1,4.6 13,5.3 18.6,1.3 0.1,-0.1 0.1,-0.1 0.2,-0.2 6.2,9.2 14.4,16.8 25.3,19.6 3.1,0.8 4.4,-4 1.3,-4.8 -17.7,-4.7 -27.5,-23.5 -33,-39.5 -6.2,-18 -8.1,-38 -2,-56.3 5.2,-15.5 16.7,-30.3 33,-34.7 16.4,-4.5 33.5,2.9 45.599997,13.9 28.3,25.9 32.3,70.4 34.9,106.3 2.4,33.8 1.8,67.7 1.5,101.5 -0.3,30.3 -0.4,60.5 -1.5,90.8 -0.1,3.2 4.9,3.2 5,0 1,-28.1 1.2,-56.2 1.4,-84.4 0.1,-0.2 0.2,-0.4 0.3,-0.7 4.1,-18.2 20,-30 28.7,-45.8 3.2,-5.9 7.2,-14.9 2.3,-21 -3,-3.9 -6.8,-4.5 -10.6,-3.7 z m 6.3,16.5 c -2.7,7 -7.4,13.1 -12,18.9 -5.3,6.8 -11,13.4 -15,21 0.4,-34.8 0.7,-69.6 -2.4,-104.3 -3.4,-36.8 -9.8,-80.9 -41.8,-104.4 C 88.817493,20.1 71.917493,15 56.317493,19.9 c -15.6,4.8 -27.1,18.2 -33.2,32.9 -8.6,20.5 -6.8,44.1 0.4,64.7 2.1,6.1 4.9,12.4 8.3,18.3 0,0 -0.1,0 -0.1,0.1 -4.3,3.1 -10.2,2.4 -13.7,-1.7 -3.8,-4.4 -3.4,-10.5 -1.4,-15.6 0.4,-1 -0.3,-2.3 -1.1,-2.8 -12.3,-7.3 -14.1,-23.5 -3.9,-33.5 0.7,-0.7 1,-2.1 0.4,-3 -6.1,-8.9 -4.3,-21.7 4.7,-28 1.1,-0.7 1.7,-2.2 0.9,-3.4 -3.8,-5.8 -1.3,-13 3.5,-17.4 5,-4.5 11.7,-6.3 18,-8.2 1.3,-0.4 2.2,-1.8 1.7,-3.1 -2,-6.3 4.2,-11.6 10.1,-11.7 6.2,-0.1 11.8,3.3 16.8,6.6 1.3,0.8 3.4,0 3.7,-1.5 1.6,-8.1 11.3,-9.6 17.7,-6.3 3.5,1.8 6,4.6 8.5,7.5 1.3,1.5 2.3,3 4.399997,3.5 6.1,1.4 6.9,-8.7 14,-6.9 4.5,1.1 7.4,7.6 8.5,11.5 1.2,3.9 0.6,7.3 0.4,11.3 -0.2,2.4 3.6,3.5 4.7,1.3 1.7,-3.4 6,-2.9 8.3,-0.4 2.8,3 3.1,8.3 3.3,12.1 0.4,8.3 -0.7,16.4 -3.1,24.3 -0.7,2.3 2.5,4.3 4.2,2.4 2.7,-3.2 8.6,-9.6 12.6,-4.2 2.3,3.1 2.5,8.1 2.4,11.7 -0.2,8.6 -3.8,16.7 -7.6,24.2 -1.1,2.1 1.2,4.9 3.4,3.4 4.3,-2.8 11.4,-7.3 15.5,-2 3,3.9 1.4,11.1 0.4,15.5 -2.2,9.7 -7.1,18.4 -14,25.5 -1.9,2 0.6,5.6 3,3.9 3.9,-2.6 13.3,-7.9 14,0.7 0.4,3.9 -1.1,8.5 -2.2,12.2 -2.6,8.6 -7.1,16.3 -13.2,22.8 -1.8,2 0.6,5.6 3,3.9 2.8,-2 6.6,-4.7 10.3,-4.3 6,0.9 4.5,8.2 3,12.1 z"
   style="fill:#8ee9d2;fill-opacity:1" /><path
   id="XMLID_30_"
   fill="#009cd7"
   d="m 341.51749,179.1 c 0.2,-6.5 -3.1,-12.1 -7,-17.1 6.9,-3 9.9,-12 6,-19 -5,-8.9 -14.8,-10.5 -24.1,-9.5 1.3,-2 2.3,-4.2 2.4,-6.7 0.1,-4.2 -2.1,-8.1 -6.2,-9.3 -7.3,-2.2 -15.7,-0.1 -22.8,3.6 0.5,-2.2 0.5,-4.5 -0.5,-6.8 -1.9,-4.3 -5.9,-5.6 -10.4,-4.6 -8.8,1.9 -16.6,7.8 -21.9,15.1 -0.3,-3.7 -0.9,-7.2 -5.3,-9.2 -4.7,-2.2 -10,-0.5 -13.8,2.7 -8.2,7.2 -12.5,19.1 -14,30.5 -0.9,-1.1 -2,-2.1 -3.4,-2.7 -4.6,-2.3 -9.8,-0.5 -13.1,3.2 -4.1,4.6 -4.4,11.2 -4.4,17.1 0,6.5 0.6,12.9 1.7,19.3 -4.7,-2.3 -9.7,-2.1 -13.6,3.2 -5.5,7.6 -1.6,18.4 1.6,26.1 3.9,9.4 9.5,18.1 13.4,27.6 3.9,9.4 7.1,19.6 8.3,29.7 -1.1,21.5 -1.4,43.2 0.1,64.6 0.2,3.2 5.2,3.2 5,0 -1.4,-19.9 -1,-40 -0.2,-60 0,-1.2 0.1,-2.4 0.1,-3.6 0,-0.2 0.1,-0.5 0,-0.7 0.8,-20 2.1,-40.1 5.4,-59.8 4,-24.2 12.5,-51.2 35.1,-64.2 21.2,-12.3 51.5,-3.3 59.2,21.2 3.9,12.3 1,26.4 -7,36.5 -7.5,9.4 -24.2,17.9 -34.3,7.2 -2.2,-2.3 -5.7,1.2 -3.5,3.5 4.7,5 11.2,6.6 17.6,6.1 0,0.2 0.1,0.3 0.2,0.5 6.1,12.7 23.9,11.3 28.5,-1.2 5.8,0.9 11.5,-2.5 14.6,-7.6 4.2,-7.1 2.2,-15.7 -0.5,-23.1 4.2,-2.7 6.6,-7.3 6.8,-12.6 z m -10.7,9.1 c -1.2,0.5 -2.3,1.7 -1.7,3.1 2.1,5.5 4.4,11.7 3,17.7 -1.4,5.6 -6.8,10.2 -12.7,8 -1.2,-0.5 -2.8,0.5 -3.1,1.7 -2.1,10.1 -14.3,11.9 -19.4,3.6 2.7,-0.7 5.4,-1.8 7.8,-3.1 10.3,-5.7 17.4,-16.9 19.9,-28.3 5.4,-25.1 -12.1,-48.6 -37.2,-52.5 -28.7,-4.5 -50.5,19.3 -59.9,43.9 -8.6,22.7 -10.6,47.7 -12.2,71.7 -2.4,-7.8 -5.5,-15.3 -9.1,-22.5 -3.7,-7.4 -8,-14.6 -10.7,-22.4 -1.5,-4.2 -3,-9.1 -2.1,-13.6 0.6,-2.6 2.3,-5.5 5.1,-6.1 3.3,-0.7 5.7,1.8 7.9,3.9 1.9,1.8 4.7,0 4.2,-2.4 -2.2,-9.7 -3.7,-20.4 -2.5,-30.4 0.5,-4.3 3.4,-11.6 9.2,-9.9 4.1,1.2 5.1,6.9 5.9,10.5 0.6,2.8 5,2.1 4.9,-0.7 -0.3,-11.1 2.3,-21.9 8,-31.5 2.4,-4.1 6.1,-9.6 11.5,-8.9 6.3,0.8 4,9.1 5.2,13.5 0.5,1.9 3.6,2.6 4.6,0.6 3,-6.5 7.6,-12 13.9,-15.7 2.5,-1.5 7.3,-4.3 10.4,-3.9 7.6,1.1 0.8,10.6 -1,13 -1.8,2.4 1.9,4.7 3.9,3 5.6,-4.6 12.5,-7.6 19.8,-8.2 3.7,-0.3 9.4,-0.7 9.3,4.8 -0.1,3.5 -3.5,6.5 -5.9,8.7 -1.8,1.8 0.1,4.8 2.4,4.2 7.4,-1.9 16.3,-3.3 22.7,2.1 5.4,4.5 6,15.8 -3.1,16.2 -2.2,0.1 -3.2,2.6 -1.8,4.3 5.4,5.7 14.8,20.7 2.8,25.6 z"
   style="fill:#8ee9d2;fill-opacity:1" />














<g
   id="XMLID_652_"
   transform="translate(-929.58257,-101.6)"
   style="fill:#8ee9d2;fill-opacity:1">
	<path
   id="XMLID_600_"
   fill="#009cd7"
   d="m 1051,296.5 c 0.3,0 0.7,0 1,0 1.3,0 2.6,-1.1 2.5,-2.5 -0.1,-1.4 -1.1,-2.5 -2.5,-2.5 -0.3,0 -0.7,0 -1,0 -1.3,0 -2.6,1.1 -2.5,2.5 0.1,1.4 1.1,2.5 2.5,2.5 z"
   style="fill:#8ee9d2;fill-opacity:1" />
</g>
<g
   id="XMLID_660_"
   transform="translate(-929.58257,-101.6)"
   style="fill:#8ee9d2;fill-opacity:1">
	<path
   id="XMLID_599_"
   fill="#009cd7"
   d="m 1044.8,254.8 c 0.3,-0.3 0.7,-0.7 1,-1 0.9,-0.9 1,-2.6 0,-3.5 -1,-0.9 -2.5,-1 -3.5,0 -0.3,0.3 -0.7,0.7 -1,1 -0.9,0.9 -1,2.6 0,3.5 0.9,0.9 2.5,1 3.5,0 z"
   style="fill:#8ee9d2;fill-opacity:1" />
</g>
<g
   id="XMLID_667_"
   transform="translate(-929.58257,-101.6)"
   style="fill:#8ee9d2;fill-opacity:1">
	<path
   id="XMLID_598_"
   fill="#009cd7"
   d="m 991,232.5 c 3.2,0 3.2,-5 0,-5 -3.2,0 -3.2,5 0,5 z"
   style="fill:#8ee9d2;fill-opacity:1" />
</g>
<g
   id="XMLID_674_"
   transform="translate(-929.58257,-101.6)"
   style="fill:#8ee9d2;fill-opacity:1">
	<path
   id="XMLID_597_"
   fill="#009cd7"
   d="m 1166,212.5 c 3.2,0 3.2,-5 0,-5 -3.2,0 -3.2,5 0,5 z"
   style="fill:#8ee9d2;fill-opacity:1" />
</g>
<g
   id="XMLID_681_"
   transform="translate(-929.58257,-101.6)"
   style="fill:#8ee9d2;fill-opacity:1">
	<path
   id="XMLID_596_"
   fill="#009cd7"
   d="m 1201.5,283 c 0,0.3 0,0.7 0,1 0,1.3 1.1,2.6 2.5,2.5 1.4,-0.1 2.5,-1.1 2.5,-2.5 0,-0.3 0,-0.7 0,-1 0,-1.3 -1.1,-2.6 -2.5,-2.5 -1.4,0.1 -2.5,1.1 -2.5,2.5 z"
   style="fill:#8ee9d2;fill-opacity:1" />
</g>
<g
   id="XMLID_688_"
   transform="translate(-929.58257,-101.6)"
   style="fill:#8ee9d2;fill-opacity:1">
	<path
   id="XMLID_595_"
   fill="#009cd7"
   d="m 1318,274.5 c 0.3,0 0.7,0 1,0 1.3,0 2.6,-1.1 2.5,-2.5 -0.1,-1.4 -1.1,-2.5 -2.5,-2.5 -0.3,0 -0.7,0 -1,0 -1.3,0 -2.6,1.1 -2.5,2.5 0.1,1.4 1.1,2.5 2.5,2.5 z"
   style="fill:#8ee9d2;fill-opacity:1" />
</g>
<g
   id="XMLID_695_"
   transform="translate(-929.58257,-101.6)"
   style="fill:#8ee9d2;fill-opacity:1">
	<path
   id="XMLID_594_"
   fill="#009cd7"
   d="m 1210.2,401.8 c 0.3,0.3 0.7,0.7 1,1 0.9,0.9 2.6,1 3.5,0 0.9,-1 1,-2.5 0,-3.5 -0.3,-0.3 -0.7,-0.7 -1,-1 -0.9,-0.9 -2.6,-1 -3.5,0 -0.9,0.9 -1,2.5 0,3.5 z"
   style="fill:#8ee9d2;fill-opacity:1" />
</g>
<g
   id="XMLID_702_"
   transform="translate(-929.58257,-101.6)"
   style="fill:#8ee9d2;fill-opacity:1">
	<path
   id="XMLID_593_"
   fill="#009cd7"
   d="m 1040,381.5 c 0.3,0 0.7,0 1,0 1.3,0 2.6,-1.1 2.5,-2.5 -0.1,-1.4 -1.1,-2.5 -2.5,-2.5 -0.3,0 -0.7,0 -1,0 -1.3,0 -2.6,1.1 -2.5,2.5 0.1,1.4 1.1,2.5 2.5,2.5 z"
   style="fill:#8ee9d2;fill-opacity:1" />
</g>




















</svg>
